<svg width="50" height="700" viewBox="0 0 51 707" fill="none" xmlns="http://www.w3.org/2000/svg">
<path d="M0.290009 194.26V0.320007M0.290009 194.26L0.896047 194.462L1.40098 194.765L1.90621 194.967L2.51225 195.169L3.52211 195.573L4.02735 195.674L4.43147 195.876L5.44133 196.28L5.84546 196.381L6.3507 196.583L6.85563 196.684L7.25976 196.886L7.66358 196.987L8.16881 197.189L8.97676 197.492L9.78502 197.694L10.6941 197.998L11.502 198.199L12.2092 198.401L13.0171 198.604L13.7243 198.806L14.5325 199.007L15.2394 199.109L15.9465 199.31L18.0676 199.613L18.7748 199.816H19.3808L20.7951 200.018L21.4012 200.119H22.1083L22.7143 200.22H27.9668L28.5728 200.119H29.28L29.886 200.018L30.5932 199.916L31.1992 199.816H31.9063L32.6132 199.613L34.7346 199.31L35.4415 199.109L36.1486 199.007L36.8558 198.806L37.6637 198.604L38.3708 198.401L39.9871 197.998L40.795 197.694L41.6033 197.492L42.5123 197.189L42.9164 196.987L43.4214 196.886L43.8255 196.684L44.3304 196.583L44.7346 196.381L45.2395 196.28L45.7447 196.078L46.1485 195.876L46.6538 195.674L47.1587 195.573L48.6738 194.967L49.2802 194.765L49.7851 194.462L50.29 194.26M0.290009 194.26V200.22L5.34053 203.149M50.29 0.320007V194.26M50.29 194.26V200.22L45.3406 203.149M45.3406 697.191H5.34053M45.3406 697.191L50.29 700.121V706.08L49.2802 705.676L48.6738 705.474L46.1485 704.464L45.7447 704.262L45.2395 704.161L44.7346 703.959L44.3304 703.757L43.8255 703.656L43.4214 703.454L42.9164 703.353L42.5123 703.151L41.6033 702.949L40.795 702.646L39.9871 702.444L39.1791 702.141L38.3708 701.939L37.6637 701.737L36.8558 701.535L36.1486 701.434L35.4415 701.232L34.7346 701.131L34.0275 700.929L31.1992 700.525L30.5932 700.424L29.886 700.322H29.28L28.5728 700.221H27.9668L27.2596 700.121H23.4212L22.7143 700.221H22.1083L21.4012 700.322H20.7951L19.3808 700.525L18.7748 700.625L16.6537 700.929L15.9465 701.131L15.2394 701.232L14.5325 701.434L13.7243 701.535L13.0171 701.737L12.2092 701.939L11.502 702.141L10.6941 702.444L9.78502 702.646L8.97676 702.949L8.16881 703.151L7.66358 703.353L7.25976 703.454L6.85563 703.656L6.3507 703.757L5.84546 703.959L5.44133 704.161L4.9364 704.262L4.43147 704.464L4.02735 704.666L2.51225 705.272L1.90621 705.474L0.896047 705.878L0.290009 706.08V700.121L5.34053 697.191M45.3406 697.191V687.191M5.34053 697.191V687.191M45.3406 687.191H5.34053M45.3406 687.191L37.8659 682.949M5.34053 687.191L12.8152 682.949M37.8659 682.949H12.8152M37.8659 682.949V678.908M12.8152 682.949V678.908M37.8659 678.908H12.8152M37.8659 678.908L43.8255 674.06L47.1587 667.09V659.312L43.8255 652.342L37.8659 647.494M12.8152 678.908L6.85563 674.06L3.52211 667.09V659.312L6.85563 652.342L12.8152 647.494M37.8659 647.494H12.8152M37.8659 647.494V643.454M12.8152 647.494V643.454M37.8659 643.454H12.8152M37.8659 643.454L46.3508 639.312M12.8152 643.454L4.33037 639.312M46.3508 639.312H4.33037M46.3508 639.312V637.292M4.33037 639.312V637.292M46.3508 637.292H4.33037M46.3508 637.292L43.7244 635.777L39.4821 632.14L36.8558 627.191L36.2497 621.635L48.27 475.17L47.4617 468.403L44.0274 462.544L38.5728 458.403M4.33037 637.292L6.95674 635.777L11.199 632.14L13.7243 627.191L14.3303 621.635L2.31003 475.17L3.21909 468.403L6.65372 462.544L12.1081 458.403M38.5728 458.403H12.1081M38.5728 458.403V454.362M12.1081 458.403V454.362M38.5728 454.362H12.1081M38.5728 454.362L36.5527 451.837V448.605L38.5728 445.978M12.1081 454.362L14.0273 451.837V448.605L12.1081 445.978M38.5728 445.978H12.1081M38.5728 445.978V442.039M12.1081 445.978V442.039M38.5728 442.039H12.1081M38.5728 442.039L44.0274 437.796L47.4617 431.938L48.27 425.17L36.2497 278.806L36.8558 273.149L39.4821 268.2L43.7244 264.563L46.3508 263.048M12.1081 442.039L6.65372 437.796L3.21909 431.938L2.31003 425.17L14.3303 278.806L13.7243 273.149L11.199 268.2L6.95674 264.563L4.33037 263.048M46.3508 263.048H4.33037M46.3508 263.048V261.028M4.33037 263.048V261.028M46.3508 261.028H4.33037M46.3508 261.028L37.8659 256.887M4.33037 261.028L12.8152 256.887M37.8659 256.887H12.8152M37.8659 256.887V252.846M12.8152 256.887V252.846M37.8659 252.846H12.8152M37.8659 252.846L43.8255 247.998L47.1587 241.028V233.351L43.8255 226.381L37.8659 221.432M12.8152 252.846L6.85563 247.998L3.52211 241.028V233.351L6.85563 226.381L12.8152 221.432M37.8659 221.432H12.8152M37.8659 221.432V217.493M12.8152 221.432V217.493M37.8659 217.493H12.8152M37.8659 217.493L45.3406 213.149M12.8152 217.493L5.34053 213.149M45.3406 213.149H5.34053M45.3406 213.149V203.149M5.34053 213.149V203.149M45.3406 203.149H5.34053" stroke="black" stroke-width="1"/>
</svg>
