<svg width="50" height="700" viewBox="0 0 52 707" fill="none" xmlns="http://www.w3.org/2000/svg">
<path d="M1.14001 194.26V0.320007M1.14001 194.26L1.64494 194.462L2.25098 194.765L4.27131 195.573L4.77624 195.674L5.78641 196.078L6.19054 196.28L6.69547 196.381L7.2004 196.583L7.60452 196.684L8.10945 196.886L8.51358 196.987L8.91771 197.189L9.82677 197.492L10.6347 197.694L11.443 197.998L13.0592 198.401L13.7663 198.604L14.5743 198.806L15.2814 199.007L16.0894 199.109L16.7965 199.31L18.2105 199.513L18.8168 199.613L19.5237 199.816H20.2308L20.938 199.916L21.544 200.018L22.2512 200.119H22.8572L23.564 200.22H28.7157L29.4228 200.119H30.0289L30.736 200.018L31.342 199.916L32.0492 199.816H32.756L33.3621 199.613L35.4835 199.31L36.1904 199.109L36.8975 199.007L37.7058 198.806L38.4126 198.604L40.8371 197.998L41.645 197.694L42.4533 197.492L43.3623 197.189L43.7661 196.987L44.1703 196.886L44.6755 196.684L45.0793 196.583L45.5846 196.381L45.9884 196.28L47.5038 195.674L48.0087 195.573L50.029 194.765L50.534 194.462L51.14 194.26M1.14001 194.26V200.22L4.17021 202.038M51.14 0.320007V194.26M51.14 194.26V200.22L48.1098 202.038M46.0895 697.191H6.08943M46.0895 697.191L51.14 700.121V706.08L50.534 705.878L46.4936 704.262L45.9884 704.161L45.5846 703.959L45.0793 703.757L44.6755 703.656L44.1703 703.454L43.7661 703.353L43.3623 703.151L42.4533 702.949L41.645 702.646L40.8371 702.444L40.0288 702.141L38.4126 701.737L37.7058 701.535L36.8975 701.434L36.1904 701.232L35.4835 701.131L34.7764 700.929L33.3621 700.727L32.756 700.625L31.342 700.424L30.736 700.322H30.0289L29.4228 700.221H28.7157L28.1096 700.121H24.1704L23.564 700.221H22.8572L22.2512 700.322H21.544L20.938 700.424L18.8168 700.727L18.2105 700.828L17.5037 700.929L16.7965 701.131L16.0894 701.232L15.2814 701.434L14.5743 701.535L13.7663 701.737L13.0592 701.939L12.2509 702.141L11.443 702.444L10.6347 702.646L9.82677 702.949L8.91771 703.151L8.51358 703.353L8.10945 703.454L7.60452 703.656L7.2004 703.757L6.19054 704.161L5.78641 704.262L2.25098 705.676L1.64494 705.878L1.14001 706.08V700.121L6.08943 697.191M46.0895 697.191V687.191M6.08943 697.191V687.191M46.0895 687.191H6.08943M46.0895 687.191L38.6148 682.949M6.08943 687.191L13.6652 682.949M38.6148 682.949H13.6652M38.6148 682.949V678.908M13.6652 682.949V678.908M38.6148 678.908H13.6652M38.6148 678.908L36.7967 677.595L36.0896 675.373L36.7967 673.252L38.6148 671.939M13.6652 678.908L15.4833 677.595L16.0894 675.373L15.4833 673.252L13.6652 671.939M38.6148 671.939H13.6652M38.6148 671.939V667.898M13.6652 671.939V667.898M38.6148 667.898H13.6652M38.6148 667.898L44.6755 663.05L48.0087 656.08V648.302L44.6755 641.332L38.6148 636.484M13.6652 667.898L7.60452 663.05L4.27131 656.08V648.302L7.60452 641.332L13.6652 636.484M38.6148 636.484H13.6652M38.6148 636.484V632.545M13.6652 636.484V632.545M38.6148 632.545H13.6652M38.6148 632.545L36.7967 631.13L36.0896 629.009L36.7967 626.888L38.6148 625.474M13.6652 632.545L15.4833 631.13L16.0894 629.009L15.4833 626.888L13.6652 625.474M38.6148 625.474H13.6652M38.6148 625.474V621.534M13.6652 625.474V621.534M38.6148 621.534H13.6652M38.6148 621.534L43.0593 618.908L44.8774 613.959L43.0593 609.11L38.6148 606.484M13.6652 621.534L9.22073 618.908L7.40261 613.959L9.22073 609.11L13.6652 606.484M38.6148 606.484H13.6652M38.6148 606.484V602.544M13.6652 606.484V602.544M38.6148 602.544H13.6652M38.6148 602.544L36.7967 601.13L36.0896 599.009L36.7967 596.888L38.6148 595.474M13.6652 602.544L15.4833 601.13L16.0894 599.009L15.4833 596.888L13.6652 595.474M38.6148 595.474H13.6652M38.6148 595.474V591.534M13.6652 595.474V591.534M38.6148 591.534H13.6652M38.6148 591.534L43.7661 587.595L47.2008 582.14L48.4128 575.777L38.6148 288.705L39.4228 283.351L42.0491 278.705L46.1906 275.169L51.14 272.341M13.6652 591.534L8.51358 587.595L5.07926 582.14L3.86719 575.777L13.5641 288.705L12.857 283.351L10.2309 278.705L6.08943 275.169L1.14001 272.341M38.6148 263.149H13.6652M38.6148 263.149L45.6854 265.27L51.14 270.321M38.6148 263.149L41.5442 237.189L48.1098 212.038M13.6652 263.149L6.59436 265.27L1.14001 270.321M13.6652 263.149L10.7358 237.189L4.17021 212.038M48.1098 212.038H4.17021M48.1098 212.038V202.038M4.17021 212.038V202.038M48.1098 202.038H4.17021M51.14 270.321H1.14001M51.14 270.321V272.341M1.14001 270.321V272.341M51.14 272.341H1.14001" stroke="black" stroke-width="1"/>
</svg>
