<svg width="50" height="700" viewBox="0 0 52 708" fill="none" xmlns="http://www.w3.org/2000/svg">
<path d="M0.98999 194.652V0.320007M0.98999 194.652L1.49625 194.854L2.0022 195.158L2.60946 195.36L4.12762 195.968L4.63387 196.069L5.03882 196.271L6.05072 196.676L6.55697 196.777L6.96161 196.98L7.46787 197.081L7.87281 197.283L8.27745 197.385L8.78371 197.587L9.59329 197.891L10.5042 198.093L11.3141 198.397L12.1236 198.599L12.8322 198.802L14.4517 199.206L15.1603 199.409L15.8685 199.51L16.5771 199.712L18.7025 200.016L19.4111 200.219H20.1197L20.7269 200.32L21.4355 200.421L22.0428 200.522H22.7514L23.3586 200.623H28.6217L29.2289 200.522H29.9375L30.5448 200.421L31.2533 200.32L31.8606 200.219H32.5689L33.2774 200.016L35.4032 199.712L36.1114 199.51L36.82 199.409L37.5286 199.206L39.1481 198.802L39.8563 198.599L40.6662 198.397L41.4758 198.093L42.3867 197.891L43.1966 197.587L43.6015 197.385L44.1075 197.283L44.5124 197.081L45.0184 196.98L45.4233 196.777L45.9293 196.676L46.4355 196.474L46.8402 196.271L47.3464 196.069L47.8524 195.968L49.3705 195.36L49.9778 195.158L50.484 194.854L50.99 194.652M0.98999 194.652V200.623L5.94971 203.559M50.99 0.320007V194.652M50.99 194.652V200.623L46.0306 203.559M46.0306 688.579H5.94971M46.0306 688.579V698.599M46.0306 688.579L38.5408 684.328M5.94971 688.579V698.599M5.94971 688.579L13.4395 684.328M38.5408 684.328H13.4395M38.5408 684.328V674.308M13.4395 684.328V674.308M38.5408 674.308H13.4395M38.5408 674.308L42.0831 672.789L43.5002 669.247L42.0831 665.704L38.5408 664.287M13.4395 674.308L9.89692 672.789L8.48008 669.247L9.89692 665.704L13.4395 664.287M38.5408 664.287H13.4395M38.5408 664.287L45.2207 621.979L49.3705 579.368L50.99 536.554L49.3705 530.279L44.8161 525.725L38.5408 524.004M13.4395 664.287L6.75929 621.979L2.60946 579.368L0.98999 536.554L2.60946 530.279L7.16424 525.725L13.4395 524.004M38.5408 524.004H13.4395M38.5408 524.004V521.474M13.4395 524.004V521.474M38.5408 521.474H13.4395M38.5408 521.474L42.0831 520.057L43.5002 516.514L42.0831 512.972L38.5408 511.453M13.4395 521.474L9.89692 520.057L8.48008 516.514L9.89692 512.972L13.4395 511.453M38.5408 511.453H13.4395M38.5408 511.453V509.024M13.4395 511.453V509.024M38.5408 509.024H13.4395M38.5408 509.024L44.8161 507.304L49.3705 502.749L50.99 496.474L49.1682 450.725L44.4111 405.279L40.16 355.482L38.5408 305.482V272.992M13.4395 509.024L7.16424 507.304L2.60946 502.749L0.98999 496.474L2.81209 450.725L7.56918 405.279L11.82 355.482L13.4395 305.482V272.992M38.5408 272.992H13.4395M38.5408 272.992L41.4758 272.081L43.2979 269.551V266.413L41.4758 263.984L38.5408 262.972M13.4395 272.992L10.5042 272.081L8.68239 269.551V266.413L10.5042 263.984L13.4395 262.972M38.5408 262.972H13.4395M38.5408 262.972V258.012M13.4395 262.972V258.012M38.5408 258.012H13.4395M38.5408 258.012L44.4111 256.089L48.055 251.028V244.854L44.4111 239.895L38.5408 237.972M13.4395 258.012L7.56918 256.089L3.9253 251.028V244.854L7.56918 239.895L13.4395 237.972M38.5408 237.972H13.4395M38.5408 237.972V232.911M13.4395 237.972V232.911M38.5408 232.911H13.4395M38.5408 232.911L42.0831 231.494L43.5002 227.951L42.0831 224.409L38.5408 222.891M13.4395 232.911L9.89692 231.494L8.48008 227.951L9.89692 224.409L13.4395 222.891M38.5408 222.891H13.4395M38.5408 222.891V217.931M13.4395 222.891V217.931M38.5408 217.931H13.4395M38.5408 217.931L46.0306 213.579M13.4395 217.931L5.94971 213.579M46.0306 213.579H5.94971M46.0306 213.579V203.559M5.94971 213.579V203.559M46.0306 203.559H5.94971M46.0306 698.599H5.94971M46.0306 698.599L50.99 701.534V707.506L49.9778 707.101L49.3705 706.899L46.8402 705.886L46.4355 705.684L45.9293 705.583L45.4233 705.38L45.0184 705.178L44.5124 705.077L44.1075 704.874L43.6015 704.773L43.1966 704.571L42.3867 704.368L41.4758 704.065L40.6662 703.862L39.8563 703.558L39.1481 703.356L37.5286 702.951L36.82 702.85L36.1114 702.647L35.4032 702.546L34.6946 702.344L31.8606 701.939L31.2533 701.838L30.5448 701.737H29.9375L29.2289 701.635H28.6217L27.9131 701.534H24.0669L23.3586 701.635H22.7514L22.0428 701.737H21.4355L20.7269 701.838L20.1197 701.939L17.2857 702.344L16.5771 702.546L15.8685 702.647L15.1603 702.85L14.4517 702.951L12.8322 703.356L12.1236 703.558L11.3141 703.862L10.5042 704.065L9.59329 704.368L8.78371 704.571L8.27745 704.773L7.87281 704.874L7.46787 705.077L6.96161 705.178L6.55697 705.38L6.05072 705.583L5.54477 705.684L5.03882 705.886L4.63387 706.089L2.60946 706.899L2.0022 707.101L0.98999 707.506V701.534L5.94971 698.599" stroke="black" stroke-width="1"/>
</svg>
