<svg width="50" height="700" viewBox="0 0 52 718" fill="none" xmlns="http://www.w3.org/2000/svg">
<path d="M0.829987 179.916V0.320007M0.829987 179.916L1.43633 180.32L1.94126 180.623L2.95142 181.431L4.4665 182.34L4.97143 182.744L5.98159 183.35L6.38571 183.552L6.89064 183.855L7.29477 184.158L7.79969 184.461L8.20382 184.663L8.60794 184.966L9.11287 185.168L9.51699 185.37L9.92112 185.673L12.7494 187.087L13.5573 187.39L14.9716 187.996L15.7796 188.299L16.4867 188.602L18.6078 189.208L19.2139 189.41L19.921 189.612L20.6281 189.713L21.2342 189.814L21.9413 189.915L22.5474 190.016L23.2542 190.117L23.8602 190.218H27.7998L28.4058 190.117L29.1129 190.016L29.719 189.915L30.4261 189.814L31.0321 189.713L31.7393 189.612L32.4461 189.41L33.0522 189.208L35.1736 188.602L35.8804 188.299L36.6887 187.996L38.1026 187.39L38.9109 187.087L41.7392 185.673L42.1433 185.37L42.5471 185.168L43.0523 184.966L43.4562 184.663L43.8603 184.461L44.3655 184.158L44.7693 183.855L45.2746 183.552L45.7795 183.35L46.1836 183.047L46.6885 182.744L47.1938 182.34L48.7089 181.431L49.719 180.623L50.3251 180.32L50.83 179.916M0.829987 179.916V190.218L10.8302 200.218M50.83 0.320007V179.916M50.83 179.916V190.218L40.8301 200.218M40.8301 705.066H10.8302M40.8301 705.066L50.83 710.924V716.884L50.3251 716.682L49.719 716.379L47.6987 715.571L47.1938 715.47L46.1836 715.065L45.7795 714.864L45.2746 714.762L44.7693 714.561L44.3655 714.459L43.8603 714.258L43.4562 714.156L43.0523 713.955L42.1433 713.652L41.335 713.45L40.5271 713.147L38.1026 712.54L36.6887 712.136L35.8804 712.035L35.1736 711.833L33.7593 711.631L33.0522 711.429L32.4461 711.328H31.7393L31.0321 711.227L30.4261 711.126L29.719 711.025H29.1129L28.4058 710.924H23.2542L22.5474 711.025H21.9413L21.2342 711.126L20.6281 711.227L19.921 711.328H19.2139L18.6078 711.429L17.9007 711.631L16.4867 711.833L15.7796 712.035L14.9716 712.136L13.5573 712.54L11.1332 713.147L10.3249 713.45L9.51699 713.652L8.60794 713.955L8.20382 714.156L7.79969 714.258L7.29477 714.459L6.89064 714.561L6.38571 714.762L5.98159 714.864L4.4665 715.47L3.96158 715.571L1.94126 716.379L1.43633 716.682L0.829987 716.884V710.924L10.8302 705.066M40.8301 705.066V700.116M10.8302 705.066V700.116M40.8301 700.116H10.8302M40.8301 700.116L45.5776 688.803L47.7998 676.783L47.3957 664.46L44.3655 652.641L41.2339 640.722L40.8301 628.5L43.0523 616.48L47.7998 605.167M10.8302 700.116L6.0827 688.803L3.86047 676.783L4.26459 664.46L7.29477 652.641L10.426 640.722L10.8302 628.5L8.60794 616.48L3.86047 605.167M47.7998 605.167H3.86047M47.7998 605.167L44.8704 601.834L40.8301 600.117M3.86047 605.167L6.78984 601.834L10.8302 600.117M40.8301 600.117H10.8302M40.8301 600.117V597.187M10.8302 600.117V597.187M40.8301 597.187H10.8302M40.8301 597.187L44.8704 595.47L47.7998 592.137M10.8302 597.187L6.78984 595.47L3.86047 592.137M47.7998 592.137H3.86047M47.7998 592.137L38.3049 211.734V206.683M3.86047 592.137L13.3554 211.734V206.683M38.3049 206.683H13.3554M38.3049 206.683L40.8301 205.269M13.3554 206.683L10.8302 205.269M40.8301 205.269H10.8302M40.8301 205.269V200.218M10.8302 205.269V200.218M40.8301 200.218H10.8302" stroke="black" stroke-width="1"/>
</svg>
