<svg width="52" height="601" viewBox="0 0 52 601" fill="none" xmlns="http://www.w3.org/2000/svg">
<path d="M0.946059 596.148C3.27546 595.326 4.94571 593.101 4.94571 590.49V10.4917C4.94571 7.88043 3.27546 5.65891 0.946059 4.83403M50.9456 596.148C48.6151 595.326 46.9451 593.101 46.9451 590.49V10.4917C46.9451 7.88043 48.6151 5.65891 50.9456 4.83403M0.945557 600.49V0.492004H50.9456V600.49H0.945557ZM20.2888 590.49C20.2888 593.613 22.8231 596.148 25.9455 596.148C29.068 596.148 31.6023 593.613 31.6023 590.49V10.4917C31.6023 7.36931 29.068 4.83403 25.9455 4.83403C22.8231 4.83403 20.2888 7.36931 20.2888 10.4917V590.49Z" stroke="black" stroke-width="0.850394" stroke-linecap="round" stroke-linejoin="round"/>
</svg>
