<svg width="52" height="601" viewBox="0 0 52 601" fill="none" xmlns="http://www.w3.org/2000/svg">
<path d="M51.418 4.49229V0.492004H1.41797V4.49229M51.418 4.49229C48.1059 4.49229 45.4188 7.17933 45.4188 10.4914V590.472C45.4188 593.784 48.1059 596.474 51.418 596.474M51.418 4.49229V596.474M51.418 596.474V600.472H1.41797V596.474M1.41797 596.474C4.73005 596.474 7.41967 593.784 7.41967 590.472V10.4914C7.41967 7.17933 4.73005 4.49229 1.41797 4.49229M1.41797 596.474V4.49229M32.4184 10.4914C32.4184 7.17933 29.7288 4.49229 26.4192 4.49229C23.1071 4.49229 20.4175 7.17933 20.4175 10.4914V590.472C20.4175 593.784 23.1071 596.474 26.4192 596.474C29.7288 596.474 32.4184 593.784 32.4184 590.472V10.4914Z" stroke="black" stroke-width="0.850394" stroke-linecap="round" stroke-linejoin="round"/>
</svg>
