<svg width="50" height="600" viewBox="0 0 52 601" fill="none" xmlns="http://www.w3.org/2000/svg">
<path d="M50.8885 4.8339C48.5607 5.65876 46.8907 7.88021 46.8907 10.4914V590.473C46.8907 593.084 48.5607 595.308 50.8885 596.13M0.890991 4.8339C3.22134 5.65876 4.89128 7.88021 4.89128 10.4914V590.473C4.89128 593.084 3.22134 595.308 0.890991 596.13M50.891 600.472V0.492004H0.890991V600.472H50.891ZM41.5468 10.4914C41.5468 7.3691 39.0141 4.8339 35.8918 4.8339C32.7694 4.8339 30.2342 7.3691 30.2342 10.4914V590.473C30.2342 593.595 32.7694 596.13 35.8918 596.13C39.0141 596.13 41.5468 593.595 41.5468 590.473V10.4914ZM10.2351 590.473C10.2351 593.595 12.7679 596.13 15.8902 596.13C19.0125 596.13 21.5478 593.595 21.5478 590.473V10.4914C21.5478 7.3691 19.0125 4.8339 15.8902 4.8339C12.7679 4.8339 10.2351 7.3691 10.2351 10.4914V590.473Z" stroke="black" stroke-width="0.850394" stroke-linecap="round" stroke-linejoin="round"/>
</svg>
