<svg width="50" height="600" viewBox="0 0 52 601" fill="none" xmlns="http://www.w3.org/2000/svg">
<path d="M51.364 44.4925V16.4915H1.36401V44.4925M51.364 44.4925C48.0543 44.4925 45.3646 47.1798 45.3646 50.492V550.502C45.3646 553.815 48.0543 556.502 51.364 556.502M51.364 44.4925V556.502M5.36454 10.4919V16.4915M47.3661 16.4915V10.4919M1.36401 44.4925C4.67626 44.4925 7.36351 47.1798 7.36351 50.492V550.502C7.36351 553.815 4.67626 556.502 1.36401 556.502M1.36401 44.4925V556.502M51.364 556.502V584.503H1.36401V556.502M5.36454 590.502V584.503M47.3661 584.503V590.502M51.364 10.4919V0.492004H1.36401V10.4919H51.364ZM32.366 50.492C32.366 47.1798 29.6763 44.4925 26.364 44.4925C23.0518 44.4925 20.3645 47.1798 20.3645 50.492V550.502C20.3645 553.815 23.0518 556.502 26.364 556.502C29.6763 556.502 32.366 553.815 32.366 550.502V50.492ZM1.36401 600.502V590.502H51.364V600.502H1.36401Z" stroke="black" stroke-width="0.850394" stroke-linecap="round" stroke-linejoin="round"/>
</svg>
