<svg width="52" height="601" viewBox="0 0 52 601" fill="none" xmlns="http://www.w3.org/2000/svg">
<path d="M0.837036 0.492004V0.0668074C0.602206 0.0668074 0.411839 0.257175 0.411839 0.492004L0.837036 0.492004ZM45.8371 27.491L45.9827 27.8905C46.1506 27.8293 46.2623 27.6697 46.2623 27.491H45.8371ZM5.837 27.491H5.4118C5.4118 27.6697 5.52354 27.8293 5.69145 27.8905L5.837 27.491ZM45.8371 47.4936H46.2623C46.2623 47.3149 46.1506 47.1553 45.9827 47.0941L45.8371 47.4936ZM5.837 47.4936L5.69145 47.0941C5.52354 47.1553 5.4118 47.3149 5.4118 47.4936H5.837ZM0.837036 20.492H0.411839V20.7799L0.679193 20.8868L0.837036 20.492ZM50.837 54.4926H51.2622V54.2046L50.9949 54.0978L50.837 54.4926ZM0.837036 54.4926L0.679193 54.0978L0.411839 54.2046V54.4926H0.837036ZM50.837 600.503V600.928C51.0719 600.928 51.2622 600.738 51.2622 600.503H50.837ZM45.8371 573.504H46.2623C46.2623 573.269 46.0719 573.078 45.8371 573.078V573.504ZM5.837 573.504V573.078C5.60217 573.078 5.4118 573.269 5.4118 573.504H5.837ZM45.8371 553.504L45.9827 553.903C46.1506 553.842 46.2623 553.682 46.2623 553.504H45.8371ZM5.837 553.504H5.4118C5.4118 553.682 5.52354 553.842 5.69145 553.903L5.837 553.504ZM50.837 580.503H51.2622V580.215L50.9949 580.108L50.837 580.503ZM0.837036 546.502H0.411839V546.79L0.679025 546.897L0.837036 546.502ZM50.837 546.502L50.995 546.897L51.2622 546.79V546.502H50.837ZM50.837 20.492L50.9949 20.8868L51.2622 20.7799V20.492H50.837ZM50.837 0.492004H51.2622C51.2622 0.257175 51.0719 0.0668074 50.837 0.0668074V0.492004ZM0.837036 580.503L0.679196 580.108L0.411839 580.215V580.503H0.837036ZM0.837036 600.503H0.411839C0.411839 600.738 0.602206 600.928 0.837036 600.928L0.837036 600.503ZM5.69123 573.107C5.47063 573.187 5.35706 573.431 5.43757 573.652C5.51807 573.873 5.76216 573.986 5.98276 573.906L5.69123 573.107ZM45.6912 573.906C45.9118 573.986 46.1559 573.873 46.2365 573.652C46.317 573.432 46.2035 573.187 45.9829 573.107L45.6912 573.906ZM0.978527 94.4357C0.757081 94.3576 0.514215 94.4737 0.436071 94.6952C0.357928 94.9166 0.474098 95.1595 0.695545 95.2376L0.978527 94.4357ZM50.9787 95.2376C51.2001 95.1594 51.3162 94.9165 51.238 94.695C51.1597 94.4736 50.9168 94.3575 50.6954 94.4358L50.9787 95.2376ZM0.695158 505.76C0.473787 505.838 0.357851 506.081 0.436208 506.302C0.514565 506.524 0.757543 506.64 0.978914 506.561L0.695158 505.76ZM50.695 506.561C50.9164 506.64 51.1594 506.524 51.2378 506.302C51.3162 506.081 51.2004 505.838 50.9791 505.76L50.695 506.561ZM1.26223 17.9312V0.492004H0.411839V17.9312H1.26223ZM45.8371 27.0658H5.837V27.9162H45.8371V27.0658ZM45.8371 47.0684H5.837V47.9188H45.8371V47.0684ZM45.8371 22.0657H5.837V22.9161H45.8371V22.0657ZM45.8371 52.0684H5.837V52.9188H45.8371V52.0684ZM50.4118 57.0532V543.941H51.2622V57.0532H50.4118ZM31.9202 100.495C31.9202 97.1373 29.1944 94.4115 25.8371 94.4115V95.2619C28.7247 95.2619 31.0698 97.607 31.0698 100.495H31.9202ZM25.8371 94.4115C22.4798 94.4115 19.7539 97.1373 19.7539 100.495H20.6043C20.6043 97.607 22.9494 95.2619 25.8371 95.2619V94.4115ZM19.7539 100.495V500.503H20.6043V100.495H19.7539ZM31.0698 100.495V500.503H31.9202V100.495H31.0698ZM0.411839 57.0532V543.941H1.26223V57.0532H0.411839ZM19.7539 500.503C19.7539 503.86 22.48 506.583 25.8371 506.583V505.733C22.9492 505.733 20.6043 503.39 20.6043 500.503H19.7539ZM25.8371 506.583C29.1941 506.583 31.9202 503.86 31.9202 500.503H31.0698C31.0698 503.39 28.725 505.733 25.8371 505.733V506.583ZM50.4118 583.063V600.503H51.2622V583.063H50.4118ZM45.8371 573.078H5.837V573.929H45.8371V573.078ZM45.8371 553.078H5.837V553.929H45.8371V553.078ZM45.8371 578.079H5.837V578.929H45.8371V578.079ZM45.8371 548.078H5.837V548.929H45.8371V548.078ZM51.2622 17.9312V0.492004H50.4118V17.9312H51.2622ZM0.411839 583.063V600.503H1.26223V583.063H0.411839ZM5.4118 22.4909V27.491H6.26219V22.4909H5.4118ZM45.4119 22.4909V27.491H46.2623V22.4909H45.4119ZM45.6914 27.0915C41.4475 28.6386 38.4129 32.714 38.4129 37.4935H39.2633C39.2633 33.0828 42.0637 29.3191 45.9827 27.8905L45.6914 27.0915ZM38.4129 37.4935C38.4129 42.2706 41.4476 46.346 45.6914 47.8931L45.9827 47.0941C42.0636 45.6655 39.2633 41.9017 39.2633 37.4935H38.4129ZM5.98254 47.8931C10.2291 46.346 13.2612 42.2705 13.2612 37.4935H12.4109C12.4109 41.9018 9.6129 45.6655 5.69145 47.0941L5.98254 47.8931ZM13.2612 37.4935C13.2612 32.7141 10.2292 28.6386 5.98254 27.0915L5.69145 27.8905C9.61285 29.3191 12.4109 33.0827 12.4109 37.4935H13.2612ZM5.4118 47.4936V52.4936H6.26219V47.4936H5.4118ZM45.4119 47.4936V52.4936H46.2623V47.4936H45.4119ZM45.9949 22.8858L50.9949 20.8868L50.6792 20.0972L45.6792 22.0961L45.9949 22.8858ZM5.99484 22.0961L0.994879 20.0972L0.679193 20.8868L5.67915 22.8858L5.99484 22.0961ZM5.67915 52.0988L0.679193 54.0978L0.994879 54.8874L5.99484 52.8885L5.67915 52.0988ZM45.6792 52.8885L50.6792 54.8874L50.9949 54.0978L45.9949 52.0988L45.6792 52.8885ZM5.4118 573.504V578.504H6.26219V573.504H5.4118ZM45.4119 573.504V578.504H46.2623V573.504H45.4119ZM5.98276 573.906C10.229 572.356 13.2612 568.283 13.2612 563.504H12.4109C12.4109 567.914 9.61298 571.676 5.69123 573.107L5.98276 573.906ZM13.2612 563.504C13.2612 558.724 10.2291 554.651 5.98254 553.104L5.69145 553.903C9.61296 555.332 12.4109 559.093 12.4109 563.504H13.2612ZM45.6914 553.104C41.4476 554.651 38.4129 558.724 38.4129 563.504H39.2633C39.2633 559.093 42.0635 555.332 45.9827 553.903L45.6914 553.104ZM38.4129 563.504C38.4129 568.283 41.4477 572.356 45.6912 573.906L45.9829 573.107C42.0635 571.676 39.2633 567.914 39.2633 563.504H38.4129ZM5.4118 548.504V553.504H6.26219V548.504H5.4118ZM45.4119 548.504V553.504H46.2623V548.504H45.4119ZM5.67916 578.109L0.679196 580.108L0.994877 580.897L5.99484 578.899L5.67916 578.109ZM45.6792 578.899L50.6792 580.897L50.9949 580.108L45.9949 578.109L45.6792 578.899ZM45.9951 548.898L50.995 546.897L50.679 546.108L45.6791 548.109L45.9951 548.898ZM5.99501 548.109L0.995047 546.108L0.679025 546.897L5.67899 548.898L5.99501 548.109ZM5.26273 100.495C5.26273 97.6976 3.47383 95.3162 0.978527 94.4357L0.695545 95.2376C2.86117 96.0018 4.41233 98.069 4.41233 100.495H5.26273ZM50.6954 94.4358C48.203 95.3162 46.4113 97.6974 46.4113 100.495H47.2617C47.2617 98.0692 48.8152 96.0018 50.9787 95.2376L50.6954 94.4358ZM47.2617 500.503V100.495H46.4113V500.503H47.2617ZM5.26273 500.503V100.495H4.41233V500.503H5.26273ZM0.978914 506.561C3.47369 505.678 5.26273 503.297 5.26273 500.503H4.41233C4.41233 502.926 2.86131 504.993 0.695158 505.76L0.978914 506.561ZM46.4113 500.503C46.4113 503.298 48.2031 505.678 50.695 506.561L50.9791 505.76C48.8151 504.993 47.2617 502.925 47.2617 500.503H46.4113ZM1.26223 20.492V17.9312H0.411839V20.492H1.26223ZM50.4118 54.4926V57.0532H51.2622V54.4926H50.4118ZM1.26223 57.0532V54.4926H0.411839V57.0532H1.26223ZM51.2622 583.063V580.503H50.4118V583.063H51.2622ZM0.411839 543.941V546.502H1.26223V543.941H0.411839ZM51.2622 546.502V543.941H50.4118V546.502H51.2622ZM50.4118 17.9312V20.492H51.2622V17.9312H50.4118ZM0.837036 0.917201H50.837V0.0668074H0.837036V0.917201ZM0.411839 580.503V583.063H1.26223V580.503H0.411839ZM50.837 600.078H0.837036V600.928H50.837V600.078Z" fill="black"/>
</svg>
