<svg width="51" height="719" viewBox="0 0 51 719" fill="none" xmlns="http://www.w3.org/2000/svg">
<path d="M0.570007 180.479V0.519989M0.570007 180.479L1.07596 180.783L1.58191 181.188L2.18917 181.593L2.69573 181.897L3.20168 182.301L4.71953 183.212L5.12478 183.516L6.13668 184.123L6.54132 184.427L7.04789 184.731L7.45252 184.933L7.95847 185.236L8.36372 185.439L8.76836 185.743L9.17299 185.945L9.67894 186.147L10.0842 186.35L10.4888 186.654L10.8941 186.856L11.7034 187.261L12.1086 187.362L12.5132 187.565L13.2218 187.969L14.0317 188.273L15.4482 188.88L16.1568 189.083L16.8654 189.386L18.9911 189.994L19.6997 190.095L20.307 190.297L21.0155 190.399L21.6228 190.5L22.3308 190.601L22.9386 190.702H23.6466L24.2539 190.803H26.8855L27.4928 190.702H28.2014L28.8086 190.601L29.5172 190.5L30.1245 190.399L30.8331 190.297L31.5416 190.095L32.1489 189.994L34.2746 189.386L34.9826 189.083L35.6912 188.88L37.1083 188.273L37.9182 187.969L38.7281 187.565L39.0314 187.362L39.436 187.261L39.8413 187.059L40.2459 186.856L40.6512 186.654L41.0558 186.35L41.5618 186.147L42.3717 185.743L42.7763 185.439L43.2822 185.236L43.6875 184.933L44.0921 184.731L44.5981 184.427L45.0033 184.123L46.5212 183.212L46.9264 182.909L47.9383 182.301L48.4443 181.897L49.0515 181.593L50.0641 180.783L50.57 180.479M0.570007 180.479V190.803L10.5901 200.824M50.57 0.519989V180.479M50.57 180.479V190.803L40.6512 200.824M40.6512 706.694H10.5901M40.6512 706.694L50.57 712.463V718.435L49.0515 717.828L48.4443 717.625L46.9264 717.018L46.5212 716.815L46.0152 716.714L45.0033 716.309L44.5981 716.208L44.0921 716.005L43.6875 715.904L43.2822 715.702L42.7763 715.601L41.9664 715.297L41.0558 714.993L39.436 714.589L38.7281 714.386L37.1083 713.981L35.6912 713.576L34.2746 713.374L33.566 713.171L32.1489 712.969L31.5416 712.868L30.8331 712.767H30.1245L29.5172 712.666L28.8086 712.564H27.4928L26.8855 712.463H24.2539L23.6466 712.564H22.3308L21.6228 712.666L21.0155 712.767H20.307L19.6997 712.868L17.574 713.171L16.8654 713.374L15.4482 713.576L14.0317 713.981L13.2218 714.184L12.5132 714.386L10.0842 714.993L9.17299 715.297L8.36372 715.601L7.95847 715.702L7.45252 715.904L7.04789 716.005L6.54132 716.208L6.13668 716.309L5.12478 716.714L4.71953 716.815L2.18917 717.828L1.58191 718.03L0.570007 718.435V712.463L10.5901 706.694M40.6512 706.694V701.734M10.5901 706.694V701.734M40.6512 701.734H10.5901M40.6512 701.734L45.408 690.398L47.6344 678.253L47.1284 666.005L44.0921 654.062L41.0558 642.22L40.6512 629.973L42.8776 617.828L47.6344 606.492M10.5901 701.734L5.83336 690.398L3.60632 678.253L4.01096 666.005L7.04789 654.062L10.0842 642.22L10.4888 629.973L8.26241 617.828L3.50501 606.492M47.6344 606.492H3.50501M47.6344 606.492L44.6994 603.253L40.6512 601.532M3.50501 606.492L6.44062 603.253L10.5901 601.532M40.6512 601.532H10.5901M40.6512 601.532V598.496M10.5901 601.532V598.496M38.1208 207.301H13.0192M38.1208 207.301L40.6512 205.884M38.1208 207.301V212.969H38.0195V213.172L37.9182 213.374V213.577L37.8169 213.678L37.7156 213.981V214.184L37.6143 214.386L37.5129 214.69V214.994L37.4122 215.297V215.601L37.3109 216.006M13.0192 207.301L10.5901 205.884M13.0192 207.301V212.868L13.1205 212.969V213.172L13.2218 213.374V213.475L13.3231 213.577V213.779L13.4244 213.981V214.184L13.5251 214.386V214.589L13.6265 214.791L13.7278 215.095V215.601L13.8291 215.904V216.512L13.9304 216.714V218.233L13.8291 218.536V219.143L13.7278 219.447V219.751L13.5251 221.168L13.1205 223.799L12.9179 225.216L12.7159 227.848L12.6146 229.265V230.581L12.4119 236.654M40.6512 205.884H10.5901M40.6512 205.884V200.824M10.5901 205.884V200.824M40.6512 200.824H10.5901M10.4888 593.536H4.41621M10.4888 593.536L10.5901 593.131V592.726L10.6915 592.321V592.018L10.7928 591.613L10.9948 591.208L11.0961 590.904L11.2987 590.601M10.4888 593.536L10.5901 593.637L10.6915 593.84V593.941L10.7928 594.143L10.9948 594.447L11.1974 594.852L11.4 594.953L11.602 595.257L11.8047 595.459L12.0073 595.56L12.1086 595.662L12.7159 596.066L13.0192 596.269L13.3231 596.471L13.9304 596.674L14.335 596.775L14.9423 596.977L15.2462 597.078H15.9548L16.2581 597.18L16.5621 597.078H17.1693L17.3713 596.977H17.6753L17.8779 596.876L18.0799 596.775L18.2825 596.572H18.3839L18.7885 596.168M4.41621 593.536L4.51752 593.84L4.92216 594.649L5.12478 594.953L5.32679 595.257L5.52942 595.56M4.41621 593.536L4.82084 592.119L4.92216 591.309L5.2261 590.601L5.83336 588.475L6.44062 587.058L6.64263 586.35L6.94657 585.54L8.1611 582.706L8.56573 581.998L8.86967 581.289L9.27431 580.479L9.57825 579.771L11.1974 576.937L11.602 576.127L12.4119 574.71L13.3231 573.293L14.2337 571.775L16.0555 568.941L17.068 567.423L17.9786 566.006L18.9911 564.487L21.0155 561.653L23.1406 558.718L25.1651 555.783L27.2908 552.848L28.3027 551.431L29.3146 549.912L30.3271 548.496L31.339 546.977L32.2502 545.56L33.2621 544.042L34.1733 542.625L35.9951 539.589L37.2096 537.463L37.6143 536.653L38.8288 534.528L39.234 533.718L39.5374 533.01L39.9426 532.301L40.2459 531.492L40.6512 530.783L41.2584 529.366L41.5618 528.556L42.169 527.139L42.3717 526.33L42.9789 524.912L43.1815 524.103L43.5862 522.686L43.7888 521.876L44.1934 520.459L44.3961 519.649L44.5981 518.941L44.6994 518.233L44.8007 517.423L45.0033 516.714L45.104 516.006L45.2053 515.196V514.487L45.3067 513.779L45.408 512.969V512.261L45.5093 511.552V507.807L45.408 507.099V506.289L45.2053 504.872L45.104 504.062L45.0033 503.354L44.902 502.544L44.6994 501.127L44.4968 500.317L44.3961 499.609M32.0476 593.536H20.307M32.0476 593.536L31.9463 593.84V594.143L31.8449 594.244V594.649L31.9463 594.953V595.358L32.0476 595.459V595.662L32.1489 595.864L32.3515 596.066L32.4522 596.269L32.6548 596.471H32.7562V596.572L32.9588 596.674L33.2621 596.775L33.6674 596.977L33.9707 597.078H34.5779L34.8819 597.18L35.0839 597.078H35.7925L36.0964 596.977H36.501L37.1083 596.775L37.4122 596.572L37.8169 596.471L38.1208 596.269L38.4241 596.168M32.0476 593.536V592.524L32.1489 592.321V592.119L32.2502 592.018V591.815L32.3515 591.613M20.307 593.536L20.1043 593.84L19.9017 594.244L19.6997 594.649L19.5984 594.953L19.1931 595.56L18.9911 595.864L18.7885 596.168M20.307 593.536L23.1406 589.69L25.975 585.742L30.2258 579.973L31.5416 578.05L32.9588 576.026L33.566 575.115L34.1733 574.103L34.8819 573.192L36.0964 571.168L36.7037 570.257L37.2096 569.244L37.8169 568.232L38.4241 567.321L39.436 565.297L39.9426 564.386L40.9545 562.362L41.3591 561.451L41.8657 560.439L42.2703 559.427L42.675 558.516L43.0802 557.504L43.3836 556.492L43.7888 555.58L44.3961 553.556L44.5981 552.645L44.902 551.633L45.104 550.621L45.408 549.609L45.5093 548.698L45.9139 546.674L46.0152 545.763L46.2179 543.738V542.726L46.3192 541.815V539.791L46.2179 538.779V537.868L45.9139 534.832L45.7119 533.921L45.5093 532.908L45.408 531.896L45.2053 530.884M47.0271 593.536H41.4605M47.0271 593.536L46.9264 593.738L46.8251 593.941L46.5212 594.346L46.4199 594.447L46.3192 594.649L46.1165 595.054L45.9139 595.155L45.8126 595.358L45.7119 595.56L45.3067 595.965L45.2053 596.066L45.104 596.168L45.0033 596.269L44.5981 596.674V596.775L44.3961 596.876V596.977H44.2948V597.078H44.1934V597.18L40.6512 598.496M47.0271 593.536V592.018L47.1284 591.613V590.601L47.3311 589.184V587.767L47.4324 587.058V585.034L47.0271 570.763M41.4605 593.536L41.9664 592.524L42.3717 591.613L42.8776 590.601L43.2822 589.589L43.6875 588.678L43.9908 587.666L44.3961 586.653L44.6994 585.742L45.0033 584.73L45.3067 583.819L45.6106 582.807L45.8126 581.795L46.1165 580.884L46.3192 579.872L46.4199 578.86L46.6225 577.949L46.8251 575.925L46.9264 575.014L47.0271 574.002V570.054L46.9264 569.143V568.131L46.8251 567.119L46.6225 566.107L46.5212 565.196L46.1165 563.171L45.9139 562.261M41.4605 593.536L41.1571 593.84L40.7519 594.244L40.4486 594.649L38.4241 596.168M40.6512 598.496H10.5901M10.5901 598.496L6.94657 597.18V597.078H6.84526V596.977H6.74395V596.876L6.64263 596.775H6.54132L6.44062 596.674V596.572L6.13668 596.269L5.93406 596.168M45.9139 562.261L45.8126 562.868L45.7119 563.374L45.5093 564.589L45.3067 565.095L45.2053 565.702L45.0033 566.309L44.902 566.917L44.6994 567.423L44.4968 568.03L44.3961 568.637L44.1934 569.244L43.9908 569.751L43.5862 570.965L43.0802 572.078L42.675 573.293L42.169 574.406L41.6631 575.621L41.0558 576.735L40.5499 577.848L39.9426 579.062L39.3353 580.176L38.6268 581.39L38.0195 582.504L37.3109 583.617L36.6024 584.832L35.1852 587.058L34.4766 588.273L33.6674 589.386L32.8575 590.601L32.7562 590.702L32.5535 591.107L32.4522 591.208V591.41L32.3515 591.613M45.9139 562.261L46.1165 561.046L46.2179 560.54L46.3192 559.933V559.326L46.4199 558.718L46.5212 558.212V556.998L46.6225 556.39V553.455L46.3192 539.69M7.55383 468.334L7.04789 464.285V463.475L6.94657 462.666V461.147L6.84526 460.338V459.528L6.94657 458.718V457.099L7.04789 456.289V455.479L7.45252 452.24L7.65515 451.431L7.75646 450.621L7.95847 449.811L8.05978 449.002L8.26241 448.293L8.86967 445.864L9.17299 445.054L9.57825 443.435L10.4888 441.006L10.6915 440.196L11.2987 438.576L11.7034 437.767L12.3106 436.147L12.7159 435.338L13.0192 434.528L13.8291 432.908L14.1324 432.099L16.1568 428.05L17.9786 424.811L18.7885 423.192L19.6997 421.572L20.7116 419.852L22.5334 416.613L26.2783 410.135L27.2908 408.415L30.9344 401.937L31.7443 400.216L32.6548 398.597L34.6793 394.548L34.9826 393.637L35.7925 392.018L36.3997 390.399L36.805 389.589L37.1083 388.678L38.9301 383.82L39.1327 382.908L39.436 382.099L40.2459 378.86L40.4486 377.949L40.8532 376.33L40.9545 375.52L41.1571 374.71L41.2584 373.799L41.7644 369.751V368.84L41.8657 368.03V363.88L41.6631 353.759M12.4119 280.479L12.3106 279.467L12.1086 278.455L12.0073 277.544L11.8047 275.52V274.508L11.7034 273.496V272.484L11.602 271.572V268.536M11.602 268.536L11.7034 267.524V266.512L12.0073 263.475L12.1086 262.565L12.3106 260.54L12.5132 259.528L12.6146 258.516L13.6265 253.455L13.9304 252.443L14.1324 251.431L14.4363 250.419L14.639 249.406L15.8535 245.358L16.2581 244.346L16.8654 242.322L17.27 241.411L17.574 240.399L18.3839 238.374L19.0924 236.35L21.5215 230.277L22.4321 228.253L24.1532 224.103L25.7723 220.054L26.6835 218.03L27.4928 216.006L27.5941 215.702L27.8981 215.095L28.1001 214.893L28.2014 214.69L28.91 213.981L29.1126 213.88L29.2139 213.678L30.0232 213.273L30.3271 213.172L30.7317 212.969H30.9344L31.137 212.868H32.4522L32.6548 212.969H32.8575L33.0601 213.07L33.2621 213.172L33.4647 213.273L33.6674 213.374L33.7681 213.475L33.9707 213.577L34.072 213.678L34.2746 213.88L34.3753 213.981L34.6793 214.285L34.8819 214.69L34.9826 214.893L35.3878 215.702V215.904L35.4891 216.208V216.411L35.5905 216.613V217.119L35.6912 217.322V218.536L35.5905 218.84V219.346L35.4891 219.548V219.751L35.1852 220.965L34.8819 222.079L34.4766 223.192L34.1733 224.407L33.7681 225.52L33.4647 226.633L33.0601 227.848L32.2502 230.075L31.8449 231.289L31.339 232.403L30.9344 233.516L30.4284 234.629L30.0232 235.743L29.5172 236.957L29.1126 238.07L26.0763 244.751L25.0637 247.079L24.0519 249.305L22.9386 251.633L20.9142 256.087L19.9017 258.415L19.3958 259.528L18.9911 260.641L18.4852 261.755L18.0799 262.868L17.574 263.981L17.1693 265.095L16.6628 266.208L16.2581 267.423L15.0436 270.763L14.7397 271.876L14.335 272.99L14.0317 274.204L12.8172 278.658L12.6146 279.771L12.3106 280.884L11.906 283.111L11.8047 284.224L11.602 285.338L11.5013 286.451L11.2987 287.565L11.1974 288.678V289.791L11.0961 290.904V292.018L10.8941 300.419M11.602 268.536L11.8047 261.249L11.906 259.933V258.718L12.0073 257.403L12.2093 256.087L12.3106 254.771L12.5132 253.556L13.1205 249.609L13.4244 248.293L13.7278 247.079L14.335 244.447L14.7397 243.131L15.1449 241.917L15.4482 240.601L15.9548 239.285L16.3594 238.07L16.7641 236.755L17.27 235.439L17.6753 234.123L18.1812 232.909L19.6997 228.961L20.307 227.645L21.3189 225.014L22.4321 222.382L23.6466 219.751L23.7479 219.548V219.346L23.8492 219.042L23.9505 218.84V218.334L24.0519 218.03V217.625L23.9505 217.322V216.917L23.8492 216.613V216.411L23.7479 216.208L23.6466 215.904L23.5459 215.702L23.242 215.095L23.0393 214.893L22.9386 214.69L22.736 214.488L22.6347 214.285L22.4321 214.184L22.2301 213.981L22.0274 213.88L21.9261 213.678L21.7235 213.577L21.5215 213.475L21.3189 213.374L21.1162 213.273L20.8129 213.172L20.4083 212.969H20.2056L19.9017 212.868H18.6872L18.4852 212.969H18.2825L18.0799 213.07L17.8779 213.172L17.6753 213.273L17.4727 213.374L17.3713 213.475L17.1693 213.577L17.068 213.678L16.8654 213.88L16.7641 213.981L16.5621 214.184L16.4608 214.386L16.3594 214.488L16.0555 215.095L15.9548 215.297L15.8535 215.5V215.702L15.7522 216.006L15.1449 218.03L14.9423 219.042L14.639 220.156L14.2337 222.18L14.0317 223.293L13.4244 226.33L13.2218 227.443L13.0192 229.468L12.8172 230.479L12.7159 231.593L12.6146 232.605V233.617L12.5132 234.629V235.743L12.4119 236.755V239.893L12.5132 240.904V241.917L12.6146 242.929V244.042L12.8172 246.067L13.0192 247.079L13.1205 248.192L13.2218 249.204M41.1571 374.406L41.3591 375.216L41.4605 376.026L41.6631 376.836L41.8657 378.455L41.9664 379.366L42.2703 381.795V382.605L42.3717 383.415V388.374L42.2703 389.184V389.994L41.6631 394.852L41.4605 395.662L41.3591 396.471L41.1571 397.382L40.1446 401.431L39.8413 402.24L39.6387 403.05L39.0314 404.67L38.8288 405.479L38.2215 407.099L37.8169 407.908L37.2096 409.528L36.805 410.338L36.501 411.147L35.6912 412.767L35.3878 413.576L33.7681 416.815L32.8575 418.435L32.0476 420.054L30.2258 423.293L29.2139 424.913L27.3915 428.151L26.3796 429.771L24.4565 433.01L22.4321 436.249L21.5215 437.767L20.509 439.386L19.5984 441.006L18.5859 442.625L16.7641 445.864L15.9548 447.382L15.0436 449.002L13.4244 452.24L13.1205 453.05L12.7159 453.86L12.3106 454.569L12.0073 455.378L11.602 456.188L11.2987 456.998L10.8941 457.807L9.98288 460.236L9.67894 460.945L9.47693 461.755L8.86967 463.374L8.46442 464.994L8.26241 465.702L7.95847 466.512L7.85716 467.322L7.24989 469.751L7.14858 470.459L6.94657 472.078L6.74395 472.888V473.698L6.64263 474.406L6.54132 475.216V476.026L6.44062 476.836V477.645L6.13668 490.399M38.4241 596.168L35.8938 594.953L33.566 593.131L32.3515 591.613M11.2987 590.601L11.906 589.487L12.5132 588.475L13.2218 587.362L13.8291 586.35L14.5377 585.236L15.1449 584.224L15.8535 583.111L16.5621 582.099L17.27 580.985L17.9786 579.973L21.0155 575.722L22.4321 573.597L30.0232 562.969L30.7317 561.856L31.4403 560.844L32.8575 558.617L33.566 557.605L34.2746 556.492L34.8819 555.479L35.5905 554.366L36.1977 553.354L37.4122 551.127L38.0195 550.115L38.6268 549.002L39.1327 547.989L39.74 546.876L40.2459 545.763L40.7519 544.751L41.2584 543.637L41.6631 542.524L42.0677 541.512L42.5737 540.398L42.8776 539.285L43.2822 538.273L43.6875 537.16L43.9908 536.046L44.2948 535.034L44.4968 533.921L44.8007 532.807L45.0033 531.694L45.2053 530.682L45.408 529.569L45.5093 528.455L45.6106 527.443L45.8126 525.216V521.977L45.5093 508.617M11.2987 590.601L13.5251 591.309M11.2987 590.601H11.8047L12.0073 590.702L12.9179 591.005L13.2218 591.208L13.5251 591.309M8.36372 436.957L8.26241 436.249L7.85716 433.01V432.2L7.75646 431.39V430.581L7.65515 429.771V427.342L7.75646 426.633V425.014L8.46442 419.346L8.66705 418.536L8.76836 417.726L10.1855 412.058L10.4888 411.249L10.6915 410.439L13.1205 403.961L13.5251 403.151L13.8291 402.342L14.2337 401.532L14.5377 400.722L14.9423 399.811L18.9911 391.714L19.9017 389.994L22.6347 385.135L26.2783 378.556L27.0882 376.937L27.9994 375.216L28.91 373.597L29.7198 371.977L30.6304 370.358L31.4403 368.738L32.2502 367.018L33.0601 365.399L33.7681 363.779L34.1733 362.969L34.4766 362.058L34.8819 361.249L35.1852 360.439L35.5905 359.629L35.8938 358.82L36.1977 357.908L37.4122 354.67L37.7156 353.759L38.0195 352.949L38.2215 352.139L38.5255 351.33L38.7281 350.52L38.9301 349.609L39.74 346.37L39.9426 345.459L40.0433 344.649L40.2459 343.84L40.3472 343.03L40.4486 342.119L40.6512 341.309L40.7519 340.5V339.69L40.8532 338.88L40.9545 337.969V337.16L41.0558 336.35V334.629L41.1571 333.82L41.0558 333.01V332.2L40.8532 322.888M40.3472 343.131L40.5499 343.941L40.6512 344.751L40.8532 345.56L41.1571 347.99L41.2584 348.901L41.5618 351.33V352.949L41.6631 353.759M41.6631 353.759V356.289L41.5618 357.099V358.718L41.0558 362.767L40.9545 363.678L40.8532 364.488L40.6512 365.297L40.5499 366.107L39.3353 370.965L39.0314 371.775L38.8288 372.585L38.5255 373.394L38.3228 374.305L36.501 379.164L36.0964 379.973L35.7925 380.783L35.3878 381.593L35.0839 382.403L31.0357 390.5L26.4809 398.597L24.5578 401.836L22.736 404.973L21.8248 406.593L20.8129 408.212L18.9911 411.451L18.1812 413.07L17.27 414.69L16.4608 416.309L15.6509 417.828L13.6265 421.876L13.3231 422.686L12.9179 423.496L12.6146 424.305L12.2093 425.115L11.906 425.824L10.3875 429.872L10.1855 430.682L9.88157 431.492L9.67894 432.301L9.37562 433.01L8.1611 437.868L8.05978 438.678L7.95847 439.386L7.75646 440.196L7.35121 443.435V444.244L7.24989 444.953V446.572L6.94657 458.819M18.7885 596.168L18.1812 594.852M18.7885 596.168V595.662L18.6872 595.56V595.358L18.4852 595.257L18.3839 595.054L18.1812 594.852M13.5251 591.309L13.9304 591.512L14.5377 591.917L14.9423 592.119L15.2462 592.321L15.5496 592.524L15.9548 592.726L16.2581 592.929M13.5251 591.309L16.2581 592.929M16.2581 592.929L16.5621 593.232L16.8654 593.435L17.068 593.637L17.574 594.143L17.8779 594.346L18.0799 594.548L18.1812 594.852M16.2581 592.929L18.1812 594.852M37.3109 216.006V216.411L37.2096 216.917V218.334L37.3109 218.84V219.346L37.4122 219.751L37.6143 220.662L38.4241 227.139V228.05L38.5255 228.86V235.338L38.4241 236.147V236.957L38.2215 238.577V239.386L37.9182 241.815L37.7156 242.625L37.5129 244.245L37.3109 245.054L37.2096 245.864L35.7925 251.532L35.4891 252.342L35.0839 253.961L34.4766 255.581L34.2746 256.39L32.1489 262.058L31.4403 263.678L30.8331 265.297L29.4159 268.536L28.6066 270.156L27.1895 273.395L26.3796 274.913L24.8611 278.152L23.242 281.39L22.5334 283.01L21.7235 284.629L21.0155 286.147L20.2056 287.767L19.4971 289.386L18.7885 290.904L17.3713 294.143L16.7641 295.763L16.0555 297.382L15.4482 298.901L14.841 300.52L14.639 301.33L14.0317 302.949L13.8291 303.759L13.5251 304.569L13.3231 305.378L13.0192 306.188L12.8172 306.897L11.602 311.755M37.3109 216.006L37.2096 216.714L37.1083 217.524L37.007 218.233L36.9057 219.042L36.805 219.751L36.6024 220.561L36.501 221.269L36.2984 222.079L35.6912 225.115L34.4766 229.67L33.9707 231.188L33.4647 232.605L31.9463 237.16L31.339 238.678L30.8331 240.196L29.0113 244.751L28.3027 246.269L27.0882 249.305L25.671 252.241L23.0393 258.313L21.7235 261.249L20.4083 264.285L19.8004 265.702L17.9786 270.257L17.3713 271.674L16.7641 273.192L16.2581 274.71L15.6509 276.229L15.1449 277.645L14.7397 279.164L14.2337 280.682L13.8291 282.2L13.4244 283.617L13.0192 285.135L12.8172 285.844L12.6146 286.654L12.5132 287.362L12.3106 288.07L12.2093 288.88L12.0073 289.589L11.906 290.297L11.8047 291.107L11.602 291.815L11.5013 292.524L11.4 293.334L11.1974 294.751V295.561L10.9948 296.977V297.787L10.8941 298.496V300.722L10.7928 301.431V302.24L10.8941 302.949V305.176L10.9948 305.884V306.593L11.0961 307.403V308.111L11.2987 309.528L11.4 310.338L11.602 311.755M6.74395 499.609L6.33931 496.37L6.238 495.662V494.852L6.13668 494.042V489.285L6.238 488.475V487.666L6.74395 483.617L6.94657 482.807L7.04789 481.998L7.45252 480.378L7.55383 479.67L7.75646 478.86L8.05978 478.05L8.46442 476.431L8.76836 475.621L8.97099 474.811L11.0961 469.143L11.5013 468.334L11.8047 467.524L12.2093 466.815L13.0192 465.196L13.3231 464.386L14.5377 461.957L15.0436 461.147L15.8535 459.528L19.4971 453.05L21.5215 449.811L22.4321 448.192L26.3796 441.613L27.3915 439.994L28.3027 438.374L29.3146 436.755L32.0476 431.897L32.9588 430.176L33.8694 428.556L35.8938 424.508L36.1977 423.597L37.007 421.977L37.6143 420.358L38.0195 419.548L38.6268 417.929L38.9301 417.018L39.5374 415.399L39.74 414.589L40.0433 413.779L40.2459 412.969L40.5499 412.16L40.7519 411.249L41.5618 408.01L41.6631 407.2L41.8657 406.39L41.9664 405.479L42.0677 404.67L42.2703 403.86L42.473 402.24V401.431L42.5737 400.52V399.71L42.675 398.901V395.56L42.3717 384.629M11.602 311.755L11.5013 312.565L11.2987 313.273L11.1974 314.083L10.9948 314.892L10.5901 318.131L10.4888 318.84V319.649L10.3875 320.459V321.269L10.2868 322.079V322.888L10.0842 332.2M41.9664 405.682L42.169 406.492L42.2703 407.301L42.473 408.111L42.5737 409.022L43.0802 413.07V413.88L43.1815 414.69V418.738L43.0802 419.649V420.459L42.473 425.317L42.2703 426.127L42.169 426.937L40.9545 431.795L40.6512 432.605L40.4486 433.415L39.8413 435.034L39.6387 435.844L39.3353 436.653L38.9301 437.463L38.0195 439.892L37.2096 441.512L36.9057 442.322L34.4766 447.18L33.9707 447.99L33.1608 449.609L32.2502 451.228L31.2377 452.848L30.3271 454.467L28.3027 457.706L27.3915 459.326L26.3796 460.844L24.3552 464.083L22.2301 467.322L20.2056 470.56L19.2944 472.078L18.2825 473.698L17.3713 475.317L16.3594 476.937L15.4482 478.556L14.639 480.074L14.1324 480.884L11.7034 485.742L11.4 486.451L10.9948 487.261L10.6915 488.07L10.2868 488.88L9.37562 491.309L9.07168 492.018L8.46442 493.637L8.26241 494.447L7.95847 495.257L7.75646 496.067L7.45252 496.775L6.84526 499.204L6.74395 500.014L6.54132 500.722L6.44062 501.532L6.238 502.342L6.03537 503.961L5.93406 504.67L5.73205 506.289V507.908L5.63073 508.617L5.32679 521.977M4.01096 590.601L5.12478 590.702H4.82084L4.61822 590.601H4.01096ZM4.01096 590.601L3.80895 588.981V587.463L3.70763 586.755V585.236L3.80895 584.427V582.908L3.91026 582.099L4.01096 581.39L4.21358 579.771L4.3149 579.062L4.41621 578.253L4.61822 577.544L4.82084 576.735L4.92216 575.925L5.12478 575.216L5.32679 574.406L5.52942 573.698L5.73205 572.888L6.03537 572.078L6.238 571.37L6.84526 569.751L7.14858 569.042L7.75646 567.423L8.05978 566.714L8.36372 565.904L8.76836 565.196L9.07168 564.386L9.47693 563.576L9.78026 562.868L10.5901 561.249L10.9948 560.54L11.4 559.73L11.906 558.921L12.3106 558.212L12.7159 557.402L13.2218 556.593L13.6265 555.884L14.1324 555.074L15.0436 553.556L16.0555 551.937L17.068 550.419L18.0799 548.799L20.1043 545.763L21.2175 544.143L27.5941 534.73L28.7073 533.212L29.7198 531.593L30.7317 530.074L31.7443 528.455L32.7562 526.937L33.7681 525.317L34.6793 523.698L35.1852 522.99L35.9951 521.37L36.501 520.56L36.9057 519.751L37.3109 519.042L38.9301 515.803L39.3353 515.095L39.6387 514.285L40.0433 513.475L40.3472 512.666L40.7519 511.856L41.0558 511.046L41.3591 510.338L41.9664 508.718L42.169 507.908L42.7763 506.289L42.9789 505.581L44.1934 500.722L44.2948 500.014L44.3961 499.204L44.5981 498.394L44.8007 496.775V495.965L44.902 495.156L45.0033 494.447V492.018L45.104 491.208L45.0033 490.399L44.6994 477.645M4.01096 590.601V591.208L4.11227 591.613V593.536L4.3149 593.941L4.61822 594.244L4.82084 594.649L5.02347 594.953L5.12478 595.155L5.32679 595.358L5.42811 595.459L5.52942 595.56M9.17299 405.682L8.56573 400.824V400.014L8.46442 399.204V395.156L8.56573 394.346V393.536L8.66705 392.726V391.917L9.17299 387.868L9.37562 387.058L9.47693 386.249L9.88157 384.629L9.98288 383.82L10.3875 382.2L10.6915 381.39L11.0961 379.771L11.4 378.961L11.602 378.151L11.906 377.342L12.1086 376.532L12.4119 375.722L12.7159 374.811L13.6265 372.382L14.0317 371.572L14.639 369.953L16.0555 366.714L17.6753 363.475L18.4852 361.755L20.9142 356.897L22.6347 353.556L26.0763 346.977L26.9869 345.358L27.7967 343.738L28.7073 342.018L30.3271 338.779L31.137 337.058L31.8449 335.439L32.6548 333.82L33.3634 332.099L34.072 330.479L34.6793 328.86L35.0839 327.949L36.2984 324.71L36.501 323.799L37.1083 322.18L37.3109 321.37L37.6143 320.459L38.2215 318.03L38.4241 317.119L39.0314 314.69L39.234 313.779L39.436 312.16L39.6387 311.249L39.9426 308.82L40.0433 307.909L40.1446 307.099V306.289L40.2459 305.479V303.759L40.3472 302.949V300.419L40.0433 292.018M39.5374 311.755L39.74 312.565L39.8413 313.475L40.0433 314.285L40.3472 316.714L40.4486 317.625L40.7519 320.054V320.864L40.8532 321.674V326.633L40.7519 327.443V328.253L40.6512 329.164L40.5499 329.973V330.783L40.4486 331.593L40.2459 332.403L40.0433 334.022L39.8413 334.832L39.74 335.641L39.5374 336.451L39.3353 337.362L38.3228 341.411L38.0195 342.22L37.8169 343.03L37.2096 344.649L37.007 345.56L36.0964 347.99L35.6912 348.799L35.0839 350.419L34.6793 351.229L34.3753 352.038L33.9707 352.848L33.2621 354.467L29.2139 362.565L27.3915 365.803L26.5822 367.423L20.2056 378.759L19.3958 380.378L18.4852 381.998L16.0555 386.856L15.3476 388.475L14.5377 389.994L14.2337 390.803L13.8291 391.613L13.2218 393.233L12.8172 394.042L11.602 397.281L11.4 398.091L11.0961 398.799L10.7928 399.609L10.5901 400.419L10.2868 401.228L9.07168 406.087L8.97099 406.897L8.76836 407.605L8.1611 412.463L8.05978 413.172V413.981L7.95847 414.791V415.601L7.65515 427.24M5.52942 595.56L5.73205 595.864M5.73205 595.864L5.93406 596.168M5.73205 595.864L5.83336 596.066L5.93406 596.168M5.2261 562.261L5.02347 561.451L4.71953 559.022V558.212L4.61822 557.504V556.694L4.51752 555.884V552.746L4.61822 551.937V551.127L4.92216 548.698L5.02347 547.989L5.12478 547.18L5.32679 546.37L5.42811 545.56L6.03537 543.131L6.238 542.423L6.64263 540.803L6.94657 539.994L7.14858 539.184L8.36372 535.945L8.66705 535.236L8.97099 534.427L9.37562 533.617L9.67894 532.807L12.9179 526.33L13.4244 525.52L13.8291 524.811L14.2337 524.002L15.2462 522.382L16.1568 520.763L20.2056 514.285L21.3189 512.666L22.3308 511.046L26.5822 504.569L27.6954 502.949L32.7562 494.852L33.6674 493.233L34.6793 491.613L35.4891 489.994L35.9951 489.184L38.0195 485.135L38.4241 484.224L38.8288 483.415L39.1327 482.605L39.5374 481.795L41.6631 476.127L41.8657 475.317L42.169 474.508L42.3717 473.597L43.3836 469.548L43.5862 467.929L43.7888 467.119L43.8895 466.208L44.0921 464.589V463.779L44.1934 462.969V462.16L44.2948 461.35V458.819L43.9908 446.572M9.98288 374.406L9.37562 369.548V368.738L9.27431 367.929V363.88M9.27431 363.88V363.07L9.37562 362.261V361.451L9.47693 360.641V359.832L9.88157 356.593L10.0842 355.783L10.1855 354.973L10.3875 354.164L10.4888 353.253L11.906 347.585L12.2093 346.775L12.4119 345.965L12.7159 345.156L12.9179 344.346L13.2218 343.435L15.0436 338.577L15.4482 337.767L15.7522 336.957L16.4608 335.236L17.8779 331.998L18.6872 330.277L19.4971 328.658L20.2056 327.038L21.0155 325.317L22.736 321.977L25.975 315.399L26.8855 313.779L27.6954 312.058L28.404 310.439L29.2139 308.718L30.0232 307.099L30.7317 305.378L31.5416 303.759L32.2502 302.139L32.9588 300.419L33.566 298.799L33.8694 297.888L34.2746 297.079L34.8819 295.459L35.0839 294.548L35.9951 292.119L36.1977 291.208L36.501 290.399L36.7037 289.589L36.9057 288.678L37.2096 287.868L37.6143 286.249L37.8169 285.338L37.9182 284.528L38.1208 283.718L38.3228 282.807L38.4241 281.998L38.6268 281.188L38.7281 280.378L38.8288 279.467L39.0314 277.848L39.1327 276.937L39.3353 275.318V274.406L39.436 273.597V272.787L39.5374 271.876V268.536L39.3353 261.249M9.27431 363.88L9.47693 353.759L9.57825 352.949V352.139L9.67894 351.33V350.52L10.1855 346.471L10.2868 345.763L10.4888 344.953L10.5901 344.143L10.7928 343.334L10.8941 342.524L11.906 338.475L12.2093 337.666L12.4119 336.856L12.7159 336.046L12.9179 335.236L13.8291 332.807L14.0317 331.998L14.335 331.188L14.7397 330.378L15.6509 327.949L17.7766 323.091L18.5859 321.471L19.2944 319.852L21.7235 314.994L23.4446 311.755L25.0637 308.415L29.9218 298.698L30.6304 296.977L31.339 295.358L32.1489 293.738L32.7562 292.119L33.4647 290.5L33.7681 289.69L34.072 288.779L35.5905 284.731L35.7925 283.921L36.0964 283.111L36.3997 282.2L37.007 279.771L37.3109 278.961L37.5129 278.152L37.6143 277.342L37.8169 276.431L38.2215 274.811L38.3228 274.002L38.5255 273.192L38.6268 272.382L38.7281 271.471L39.1327 268.233V267.423L39.234 266.512V265.702L39.3353 264.893V260.743L39.234 259.933V259.123L39.1327 258.313V257.504L39.0314 256.694L38.9301 255.783L38.5255 252.544L38.3228 251.633L38.2215 250.824L38.0195 250.014L37.9182 249.204M38.7281 280.479L38.9301 281.289L39.0314 282.099L39.234 283.01L39.5374 285.439L39.6387 286.35L39.9426 288.779V289.589L40.0433 290.5V292.119L40.1446 292.929V294.649L40.0433 295.459V297.079L39.8413 298.698V299.609L39.5374 302.038L39.3353 302.848L39.234 303.658L39.0314 304.569L38.9301 305.378L38.5255 306.998L38.4241 307.807L38.0195 309.427L37.7156 310.338L37.3109 311.957L37.007 312.767L36.805 313.577L35.8938 316.006L35.6912 316.815L35.3878 317.625L34.9826 318.435L34.072 320.864L33.6674 321.674L33.0601 323.293L32.2502 324.913L31.5416 326.532L29.9218 329.771L29.1126 331.492L27.4928 334.731L26.5822 336.35L21.4202 346.067L19.8004 349.305L18.8898 350.925L18.1812 352.544L16.5621 355.783L15.1449 359.022L14.7397 359.832L14.4363 360.54L13.8291 362.16L13.4244 362.969L12.8172 364.589L12.6146 365.399L12.0073 367.018L11.8047 367.828L11.5013 368.637L11.2987 369.447L10.9948 370.257L10.7928 371.067L10.5901 371.775L9.98288 374.204L9.88157 375.014L9.67894 375.824L9.57825 376.633L9.37562 377.443L8.97099 380.682V381.492L8.86967 382.2L8.76836 383.01V384.629L8.46442 395.56M43.5862 468.334L43.6875 469.143L44.0921 470.763L44.5981 474.811V475.621L44.6994 476.431V481.39L44.4968 483.01V483.819L44.2948 485.439L44.0921 486.249L43.9908 487.058L43.7888 487.868L43.6875 488.678L42.8776 491.917L42.5737 492.726L42.3717 493.536L42.0677 494.346L41.8657 495.156L40.6512 498.394L40.2459 499.204L39.9426 500.014L39.5374 500.824L39.234 501.633L36.805 506.492L36.2984 507.301L35.8938 508.01L35.3878 508.819L34.9826 509.629L33.9707 511.249L33.566 512.058L31.5416 515.297L30.4284 516.917L29.4159 518.536L28.404 520.054L23.9505 526.532L21.8248 529.67L20.7116 531.289L19.6997 532.908L18.5859 534.427L15.5496 539.285L14.5377 540.803L14.0317 541.613L13.6265 542.423L13.1205 543.233L12.7159 544.042L12.2093 544.751L10.5901 547.989L10.1855 548.698L9.37562 550.317L9.07168 551.127L8.66705 551.937L8.36372 552.746L8.05978 553.455L7.65515 554.265L7.04789 555.884L6.84526 556.694L6.54132 557.402L6.33931 558.212L6.03537 559.022L5.83336 559.832L5.63073 560.54L5.02347 562.969L4.92216 563.779L4.71953 564.487L4.41621 566.917L4.3149 567.625L4.21358 568.435V569.244L4.11227 570.054V570.763L3.70763 585.034M6.03537 530.884L5.83336 530.074L5.73205 529.366L5.42811 526.937V526.127L5.32679 525.317V521.37L5.42811 520.56V519.751L5.52942 518.941V518.131L5.63073 517.423L5.73205 516.613L5.93406 515.803L6.13668 514.184L7.14858 510.135L7.35121 509.427L7.55383 508.617L7.85716 507.807L8.05978 506.998L9.57825 502.949L9.98288 502.139L10.5901 500.52L10.9948 499.71L11.4 499.002L11.7034 498.192L13.3231 494.953L13.8291 494.143L14.639 492.524L16.4608 489.285L17.4727 487.666L18.3839 486.046L26.4809 473.091L27.5941 471.471L28.5053 469.852L30.5297 466.613L31.4403 464.994L32.4522 463.374L34.2746 460.135L34.6793 459.326L35.0839 458.415L37.9182 452.747L38.5255 451.127L38.9301 450.317L39.234 449.406L40.7519 445.358L40.9545 444.548L41.2584 443.738L41.6631 442.119L41.8657 441.208L42.473 438.779L42.5737 437.969L42.7763 437.16L42.8776 436.35L42.9789 435.439L43.3836 432.2V431.39L43.4849 430.479V427.24L43.1815 415.601M10.7928 343.131L10.6915 342.22L10.1855 338.172V337.362L10.0842 336.552V330.783L10.1855 329.973V329.164L10.2868 328.354L10.3875 327.443L10.8941 323.395L11.0961 322.585L11.1974 321.674L11.602 320.054L11.7034 319.245L12.1086 317.625L12.3106 316.714L12.6146 315.904L13.0192 314.285L13.3231 313.475L13.5251 312.666L13.8291 311.755L14.1324 310.945L14.335 310.135L14.9423 308.516L15.5496 306.795L16.2581 305.176L16.8654 303.556L17.574 301.937L18.2825 300.216L19.6997 296.977L20.509 295.358L21.2175 293.738L22.0274 292.018L22.736 290.399L23.5459 288.779L24.3552 287.058L25.8736 283.718L26.6835 282.099L27.4928 280.378L28.2014 278.759L29.0113 277.038L29.7198 275.419L30.4284 273.698L31.137 272.079L31.8449 270.358L32.4522 268.637L33.1608 267.018L33.7681 265.297L33.9707 264.488L34.2746 263.678L34.5779 262.767L34.8819 261.957L35.0839 261.147L35.3878 260.236L35.5905 259.427L35.8938 258.617L36.0964 257.706L36.501 256.087L36.7037 255.176L37.1083 253.556L37.3109 252.645L37.4122 251.836L37.6143 251.026L37.7156 250.115L37.9182 249.305L38.0195 248.496L38.1208 247.585L38.2215 246.775L38.3228 245.864L38.5255 244.245V243.334L38.6268 242.524V241.714L38.7281 240.803V236.654L38.5255 230.581M42.7763 436.957L42.9789 437.868L43.0802 438.678L43.2822 439.488L43.8895 444.346V445.965L43.9908 446.775V448.394L43.8895 449.305V450.925L43.1815 456.593L42.7763 458.212L42.675 459.022L42.2703 460.641L41.9664 461.451L41.5618 463.07L40.6512 465.5L40.4486 466.309L40.0433 467.119L39.1327 469.548L38.7281 470.358L38.4241 471.168L35.5905 476.836L35.0839 477.645L34.6793 478.455L34.1733 479.265L32.3515 482.504L29.3146 487.362L28.3027 488.88L26.2783 492.119L24.1532 495.358L22.0274 498.496L21.0155 500.115L19.9017 501.735L18.8898 503.354L17.8779 504.872L16.8654 506.492L15.0436 509.73L14.5377 510.439L14.1324 511.249L13.6265 512.058L12.8172 513.678L12.3106 514.487L11.906 515.196L11.5013 516.006L11.1974 516.815L9.98288 519.244L9.67894 519.953L9.37562 520.763L8.97099 521.572L8.05978 524.002L7.75646 524.71L7.55383 525.52L7.24989 526.33L7.04789 527.139L6.74395 527.949L6.54132 528.658L5.93406 531.087L5.83336 531.896L5.63073 532.605L5.52942 533.415L5.32679 534.224L5.12478 535.844V536.552L4.92216 538.172V539.69L4.51752 553.455" stroke="black" stroke-width="1"/>
</svg>
