<svg width="51" height="712" viewBox="0 0 51 712" fill="none" xmlns="http://www.w3.org/2000/svg">
<path d="M0.409973 189.813V0.519989M0.409973 189.813L1.01601 190.015L1.52155 190.318L3.03633 190.924L3.54125 191.025L5.56157 191.833L5.96601 191.934L6.47093 192.136L6.87475 192.237L7.37968 192.439L7.78411 192.54L8.18793 192.742L9.09729 193.045L9.90492 193.247L10.7132 193.55L13.1373 194.156L13.8445 194.358L14.6527 194.56L15.3599 194.661L16.067 194.863L18.1878 195.166L18.7938 195.267L20.2081 195.469L20.8142 195.57L21.5213 195.671H22.1273L22.8345 195.772H27.9861L28.6932 195.671H29.2993L30.0064 195.57L30.6124 195.469L32.7332 195.166L33.3393 195.065L34.7536 194.863L35.4607 194.661L36.269 194.56L36.9761 194.358L37.7837 194.156L38.4909 193.954L40.1074 193.55L40.915 193.247L41.7233 193.045L42.6326 192.742L43.0365 192.54L43.5414 192.439L43.9452 192.237L44.3496 192.136L44.8546 191.934L45.3595 191.833L45.7639 191.631L47.2787 191.025L47.7836 190.924L49.299 190.318L49.905 190.015L50.41 189.813M0.409973 189.813V195.772L8.39015 200.419M50.41 0.519989V189.813M50.41 189.813V195.772L42.4304 200.419M47.3798 218.297H3.44076M47.3798 218.297L42.4304 215.469M47.3798 218.297V236.782L47.2787 236.984V237.388M3.44076 218.297L8.39015 215.469M3.44076 218.297V236.58L3.54125 236.782V237.388L3.64236 237.691V238.398L3.74347 238.6V241.732L3.64236 242.035V242.944L3.54125 243.146V243.853L3.44076 244.459V258.095M42.4304 215.469H8.39015M42.4304 215.469V211.429M8.39015 215.469V211.429M42.4304 211.429H8.39015M42.4304 211.429L44.5518 210.217L45.4606 207.893L44.5518 205.57L42.4304 204.459M8.39015 211.429L6.26872 210.217L5.46047 207.893L6.26872 205.57L8.39015 204.459M42.4304 204.459H8.39015M42.4304 204.459V200.419M8.39015 204.459V200.419M42.4304 200.419H8.39015M42.4304 700.316H8.39015M42.4304 700.316L50.41 704.862V710.821L49.905 710.619L49.299 710.417L46.7738 709.407L46.2688 709.306L45.7639 709.104L45.3595 708.902L44.8546 708.7L44.3496 708.599L43.9452 708.397L43.5414 708.296L43.0365 708.094L42.6326 707.993L41.7233 707.69L40.915 707.488L40.1074 707.185L38.4909 706.781L37.7837 706.579L36.9761 706.377L36.269 706.175L35.4607 706.074L34.7536 705.872L34.0464 705.771L33.3393 705.569L32.7332 705.468L30.6124 705.165H30.0064L29.2993 705.064H28.6932L27.9861 704.963H26.6729L26.0669 704.862H24.7537L24.1477 704.963H22.8345L22.1273 705.064H21.5213L20.8142 705.165H20.2081L18.7938 705.367L18.1878 705.468L17.4807 705.569L16.7741 705.771L16.067 705.872L15.3599 706.074L14.6527 706.175L13.8445 706.377L13.1373 706.579L10.7132 707.185L9.90492 707.488L9.09729 707.69L8.18793 707.993L7.78411 708.094L7.37968 708.296L6.87475 708.397L6.47093 708.599L5.96601 708.7L5.56157 708.902L4.55172 709.306L4.0468 709.407L1.01601 710.619L0.409973 710.821V704.862L8.39015 700.316M42.4304 700.316V696.276M8.39015 700.316V696.276M42.4304 696.276H8.39015M42.4304 696.276L44.5518 695.064L45.4606 692.74L44.5518 690.518L42.4304 689.306M8.39015 696.276L6.26872 695.064L5.46047 692.74L6.26872 690.518L8.39015 689.306M42.4304 689.306H8.39015M42.4304 689.306V685.266M8.39015 689.306V685.266M47.3798 682.438H3.44076M47.3798 682.438L42.4304 685.266M47.3798 682.438V663.549L47.2787 663.448V662.842L47.1776 662.64V661.528L47.0771 661.024V659.306L47.1776 658.7V657.69L47.2787 657.488V657.286L47.3798 656.579V642.337M3.44076 682.438L8.39015 685.266M3.44076 682.438V663.852L3.54125 663.751V663.044M42.4304 685.266H8.39015M4.1479 520.216L3.94569 519.61L3.84458 519.004L3.74347 518.498L3.54125 517.286V516.68L3.44076 516.074V513.145L3.64236 511.933V511.327L3.74347 510.822L3.84458 510.216L4.0468 509.61L4.2484 508.397L4.45061 507.791L4.65283 507.287L5.25887 505.468L5.56157 504.862L5.76379 504.256L6.0665 503.751L7.58189 500.721L7.98571 500.216L8.28904 499.61L10.3094 496.58L10.7132 496.074L11.117 495.468L11.6225 494.862L12.0264 494.256L13.0362 493.044L13.4406 492.539L15.461 490.115L16.067 489.509L17.0768 488.398L19.2994 485.973L20.4103 484.862L21.5213 483.65L27.38 477.792L29.7031 475.367L30.814 474.256L34.1475 470.62L35.1574 469.509L36.6728 467.691L37.1777 467.186L38.1882 465.974L38.592 465.368L39.0969 464.761L39.5014 464.155L40.0063 463.549L40.4101 463.044L42.4304 460.014L42.7331 459.408L43.1376 458.903L43.7436 457.691L44.1474 457.085L44.4507 456.479L44.6523 455.973L45.2584 454.761L45.6628 453.549L45.9655 452.943L46.1677 452.438L46.2688 451.832L46.6727 450.62L46.7738 450.014L46.976 449.408L47.0771 448.802L47.1776 448.297V447.691L47.3798 446.479V432.438M4.1479 380.216L3.94569 379.711L3.54125 377.287V376.681L3.44076 376.075V373.145L3.54125 372.539L3.64236 372.034V371.428L3.84458 370.216L4.0468 369.61L4.1479 369.004L4.2484 368.499L5.25887 365.469L5.56157 364.964L5.76379 364.358L7.27919 361.327L7.58189 360.822L7.98571 360.216L8.28904 359.61L9.09729 358.398L9.50111 357.893L11.117 355.469L11.6225 354.863L12.0264 354.357L13.0362 353.145L13.4406 352.539L14.9554 350.721L16.067 349.61L17.0768 348.398L18.1878 347.186L19.2994 346.075L21.5213 343.65L22.7334 342.539L25.0564 340.115L27.38 337.792L28.491 336.58L29.7031 335.469L31.9256 333.045L33.0366 331.933L34.0464 330.721L35.1574 329.509L36.1679 328.398L38.1882 325.974L38.592 325.368L39.0969 324.762L39.5014 324.257L40.0063 323.651L41.2183 321.832L41.6222 321.327L42.4304 320.115L42.7331 319.509L43.1376 318.903L43.4403 318.297L43.7436 317.792L44.1474 317.186L44.4507 316.58L44.6523 315.974L45.2584 314.762L45.4606 314.156L45.6628 313.651L45.9655 313.044L46.1677 312.438L46.2688 311.832L46.6727 310.62L46.7738 310.115L46.8749 309.509L47.0771 308.903L47.1776 308.297V307.691L47.2787 307.085L47.3798 306.58V292.439M46.7738 310.317L46.8749 310.822L47.0771 312.034L47.1776 312.641L47.3798 313.853V317.388L47.2787 317.994V318.499L46.8749 320.923L46.6727 321.529L46.5715 322.035L45.5617 325.065L45.3595 325.57L44.7534 326.782L44.5518 327.388L43.9452 328.6L43.5414 329.105L42.9353 330.317L42.1271 331.529L41.8244 332.135L41.4199 332.742L41.0161 333.246L40.6123 333.852L40.1074 334.459L39.2991 335.671L38.7942 336.277L38.2887 336.782L37.8849 337.388L35.8645 339.812L34.8547 340.923L32.6321 343.347L31.5212 344.459L29.2993 346.883L28.0872 347.994L25.7635 350.418L23.4405 352.742L21.218 355.166L20.0059 356.277L17.784 358.701L16.7741 359.812L15.6626 361.024L14.6527 362.135L12.6324 364.56L12.2286 365.166L11.7236 365.772L11.3192 366.277L10.8143 366.883L9.1984 369.307L8.79396 369.812L8.39015 370.418L8.08682 371.024L7.683 371.63L7.07697 372.842L6.77364 373.347L5.8649 375.165L5.66268 375.772L5.35997 376.378L5.15776 376.984L4.95554 377.489L4.1479 379.913L4.0468 380.519L3.94569 381.024L3.54125 383.448V384.054L3.44076 384.56V398.095M46.7738 450.216L47.1776 452.64L47.2787 453.145L47.3798 453.751V457.287L47.2787 457.893V458.499L47.0771 459.711L46.976 460.216L46.8749 460.822L46.6727 461.428L46.5715 462.034L45.9655 463.852L45.7639 464.357L45.3595 465.569L44.7534 466.781L44.5518 467.388L44.2485 467.893L43.9452 468.499L43.5414 469.105L42.9353 470.317L42.5315 470.923L42.1271 471.428L41.8244 472.034L40.6123 473.852L40.1074 474.458L39.703 474.963L39.198 475.569L38.7942 476.175L38.2887 476.782L37.8849 477.388L36.875 478.6L36.3695 479.105L34.8547 480.923L33.7437 482.034L31.5212 484.458L30.4102 485.569L28.1877 487.994L25.8647 490.317L23.5416 492.741L22.3296 493.852L20.107 496.276L18.8949 497.387L17.784 498.6L16.7741 499.812L15.6626 500.923L13.1373 503.953L12.7335 504.458L11.7236 505.67L10.9154 506.882L10.4105 507.488L10.006 507.994L8.79396 509.812L8.49125 510.418L8.08682 511.024L7.683 511.529L5.8649 515.165L5.66268 515.67L5.35997 516.276L4.75394 518.095L4.55172 518.6L4.34951 519.206L4.2484 519.812L4.0468 520.418L3.84458 521.63L3.74347 522.135L3.54125 523.347V523.953L3.44076 524.559V537.994M46.7738 590.216L46.8749 590.721L47.0771 591.933L47.1776 592.438L47.2787 593.044V593.65L47.3798 594.155V597.589L47.2787 598.195L47.1776 598.7V599.306L47.0771 599.912L46.8749 600.418L46.7738 601.024L46.6727 601.529L46.4704 602.135L46.3699 602.741L46.1677 603.246L45.7639 604.458L45.5617 604.963L45.2584 605.569L45.0568 606.175L44.7534 606.68L44.5518 607.286L44.2485 607.892L43.9452 608.397L43.6425 609.004L43.3392 609.508L42.9353 610.114L42.6326 610.721L42.2282 611.226L41.9255 611.832L41.5211 612.438L41.1172 612.943L40.7134 613.549L40.309 614.054L39.5014 615.266L39.0969 615.771L38.592 616.377L38.1882 616.983L37.6826 617.488L37.2788 618.094L36.7739 618.7L33.7437 622.034L32.6321 623.246L31.6223 624.357L29.4004 626.579L28.2888 627.791L24.9559 631.125L23.8443 632.337L21.6224 634.559L20.5115 635.771L19.3999 636.882L18.39 637.993L17.2791 639.104L16.2686 640.216L15.2587 641.428L14.2489 642.539L13.3395 643.65L12.8346 644.256L12.4302 644.862L11.9252 645.367L11.117 646.579L10.6121 647.084L9.80443 648.296L9.4 648.801L9.09729 649.407L8.69285 649.912L8.28904 650.518L7.98571 651.124L7.683 651.63L7.27919 652.236L6.97586 652.842L6.67315 653.347L6.36983 653.953L6.16761 654.559L5.8649 655.064L5.66268 655.67L5.35997 656.276L5.15776 656.781L4.95554 657.387L4.75394 657.892L4.34951 659.104L4.2484 659.609L4.0468 660.215L3.94569 660.822L3.84458 661.327L3.64236 662.539L3.54125 663.044M3.54125 663.044L3.64236 662.943V662.134L3.74347 661.731V658.599L3.64236 658.296V657.387L3.54125 657.286V656.68L3.44076 656.175V653.347L3.54125 652.741V652.135L3.64236 651.63L3.74347 651.024L3.84458 650.518L4.0468 649.306L4.1479 648.801L4.34951 648.195L4.55172 647.69L4.65283 647.084L4.85443 646.478L5.05665 645.973L5.35997 645.367L5.56157 644.761L5.76379 644.256L6.36983 643.044L6.57204 642.539L6.87475 641.933L7.17808 641.428L7.58189 640.822L7.88522 640.216L8.18793 639.71L8.59175 639.104L8.89507 638.599L9.70332 637.387L10.1071 636.882L10.511 636.276L10.9154 635.771L11.7236 634.559L12.2286 634.054L12.6324 633.448L13.1373 632.943L13.5417 632.337L14.5516 631.226L15.5615 630.013L17.5818 627.791L18.6927 626.68L19.7032 625.468L24.1477 621.024L26.3696 618.7L28.5921 616.478L29.7031 615.266L30.814 614.155L31.8245 613.044L32.9355 611.933L33.9453 610.822L34.9558 609.61L35.9656 608.498L36.4706 607.892L36.9761 607.387L37.481 606.781L37.8849 606.175L38.3898 605.67L38.7942 605.064L39.2991 604.559L40.1074 603.347L40.5112 602.842L40.915 602.236L41.3195 601.731L41.7233 601.125L42.0266 600.519L42.4304 600.014L42.7331 599.407L43.1376 598.903L43.7436 597.69L44.0463 597.185L44.6523 595.973L44.8546 595.468L45.1579 594.862L45.3595 594.357L45.6628 593.751L45.8644 593.145L46.0666 592.64L46.2688 592.034L46.3699 591.428L46.5715 590.923L46.6727 590.317L46.8749 589.811L47.0771 588.599L47.1776 588.094L47.2787 587.488V586.983L47.3798 586.377V572.337M4.1479 543.549L3.94569 542.943L3.74347 541.731L3.64236 541.226L3.54125 540.62V540.014L3.44076 539.408V536.478L3.64236 535.266V534.66L3.74347 534.155L3.84458 533.549L4.0468 532.943L4.1479 532.337L4.2484 531.731L4.65283 530.519L4.85443 530.014L5.25887 528.802L5.56157 528.196L5.76379 527.59L6.0665 527.084L7.58189 524.054L7.98571 523.549L8.28904 522.943L10.3094 519.913L10.7132 519.408L11.117 518.801L11.6225 518.195L12.0264 517.589L13.0362 516.377L13.4406 515.872L15.9659 512.842L17.0768 511.731L19.2994 509.307L20.4103 508.196L21.5213 506.984L27.38 501.125L29.602 498.701L30.814 497.59L34.1475 493.953L35.1574 492.842L36.6728 491.024L37.1777 490.519L38.1882 489.307L38.592 488.701L39.0969 488.095L39.5014 487.489L40.0063 486.883L40.4101 486.377L42.4304 483.347L42.7331 482.741L43.1376 482.236L43.7436 481.024L44.1474 480.418L44.4507 479.812L44.6523 479.307L45.2584 478.095L45.6628 476.882L45.9655 476.276L46.1677 475.772L46.2688 475.165L46.6727 473.953L46.7738 473.347L46.976 472.741L47.0771 472.135L47.1776 471.63V471.024L47.3798 469.812V455.771M4.1479 403.55L3.94569 403.044L3.54125 400.62V400.014L3.44076 399.408V396.479L3.54125 395.873L3.64236 395.367V394.761L3.84458 393.549L4.0468 392.943L4.1479 392.337L4.2484 391.832L4.65283 390.62L4.85443 390.014L5.25887 388.802L5.56157 388.196L5.76379 387.691L6.67315 385.873L6.97586 385.266L7.27919 384.66L7.58189 384.156L7.98571 383.549L8.28904 382.943L9.50111 381.125L9.90492 380.62L11.117 378.802L11.6225 378.196L12.0264 377.59L12.5313 376.984L13.0362 376.479L13.5417 375.873L13.9456 375.267L14.9554 374.055L16.067 372.944L17.0768 371.731L18.1878 370.519L19.2994 369.408L21.5213 366.984L22.7334 365.873L25.0564 363.449L27.38 361.125L28.491 359.913L30.814 357.59L31.9256 356.378L33.0366 355.267L34.1475 354.054L36.1679 351.63L36.6728 351.125L38.1882 349.307L38.592 348.701L39.0969 348.095L39.5014 347.59L40.0063 346.984L41.6222 344.56L42.0266 344.055L42.4304 343.449L42.7331 342.843L43.1376 342.236L43.7436 341.024L44.1474 340.519L44.4507 339.913L44.6523 339.307L45.2584 338.095L45.6628 336.883L45.9655 336.378L46.1677 335.772L46.2688 335.166L46.6727 333.954L46.7738 333.348L46.976 332.843L47.1776 331.63V331.024L47.3798 329.812V315.772M4.1479 263.651L3.74347 262.035V261.631L3.64236 261.226L3.54125 260.721V259.914L3.44076 259.509V256.681L3.54125 256.277V255.469L3.74347 254.661V254.257L3.94569 253.449L4.0468 252.944L4.1479 252.54L4.2484 252.136L4.65283 250.519L5.25887 248.903L5.66268 248.095L5.96601 247.287L6.36983 246.479L6.77364 245.57L7.27919 244.762L7.683 243.954L8.69285 242.338L9.29889 241.53L9.80443 240.721L10.4105 239.913L11.0165 239.004L12.2286 237.388L12.3297 237.287L12.5313 237.186L12.6324 236.984L12.7335 236.883L12.8346 236.782H13.0362L13.1373 236.681L13.2384 236.58L13.4406 236.479H13.6422L13.7433 236.378H13.9456L14.0467 236.277H14.7538L14.9554 236.378H15.0565L15.2587 236.479H15.461L15.5615 236.58L15.7637 236.681H15.8648L16.067 236.782L16.1675 236.883L16.3697 236.984L16.4708 237.085L16.5719 237.287L16.673 237.388L16.8746 237.489L16.9757 237.691L17.0768 237.792L17.178 237.994L17.2791 238.095L17.3802 238.297V238.499L17.4807 238.6L17.5818 238.802V239.004L17.6829 239.206V239.307L17.784 239.509V241.024L17.6829 241.227V241.631L17.5818 241.732L17.4807 241.934V242.136L17.3802 242.237L17.178 242.641L17.0768 242.742L16.9757 242.944L16.8746 243.045L16.7741 243.146L15.9659 244.055L13.8445 246.479L13.2384 247.287L12.5313 248.095L10.1071 251.328L9.60221 252.136L8.99618 252.944L7.48079 255.368L5.46047 259.408L4.55172 261.833L3.84458 264.661V265.065L3.64236 265.873V266.277L3.54125 266.681V267.085L3.44076 267.489V281.428M46.7738 333.651L46.8749 334.156L47.3798 337.186V340.721L47.2787 341.327V341.832L46.8749 344.256L46.6727 344.863L46.5715 345.368L45.5617 348.398L45.3595 348.903L44.7534 350.115L44.5518 350.721L43.9452 351.933L43.5414 352.539L43.2387 353.045L42.9353 353.651L42.1271 354.863L41.8244 355.469L41.4199 356.075L41.0161 356.58L40.5112 357.186L39.703 358.398L39.198 359.004L38.7942 359.61L38.2887 360.115L37.8849 360.721L35.8645 363.146L34.8547 364.257L32.6321 366.681L31.5212 367.792L29.2993 370.216L28.0872 371.327L26.9756 372.539L23.4405 376.075L22.3296 377.287L20.0059 379.61L18.8949 380.822L17.784 381.933L16.7741 383.145L15.6626 384.357L14.6527 385.469L12.6324 387.893L12.2286 388.499L11.7236 389.105L11.3192 389.61L10.8143 390.216L9.1984 392.64L8.79396 393.146L8.39015 393.752L8.08682 394.358L7.683 394.964L7.07697 396.176L6.77364 396.681L6.16761 397.893L5.8649 398.499L5.66268 399.105L5.35997 399.711L5.15776 400.317L4.95554 400.822L4.34951 402.64L4.1479 403.247L4.0468 403.853L3.94569 404.357L3.54125 406.782V407.287L3.44076 407.893V421.428M46.7738 473.549L47.1776 475.973L47.2787 476.479L47.3798 477.085V480.62L47.2787 481.226V481.832L47.0771 483.044L46.976 483.549L46.8749 484.155L46.6727 484.761L46.5715 485.367L45.9655 487.186L45.7639 487.691L45.3595 488.903L44.7534 490.115L44.5518 490.62L43.9452 491.832L43.5414 492.438L42.9353 493.65L42.5315 494.155L42.1271 494.761L41.8244 495.367L40.6123 497.186L40.1074 497.792L39.703 498.297L39.198 498.903L38.7942 499.509L38.2887 500.115L37.8849 500.721L37.3799 501.327L36.875 501.832L34.8547 504.256L33.7437 505.367L31.5212 507.791L30.4102 508.903L28.1877 511.327L23.5416 516.074L22.3296 517.186L21.218 518.398L18.8949 520.721L17.784 521.933L16.7741 523.145L15.6626 524.256L13.6422 526.68L13.1373 527.185L12.7335 527.792L11.7236 529.004L10.9154 530.216L10.4105 530.721L8.39015 533.751L8.08682 534.357L7.683 534.862L6.16761 537.893L5.8649 538.397L5.66268 539.003L5.35997 539.61L4.75394 541.428L4.55172 541.933L4.34951 542.539L4.2484 543.145L4.0468 543.751L3.84458 544.963L3.74347 545.468L3.54125 546.68V547.286L3.44076 547.892V561.327M46.7738 613.549L46.8749 614.256L47.0771 615.064L47.1776 615.872L47.2787 616.579L47.3798 617.387V619.003M47.3798 619.003V620.518L47.2787 621.226L47.0771 622.842L46.976 623.549L46.5715 625.165L46.3699 625.872L46.1677 626.68L45.8644 627.488L45.5617 628.195L44.9557 629.812L44.5518 630.519L43.7436 632.135L43.3392 632.842L42.3293 634.458L41.9255 635.165L41.3195 635.973L40.8139 636.781L40.309 637.488L39.0969 639.104L38.4909 639.811L37.2788 641.428L36.5717 642.135L35.9656 642.943L35.2585 643.751L34.5514 644.458L33.1377 646.074L32.4305 646.781L31.0163 648.397L30.208 649.104L28.6932 650.721L25.6624 653.751L24.1477 655.367L21.1175 658.397L19.6021 660.013L18.1878 661.528L17.4807 662.337L16.4708 663.347L16.3697 663.448L16.1675 663.549L16.067 663.65L15.9659 663.751L15.7637 663.852L15.6626 663.953H15.461L15.2587 664.054H15.1576L14.9554 664.155H13.9456L13.7433 664.054H13.6422L13.4406 663.953H13.3395L13.1373 663.852L13.0362 663.751L12.8346 663.65L12.6324 663.448L12.5313 663.347L12.4302 663.246L12.3297 663.044L12.2286 662.943L12.1275 662.842L12.0264 662.64L11.9252 662.539L11.8241 662.337L11.7236 662.134V662.034L11.5214 661.63V661.528L11.4203 661.125V660.721L11.3192 660.418V660.013L11.4203 659.609V659.306L11.5214 658.902V658.7L11.6225 658.498V658.397L11.7236 658.195L11.8241 657.993L11.9252 657.892V657.69L12.0264 657.589L12.1275 657.387L12.2286 657.286L12.9357 656.478L13.5417 655.771L14.1478 654.963L14.8549 654.155L15.461 653.448L16.1675 652.64L16.8746 651.933L18.2889 650.317L18.9961 649.609L19.7032 648.801L20.5115 648.094L21.9251 646.478L28.0872 640.316L29.5009 638.801L31.0163 637.286L32.4305 635.771L33.8442 634.155L34.5514 633.448L35.9656 631.832L36.5717 631.125L37.2788 630.316L37.8849 629.609L39.0969 627.993L39.703 627.286L40.309 626.478L40.8139 625.67L41.3195 624.963L41.8244 624.155L42.3293 623.448L43.3392 621.832L43.7436 621.125L44.5518 619.508L44.8546 618.801L45.2584 617.993L45.5617 617.286L45.8644 616.478L46.0666 615.67L46.3699 614.963L46.5715 614.155L46.7738 613.448L46.976 612.64L47.0771 611.832L47.1776 611.125L47.3798 609.508V595.67M47.3798 619.003V632.943L47.2787 633.347V634.155L47.1776 634.559L47.0771 634.963V635.367L46.2688 638.599L45.3595 641.023L44.9557 641.832L44.6523 642.64L44.2485 643.448L43.7436 644.256L43.3392 645.165L41.3195 648.397L38.2887 652.438L37.5821 653.246L36.9761 654.054L34.1475 657.286L33.9453 657.387L33.8442 657.589L33.7437 657.69L33.6426 657.892L33.5415 657.993L33.4404 658.195V658.397L33.3393 658.498L33.2382 658.7V658.902L33.1377 659.104V659.306L33.0366 659.407V660.721L33.1377 660.922V661.327L33.2382 661.528V661.63L33.4404 662.034L33.5415 662.134V662.337L33.6426 662.539L33.7437 662.64L33.8442 662.842L34.0464 662.943L34.1475 663.044L34.2486 663.246L34.3498 663.347L34.5514 663.448L34.7536 663.65L34.9558 663.751L35.0569 663.852L35.2585 663.953H35.4607L35.5618 664.054H35.7634L35.9656 664.155H36.875L37.0766 664.054H37.2788L37.3799 663.953H37.5821L37.6826 663.852L37.8849 663.751L37.986 663.65L38.0871 663.549L38.2887 663.448L38.3898 663.347L38.4909 663.246L38.592 663.044L41.6222 659.003L42.1271 658.195L42.6326 657.286L43.6425 655.67L45.2584 652.438L45.5617 651.63L45.8644 650.721L46.1677 649.912L46.3699 649.104L46.5715 648.7L46.8749 647.488V647.084L47.0771 646.276L47.1776 645.872V645.468L47.2787 645.064V644.66L47.3798 644.256V640.519L47.2787 640.114V639.71L47.1776 639.306V638.902L47.0771 638.498L46.976 638.094V637.69L46.7738 636.882M4.1479 636.882L3.94569 636.276L3.54125 633.852V633.347L3.44076 632.741V629.71L3.54125 629.205L3.64236 628.599V627.993L3.84458 626.781L4.0468 626.276L4.2484 625.064L4.85443 623.246L5.05665 622.741L5.25887 622.135L5.56157 621.529L5.76379 620.923L6.67315 619.105L6.97586 618.599L7.58189 617.387L7.98571 616.781L8.28904 616.175L8.69285 615.569L9.09729 615.064L11.117 612.034L11.6225 611.529L12.0264 610.923L13.0362 609.71L13.4406 609.104L13.9456 608.498L14.4505 607.993L14.9554 607.387L16.067 606.175L17.0768 604.963L18.1878 603.852L20.4103 601.428L22.7334 599.104L23.8443 597.892L25.0564 596.781L27.38 594.357L28.491 593.145L29.7031 592.034L31.9256 589.61L33.0366 588.499L34.1475 587.286L35.1574 586.175L38.1882 582.539L38.592 582.034L39.0969 581.428L39.5014 580.822L40.0063 580.216L40.8139 579.004L41.2183 578.498L42.4304 576.68L42.7331 576.074L43.1376 575.468L43.4403 574.963L43.7436 574.357L44.1474 573.751L44.4507 573.145L44.6523 572.539L44.9557 571.933L45.2584 571.428L45.6628 570.216L45.9655 569.609L46.1677 569.003L46.2688 568.397L46.4704 567.791L46.6727 567.286L46.7738 566.68L46.976 566.074L47.1776 564.862V564.256L47.2787 563.751L47.3798 563.145V549.104M4.1479 496.883L3.94569 496.276L3.84458 495.67L3.74347 495.165L3.54125 493.953V493.347L3.44076 492.741V489.812L3.64236 488.6V488.095L3.84458 486.883L4.0468 486.276L4.2484 485.064L4.45061 484.458L4.65283 483.953L5.25887 482.135L5.56157 481.529L5.76379 480.923L6.0665 480.418L7.27919 477.994L7.58189 477.489L7.98571 476.882L8.28904 476.276L9.09729 475.064L9.4 474.458L9.90492 473.852L10.3094 473.347L11.117 472.135L11.6225 471.529L12.0264 470.923L13.0362 469.711L13.4406 469.206L14.9554 467.388L15.9659 466.277L18.1878 463.852L19.2994 462.741L21.5213 460.317L27.38 454.458L29.602 452.034L30.814 450.923L33.0366 448.499L34.1475 447.388L36.6728 444.357L37.1777 443.852L38.1882 442.64L38.592 442.034L39.0969 441.428L39.5014 440.822L40.0063 440.317L42.4304 436.681L42.7331 436.176L43.1376 435.569L43.7436 434.357L44.1474 433.751L44.4507 433.145L44.6523 432.64L45.2584 431.428L45.6628 430.216L45.9655 429.61L46.1677 429.105L46.2688 428.499L46.4704 427.893L46.6727 427.287L46.8749 426.075L47.0771 425.57L47.1776 424.964V424.358L47.3798 423.145V409.105M4.1479 356.883L3.94569 356.378L3.54125 353.954V353.348L3.44076 352.842V349.812L3.54125 349.206L3.64236 348.701V348.095L3.84458 346.883L4.0468 346.277L4.1479 345.772L4.2484 345.166L5.05665 342.741L5.25887 342.236L5.56157 341.63L5.76379 341.024L6.97586 338.6L7.27919 338.095L7.58189 337.489L7.98571 336.883L8.28904 336.277L9.09729 335.065L9.50111 334.56L11.117 332.135L11.6225 331.529L12.0264 331.024L13.0362 329.812L13.4406 329.206L14.4505 327.994L14.9554 327.489L16.067 326.277L17.0768 325.065L18.1878 323.853L19.2994 322.742L21.5213 320.317L22.7334 319.206L25.0564 316.782L27.38 314.459L28.491 313.247L29.7031 312.135L31.9256 309.711L33.0366 308.6L34.1475 307.388L35.1574 306.176L36.1679 305.065L38.1882 302.64L38.592 302.034L39.0969 301.428L39.5014 300.923L40.0063 300.317L41.6222 297.893L42.0266 297.388L42.4304 296.782L42.7331 296.176L43.1376 295.57L43.4403 294.964L43.7436 294.459L44.1474 293.853L44.4507 293.247L44.6523 292.641L45.2584 291.429L45.4606 290.823L45.6628 290.317L45.9655 289.711L46.1677 289.105L46.2688 288.499L46.6727 287.287L46.7738 286.782L46.976 286.176L47.1776 284.964V284.358L47.2787 283.752L47.3798 283.247V269.105M46.7738 286.984L46.8749 287.59L46.976 288.095L47.3798 290.519V294.055L47.2787 294.661V295.267L47.1776 295.772L46.8749 297.59L46.6727 298.196L46.5715 298.701L45.5617 301.731L45.3595 302.237L44.7534 303.449L44.5518 304.055L43.9452 305.267L43.5414 305.873L43.2387 306.378L42.9353 306.984L42.1271 308.196L41.8244 308.802L41.4199 309.408L41.0161 309.913L40.6123 310.519L40.1074 311.125L39.2991 312.338L38.7942 312.944L38.2887 313.449L37.8849 314.055L35.8645 316.479L34.8547 317.59L32.6321 320.014L31.5212 321.125L29.2993 323.55L28.1877 324.661L25.8647 327.085L23.4405 329.408L21.218 331.832L20.0059 332.943L17.784 335.368L16.7741 336.479L15.6626 337.691L14.6527 338.802L13.1373 340.62L12.7335 341.226L11.7236 342.438L11.3192 343.044L10.8143 343.55L9.1984 345.974L8.79396 346.479L8.39015 347.085L8.08682 347.691L7.683 348.297L7.07697 349.509L6.77364 350.014L5.8649 351.832L5.66268 352.438L5.35997 353.045L5.15776 353.651L4.95554 354.156L4.1479 356.58L4.0468 357.186L3.94569 357.691L3.54125 360.115V360.721L3.44076 361.226V374.762M46.7738 426.883L47.1776 429.307L47.2787 429.812L47.3798 430.418V433.953L47.2787 434.559V435.165L47.1776 435.771L47.0771 436.378L46.976 436.984L46.8749 437.489L46.6727 438.095L46.5715 438.701L45.9655 440.519L45.7639 441.024L45.3595 442.236L44.7534 443.448L44.5518 444.054L44.2485 444.56L43.9452 445.166L43.5414 445.772L42.9353 446.984L42.5315 447.59L42.1271 448.095L41.8244 448.701L40.6123 450.519L40.1074 451.125L39.703 451.731L39.2991 452.236L38.2887 453.448L37.8849 454.054L36.875 455.267L36.3695 455.771L34.8547 457.59L33.7437 458.802L32.6321 459.913L30.4102 462.337L28.0872 464.66L23.5416 469.408L21.218 471.731L20.107 472.943L18.8949 474.054L17.784 475.266L16.7741 476.479L15.6626 477.59L13.1373 480.62L12.7335 481.125L11.7236 482.337L10.9154 483.549L10.4105 484.155L10.006 484.66L8.39015 487.085L8.08682 487.691L7.683 488.297L7.37968 488.802L7.07697 489.408L5.8649 491.832L5.66268 492.337L5.35997 492.943L4.55172 495.367L4.34951 495.872L4.2484 496.478L4.0468 497.084L3.64236 499.509L3.54125 500.014V500.62L3.44076 501.226V514.66M46.7738 566.882L46.976 568.094L47.0771 568.6L47.3798 570.418V573.953L47.2787 574.559V575.165L47.1776 575.771L47.0771 576.276L46.8749 577.489L46.6727 578.095L46.5715 578.701L46.3699 579.205L45.3595 582.236L45.0568 582.842L44.7534 583.347L44.5518 583.953L43.9452 585.165L43.5414 585.771L42.9353 586.983L42.5315 587.488L42.1271 588.094L41.8244 588.7L41.0161 589.913L40.6123 590.418L40.1074 591.024L39.2991 592.236L38.2887 593.448L37.8849 593.953L34.8547 597.589L33.7437 598.7L31.5212 601.125L30.4102 602.236L28.1877 604.66L26.9756 605.771L25.8647 606.983L23.4405 609.307L21.218 611.731L20.0059 612.842L17.784 615.266L16.7741 616.377L15.6626 617.589L14.1478 619.408L13.6422 619.912L12.6324 621.125L12.2286 621.731L11.7236 622.337L11.3192 622.943L10.8143 623.549L10.4105 624.054L8.79396 626.478L8.39015 626.983L8.08682 627.589L7.683 628.195L6.77364 630.013L6.47093 630.519L5.8649 631.731L5.66268 632.337L5.35997 632.943L4.95554 634.155L4.75394 634.66L4.1479 636.478L3.94569 637.69L3.84458 638.195L3.54125 640.013V640.62L3.44076 641.226V654.66M47.2787 237.388L47.1776 237.994M47.2787 237.388V237.691L47.1776 237.994M47.1776 237.994L47.0771 238.499L46.8749 239.712L46.7738 240.216L46.5715 240.823L46.4704 241.429L46.2688 241.934L45.8644 243.146L45.6628 243.651L45.2584 244.863L44.9557 245.368L44.7534 245.974L44.4507 246.58L44.1474 247.085L43.8447 247.691L43.5414 248.196L43.2387 248.802L42.8342 249.408L42.5315 249.913L42.1271 250.519L41.8244 251.125L41.4199 251.631L40.6123 252.843L40.2079 253.348L39.8041 253.954L39.2991 254.56L38.8947 255.065L38.4909 255.671L37.986 256.277L37.481 256.782L36.5717 257.893L35.5618 259.105L32.5316 262.439L31.4201 263.651L28.0872 266.984L23.6427 271.63L20.3092 274.964L19.1983 276.176L18.1878 277.287L17.0768 278.398L16.067 279.509L15.0565 280.722L14.5516 281.226L14.0467 281.832L13.6422 282.439L13.1373 282.944L12.6324 283.55L12.2286 284.156L11.8241 284.661L11.3192 285.267L10.9154 285.772L10.1071 286.984L9.70332 287.489L9.29889 288.095L8.89507 288.6L8.59175 289.206L8.18793 289.812L7.88522 290.317L7.58189 290.923L7.17808 291.529L6.87475 292.035L6.26872 293.247L6.0665 293.752L5.76379 294.358L5.56157 294.964L5.25887 295.469L5.05665 296.075L4.85443 296.58L4.65283 297.186L4.55172 297.792L4.34951 298.297L4.1479 298.903L4.0468 299.509L3.94569 300.014L3.84458 300.62L3.74347 301.125L3.54125 302.337V302.843L3.44076 303.449V306.277L3.54125 306.883V307.388L3.74347 308.6L3.84458 309.105L3.94569 309.711L4.1479 310.317M47.1776 237.994V238.701L47.0771 239.106V241.429L47.1776 241.833V242.54L47.2787 242.944V243.752L47.3798 244.358V247.691L47.1776 248.903V249.408L47.0771 250.014L46.8749 250.519L46.6727 251.732L46.4704 252.237L46.3699 252.843L46.1677 253.348L45.9655 253.954L45.7639 254.56L45.5617 255.065L45.2584 255.671L45.0568 256.277L44.7534 256.782L44.5518 257.388L44.2485 257.994L43.9452 258.499L43.6425 259.105L43.3392 259.61L42.9353 260.217L42.6326 260.823L42.3293 261.327L41.9255 261.934L41.5211 262.439L41.1172 263.045L40.8139 263.651L40.4101 264.156L39.9052 264.762L39.5014 265.267L39.0969 265.873L38.592 266.479L38.1882 266.984L37.6826 267.59L37.2788 268.196L34.2486 271.53L33.2382 272.742L32.2283 273.853L30.0064 276.075L28.9959 277.186L27.885 278.398L26.6729 279.509L24.4504 281.731L23.3394 282.944L20.0059 286.277L18.9961 287.388L17.8851 288.6L14.8549 291.933L13.8445 293.146L13.4406 293.651L12.9357 294.257L12.5313 294.863L12.0264 295.368L11.6225 295.974L11.117 296.479L10.3094 297.691L9.90492 298.196L9.50111 298.802L9.1984 299.307L8.39015 300.519L8.08682 301.024L7.78411 301.63L7.37968 302.136L6.77364 303.348L6.47093 303.853L6.16761 304.459L5.96601 305.065L5.66268 305.57L5.25887 306.782L5.05665 307.287L4.85443 307.893L4.65283 308.398L4.2484 309.61L4.1479 310.115L4.0468 310.721L3.84458 311.226L3.64236 312.438V312.944L3.54125 313.55V314.055L3.44076 314.661V328.095M4.1479 590.216L3.94569 589.61L3.74347 588.397L3.64236 587.893L3.54125 587.286V586.68L3.44076 586.074V583.145L3.64236 581.933V581.327L3.84458 580.115L4.0468 579.61L4.2484 578.398L4.65283 577.185L4.85443 576.68L5.25887 575.468L5.56157 574.862L5.76379 574.256L6.0665 573.65L6.36983 573.145L7.58189 570.721L7.98571 570.115L8.28904 569.509L8.69285 569.003L10.7132 565.973L11.117 565.468L11.6225 564.862L12.0264 564.256L13.0362 563.044L13.4406 562.438L13.9456 561.933L15.461 560.115L16.067 559.508L17.0768 558.296L18.1878 557.185L20.4103 554.761L25.0564 550.115L27.38 547.69L29.7031 545.367L30.814 544.155L31.9256 543.044L34.1475 540.62L35.1574 539.509L37.6826 536.478L38.1882 535.973L38.592 535.367L39.0969 534.761L39.5014 534.155L40.0063 533.549L40.8139 532.337L41.2183 531.832L42.4304 530.014L42.7331 529.408L43.1376 528.902L43.7436 527.69L44.1474 527.084L44.4507 526.478L44.6523 525.872L44.9557 525.367L45.2584 524.761L45.6628 523.549L45.9655 522.943L46.1677 522.337L46.2688 521.731L46.4704 521.226L46.6727 520.62L46.7738 520.014L46.976 519.408L47.1776 518.195V517.691L47.3798 516.478V502.438M4.1479 450.216L3.94569 449.61L3.84458 449.004L3.74347 448.499L3.54125 447.287V446.681L3.44076 446.075V443.145L3.54125 442.539L3.64236 442.034V441.428L3.84458 440.216L4.0468 439.61L4.2484 438.398L4.45061 437.893L5.25887 435.468L5.56157 434.862L5.76379 434.357L7.27919 431.327L7.58189 430.822L7.98571 430.216L8.28904 429.61L9.50111 427.792L9.90492 427.287L11.117 425.468L11.6225 424.862L12.0264 424.256L12.5313 423.65L13.0362 423.145L13.4406 422.539L14.9554 420.721L16.067 419.61L17.0768 418.398L18.1878 417.186L19.2994 416.075L21.5213 413.651L22.7334 412.539L27.38 407.792L28.491 406.58L30.814 404.256L33.0366 401.832L34.1475 400.721L36.1679 398.297L36.6728 397.792L38.1882 395.974L38.592 395.367L39.0969 394.761L39.5014 394.256L40.0063 393.65L41.6222 391.226L42.0266 390.721L42.4304 390.115L42.7331 389.509L43.1376 388.903L43.7436 387.691L44.1474 387.085L44.4507 386.58L44.6523 385.974L45.2584 384.762L45.6628 383.549L45.9655 383.045L46.1677 382.438L46.2688 381.832L46.6727 380.62L46.7738 380.014L46.8749 379.509L47.0771 378.903L47.1776 378.297V377.691L47.3798 376.479V362.438M46.7738 380.216L47.2787 383.246L47.3798 383.751V387.287L47.2787 387.893V388.499L46.8749 390.923L46.6727 391.428L46.5715 392.034L45.7639 394.458L45.5617 394.964L45.3595 395.57L44.7534 396.782L44.5518 397.388L44.2485 397.893L43.9452 398.499L43.5414 399.105L42.9353 400.317L42.1271 401.529L41.8244 402.135L41.4199 402.64L41.0161 403.247L40.5112 403.853L39.2991 405.671L38.7942 406.176L38.2887 406.782L37.8849 407.388L36.875 408.6L36.3695 409.105L34.8547 410.923L33.7437 412.135L32.6321 413.246L30.4102 415.671L29.2993 416.782L28.1877 417.994L25.8647 420.317L23.5416 422.741L20.0059 426.277L18.8949 427.489L17.784 428.6L16.7741 429.812L15.6626 431.024L15.1576 431.529L13.1373 433.953L12.7335 434.559L12.2286 435.065L11.7236 435.671L10.9154 436.883L10.4105 437.489L9.60221 438.701L9.1984 439.206L8.39015 440.418L8.08682 441.024L7.683 441.63L7.37968 442.236L7.07697 442.741L6.77364 443.347L6.47093 443.953L5.8649 445.166L5.66268 445.67L5.35997 446.277L4.34951 449.307L4.1479 449.812L3.54125 453.448V453.953L3.44076 454.559V468.095M46.7738 520.216L47.0771 522.034L47.1776 522.539L47.3798 523.751V527.287L47.2787 527.893V528.499L47.1776 529.105L47.0771 529.61L46.8749 530.822L46.6727 531.428L46.5715 532.034L46.3699 532.64L46.1677 533.145L45.3595 535.569L44.7534 536.781L44.5518 537.286L43.9452 538.499L43.5414 539.105L42.9353 540.317L42.5315 540.822L42.1271 541.428L41.8244 542.034L40.6123 543.852L40.1074 544.357L39.2991 545.569L38.2887 546.781L37.8849 547.387L37.3799 547.993L36.875 548.498L34.8547 550.923L33.7437 552.034L31.5212 554.458L30.4102 555.569L28.1877 557.993L25.7635 560.317L23.4405 562.741L22.3296 563.852L21.218 565.064L20.0059 566.175L17.784 568.6L16.7741 569.812L16.1675 570.317L13.6422 573.347L13.1373 573.852L12.6324 574.458L12.2286 575.064L11.7236 575.67L11.3192 576.276L10.8143 576.882L10.4105 577.387L8.79396 579.812L8.49125 580.418L8.08682 580.923L7.683 581.529L6.16761 584.559L5.8649 585.064L5.66268 585.67L5.35997 586.276L4.75394 588.094L4.55172 588.599L4.1479 589.811L3.94569 591.024L3.84458 591.529L3.54125 593.347V593.953L3.44076 594.559V607.993M4.1479 613.549L3.94569 612.943L3.64236 611.125L3.54125 610.62V610.013L3.44076 609.407V606.478L3.64236 605.266V604.66L3.84458 603.448L4.0468 602.943L4.2484 601.731L4.65283 600.519L4.85443 599.912L5.05665 599.407L5.25887 598.801L5.56157 598.195L5.76379 597.589L6.36983 596.377L6.67315 595.872L7.58189 594.054L7.98571 593.448L8.28904 592.842L8.69285 592.236L9.09729 591.731L10.7132 589.306L11.117 588.802L11.6225 588.196L12.0264 587.589L13.0362 586.377L13.4406 585.771L13.9456 585.266L15.461 583.448L16.067 582.842L17.0768 581.63L18.1878 580.519L20.4103 578.095L25.0564 573.448L27.38 571.024L29.7031 568.7L30.814 567.488L31.9256 566.377L34.1475 563.953L35.1574 562.842L38.1882 559.205L38.592 558.701L39.6018 557.488L40.8139 555.67L41.2183 555.165L42.4304 553.347L42.7331 552.741L43.1376 552.135L43.4403 551.63L43.7436 551.024L44.1474 550.418L44.4507 549.812L44.6523 549.206L44.9557 548.6L45.2584 548.095L45.6628 546.882L45.9655 546.276L46.3699 545.064L46.4704 544.458L46.6727 543.953L46.7738 543.347L46.976 542.741L47.0771 542.135L47.1776 541.529V540.923L47.2787 540.418L47.3798 539.812V525.771M4.1479 473.549L3.94569 472.943L3.84458 472.337L3.74347 471.832L3.54125 470.62V470.014L3.44076 469.408V466.478L3.64236 465.266V464.761L3.84458 463.549L4.0468 462.943L4.2484 461.731L4.45061 461.226L5.25887 458.802L5.56157 458.196L5.76379 457.59L6.0665 457.085L7.27919 454.66L7.58189 454.155L7.98571 453.549L8.28904 452.943L9.50111 451.125L9.90492 450.62L11.117 448.802L11.6225 448.196L12.0264 447.59L12.5313 446.984L13.0362 446.479L13.4406 445.872L14.9554 444.054L16.067 442.943L17.0768 441.731L18.1878 440.519L19.2994 439.408L21.5213 436.984L27.38 431.125L29.602 428.701L30.814 427.59L33.0366 425.165L34.1475 424.055L36.6728 421.024L37.1777 420.519L38.1882 419.307L38.592 418.701L39.0969 418.095L39.5014 417.59L40.0063 416.984L41.6222 414.56L42.0266 414.054L42.4304 413.448L42.7331 412.842L43.1376 412.236L43.7436 411.024L44.1474 410.418L44.4507 409.913L44.6523 409.307L45.2584 408.095L45.6628 406.883L45.9655 406.378L46.1677 405.772L46.2688 405.165L46.6727 403.953L46.7738 403.347L46.8749 402.842L47.0771 402.236L47.1776 401.63V401.024L47.3798 399.812V385.772M4.1479 333.651L3.94569 333.045L3.54125 330.62V330.115L3.44076 329.509V326.479L3.54125 325.974L3.64236 325.368V324.762L3.84458 323.55L4.0468 322.944L4.1479 322.439L4.2484 321.832L5.05665 319.408L5.25887 318.903L5.56157 318.297L5.76379 317.691L6.0665 317.085L6.67315 315.873L6.97586 315.368L7.58189 314.156L7.98571 313.55L8.28904 312.944L9.09729 311.731L9.50111 311.226L11.117 308.802L11.6225 308.196L12.0264 307.691L13.0362 306.479L13.4406 305.873L14.4505 304.661L14.9554 304.156L15.461 303.55L16.067 302.944L17.0768 301.731L18.1878 300.519L19.2994 299.408L21.5213 296.984L22.7334 295.873L25.0564 293.55L27.38 291.126L28.491 289.913L29.7031 288.802L31.9256 286.378L33.0366 285.267L34.1475 284.055L35.1574 282.843L36.1679 281.731L38.1882 279.307L38.592 278.701L39.0969 278.196L39.5014 277.59L40.0063 276.984L41.6222 274.56L42.0266 274.055L42.4304 273.449L42.7331 272.843L43.1376 272.237L43.4403 271.63L43.7436 271.125L44.1474 270.519L44.4507 269.913L44.6523 269.307L45.2584 268.095L45.4606 267.59L45.6628 266.984L45.9655 266.378L46.3699 265.166L46.4704 264.56L46.6727 263.954L46.7738 263.449L46.976 262.843L47.1776 261.631V261.024L47.2787 260.418L47.3798 259.914V245.772M46.7738 263.651L46.8749 264.257L46.976 264.762L47.3798 267.186V270.721L47.2787 271.327V271.934L47.1776 272.439L46.8749 274.257L46.6727 274.863L46.5715 275.469L46.3699 275.974L45.3595 279.004L45.0568 279.509L44.7534 280.115L44.5518 280.722L43.9452 281.934L43.5414 282.54L43.2387 283.146L42.9353 283.651L42.1271 284.863L41.8244 285.469L41.4199 286.075L41.0161 286.58L40.6123 287.186L40.1074 287.792L39.2991 289.004L38.7942 289.61L38.2887 290.115L37.8849 290.721L35.8645 293.146L34.8547 294.257L32.6321 296.681L31.5212 297.792L29.2993 300.216L26.9756 302.54L25.8647 303.752L23.4405 306.075L21.218 308.499L20.0059 309.61L17.784 312.034L16.7741 313.146L15.6626 314.358L14.6527 315.57L14.1478 316.075L13.1373 317.287L12.7335 317.893L11.7236 319.105L11.3192 319.711L10.8143 320.216L9.1984 322.641L8.79396 323.145L8.49125 323.752L7.683 324.964L7.07697 326.176L6.77364 326.681L5.8649 328.499L5.66268 329.105L5.35997 329.711L5.15776 330.317L4.95554 330.822L4.1479 333.246L4.0468 333.852L3.94569 334.358L3.54125 336.782V337.388L3.44076 337.893V351.428M46.7738 403.55L47.1776 405.974L47.2787 406.479L47.3798 407.085V410.62L47.2787 411.226V411.832L46.976 413.651L46.8749 414.155L46.6727 414.761L46.5715 415.368L45.9655 417.186L45.7639 417.691L45.3595 418.903L44.7534 420.115L44.5518 420.721L44.2485 421.226L43.9452 421.832L43.5414 422.438L42.9353 423.65L42.5315 424.256L42.1271 424.761L41.8244 425.367L40.6123 427.186L40.1074 427.792L39.703 428.398L39.2991 428.903L38.2887 430.115L37.8849 430.721L36.875 431.933L36.3695 432.438L34.8547 434.256L33.7437 435.468L32.6321 436.58L30.4102 439.004L29.2993 440.115L28.1877 441.327L25.8647 443.65L23.5416 446.075L20.0059 449.61L18.8949 450.822L17.784 451.933L16.7741 453.145L15.6626 454.256L13.1373 457.287L12.7335 457.792L11.7236 459.004L11.3192 459.61L10.8143 460.216L10.006 461.428L9.60221 461.933L8.39015 463.751L8.08682 464.357L7.683 464.963L7.37968 465.468L5.8649 468.499L5.66268 469.004L5.35997 469.61L4.95554 470.822L4.75394 471.428L4.34951 472.64L4.1479 473.145L3.64236 476.175L3.54125 476.681V477.287L3.44076 477.893V491.327M46.7738 543.549L47.0771 545.367L47.1776 545.872L47.3798 547.084V550.62L47.2787 551.226V551.832L47.1776 552.438L47.0771 552.943L46.8749 554.155L46.6727 554.761L46.5715 555.367L46.3699 555.973L46.1677 556.478L45.3595 558.902L44.7534 560.115L44.5518 560.62L43.9452 561.832L43.5414 562.438L42.9353 563.65L42.5315 564.155L42.1271 564.761L41.8244 565.367L41.0161 566.579L40.6123 567.084L40.1074 567.691L39.703 568.297L39.198 568.903L38.7942 569.509L38.2887 570.115L37.8849 570.721L37.3799 571.226L34.8547 574.256L33.7437 575.367L31.5212 577.792L30.4102 578.902L28.1877 581.327L22.3296 587.185L21.218 588.397L18.8949 590.721L17.784 591.933L16.7741 593.044L16.1675 593.65L14.1478 596.074L13.6422 596.579L13.1373 597.185L12.7335 597.791L11.7236 599.003L11.3192 599.609L10.9154 600.115L10.4105 600.721L8.79396 603.145L8.49125 603.65L7.683 604.862L6.47093 607.286L6.16761 607.791L5.8649 608.397L5.66268 609.004L5.35997 609.61L4.95554 610.822L4.75394 611.327L4.34951 612.539L4.2484 613.145L4.0468 613.751L3.94569 614.357L3.84458 614.862L3.54125 616.68V617.286L3.44076 617.892V631.327M4.1479 566.882L3.94569 566.276L3.74347 565.064L3.64236 564.559L3.54125 563.953V563.347L3.44076 562.741V559.812L3.54125 559.205L3.64236 558.599V557.993L3.74347 557.387L3.84458 556.882L4.0468 556.276L4.2484 555.064L4.65283 553.852L4.85443 553.347L5.25887 552.135L5.56157 551.529L5.76379 550.923L6.0665 550.317L6.36983 549.812L7.58189 547.387L7.98571 546.781L8.28904 546.175L8.69285 545.67L10.7132 542.64L11.117 542.135L11.6225 541.529L12.0264 540.923L13.0362 539.711L13.4406 539.206L15.461 536.781L16.067 536.175L16.5719 535.569L17.0768 535.064L20.4103 531.428L27.38 524.458L29.7031 522.034L30.814 520.822L31.9256 519.711L34.1475 517.286L35.1574 516.175L37.1777 513.751L37.6826 513.246L38.1882 512.64L38.592 512.034L39.0969 511.428L39.5014 510.822L40.0063 510.216L40.4101 509.61L40.8139 509.105L42.4304 506.681L42.7331 506.074L43.1376 505.569L43.7436 504.357L44.1474 503.751L44.4507 503.145L44.6523 502.539L44.9557 502.034L45.2584 501.428L45.6628 500.216L45.9655 499.61L46.1677 499.004L46.2688 498.499L46.6727 497.287L46.7738 496.681L46.976 496.074L47.1776 494.862V494.357L47.3798 493.145V479.105M4.1479 426.883L3.94569 426.277L3.84458 425.772L3.54125 423.953V423.347L3.44076 422.741V419.812L3.54125 419.206L3.64236 418.701V418.095L3.84458 416.883L4.0468 416.277L4.1479 415.671L4.2484 415.166L5.25887 412.135L5.56157 411.529L5.76379 411.024L7.27919 407.994L7.58189 407.489L7.98571 406.883L8.28904 406.277L9.50111 404.459L9.90492 403.953L11.117 402.135L11.6225 401.529L12.0264 400.923L12.5313 400.317L13.0362 399.812L13.4406 399.206L14.9554 397.388L16.067 396.277L17.0768 395.064L18.1878 393.852L19.2994 392.741L21.5213 390.317L22.7334 389.206L25.0564 386.782L27.38 384.459L28.491 383.246L29.7031 382.135L33.0366 378.499L34.1475 377.388L36.1679 374.964L36.6728 374.459L38.1882 372.64L38.592 372.034L39.0969 371.428L39.5014 370.923L40.0063 370.317L41.6222 367.893L42.0266 367.388L42.4304 366.782L42.7331 366.176L43.1376 365.57L43.7436 364.358L44.1474 363.752L44.4507 363.246L44.6523 362.64L45.2584 361.428L45.6628 360.216L45.9655 359.711L46.1677 359.105L46.2688 358.499L46.6727 357.287L46.7738 356.782L46.8749 356.176L47.0771 355.57L47.1776 354.964V354.357L47.3798 353.145V339.105M4.1479 286.984L3.74347 285.368L3.64236 284.661L3.54125 283.853V283.045L3.44076 282.338V280.014L3.64236 278.398L3.74347 277.691L3.84458 276.883L4.0468 276.075L4.2484 275.368L4.45061 274.56L4.75394 273.853L4.95554 273.045L5.25887 272.237L5.56157 271.53L5.96601 270.721L6.26872 269.913L6.67315 269.206L7.48079 267.59L7.98571 266.883L8.99618 265.267L9.50111 264.56L10.511 262.944L11.117 262.237L12.3297 260.62L12.9357 259.914L13.5417 259.105L14.2489 258.297L14.8549 257.59L16.2686 255.974L16.9757 255.267L18.39 253.651L19.0972 252.944L20.6119 251.328L23.6427 248.297L25.1575 246.681L28.1877 243.651L29.7031 242.035L31.2185 240.519L31.9256 239.712L33.4404 238.196L34.1475 237.388L34.2486 237.287L34.3498 237.186L34.4509 236.984L34.6525 236.883L34.7536 236.782H34.9558L35.0569 236.681L35.2585 236.58L35.3596 236.479H35.5618L35.7634 236.378H35.8645L36.0667 236.277H36.7739L36.875 236.378H37.0766L37.1777 236.479H37.3799L37.5821 236.58L37.6826 236.681H37.8849L38.0871 236.883L38.1882 236.984L38.3898 237.085L38.4909 237.287L38.6931 237.489L38.7942 237.691L38.8947 237.792L38.9958 237.994V238.095L39.198 238.499V238.6L39.2991 238.802V239.004L39.4002 239.307L39.5014 239.712V240.823L39.2991 241.631V241.732L39.198 241.934V242.136L39.0969 242.237L38.9958 242.439V242.641L38.8947 242.742L38.7942 242.944L38.592 243.146L37.986 243.954L37.2788 244.762L36.6728 245.469L36.0667 246.277L35.3596 247.085L34.6525 247.792L33.9453 248.6L33.2382 249.307L31.8245 250.923L31.1174 251.631L30.4102 252.439L27.38 255.469L24.3499 258.6L21.3191 261.631L19.8043 263.247L18.39 264.762L17.6829 265.469L16.2686 267.085L15.5615 267.792L14.8549 268.6L14.2489 269.408L13.5417 270.115L12.3297 271.731L11.7236 272.439L11.117 273.247L10.6121 273.954L10.006 274.762L9.50111 275.57L8.99618 276.277L8.49125 277.085L7.98571 277.792L7.58189 278.6L7.07697 279.408L6.67315 280.115L6.26872 280.923L5.96601 281.731L5.56157 282.439L4.95554 284.055L4.75394 284.762L4.45061 285.57L4.2484 286.277L4.0468 287.085L3.94569 287.792L3.74347 288.6L3.64236 289.408L3.54125 290.115L3.44076 290.923V304.762M46.7738 356.883L47.2787 359.913L47.3798 360.418V364.055L47.2787 364.56V365.166L46.8749 367.59L46.6727 368.095L46.5715 368.701L45.7639 371.125L45.5617 371.63L45.3595 372.236L44.7534 373.448L44.5518 374.055L44.2485 374.661L43.9452 375.165L43.5414 375.772L42.9353 376.984L42.1271 378.196L41.8244 378.802L41.4199 379.307L41.0161 379.913L40.5112 380.519L39.2991 382.337L38.7942 382.842L38.2887 383.448L37.8849 384.054L36.3695 385.873L35.8645 386.378L34.8547 387.59L32.6321 390.014L31.5212 391.125L29.2993 393.549L28.1877 394.661L25.8647 397.085L23.4405 399.408L22.3296 400.62L20.0059 402.943L18.8949 404.156L17.784 405.267L16.7741 406.479L15.6626 407.691L14.6527 408.802L13.1373 410.62L12.7335 411.226L12.2286 411.832L11.7236 412.337L11.3192 412.943L10.8143 413.549L9.1984 415.974L8.79396 416.479L8.39015 417.085L8.08682 417.691L7.683 418.297L7.37968 418.903L7.07697 419.408L5.8649 421.832L5.66268 422.438L5.35997 422.943L4.1479 426.58L4.0468 427.085L3.54125 430.115V430.62L3.44076 431.226V444.761M46.7738 496.883L47.1776 499.307L47.2787 499.812L47.3798 500.418V503.953L47.2787 504.559V505.165L47.1776 505.771L47.0771 506.276L46.8749 507.488L46.6727 508.094L46.5715 508.701L46.3699 509.307L46.1677 509.913L45.9655 510.418L45.3595 512.236L44.7534 513.448L44.5518 513.953L43.9452 515.165L43.5414 515.771L42.9353 516.983L42.5315 517.489L42.1271 518.095L41.8244 518.701L40.6123 520.519L40.1074 521.024L39.2991 522.236L38.2887 523.448L37.8849 524.054L37.3799 524.66L36.875 525.165L34.8547 527.59L33.7437 528.701L31.5212 531.125L30.4102 532.236L28.1877 534.66L22.3296 540.519L21.218 541.731L18.8949 544.054L17.784 545.266L16.7741 546.478L16.1675 546.983L13.6422 550.014L13.1373 550.519L12.7335 551.125L11.7236 552.337L10.9154 553.549L10.4105 554.054L8.79396 556.478L8.49125 557.084L8.08682 557.59L7.683 558.196L6.16761 561.226L5.8649 561.731L5.66268 562.337L5.35997 562.943L4.75394 564.761L4.55172 565.266L4.34951 565.872L4.2484 566.478L4.0468 567.084L3.94569 567.691L3.84458 568.195L3.54125 570.014V570.62L3.44076 571.226V584.66" stroke="black" stroke-width="1"/>
</svg>
