<svg width="51" height="712" viewBox="0 0 51 712" fill="none" xmlns="http://www.w3.org/2000/svg">
<path d="M0.26001 189.813V0.519989M0.26001 189.813L0.764936 190.015L1.37097 190.318L2.88636 190.924L3.39129 191.025L4.40114 191.429L4.80558 191.631L5.3105 191.833L5.81543 191.934L6.21925 192.136L6.72479 192.237L7.12861 192.439L7.63353 192.54L8.03797 192.742L8.94671 193.045L9.75496 193.247L10.5632 193.55L12.1791 193.954L12.8862 194.156L13.6945 194.358L14.401 194.56L15.1082 194.661L15.8153 194.863L16.6236 194.964L17.2296 195.065L19.351 195.368L19.9571 195.469L21.3707 195.671H21.9768L22.6839 195.772H27.8355L28.4415 195.671H29.1487L29.7547 195.57L31.169 195.368L31.775 195.267L34.603 194.863L35.3101 194.661L36.0173 194.56L36.8255 194.358L37.5327 194.156L39.1486 193.752L39.8557 193.55L40.7651 193.247L41.5727 193.045L42.3809 192.742L42.8859 192.54L43.2903 192.439L43.7952 192.237L44.199 192.136L44.704 191.934L45.1084 191.833L46.6232 191.227L47.0276 191.025L47.5325 190.924L48.0375 190.722L48.6435 190.519L49.1484 190.318L49.654 190.015L50.26 189.813M0.26001 189.813V195.772L8.23957 200.419M50.26 0.519989V189.813M50.26 189.813V195.772L42.1787 200.419M47.2292 218.297H3.18907M47.2292 218.297L42.1787 215.469M47.2292 218.297V231.833H47.1287V232.54L47.0276 232.742V233.348L46.9265 233.651V667.185L47.0276 667.589V668.195L47.1287 668.397V669.104H47.2292V682.438M3.18907 218.297V231.53H3.29018V232.136L3.39129 232.237V233.045L3.4924 233.348V234.459L3.59351 234.762V666.175L3.4924 666.478V667.589L3.39129 667.892V668.7L3.29018 668.801V669.306L3.18907 669.407V682.438M3.18907 218.297L8.23957 215.469M42.1787 215.469H8.23957M42.1787 215.469V211.429M8.23957 215.469V211.429M42.1787 211.429H8.23957M42.1787 211.429L44.4013 210.217L45.2095 207.893L44.4013 205.57L42.1787 204.459M8.23957 211.429L6.11875 210.217L5.20939 207.893L6.11875 205.57L8.23957 204.459M42.1787 204.459H8.23957M42.1787 204.459V200.419M8.23957 204.459V200.419M42.1787 200.419H8.23957M42.1787 700.316H8.23957M42.1787 700.316L50.26 704.862V710.821L49.654 710.619L48.6435 710.215L48.0375 710.013L47.0276 709.609L46.6232 709.407L46.1183 709.306L45.1084 708.902L44.704 708.7L44.199 708.599L43.7952 708.397L43.2903 708.296L42.8859 708.094L42.3809 707.993L41.5727 707.69L40.7651 707.488L39.8557 707.185L39.1486 706.983L37.5327 706.579L36.8255 706.377L36.0173 706.175L35.3101 706.074L34.603 705.872L33.8965 705.771L33.1893 705.569L31.775 705.367L31.169 705.266L30.4619 705.165H29.7547L29.1487 705.064H28.4415L27.8355 704.963H26.5223L25.9163 704.862H24.6031L23.896 704.963H22.6839L21.9768 705.064H21.3707L20.6642 705.165H19.9571L19.351 705.266L17.2296 705.569L16.6236 705.771L15.8153 705.872L15.1082 706.074L14.401 706.175L13.6945 706.377L12.8862 706.579L12.1791 706.781L10.5632 707.185L9.75496 707.488L8.94671 707.69L8.03797 707.993L7.63353 708.094L7.12861 708.296L6.72479 708.397L6.21925 708.599L5.81543 708.7L4.80558 709.104L4.40114 709.306L3.89622 709.407L1.37097 710.417L0.764936 710.619L0.26001 710.821V704.862L8.23957 700.316M42.1787 700.316V696.276M8.23957 700.316V696.276M42.1787 696.276H8.23957M42.1787 696.276L44.4013 695.064L45.2095 692.74L44.4013 690.518L42.1787 689.306M8.23957 696.276L6.11875 695.064L5.20939 692.74L6.11875 690.518L8.23957 689.306M42.1787 689.306H8.23957M42.1787 689.306V685.266M8.23957 689.306V685.266M47.2292 682.438H3.18907M47.2292 682.438L42.1787 685.266M3.18907 682.438L8.23957 685.266M42.1787 685.266H8.23957M8.34067 665.771L8.23957 666.175V666.478L8.13846 666.882L8.03797 667.185L7.93686 667.589L7.83575 667.892L7.73464 667.993L7.63353 668.195V668.296L7.53242 668.397L7.43131 668.599L7.33082 668.7L7.22971 668.801L7.12861 668.902V669.003L7.0275 669.104H6.92639L6.82528 669.205L6.72479 669.306H6.52257L6.42146 669.407H6.01765L5.91654 669.306H5.71432L5.61321 669.205L5.51272 669.104L5.41161 669.003L5.3105 668.902V668.801L5.20939 668.7L5.10829 668.599V668.397L5.00718 668.296V668.195L4.90607 667.892L4.80558 667.589L4.70447 667.185V666.882L4.60336 666.478V234.459L4.70447 234.055V233.651L4.80558 233.348L4.90607 233.045L5.00718 232.742V232.641L5.10829 232.54V232.338L5.20939 232.237L5.3105 232.136V232.035L5.41161 231.934L5.51272 231.833L5.61321 231.732L5.71432 231.631H5.81543L5.91654 231.53H6.52257L6.62368 231.631H6.72479L6.82528 231.732L6.92639 231.833H7.0275L7.12861 231.934V232.035L7.22971 232.136L7.33082 232.237L7.43131 232.338L7.53242 232.54L7.63353 232.641V232.742L7.73464 232.944L7.83575 233.045L8.03797 233.651L8.13846 234.055L8.23957 234.459V234.762L8.34067 235.166V665.771ZM17.6334 665.973L17.5323 666.175V666.478L17.4318 666.68L17.3307 666.882V667.084L17.2296 667.185L17.0274 667.589V667.69L16.9263 667.892L16.7247 667.993L16.6236 668.195L16.4213 668.397L16.3202 668.599L16.1186 668.7L16.0175 668.801L15.9164 668.902L15.7142 669.003L15.6137 669.104H15.4115L15.2093 669.205L15.1082 669.306H14.7043L14.6032 669.407H13.8961L13.6945 669.306H13.3912L13.2901 669.205L13.0885 669.104H12.9873L12.7851 669.003L12.5829 668.801L12.3813 668.7L12.2802 668.599L12.1791 668.397L11.9769 668.195L11.8758 667.993L11.7753 667.892L11.6742 667.69L11.5731 667.589V667.387L11.472 667.185L11.3708 667.084V666.882L11.2697 666.478L11.1692 666.175V234.762L11.2697 234.459L11.3708 234.055V233.853L11.472 233.651L11.5731 233.55V233.348L11.6742 233.247L11.7753 233.045L11.8758 232.944L11.9769 232.742L12.1791 232.54L12.2802 232.338L12.3813 232.237L12.5829 232.136L12.7851 231.934L12.9873 231.833H13.0885L13.2901 231.732L13.3912 231.631H13.5934L13.6945 231.53H14.7043L14.9066 231.631H15.1082L15.2093 231.732L15.4115 231.833H15.6137L15.7142 231.934L15.9164 232.035L16.0175 232.136L16.1186 232.237L16.3202 232.338L16.4213 232.54L16.6236 232.742L16.7247 232.944L16.9263 233.045L17.0274 233.247V233.348L17.1285 233.55L17.2296 233.651L17.3307 233.853V234.055L17.4318 234.257L17.5323 234.459V234.762L17.6334 234.964V665.973ZM28.9465 666.175L28.846 666.377V666.478L28.7449 666.68V666.882L28.6438 667.084L28.5426 667.185L28.3404 667.589L28.2399 667.69L28.1388 667.892L28.0377 667.993L27.9366 668.195L27.8355 668.296L27.6333 668.397L27.5328 668.599L27.3306 668.7L27.2295 668.801L27.0273 668.902L26.9268 669.003L26.7245 669.104H26.5223L26.4212 669.205L26.2196 669.306H25.8152L25.6136 669.407H24.8053L24.7042 669.306H24.3004L23.896 669.104H23.6944L23.5933 669.003L23.391 668.902L23.1894 668.801L23.0883 668.7L22.8861 668.599L22.785 668.397L22.6839 668.296L22.4823 668.195L22.3812 667.993L22.2801 667.892L22.179 667.69L22.0779 667.589L21.9768 667.387L21.8763 667.185L21.7752 667.084V666.882L21.674 666.68V666.478L21.5729 666.377V665.973L21.4718 665.771V235.166L21.5729 234.964V234.56L21.674 234.459V234.257L21.7752 234.055V233.853L21.8763 233.651L21.9768 233.55L22.0779 233.348L22.179 233.247L22.2801 233.045L22.3812 232.944L22.4823 232.742L22.6839 232.641L22.785 232.54L22.8861 232.338L23.0883 232.237L23.1894 232.136L23.391 232.035L23.5933 231.934L23.6944 231.833H23.896L24.3004 231.631H24.502L24.7042 231.53H25.8152L26.0174 231.631H26.2196L26.4212 231.732L26.5223 231.833H26.7245L26.9268 231.934L27.0273 232.035L27.2295 232.136L27.3306 232.237L27.5328 232.338L27.6333 232.54L27.8355 232.641L27.9366 232.742L28.0377 232.944L28.1388 233.045L28.2399 233.247L28.3404 233.348L28.4415 233.55L28.5426 233.651L28.7449 234.055V234.257L28.846 234.459V234.56L28.9465 234.762V666.175ZM39.3508 235.57V665.367L39.2497 665.771V666.175L39.1486 666.478L39.0474 666.882V667.084L38.947 667.185V667.387L38.8458 667.589L38.7447 667.69L38.6436 667.892L38.5425 667.993L38.4414 668.195L38.3409 668.296L38.2398 668.397L38.1387 668.599L38.0376 668.7L37.9365 668.801L37.8354 668.902L37.6338 669.003L37.5327 669.104H37.3305L37.2293 669.205L37.0277 669.306H36.7244L36.5222 669.407H35.9162L35.7146 669.306H35.4112L35.209 669.205L35.0074 669.104H34.9063L34.7041 669.003L34.603 668.902L34.4014 668.801L34.3003 668.7L34.1992 668.599L34.0981 668.397L33.8965 668.296L33.7954 668.195L33.6942 667.993L33.5931 667.892L33.492 667.69L33.3909 667.589L33.2904 667.387L33.1893 667.185V667.084L32.9871 666.68V666.478L32.886 666.377V665.771L32.7849 665.569V235.368L32.886 235.166V234.56L32.9871 234.459V234.257L33.1893 233.853V233.651L33.2904 233.55L33.3909 233.348L33.492 233.247L33.5931 233.045L33.6942 232.944L33.7954 232.742L33.8965 232.641L34.0981 232.54L34.1992 232.338L34.3003 232.237L34.4014 232.136L34.603 232.035L34.7041 231.934L34.9063 231.833H35.0074L35.209 231.732L35.4112 231.631H35.5123L35.7146 231.53H36.7244L36.9266 231.631H37.0277L37.2293 231.732L37.3305 231.833H37.5327L37.6338 231.934L37.8354 232.035L37.9365 232.136L38.0376 232.237L38.1387 232.338L38.2398 232.54L38.3409 232.641L38.4414 232.742L38.5425 232.944L38.6436 233.045L38.7447 233.247L38.8458 233.348L38.947 233.55V233.651L39.0474 233.853V234.055L39.1486 234.459L39.2497 234.762V235.166L39.3508 235.57ZM45.9167 235.57V665.367L45.8156 665.771V666.882L45.7144 667.185L45.6133 667.589V667.892L45.5122 668.195L45.4111 668.296V668.397L45.31 668.599V668.7L45.2095 668.801L45.1084 668.902V669.003L45.0073 669.104H44.9062L44.704 669.306H44.6035L44.5024 669.407H44.0979L43.9974 669.306H43.7952L43.593 669.104H43.4919L43.3914 669.003L43.1892 668.801L43.0881 668.7L42.987 668.599V668.397L42.7848 668.195L42.6843 667.993V667.892L42.4821 667.589L42.3809 667.185L42.2798 666.882L42.1787 666.478V234.459L42.3809 233.651L42.4821 233.348L42.6843 233.045V232.944L42.7848 232.742L42.987 232.54V232.338L43.0881 232.237L43.1892 232.136L43.3914 231.934L43.4919 231.833H43.593L43.7952 231.631H43.8963L43.9974 231.53H44.6035V231.631H44.704L44.9062 231.833H45.0073L45.1084 231.934V232.035L45.2095 232.136L45.31 232.237V232.338L45.4111 232.54V232.641L45.5122 232.742L45.6133 233.045V233.348L45.7144 233.651L45.8156 234.055V235.166L45.9167 235.57Z" stroke="black" stroke-width="1"/>
</svg>
