<svg width="50" height="653" viewBox="0 0 60 653" fill="none" xmlns="http://www.w3.org/2000/svg">
<g filter="url(#filter0_d)">
<path d="M5.45001 132.26V0M5.45001 132.26L5.95494 132.462L6.56098 132.765L8.58131 133.573L9.08624 133.674L10.0964 134.078L10.5005 134.28L11.0055 134.381L11.4096 134.583L11.9145 134.684L12.3187 134.886L12.8236 134.987L13.2277 135.189L14.1368 135.492L14.945 135.694L15.753 135.998L17.3692 136.401L18.0763 136.604L18.8843 136.806L19.5914 137.007L20.2986 137.109L21.1065 137.31L22.5208 137.513L23.1268 137.613L23.8337 137.816H24.5408L25.1469 137.917L26.5612 138.119H27.1672L27.8743 138.22H33.0257L33.6317 138.119H34.3389L34.9449 138.018L36.3592 137.816H36.9652L37.6724 137.613L39.7935 137.31L40.5007 137.109L41.2075 137.007L42.0158 136.806L42.7229 136.604L45.1471 135.998L45.955 135.694L46.7633 135.492L47.5712 135.189L48.0764 134.987L48.4803 134.886L48.9855 134.684L49.3893 134.583L49.8946 134.381L50.2987 134.28L51.8138 133.674L52.2176 133.573L52.7228 133.371L53.3289 133.169L54.339 132.765L54.844 132.462L55.45 132.26M5.45001 132.26V138.22L10.3994 141.149M55.45 0V132.26M55.45 132.26V138.22L50.3995 141.149M50.3995 635.191H10.3994M50.3995 635.191L55.45 638.121V644.08L54.844 643.878L53.3289 643.272L52.7228 643.07L52.2176 642.868L51.8138 642.666L50.8036 642.262L50.2987 642.161L49.8946 641.959L49.3893 641.757L48.9855 641.656L48.4803 641.454L48.0764 641.353L47.5712 641.151L46.7633 640.949L45.955 640.646L45.1471 640.444L44.3388 640.141L42.7229 639.737L42.0158 639.535L41.2075 639.434L40.5007 639.232L39.7935 639.131L39.0864 638.929L36.9652 638.625L36.3592 638.525L34.9449 638.322H34.3389L33.6317 638.221H33.0257L32.4196 638.121H28.4804L27.8743 638.221H27.1672L26.5612 638.322H25.854L25.1469 638.424L24.5408 638.525L23.1268 638.727L22.5208 638.828L21.8137 638.929L21.1065 639.131L20.2986 639.232L19.5914 639.434L18.8843 639.535L18.0763 639.737L17.3692 639.939L16.5609 640.141L15.753 640.444L14.945 640.646L14.1368 640.949L13.2277 641.151L12.8236 641.353L12.3187 641.454L11.9145 641.656L11.4096 641.757L11.0055 641.959L10.5005 642.161L10.0964 642.262L6.56098 643.676L5.95494 643.878L5.45001 644.08V638.121L10.3994 635.191M50.3995 635.191V625.191M10.3994 635.191V625.191M50.3995 625.191H10.3994M50.3995 625.191L42.9248 620.949M10.3994 625.191L17.9752 620.949M42.9248 620.949H17.9752M42.9248 620.949V616.908M17.9752 620.949V616.908M42.9248 616.908H17.9752M42.9248 616.908L48.8844 612.06L52.2176 605.09V597.312L48.8844 590.342L42.9248 585.494M17.9752 616.908L11.9145 612.06L8.58131 605.09V597.312L11.9145 590.342L17.9752 585.494M42.9248 585.494H17.9752M42.9248 585.494V581.454M17.9752 585.494V581.454M42.9248 581.454H17.9752M42.9248 581.454L48.3795 577.312L51.7127 571.454L52.6217 564.686L41.4097 215.998L42.2177 210.745L44.7429 205.998L48.8844 202.563L51.4097 201.048M17.9752 581.454L12.5206 577.312L9.08624 571.454L8.17718 564.686L19.4903 215.998L18.6824 210.745L16.056 205.998L12.0156 202.563L9.38926 201.048M51.4097 201.048H9.38926M51.4097 201.048V199.028M9.38926 201.048V199.028M51.4097 199.028H9.38926M51.4097 199.028L42.9248 194.887M9.38926 199.028L17.9752 194.887M42.9248 194.887H17.9752M42.9248 194.887V190.846M17.9752 194.887V190.846M42.9248 190.846H17.9752M42.9248 190.846L48.8844 185.998L52.2176 179.028V171.351L48.8844 164.382L42.9248 159.432M17.9752 190.846L11.9145 185.998L8.58131 179.028V171.351L11.9145 164.382L17.9752 159.432M42.9248 159.432H17.9752M42.9248 159.432V155.493M17.9752 159.432V155.493M42.9248 155.493H17.9752M42.9248 155.493L50.3995 151.149M17.9752 155.493L10.3994 151.149M50.3995 151.149H10.3994M50.3995 151.149V141.149M10.3994 151.149V141.149M50.3995 141.149H10.3994" stroke="black"/>
</g>
<defs>
<filter id="filter0_d" x="0.950012" y="0" width="59" height="652.819" filterUnits="userSpaceOnUse" color-interpolation-filters="sRGB">
<feFlood flood-opacity="0" result="BackgroundImageFix"/>
<feColorMatrix in="SourceAlpha" type="matrix" values="0 0 0 0 0 0 0 0 0 0 0 0 0 0 0 0 0 0 127 0"/>
<feOffset dy="4"/>
<feGaussianBlur stdDeviation="2"/>
<feColorMatrix type="matrix" values="0 0 0 0 0 0 0 0 0 0 0 0 0 0 0 0 0 0 0.25 0"/>
<feBlend mode="normal" in2="BackgroundImageFix" result="effect1_dropShadow"/>
<feBlend mode="normal" in="SourceGraphic" in2="effect1_dropShadow" result="shape"/>
</filter>
</defs>
</svg>
