<svg width="97" height="702" viewBox="0 0 97 702" fill="none" xmlns="http://www.w3.org/2000/svg">
<path d="M1.38599 650.512V701.245H96.386V650.512M1.38599 650.512C5.05657 650.512 8.03733 647.374 8.03733 643.511L8.03748 43.5114C8.03748 39.6476 5.05657 36.5101 1.38599 36.5101M1.38599 650.512V36.5101M1.38599 36.5101V1.245H96.386V36.5101M96.386 650.512C92.7154 650.512 89.7348 647.374 89.7348 643.511V43.5114C89.7348 39.6476 92.7154 36.5101 96.386 36.5101M96.386 650.512V36.5101M42.236 643.511C42.236 647.374 45.2142 650.512 48.8848 650.512C52.5554 650.512 55.5362 647.374 55.5362 643.511L55.5363 43.5114C55.5363 39.6476 52.5554 36.5101 48.8848 36.5101C45.2142 36.5101 42.236 39.6476 42.236 43.5114V643.511Z" stroke="black" stroke-width="0.850394" stroke-linecap="round" stroke-linejoin="round"/>
</svg>
