<svg width="96" height="702" viewBox="0 0 96 702" fill="none" xmlns="http://www.w3.org/2000/svg">
<path d="M95.428 36.5101V1.245H0.427979V36.5101M95.428 36.5101C91.7573 36.5101 88.779 39.6476 88.779 43.5114V643.511C88.779 647.374 91.7573 650.512 95.428 650.512M95.428 36.5101V650.512M95.428 650.512V701.245H0.427979V650.512M0.427979 650.512C4.09865 650.512 7.07699 647.374 7.07699 643.511V43.5114C7.07699 39.6476 4.09865 36.5101 0.427979 36.5101M0.427979 650.512V36.5101M25.4448 643.511C25.4448 647.374 28.4231 650.512 32.0938 650.512C35.7644 650.512 38.7451 647.374 38.7451 643.511V43.5114C38.7451 39.6476 35.7644 36.5101 32.0938 36.5101C28.4231 36.5101 25.4448 39.6476 25.4448 43.5114V643.511ZM57.1108 643.511C57.1108 647.374 60.0917 650.512 63.7623 650.512C67.433 650.512 70.4114 647.374 70.4114 643.511L70.4112 43.5114C70.4112 39.6476 67.433 36.5101 63.7623 36.5101C60.0917 36.5101 57.1108 39.6476 57.1108 43.5114V643.511Z" stroke="black" stroke-width="0.850394" stroke-linecap="round" stroke-linejoin="round"/>
</svg>
