<svg width="96" height="702" viewBox="0 0 96 702" fill="none" xmlns="http://www.w3.org/2000/svg">
<path d="M90.3668 15.7766C90.3668 16.0114 90.5572 16.2018 90.792 16.2018C91.0269 16.2018 91.2172 16.0114 91.2172 15.7766H90.3668ZM91.2172 5.77684C91.2172 5.54201 91.0269 5.35164 90.792 5.35164C90.5572 5.35164 90.3668 5.54201 90.3668 5.77684H91.2172ZM5.6481 5.77684C5.6481 5.54201 5.45773 5.35164 5.2229 5.35164C4.98807 5.35164 4.7977 5.54201 4.7977 5.77684H5.6481ZM4.7977 15.7766C4.7977 16.0114 4.98807 16.2018 5.2229 16.2018C5.45773 16.2018 5.6481 16.0114 5.6481 15.7766H4.7977ZM9.97651 58.5112H10.4017V58.4822L10.3978 58.4535L9.97651 58.5112ZM9.56273 55.4899L9.984 55.4322L9.97636 55.3765L9.9545 55.3247L9.56273 55.4899ZM8.34063 52.5928L8.7324 52.4276L8.71228 52.3799L8.6813 52.3384L8.34063 52.5928ZM6.35822 49.9385L6.69889 49.6841L6.67132 49.6471L6.63647 49.617L6.35822 49.9385ZM3.69744 47.6358L3.97568 47.3143L3.94483 47.2876L3.90947 47.2673L3.69744 47.6358ZM0.468994 15.7766V15.3514C0.234164 15.3514 0.0437971 15.5417 0.0437971 15.7766H0.468994ZM95.469 15.7766H95.8942C95.8942 15.5417 95.7038 15.3514 95.469 15.3514V15.7766ZM92.2646 47.6713L92.0514 47.3035L92.0161 47.324L91.9853 47.3508L92.2646 47.6713ZM89.6256 49.9714L89.3462 49.6508L89.3116 49.681L89.2842 49.7179L89.6256 49.9714ZM87.6601 52.618L87.3187 52.3645L87.288 52.4058L87.2681 52.4532L87.6601 52.618ZM86.4476 55.5026L86.0557 55.3378L86.0339 55.3896L86.0263 55.4453L86.4476 55.5026ZM86.0387 58.5112L85.6174 58.4539L85.6135 58.4824V58.5112H86.0387ZM86.0387 643.511H85.6135C85.6135 643.53 85.6148 643.549 85.6174 643.568L86.0387 643.511ZM95.469 686.245V686.67C95.7038 686.67 95.8942 686.48 95.8942 686.245H95.469ZM0.468994 686.245H0.0437971C0.0437971 686.48 0.234164 686.67 0.468994 686.67L0.468994 686.245ZM74.2914 68.9968L74.385 68.582L74.3849 68.582L74.2914 68.9968ZM66.6823 60.4756C66.6353 60.2455 66.4106 60.0971 66.1806 60.1442C65.9505 60.1912 65.8021 60.4159 65.8491 60.6459L66.6823 60.4756ZM65.854 60.6432C65.9009 60.8733 66.1255 61.0217 66.3556 60.9747C66.5857 60.9278 66.7341 60.7032 66.6872 60.4731L65.854 60.6432ZM29.253 60.4731C29.2061 60.7032 29.3545 60.9278 29.5846 60.9747C29.8147 61.0217 30.0393 60.8733 30.0862 60.6432L29.253 60.4731ZM21.649 68.9993L21.5554 68.5845L21.5553 68.5845L21.649 68.9993ZM30.0886 60.6457C30.1355 60.4156 29.987 60.191 29.7569 60.1441C29.5268 60.0972 29.3023 60.2457 29.2553 60.4758L30.0886 60.6457ZM23.1576 76.4057C22.9285 76.4574 22.7848 76.685 22.8364 76.9141C22.8881 77.1432 23.1157 77.287 23.3448 77.2353L23.1576 76.4057ZM37.1081 62.2434V61.8182C36.906 61.8182 36.7319 61.9604 36.6915 62.1584L37.1081 62.2434ZM58.8321 62.6686C59.0669 62.6686 59.2573 62.4782 59.2573 62.2434C59.2573 62.0085 59.0669 61.8182 58.8321 61.8182V62.6686ZM59.2464 62.161C59.1994 61.9309 58.9749 61.7824 58.7448 61.8294C58.5147 61.8763 58.3662 62.1009 58.4131 62.331L59.2464 62.161ZM72.6891 76.8205H73.1143C73.1143 76.6217 72.9766 76.4495 72.7827 76.4057L72.6891 76.8205ZM72.2639 624.67C72.2639 624.905 72.4543 625.095 72.6891 625.095C72.924 625.095 73.1143 624.905 73.1143 624.67H72.2639ZM23.6741 76.818C23.6741 76.5832 23.4837 76.3928 23.2489 76.3928C23.014 76.3928 22.8237 76.5832 22.8237 76.818H23.6741ZM22.8237 624.67C22.8237 624.905 23.014 625.095 23.2489 625.095C23.4837 625.095 23.6741 624.905 23.6741 624.67H22.8237ZM9.97651 643.511L10.3978 643.568C10.4004 643.549 10.4017 643.53 10.4017 643.511H9.97651ZM86.4476 646.519L86.0263 646.577L86.0339 646.632L86.0557 646.684L86.4476 646.519ZM87.6601 649.404L87.2681 649.568L87.288 649.616L87.3187 649.657L87.6601 649.404ZM89.6256 652.051L89.2842 652.304L89.3116 652.341L89.3462 652.371L89.6256 652.051ZM92.2646 654.351L91.9853 654.671L92.016 654.698L92.0512 654.718L92.2646 654.351ZM3.69744 654.386L3.90947 654.754L3.94483 654.734L3.97567 654.707L3.69744 654.386ZM6.35822 652.083L6.63646 652.405L6.67131 652.375L6.69889 652.338L6.35822 652.083ZM8.34063 649.429L8.6813 649.683L8.71228 649.642L8.7324 649.594L8.34063 649.429ZM9.56273 646.532L9.9545 646.697L9.97636 646.645L9.984 646.59L9.56273 646.532ZM91.2172 686.245C91.2172 686.01 91.0269 685.82 90.792 685.82C90.5572 685.82 90.3668 686.01 90.3668 686.245H91.2172ZM90.3668 696.245C90.3668 696.48 90.5572 696.67 90.792 696.67C91.0269 696.67 91.2172 696.48 91.2172 696.245H90.3668ZM4.7977 696.245C4.7977 696.48 4.98807 696.67 5.2229 696.67C5.45773 696.67 5.6481 696.48 5.6481 696.245H4.7977ZM5.6481 686.245C5.6481 686.01 5.45773 685.82 5.2229 685.82C4.98807 685.82 4.7977 686.01 4.7977 686.245H5.6481ZM21.5555 632.906C21.7846 632.958 22.0122 632.814 22.0639 632.585C22.1156 632.356 21.9718 632.128 21.7427 632.076L21.5555 632.906ZM36.6915 639.327C36.7384 639.557 36.963 639.706 37.1931 639.659C37.4232 639.612 37.5717 639.387 37.5247 639.157L36.6915 639.327ZM23.3448 624.253C23.1157 624.201 22.8881 624.345 22.8364 624.574C22.7848 624.803 22.9285 625.03 23.1576 625.082L23.3448 624.253ZM29.2553 641.012C29.3023 641.242 29.5268 641.391 29.7569 641.344C29.987 641.297 30.1355 641.072 30.0886 640.842L29.2553 641.012ZM21.7427 632.074C21.5137 632.022 21.286 632.166 21.2342 632.395C21.1824 632.624 21.3261 632.851 21.5552 632.903L21.7427 632.074ZM37.1059 638.819C36.8711 638.819 36.6807 639.01 36.6807 639.245C36.6807 639.479 36.8711 639.67 37.1059 639.67V638.819ZM58.8321 639.245V639.67C59.0342 639.67 59.2083 639.528 59.2487 639.33L58.8321 639.245ZM72.7827 625.082C73.0118 625.03 73.1556 624.803 73.1039 624.574C73.0522 624.345 72.8246 624.201 72.5956 624.253L72.7827 625.082ZM74.3851 632.903C74.6142 632.852 74.7579 632.624 74.7061 632.395C74.6544 632.166 74.4267 632.022 74.1976 632.074L74.3851 632.903ZM65.8491 640.842C65.8021 641.072 65.9505 641.297 66.1806 641.344C66.4106 641.391 66.6353 641.242 66.6823 641.012L65.8491 640.842ZM30.0862 640.845C30.0393 640.615 29.8147 640.466 29.5846 640.513C29.3545 640.56 29.2061 640.785 29.253 641.015L30.0862 640.845ZM66.6872 641.015C66.7341 640.785 66.5857 640.56 66.3556 640.513C66.1255 640.466 65.9009 640.615 65.8539 640.845L66.6872 641.015ZM74.1978 632.076C73.9687 632.128 73.8249 632.356 73.8766 632.585C73.9283 632.814 74.1559 632.958 74.385 632.906L74.1978 632.076ZM95.469 5.77684V6.20203C95.7038 6.20203 95.8942 6.01166 95.8942 5.77684H95.469ZM0.468994 5.77684H0.0437971C0.0437971 6.01166 0.234164 6.20203 0.468994 6.20203L0.468994 5.77684ZM0.468994 1.245V0.819798C0.234164 0.819798 0.0437971 1.01017 0.0437971 1.245H0.468994ZM95.469 1.245H95.8942C95.8942 1.01017 95.7038 0.819798 95.469 0.819798V1.245ZM0.468994 696.245V695.82C0.234164 695.82 0.0437971 696.01 0.0437971 696.245H0.468994ZM95.469 696.245H95.8942C95.8942 696.01 95.7038 695.82 95.469 695.82V696.245ZM95.469 701.245V701.67C95.7038 701.67 95.8942 701.48 95.8942 701.245H95.469ZM0.468994 701.245H0.0437971C0.0437971 701.48 0.234164 701.67 0.468994 701.67L0.468994 701.245ZM91.2172 15.7766V5.77684H90.3668V15.7766H91.2172ZM4.7977 5.77684V15.7766H5.6481V5.77684H4.7977ZM10.3978 58.4535L9.984 55.4322L9.14147 55.5476L9.55525 58.5689L10.3978 58.4535ZM9.9545 55.3247L8.7324 52.4276L7.94886 52.7581L9.17097 55.6552L9.9545 55.3247ZM8.6813 52.3384L6.69889 49.6841L6.01755 50.1929L7.99996 52.8473L8.6813 52.3384ZM6.63647 49.617L3.97568 47.3143L3.41919 47.9573L6.07998 50.26L6.63647 49.617ZM3.90947 47.2673L0.681022 45.41L0.256967 46.1471L3.48541 48.0044L3.90947 47.2673ZM0.894191 45.7785V15.7766H0.0437971V45.7785H0.894191ZM0.468994 16.2018H95.469V15.3514H0.468994V16.2018ZM95.8942 45.8141V15.7766H95.0438V45.8141H95.8942ZM95.2558 45.4462L92.0514 47.3035L92.4779 48.0392L95.6822 46.1819L95.2558 45.4462ZM91.9853 47.3508L89.3462 49.6508L89.9049 50.2919L92.544 47.9919L91.9853 47.3508ZM89.2842 49.7179L87.3187 52.3645L88.0014 52.8715L89.9669 50.2249L89.2842 49.7179ZM87.2681 52.4532L86.0557 55.3378L86.8396 55.6673L88.052 52.7827L87.2681 52.4532ZM86.0263 55.4453L85.6174 58.4539L86.46 58.5685L86.869 55.5599L86.0263 55.4453ZM85.6135 58.5112V643.511H86.4639V58.5112H85.6135ZM95.8942 686.245V656.21H95.0438V686.245H95.8942ZM0.894191 686.245V656.243H0.0437971V686.245H0.894191ZM80.7212 76.818C80.7212 72.7906 78.0188 69.4022 74.385 68.582L74.1978 69.4116C77.4251 70.14 79.8708 73.1685 79.8708 76.818H80.7212ZM65.8491 60.6459C66.7418 65.0127 70.017 68.4693 74.1979 69.4116L74.3849 68.582C70.5498 67.7177 67.5121 64.5348 66.6823 60.4756L65.8491 60.6459ZM66.6872 60.4731C65.9144 56.688 62.702 53.8198 58.8321 53.8198V54.6702C62.2612 54.6702 65.1544 57.2169 65.854 60.6432L66.6872 60.4731ZM37.1059 54.6702H58.8321V53.8198H37.1059V54.6702ZM37.1059 53.8198C33.2359 53.8198 30.0258 56.6881 29.253 60.4731L30.0862 60.6432C30.7858 57.2168 33.6769 54.6702 37.1059 54.6702V53.8198ZM21.7425 69.4141C25.9209 68.4717 29.1984 65.0127 30.0886 60.6457L29.2553 60.4758C28.4279 64.5348 25.3881 67.7202 21.5554 68.5845L21.7425 69.4141ZM21.5553 68.5845C17.9217 69.4046 15.2191 72.7904 15.2191 76.818H16.0695C16.0695 73.1687 18.5151 70.1425 21.7426 69.414L21.5553 68.5845ZM79.8708 76.818V624.67H80.7212V76.818H79.8708ZM23.3448 77.2353C30.4366 75.6351 36.009 69.762 37.5247 62.3283L36.6915 62.1584C35.2385 69.2842 29.9036 74.8835 23.1576 76.4057L23.3448 77.2353ZM58.8321 61.8182H37.1081V62.6686H58.8321V61.8182ZM58.4131 62.331C59.9289 69.7621 65.5014 75.6351 72.5956 77.2353L72.7827 76.4057C66.0342 74.8835 60.6993 69.2842 59.2464 62.161L58.4131 62.331ZM73.1143 624.67V76.8205H72.2639V624.67H73.1143ZM16.0695 624.67V76.818H15.2191V624.67H16.0695ZM22.8237 76.818V624.67H23.6741V76.818H22.8237ZM10.4017 643.511V58.5112H9.55132V643.511H10.4017ZM85.6174 643.568L86.0263 646.577L86.869 646.462L86.46 643.453L85.6174 643.568ZM86.0557 646.684L87.2681 649.568L88.052 649.239L86.8396 646.355L86.0557 646.684ZM87.3187 649.657L89.2842 652.304L89.9669 651.797L88.0014 649.15L87.3187 649.657ZM89.3462 652.371L91.9853 654.671L92.544 654.03L89.9049 651.73L89.3462 652.371ZM92.0512 654.718L95.2556 656.578L95.6824 655.843L92.4781 653.983L92.0512 654.718ZM0.681022 656.612L3.90947 654.754L3.48541 654.017L0.256967 655.875L0.681022 656.612ZM3.97567 654.707L6.63646 652.405L6.07999 651.762L3.41921 654.064L3.97567 654.707ZM6.69889 652.338L8.6813 649.683L7.99996 649.175L6.01755 651.829L6.69889 652.338ZM8.7324 649.594L9.9545 646.697L9.17097 646.367L7.94886 649.264L8.7324 649.594ZM9.984 646.59L10.3978 643.568L9.55525 643.453L9.14147 646.474L9.984 646.59ZM95.469 685.82H0.468994V686.67H95.469V685.82ZM90.3668 686.245V696.245H91.2172V686.245H90.3668ZM5.6481 696.245V686.245H4.7977V696.245H5.6481ZM15.2191 624.67C15.2191 628.697 17.9217 632.086 21.5555 632.906L21.7427 632.076C18.5154 631.348 16.0695 628.319 16.0695 624.67H15.2191ZM37.5247 639.157C36.009 631.726 30.4365 625.853 23.3448 624.253L23.1576 625.082C29.9036 626.604 35.2385 632.204 36.6915 639.327L37.5247 639.157ZM30.0886 640.842C29.1983 636.475 25.9208 633.019 21.7427 632.074L21.5552 632.903C25.3882 633.77 28.4279 636.953 29.2553 641.012L30.0886 640.842ZM37.1059 639.67H58.8321V638.819H37.1059V639.67ZM58.8321 646.82H37.1059V647.671H58.8321V646.82ZM72.5956 624.253C65.5013 625.853 59.9312 631.726 58.4155 639.16L59.2487 639.33C60.7017 632.204 66.0344 626.604 72.7827 625.082L72.5956 624.253ZM74.1976 632.074C70.017 633.019 66.7418 636.475 65.8491 640.842L66.6823 641.012C67.5121 636.953 70.5498 633.77 74.3851 632.903L74.1976 632.074ZM29.253 641.015C30.0257 644.802 33.2358 647.671 37.1059 647.671V646.82C33.677 646.82 30.7858 644.274 30.0862 640.845L29.253 641.015ZM58.8321 647.671C62.702 647.671 65.9144 644.802 66.6872 641.015L65.8539 640.845C65.1544 644.274 62.2611 646.82 58.8321 646.82V647.671ZM74.385 632.906C78.0188 632.086 80.7212 628.697 80.7212 624.67H79.8708C79.8708 628.319 77.4251 631.348 74.1978 632.076L74.385 632.906ZM95.469 5.35164H0.468994V6.20203H95.469V5.35164ZM0.894191 5.77684V1.245H0.0437971V5.77684H0.894191ZM95.8942 5.77684V1.245H95.0438V5.77684H95.8942ZM0.468994 1.67019H95.469V0.819798H0.468994V1.67019ZM0.468994 696.67H95.469V695.82H0.468994V696.67ZM95.8942 701.245V696.245H95.0438V701.245H95.8942ZM0.894191 701.245V696.245H0.0437971V701.245H0.894191ZM95.469 700.82H0.468994V701.67H95.469V700.82ZM0.0437971 45.7785V656.243H0.894191V45.7785H0.0437971ZM95.8942 656.21V45.8141H95.0438V656.21H95.8942Z" fill="black"/>
</svg>
