<svg width="96" height="702" viewBox="0 0 96 702" fill="none" xmlns="http://www.w3.org/2000/svg">
<path d="M90.4056 15.7766C90.4056 16.0114 90.596 16.2018 90.8308 16.2018C91.0656 16.2018 91.256 16.0114 91.256 15.7766H90.4056ZM91.256 5.77684C91.256 5.54201 91.0656 5.35164 90.8308 5.35164C90.596 5.35164 90.4056 5.54201 90.4056 5.77684H91.256ZM5.69134 5.77684C5.69134 5.54201 5.50098 5.35164 5.26615 5.35164C5.03132 5.35164 4.84095 5.54201 4.84095 5.77684H5.69134ZM4.84095 15.7766C4.84095 16.0114 5.03132 16.2018 5.26615 16.2018C5.50098 16.2018 5.69134 16.0114 5.69134 15.7766H4.84095ZM95.51 686.245V686.67C95.7448 686.67 95.9352 686.48 95.9352 686.245H95.51ZM10.0196 58.5112H10.4448V58.4822L10.4409 58.4535L10.0196 58.5112ZM9.60587 55.4899L10.0271 55.4322L10.0195 55.3765L9.99764 55.3247L9.60587 55.4899ZM8.3838 52.5928L8.77557 52.4276L8.75545 52.3799L8.72448 52.3384L8.3838 52.5928ZM6.40144 49.9385L6.74212 49.6841L6.71454 49.6471L6.6797 49.617L6.40144 49.9385ZM3.74087 47.6358L4.01913 47.3143L3.98822 47.2876L3.95278 47.2672L3.74087 47.6358ZM0.51001 15.7766V15.3514C0.27518 15.3514 0.0848128 15.5417 0.0848128 15.7766H0.51001ZM95.51 15.7766H95.9352C95.9352 15.5417 95.7448 15.3514 95.51 15.3514V15.7766ZM92.3057 47.6713L92.0925 47.3035L92.0572 47.3239L92.0265 47.3507L92.3057 47.6713ZM89.6642 49.9714L89.385 49.6507L89.3503 49.6809L89.3229 49.7179L89.6642 49.9714ZM87.6988 52.618L87.3574 52.3645L87.3267 52.4058L87.3068 52.4532L87.6988 52.618ZM86.4864 55.5026L86.0944 55.3378L86.0726 55.3896L86.0651 55.4453L86.4864 55.5026ZM86.0773 58.5112L85.656 58.4539L85.6521 58.4824V58.5112H86.0773ZM86.0773 643.511H85.6521C85.6521 643.53 85.6534 643.549 85.656 643.568L86.0773 643.511ZM10.0196 643.511L10.4409 643.568C10.4435 643.549 10.4448 643.53 10.4448 643.511H10.0196ZM0.51001 686.245H0.0848128C0.0848128 686.48 0.27518 686.67 0.51001 686.67L0.51001 686.245ZM86.4864 646.519L86.0651 646.577L86.0726 646.632L86.0944 646.684L86.4864 646.519ZM87.6988 649.404L87.3068 649.568L87.3267 649.616L87.3574 649.657L87.6988 649.404ZM89.6642 652.051L89.3229 652.304L89.3503 652.341L89.385 652.371L89.6642 652.051ZM92.3057 654.351L92.0265 654.671L92.0571 654.698L92.0923 654.718L92.3057 654.351ZM3.74087 654.386L3.95278 654.755L3.98821 654.734L4.01912 654.707L3.74087 654.386ZM6.40144 652.083L6.67969 652.405L6.71454 652.375L6.74212 652.338L6.40144 652.083ZM8.3838 649.429L8.72448 649.683L8.75545 649.642L8.77557 649.594L8.3838 649.429ZM9.60587 646.532L9.99764 646.697L10.0195 646.645L10.0271 646.59L9.60587 646.532ZM91.256 686.245C91.256 686.01 91.0656 685.82 90.8308 685.82C90.596 685.82 90.4056 686.01 90.4056 686.245H91.256ZM90.4056 696.245C90.4056 696.48 90.596 696.67 90.8308 696.67C91.0656 696.67 91.256 696.48 91.256 696.245H90.4056ZM4.84095 696.245C4.84095 696.48 5.03132 696.67 5.26615 696.67C5.50098 696.67 5.69134 696.48 5.69134 696.245H4.84095ZM5.69134 686.245C5.69134 686.01 5.50098 685.82 5.26615 685.82C5.03132 685.82 4.84095 686.01 4.84095 686.245H5.69134ZM95.51 5.77684V6.20203C95.7448 6.20203 95.9352 6.01166 95.9352 5.77684H95.51ZM0.51001 5.77684H0.0848128C0.0848128 6.01166 0.27518 6.20203 0.51001 6.20203L0.51001 5.77684ZM0.51001 1.245V0.819798C0.27518 0.819798 0.0848128 1.01017 0.0848128 1.245H0.51001ZM95.51 1.245H95.9352C95.9352 1.01017 95.7448 0.819798 95.51 0.819798V1.245ZM0.51001 696.245V695.82C0.27518 695.82 0.0848128 696.01 0.0848128 696.245H0.51001ZM95.51 696.245H95.9352C95.9352 696.01 95.7448 695.82 95.51 695.82V696.245ZM95.51 701.245V701.67C95.7448 701.67 95.9352 701.48 95.9352 701.245H95.51ZM0.51001 701.245H0.0848128C0.0848128 701.48 0.27518 701.67 0.51001 701.67L0.51001 701.245ZM91.256 15.7766V5.77684H90.4056V15.7766H91.256ZM4.84095 5.77684V15.7766H5.69134V5.77684H4.84095ZM95.9352 686.245V656.21H95.0848V686.245H95.9352ZM10.4409 58.4535L10.0271 55.4322L9.18461 55.5476L9.59838 58.5689L10.4409 58.4535ZM9.99764 55.3247L8.77557 52.4276L7.99203 52.7581L9.2141 55.6552L9.99764 55.3247ZM8.72448 52.3384L6.74212 49.6841L6.06077 50.1929L8.04313 52.8473L8.72448 52.3384ZM6.6797 49.617L4.01913 47.3143L3.46261 47.9573L6.12318 50.26L6.6797 49.617ZM3.95278 47.2672L0.721918 45.4099L0.298102 46.1472L3.52896 48.0044L3.95278 47.2672ZM0.51001 16.2018H95.51V15.3514H0.51001V16.2018ZM95.9352 45.8141V15.7766H95.0848V45.8141H95.9352ZM95.2968 45.4462L92.0925 47.3035L92.519 48.0392L95.7232 46.1819L95.2968 45.4462ZM92.0265 47.3507L89.385 49.6507L89.9435 50.2921L92.5849 47.992L92.0265 47.3507ZM89.3229 49.7179L87.3574 52.3645L88.0401 52.8715L90.0056 50.2249L89.3229 49.7179ZM87.3068 52.4532L86.0944 55.3378L86.8784 55.6673L88.0908 52.7827L87.3068 52.4532ZM86.0651 55.4453L85.656 58.4539L86.4986 58.5685L86.9077 55.5599L86.0651 55.4453ZM85.6521 58.5112V643.511H86.5025V58.5112H85.6521ZM10.4448 643.511V58.5112H9.59444V643.511H10.4448ZM0.935207 686.245V656.243H0.0848128V686.245H0.935207ZM0.935207 45.7785V15.7766H0.0848128V45.7785H0.935207ZM85.656 643.568L86.0651 646.577L86.9077 646.462L86.4986 643.453L85.656 643.568ZM86.0944 646.684L87.3068 649.568L88.0907 649.239L86.8784 646.355L86.0944 646.684ZM87.3574 649.657L89.3229 652.304L90.0056 651.797L88.0401 649.15L87.3574 649.657ZM89.385 652.371L92.0265 654.671L92.5849 654.03L89.9435 651.73L89.385 652.371ZM92.0923 654.718L95.2966 656.578L95.7234 655.843L92.5192 653.983L92.0923 654.718ZM0.721918 656.612L3.95278 654.755L3.52896 654.017L0.298102 655.875L0.721918 656.612ZM4.01912 654.707L6.67969 652.405L6.1232 651.762L3.46262 654.064L4.01912 654.707ZM6.74212 652.338L8.72448 649.683L8.04313 649.175L6.06077 651.829L6.74212 652.338ZM8.77557 649.594L9.99764 646.697L9.2141 646.367L7.99203 649.264L8.77557 649.594ZM10.0271 646.59L10.4409 643.568L9.59838 643.453L9.18461 646.474L10.0271 646.59ZM95.51 685.82H0.51001V686.67H95.51V685.82ZM90.4056 686.245V696.245H91.256V686.245H90.4056ZM5.69134 696.245V686.245H4.84095V696.245H5.69134ZM95.51 5.35164H0.51001V6.20203H95.51V5.35164ZM0.935207 5.77684V1.245H0.0848128V5.77684H0.935207ZM95.9352 5.77684V1.245H95.0848V5.77684H95.9352ZM0.51001 1.67019H95.51V0.819798H0.51001V1.67019ZM0.51001 696.67H95.51V695.82H0.51001V696.67ZM95.9352 701.245V696.245H95.0848V701.245H95.9352ZM0.935207 701.245V696.245H0.0848128V701.245H0.935207ZM95.51 700.82H0.51001V701.67H95.51V700.82ZM95.9352 656.21V45.8141H95.0848V656.21H95.9352ZM0.0848128 45.7785V656.243H0.935207V45.7785H0.0848128Z" fill="black"/>
</svg>
