<svg width="97" height="826" viewBox="0 0 97 826" fill="none" xmlns="http://www.w3.org/2000/svg">
<path d="M0.779999 222.299V0.679993M0.779999 222.299L1.28194 222.514L1.85543 222.729L3.36114 223.374L3.86307 223.518L4.86684 223.948L5.79884 224.306L6.80261 224.665L8.66683 225.382L9.52718 225.74L10.4593 226.027L11.3196 226.386L12.2517 226.673L13.9724 227.246L14.7611 227.533L15.6216 227.82L16.4102 228.106L17.2706 228.322L18.0593 228.608L18.848 228.823L19.6366 229.11L20.4253 229.325L21.1422 229.54L21.9309 229.756L22.6479 229.971L23.4366 230.114L24.8706 230.544L25.5876 230.688L26.3045 230.903L27.7384 231.189L28.3838 231.404L29.8178 231.691L30.463 231.835L31.18 231.978L31.8253 232.05L32.4706 232.193L33.1876 232.337L33.8328 232.408L34.4781 232.552L35.1235 232.623L35.7687 232.767L38.9951 233.125L39.5687 233.197L41.5046 233.412H42.0781L43.3687 233.556L44.5876 233.627H45.8064L47.0253 233.699H49.5347L50.7536 233.627H51.9724L53.1913 233.556L54.4102 233.412H55.0555L56.346 233.269L56.9196 233.197L60.7913 232.767L61.4367 232.623L62.0819 232.552L62.7272 232.408L63.3724 232.337L64.0178 232.193L64.7347 232.05L65.38 231.978L66.097 231.835L66.7422 231.691L67.4593 231.548L68.1045 231.404L68.8215 231.189L70.2555 230.903L70.9725 230.688L71.6894 230.544L73.1234 230.114L73.8404 229.971L74.6291 229.756L75.346 229.54L76.9234 229.11L77.712 228.823L78.5007 228.608L79.2894 228.322L80.0781 228.106L80.9385 227.82L81.7272 227.533L85.1687 226.386L86.1007 226.027L86.9612 225.74L89.7574 224.665L90.7612 224.306L91.6933 223.948L92.697 223.518L93.1989 223.374L95.2064 222.514L95.78 222.299M0.779999 222.299V233.699L10.2442 239.148M88.18 325.616H8.37998M88.18 325.616L84.2366 327.91L79.1461 331.854L75.2743 337.088L72.9801 343.182L72.4065 349.635L90.5461 706.763L89.2554 715.223L85.4555 722.895L79.5045 729.061L72.0479 733.148M88.18 325.616V323.393M8.37998 325.616L12.2517 327.91L17.414 331.854L21.2857 337.088L23.5801 343.182L24.1535 349.635L5.94227 706.763L7.30455 715.223L11.1045 722.895L16.9837 729.061L24.5121 733.148M8.37998 325.616V323.393M88.18 323.393H8.37998M88.18 323.393L72.0479 314.073M8.37998 323.393L24.5121 314.073M72.0479 314.073H24.5121M72.0479 314.073V309.484M24.5121 314.073V309.484M72.0479 309.484H24.5121M72.0479 309.484L79.5045 305.397L85.4555 299.231L89.2554 291.559L90.5461 283.099L89.2554 274.639L85.4555 266.967L79.5045 260.801L72.0479 256.714M24.5121 309.484L16.9837 305.397L11.1045 299.231L7.30455 291.559L5.94227 283.099L7.30455 274.639L11.1045 266.967L16.9837 260.801L24.5121 256.714M72.0479 256.714H24.5121M72.0479 256.714V252.125M24.5121 256.714V252.125M72.0479 252.125H24.5121M72.0479 252.125L86.2441 243.88M24.5121 252.125L10.2442 243.88M86.2441 243.88H10.2442M86.2441 243.88V239.148M10.2442 243.88V239.148M86.2441 239.148H10.2442M86.2441 239.148L95.78 233.699V222.299M95.78 222.299V0.679993M86.2441 808.001H10.2442M86.2441 808.001L95.78 813.521V824.85L95.2064 824.635L93.7008 823.99L93.1989 823.846L91.6933 823.201L90.7612 822.842L89.7574 822.484L87.8932 821.767L86.9612 821.48L86.1007 821.121L85.1687 820.835L84.3083 820.476L81.7272 819.616L80.9385 819.329L80.0781 819.114L78.5007 818.54L75.346 817.68L74.6291 817.465L73.8404 817.25L72.4065 816.82L71.6894 816.676L70.9725 816.461L70.2555 816.318L69.5385 816.103L68.1045 815.816L67.4593 815.673L66.7422 815.529L66.097 815.386L65.38 815.242L64.7347 815.099L64.0178 814.956L63.3724 814.884L62.0819 814.597L60.7913 814.454L60.146 814.31L56.9196 813.952L56.346 813.88L55.7008 813.808H55.0555L54.4102 813.737L50.7536 813.521H45.8064L43.3687 813.665L42.0781 813.737L41.5046 813.808H40.8592L39.5687 813.952L38.9951 814.023L36.414 814.31L35.7687 814.454L34.4781 814.597L33.1876 814.884L32.4706 814.956L31.18 815.242L30.463 815.386L29.8178 815.529L28.3838 815.816L27.7384 815.959L27.0215 816.103L26.3045 816.318L25.5876 816.461L24.8706 816.676L24.1535 816.82L23.4366 817.035L22.6479 817.25L21.9309 817.465L21.1422 817.68L20.4253 817.895L18.0593 818.54L17.2706 818.827L16.4102 819.114L15.6216 819.329L14.7611 819.616L13.9724 819.903L12.2517 820.476L11.3196 820.835L10.4593 821.121L9.52718 821.48L8.66683 821.767L6.80261 822.484L5.79884 822.842L4.86684 823.201L3.36114 823.846L2.85931 823.99L1.85543 824.42L1.28194 824.635L0.779999 824.85V813.521L10.2442 808.001M86.2441 808.001V803.269M10.2442 808.001V803.269M86.2441 803.269H10.2442M86.2441 803.269L72.0479 795.023M10.2442 803.269L24.5121 795.023M72.0479 795.023H24.5121M72.0479 795.023V790.506M24.5121 795.023V790.506M72.0479 790.506H24.5121M72.0479 790.506L79.5045 786.42L85.4555 780.182L89.2554 772.51L90.5461 764.05L89.2554 755.59L85.4555 747.918L79.5045 741.752L72.0479 737.665M24.5121 790.506L16.9837 786.42L11.1045 780.182L7.30455 772.51L5.94227 764.05L7.30455 755.59L11.1045 747.918L16.9837 741.752L24.5121 737.665M72.0479 737.665H24.5121M72.0479 737.665V733.148M24.5121 737.665V733.148M72.0479 733.148H24.5121" stroke="black" stroke-width="1"/>
</svg>
