<svg width="96" height="826" viewBox="0 0 96 826" fill="none" xmlns="http://www.w3.org/2000/svg">
<path d="M86.1559 808.001H10.1559M86.1559 808.001L95.62 813.521V824.85L94.6162 824.42L94.0426 824.205L93.5408 823.99L93.0389 823.846L92.537 823.631L91.6049 823.201L90.6011 822.842L89.669 822.484L88.6653 822.125L87.7333 821.767L86.8728 821.48L85.9408 821.121L85.0804 820.835L84.22 820.476L83.2879 820.19L82.4992 819.903L80.7785 819.329L79.9899 819.114L79.1295 818.827L78.3408 818.54L76.7635 818.11L76.0464 817.895L74.4691 817.465L73.0351 817.035L72.2464 816.82L71.5294 816.676L70.8125 816.461L70.0955 816.318L69.3786 816.103L68.6615 815.959L68.0163 815.816L66.5823 815.529L65.2917 815.242L64.5747 815.099L63.9294 814.956L63.2842 814.884L62.5672 814.74L61.9219 814.597L60.6314 814.454L59.986 814.31L58.0503 814.095L57.4767 814.023L55.5408 813.808H54.9672L54.3219 813.737L53.1031 813.665L51.8124 813.593L50.5936 813.521H45.6464L41.9898 813.737L41.3446 813.808H40.6993L40.1257 813.88L36.254 814.31L35.6087 814.454L34.3182 814.597L33.0276 814.884L32.3823 814.956L31.6653 815.099L30.3748 815.386L28.9408 815.673L28.2955 815.816L26.8615 816.103L26.1445 816.318L25.4276 816.461L24.7106 816.676L23.9937 816.82L22.5596 817.25L21.771 817.465L21.054 817.68L17.8993 818.54L16.3219 819.114L15.4616 819.329L14.6729 819.616L12.0917 820.476L11.2314 820.835L10.2993 821.121L9.43894 821.48L8.50683 821.767L5.71061 822.842L4.70684 823.201L3.20113 823.846L2.6993 823.99L1.19359 824.635L0.619995 824.85V813.521L10.1559 808.001M86.1559 808.001V803.269M10.1559 808.001V803.269M86.1559 803.269H10.1559M86.1559 803.269L71.8879 795.023M10.1559 803.269L24.4238 795.023M71.8879 795.023H24.4238M71.8879 795.023V790.506M24.4238 795.023V790.506M71.8879 790.506H24.4238M71.8879 790.506L79.4163 786.42L85.3672 780.182L89.0955 772.51L90.4577 764.05L89.0955 755.59L85.3672 747.918L79.4163 741.752L71.8879 737.665M24.4238 790.506L16.8955 786.42L10.9445 780.182L7.14455 772.51L5.85404 764.05L7.14455 755.59L10.9445 747.918L16.8955 741.752L24.4238 737.665M71.8879 737.665H24.4238M71.8879 737.665V733.148M24.4238 737.665V733.148M71.8879 733.148H24.4238M71.8879 733.148L88.02 723.827M24.4238 733.148L8.21998 723.827M88.02 723.827H8.21998M88.02 723.827V721.533M8.21998 723.827V721.533M88.02 721.533H8.21998M88.02 721.533L84.2917 719.382L78.8427 715.08L74.8992 709.344L72.7483 702.676L72.6766 695.722L90.2426 563.008L90.171 555.48L88.0918 548.167L84.1484 541.714L78.5559 536.552L71.8879 533.11M8.21998 721.533L11.9483 719.382L17.3974 715.08L21.4125 709.344L23.4917 702.676L23.6351 695.722L6.06912 563.008L6.14078 555.48L8.21998 548.167L12.1634 541.714L17.6842 536.552L24.4238 533.11M71.8879 533.11H24.4238M71.8879 533.11V528.306M24.4238 533.11V528.306M71.8879 528.306H24.4238M71.8879 528.306L69.3786 525.51V521.71L71.8879 518.842M24.4238 528.306L26.8615 525.51V521.71L24.4238 518.842M71.8879 518.842H24.4238M71.8879 518.842V514.11M24.4238 518.842V514.11M71.8879 514.11H24.4238M71.8879 514.11L78.6276 510.525L84.1484 505.363L88.1634 498.839L90.171 491.525V483.854L72.6766 351.499L72.7483 344.473L74.8992 337.876L78.8427 332.14L84.2917 327.767L88.02 325.616M24.4238 514.11L17.6125 510.525L12.0917 505.363L8.14832 498.839L6.06912 491.525V483.854L23.6351 351.499L23.4917 344.473L21.4125 337.876L17.3974 332.14L11.9483 327.767L8.21998 325.616M88.02 325.616H8.21998M88.02 325.616V323.393M8.21998 325.616V323.393M88.02 323.393H8.21998M88.02 323.393L71.8879 314.073M8.21998 323.393L24.4238 314.073M71.8879 314.073H24.4238M71.8879 314.073V309.484M24.4238 314.073V309.484M71.8879 309.484H24.4238M71.8879 309.484L79.4163 305.397L85.3672 299.231L89.0955 291.559L90.4577 283.099L89.0955 274.639L85.3672 266.967L79.4163 260.801L71.8879 256.714M24.4238 309.484L16.8955 305.397L10.9445 299.231L7.14455 291.559L5.85404 283.099L7.14455 274.639L10.9445 266.967L16.8955 260.801L24.4238 256.714M71.8879 256.714H24.4238M71.8879 256.714V252.125M24.4238 256.714V252.125M71.8879 252.125H24.4238M71.8879 252.125L86.1559 243.88M24.4238 252.125L10.1559 243.88M86.1559 243.88H10.1559M86.1559 243.88V239.148M10.1559 243.88V239.148M86.1559 239.148H10.1559M86.1559 239.148L95.62 233.699V222.299M10.1559 239.148L0.619995 233.699V222.299M95.62 222.299V0.679993M95.62 222.299L94.6162 222.729L94.0426 222.944L93.0389 223.374L92.537 223.518L91.6049 223.948L90.6011 224.306L89.669 224.665L88.6653 225.023L87.7333 225.382L86.8728 225.74L85.9408 226.027L85.0804 226.386L84.22 226.673L83.2879 226.959L82.4992 227.246L80.7785 227.82L79.9899 228.106L79.1295 228.322L78.3408 228.608L77.5521 228.823L76.7635 229.11L76.0464 229.325L74.4691 229.756L73.7522 229.971L73.0351 230.114L72.2464 230.329L71.5294 230.544L70.8125 230.688L70.0955 230.903L68.6615 231.189L68.0163 231.404L66.5823 231.691L65.2917 231.978L64.5747 232.05L63.2842 232.337L62.5672 232.408L61.9219 232.552L61.2766 232.623L60.6314 232.767L58.0503 233.054L57.4767 233.125L55.5408 233.34L54.9672 233.412H54.3219L53.1031 233.556L51.8124 233.627H50.5936L49.3747 233.699H46.937L45.6464 233.627H44.4275L43.2087 233.556L41.9898 233.412H41.3446L40.6993 233.34L40.1257 233.269L35.6087 232.767L34.9635 232.623L34.3182 232.552L33.6728 232.408L33.0276 232.337L32.3823 232.193L31.6653 232.05L31.02 231.978L30.3748 231.835L28.9408 231.548L28.2955 231.404L27.5786 231.189L26.1445 230.903L25.4276 230.688L24.7106 230.544L23.2766 230.114L22.5596 229.971L21.771 229.756L21.054 229.54L19.4766 229.11L18.688 228.823L17.8993 228.608L17.1106 228.322L16.3219 228.106L15.4616 227.82L14.6729 227.533L11.2314 226.386L10.2993 226.027L9.43894 225.74L5.71061 224.306L4.70684 223.948L3.70307 223.518L3.20113 223.374L1.19359 222.514L0.619995 222.299M0.619995 222.299V0.679993" stroke="black" stroke-width="1"/>
</svg>
