<svg width="96" height="826" viewBox="0 0 96 826" fill="none" xmlns="http://www.w3.org/2000/svg">
<path d="M85.9342 808.001H9.9342M85.9342 808.001L95.47 813.521V824.85L94.8965 824.635L93.3907 823.99L92.8888 823.846L91.3832 823.201L90.3795 822.842L87.5832 821.767L86.6511 821.48L85.7907 821.121L84.8586 820.835L83.9983 820.476L81.4172 819.616L80.6284 819.329L79.7681 819.114L78.1907 818.54L75.036 817.68L74.319 817.465L73.5304 817.25L72.0963 816.82L71.3793 816.676L70.5907 816.461L69.8737 816.318L69.2285 816.103L67.0776 815.673L66.4324 815.529L65.7153 815.386L64.4248 815.099L63.7078 814.956L63.0625 814.884L61.7718 814.597L60.4813 814.454L59.836 814.31L55.9643 813.88L55.3908 813.808H54.7455L54.1003 813.737L51.6623 813.593L50.3718 813.521H45.4964L44.2774 813.593L42.9869 813.665L41.7682 813.737L41.1229 813.808H40.5492L38.6134 814.023L38.0397 814.095L36.104 814.31L35.4587 814.454L34.1682 814.597L33.5227 814.74L32.8059 814.884L32.1607 814.956L31.5152 815.099L30.7984 815.242L30.1529 815.386L29.4361 815.529L28.7908 815.673L28.0738 815.816L27.4286 815.959L26.7115 816.103L25.9945 816.318L25.2775 816.461L24.5605 816.676L23.8437 816.82L23.0549 817.035L21.621 817.465L20.0437 817.895L19.3266 818.11L17.7493 818.54L16.8889 818.827L16.1001 819.114L15.3116 819.329L11.87 820.476L11.0096 820.835L10.1493 821.121L9.21718 821.48L8.28507 821.767L7.42473 822.125L6.42085 822.484L5.48896 822.842L4.48508 823.201L3.55297 823.631L3.05103 823.846L2.54931 823.99L2.04737 824.205L1.47366 824.42L0.470001 824.85V813.521L9.9342 808.001M85.9342 808.001V803.269M9.9342 808.001V803.269M85.9342 803.269H9.9342M85.9342 803.269L71.6662 795.023M9.9342 803.269L24.2021 795.023M71.6662 795.023H24.2021M71.6662 795.023V790.291M24.2021 795.023V790.291M71.6662 790.291H24.2021M71.6662 790.291L69.2285 787.423V783.623L71.6662 780.756M24.2021 790.291L26.7115 787.423V783.623L24.2021 780.756M71.6662 780.756H24.2021M71.6662 780.756V776.024M24.2021 780.756V776.024M71.6662 776.024H24.2021M71.6662 776.024L79.1946 771.937L85.1455 765.771L88.9454 758.099L90.236 749.639L88.9454 741.178L85.1455 733.507L79.1946 727.34L71.6662 723.254M24.2021 776.024L16.6738 771.937L10.7228 765.771L6.92279 758.099L5.63227 749.639L6.92279 741.178L10.7228 733.507L16.6738 727.34L24.2021 723.254M71.6662 723.254H24.2021M71.6662 723.254V718.521M24.2021 723.254V718.521M71.6662 718.521H24.2021M71.6662 718.521L69.2285 715.654V711.854L71.6662 708.986M24.2021 718.521L26.7115 715.654V711.854L24.2021 708.986M71.6662 708.986H24.2021M71.6662 708.986V704.254M24.2021 708.986V704.254M71.6662 704.254H24.2021M71.6662 704.254L77.1871 702.103L81.0586 697.658L82.4927 691.922L81.0586 686.186L77.1871 681.741L71.6662 679.589M24.2021 704.254L18.6814 702.103L14.8096 697.658L13.4473 691.922L14.8096 686.186L18.6814 681.741L24.2021 679.589M71.6662 679.589H24.2021M71.6662 679.589V674.786M24.2021 679.589V674.786M71.6662 674.786H24.2021M71.6662 674.786L69.2285 671.989V668.189L71.6662 665.322M24.2021 674.786L26.7115 671.989V668.189L24.2021 665.322M71.6662 665.322H24.2021M71.6662 665.322V660.59M24.2021 665.322V660.59M71.6662 660.59H24.2021M71.6662 660.59L79.1946 656.503L85.1455 650.337L88.9454 642.665L90.236 634.205L72.0963 349.635L72.6701 343.182L74.9642 337.088L78.7644 331.854L83.9265 327.91L87.87 325.616M24.2021 660.59L16.6738 656.503L10.7228 650.337L6.92279 642.665L5.63227 634.205L23.7719 349.635L23.2699 343.182L20.9756 337.088L17.104 331.854L11.9417 327.91L8.06998 325.616M87.87 325.616H8.06998M87.87 325.616V323.393M8.06998 325.616V323.393M87.87 323.393H8.06998M87.87 323.393L83.1379 319.163L77.6888 316.008L71.6662 314.073M8.06998 323.393L12.7303 319.163L18.1794 316.008L24.2021 314.073M71.6662 314.073H24.2021M71.6662 314.073V309.484L74.3907 288.763L79.1946 268.401L85.9342 248.684M24.2021 314.073V309.484L21.4775 288.763L16.7454 268.401L9.9342 248.684M85.9342 248.684H9.9342M85.9342 248.684V239.148M9.9342 248.684V239.148M85.9342 239.148H9.9342M85.9342 239.148L95.47 233.699V222.299M9.9342 239.148L0.470001 233.699V222.299M95.47 222.299V0.679993M95.47 222.299L94.8965 222.514L92.8888 223.374L92.387 223.518L91.3832 223.948L90.3795 224.306L86.6511 225.74L85.7907 226.027L84.8586 226.386L81.4172 227.533L80.6284 227.82L79.7681 228.106L78.9795 228.322L78.1907 228.608L77.4022 228.823L76.6134 229.11L75.036 229.54L74.319 229.756L73.5304 229.971L72.8134 230.114L71.3793 230.544L70.5907 230.688L69.8737 230.903L69.2285 231.046L68.5114 231.189L67.7944 231.404L67.0776 231.548L66.4324 231.691L65.7153 231.835L65.0701 231.978L64.4248 232.05L63.7078 232.193L63.0625 232.337L62.4171 232.408L61.7718 232.552L61.1265 232.623L60.4813 232.767L55.9643 233.269L55.3908 233.34L54.7455 233.412H54.1003L52.8813 233.556L51.6623 233.627H50.3718L49.1531 233.699H46.7154L45.4964 233.627H44.2774L42.9869 233.556L41.7682 233.412H41.1229L40.5492 233.34L38.6134 233.125L38.0397 233.054L35.4587 232.767L34.8135 232.623L34.1682 232.552L33.5227 232.408L32.8059 232.337L31.5152 232.05L30.7984 231.978L30.1529 231.835L29.4361 231.691L28.7908 231.548L28.0738 231.404L27.4286 231.189L25.9945 230.903L25.2775 230.688L24.5605 230.544L23.8437 230.329L23.0549 230.114L22.3378 229.971L21.621 229.756L20.0437 229.325L19.3266 229.11L18.5378 228.823L17.7493 228.608L16.8889 228.322L16.1001 228.106L15.3116 227.82L11.0096 226.386L10.1493 226.027L9.21718 225.74L8.28507 225.382L7.42473 225.023L6.42085 224.665L5.48896 224.306L4.48508 223.948L3.55297 223.518L3.05103 223.374L2.04737 222.944L1.47366 222.729L0.470001 222.299M0.470001 222.299V0.679993" stroke="black" stroke-width="1"/>
</svg>
