<svg width="96" height="826" viewBox="0 0 96 826" fill="none" xmlns="http://www.w3.org/2000/svg">
<path d="M85.7742 808.001H9.84597M85.7742 808.001L95.31 813.521V824.85L94.8081 824.635L94.2346 824.42L93.2307 823.99L92.729 823.846L91.2232 823.201L90.291 822.842L89.2874 822.484L87.4232 821.767L86.5628 821.48L85.6307 821.121L84.7704 820.835L83.8383 820.476L82.1176 819.903L81.3288 819.616L80.4684 819.329L79.6799 819.114L78.8195 818.827L78.0307 818.54L75.6648 817.895L74.9478 817.68L74.159 817.465L73.4422 817.25L72.6534 817.035L71.9363 816.82L71.2195 816.676L70.5025 816.461L69.7855 816.318L69.0685 816.103L67.6346 815.816L66.9892 815.673L66.2723 815.529L65.6271 815.386L64.9101 815.242L63.6196 814.956L62.9025 814.884L61.6118 814.597L60.3213 814.454L59.676 814.31L57.095 814.023L56.5213 813.952L55.2308 813.808H54.5855L54.0118 813.737L52.7213 813.665L50.2836 813.521H45.3364L42.8987 813.665L41.6082 813.737L41.0345 813.808H40.3892L39.744 813.88L39.1705 813.952L35.944 814.31L35.2987 814.454L34.0082 814.597L32.7175 814.884L32.0007 814.956L30.7099 815.242L29.9931 815.386L29.3476 815.529L28.6308 815.673L27.9856 815.816L26.5515 816.103L25.8345 816.318L25.1175 816.461L24.4007 816.676L23.6837 816.82L22.9666 817.035L22.1778 817.25L21.461 817.465L20.6722 817.68L19.9552 817.895L17.5893 818.54L16.0119 819.114L15.1516 819.329L14.3628 819.616L11.7817 820.476L10.9214 820.835L9.98929 821.121L9.12894 821.48L8.19683 821.767L6.33261 822.484L5.32895 822.842L4.39684 823.201L2.89124 823.846L2.3893 823.99L0.883705 824.635L0.309998 824.85V813.521L9.84597 808.001M85.7742 808.001V803.269M9.84597 808.001V803.269M85.7742 803.269H9.84597M85.7742 803.269L71.5779 795.023M9.84597 803.269L24.0421 795.023M71.5779 795.023H24.0421M71.5779 795.023V785.559M24.0421 795.023V785.559M71.5779 785.559H24.0421M71.5779 785.559L74.6609 783.552L76.4534 780.254V776.525L74.6609 773.299L71.5779 771.291M24.0421 785.559L20.9591 783.552L19.1666 780.254V776.525L20.9591 773.299L24.0421 771.291M71.5779 771.291H24.0421M71.5779 771.291L80.3969 743.974L86.8497 715.94L90.8647 687.548L92.4421 658.869L91.2232 652.631L88.1402 647.038L83.5516 642.593L77.8874 639.797L71.5779 638.793M24.0421 771.291L15.2233 743.974L8.77032 715.94L4.75525 687.548L3.17788 658.869L4.39684 652.631L7.47981 647.038L12.0686 642.593L17.8044 639.797L24.0421 638.793M71.5779 638.793H24.0421M71.5779 638.793V635.925M24.0421 638.793V635.925M71.5779 635.925H24.0421M71.5779 635.925L74.6609 633.918L76.4534 630.691V626.963L74.6609 623.737L71.5779 621.729M24.0421 635.925L20.9591 633.918L19.1666 630.691V626.963L20.9591 623.737L24.0421 621.729M71.5779 621.729H24.0421M71.5779 621.729V618.861M24.0421 621.729V618.861M71.5779 618.861H24.0421M71.5779 618.861L78.0307 617.857L83.8383 614.846L88.4986 610.258L91.4382 604.45L92.4421 597.925L93.8759 570.824L93.1591 543.65L90.3628 516.62L85.4874 489.876L79.393 456.967L75.0911 423.699L72.6534 390.288L71.9363 356.805V320.31M24.0421 618.861L17.5893 617.857L11.7817 614.846L7.19296 610.258L4.18176 604.45L3.17788 597.925L1.74405 570.824L2.46085 543.65L5.25718 516.62L10.1326 489.876L16.227 456.967L20.5289 423.699L22.9666 390.288L23.6837 356.805V320.31M71.9363 320.31H23.6837M71.9363 320.31L75.0911 318.303L76.8835 315.005V311.276L75.0911 308.05L71.9363 306.042M23.6837 320.31L20.5289 318.303L18.7365 315.005V311.276L20.5289 308.05L23.6837 306.042M71.9363 306.042H23.6837M71.9363 306.042V302.242M23.6837 306.042V302.242M71.9363 302.242H23.6837M71.9363 302.242L76.8835 300.163L80.3969 296.076L81.6156 290.842L80.3969 285.608L76.8835 281.522L71.9363 279.442M23.6837 302.242L18.7365 300.163L15.2949 296.076L14.0044 290.842L15.2949 285.608L18.7365 281.522L23.6837 279.442M71.9363 279.442H23.6837M71.9363 279.442V275.642M23.6837 279.442V275.642M71.9363 275.642H23.6837M71.9363 275.642L75.0911 273.635L76.8835 270.408V266.68L75.0911 263.382L71.9363 261.374M23.6837 275.642L20.5289 273.635L18.7365 270.408V266.68L20.5289 263.382L23.6837 261.374M71.9363 261.374H23.6837M71.9363 261.374V256.642M23.6837 261.374V256.642M71.9363 256.642H23.6837M71.9363 256.642L85.7742 248.684M23.6837 256.642L9.84597 248.684M85.7742 248.684H9.84597M85.7742 248.684V239.148M9.84597 248.684V239.148M85.7742 239.148H9.84597M85.7742 239.148L95.31 233.699V222.299M9.84597 239.148L0.309998 233.699V222.299M95.31 222.299V0.679993M95.31 222.299L94.8081 222.514L94.2346 222.729L92.729 223.374L92.227 223.518L91.2232 223.948L90.291 224.306L89.2874 224.665L87.4232 225.382L86.5628 225.74L85.6307 226.027L84.7704 226.386L83.8383 226.673L82.1176 227.246L81.3288 227.533L80.4684 227.82L79.6799 228.106L78.8195 228.322L78.0307 228.608L77.2422 228.823L76.4534 229.11L75.6648 229.325L74.9478 229.54L74.159 229.756L73.4422 229.971L72.6534 230.114L71.2195 230.544L70.5025 230.688L69.7855 230.903L68.3514 231.189L67.6346 231.404L66.9892 231.548L66.2723 231.691L65.6271 231.835L64.9101 231.978L64.2648 232.05L63.6196 232.193L62.9025 232.337L62.2573 232.408L61.6118 232.552L60.9665 232.623L60.3213 232.767L57.095 233.125L56.5213 233.197L54.5855 233.412H54.0118L52.7213 233.556L51.5026 233.627H50.2836L49.0646 233.699H46.5554L45.3364 233.627H44.1177L42.8987 233.556L41.6082 233.412H41.0345L39.744 233.269L39.1705 233.197L35.2987 232.767L34.6535 232.623L34.0082 232.552L33.3629 232.408L32.7175 232.337L32.0007 232.193L31.3554 232.05L30.7099 231.978L29.9931 231.835L29.3476 231.691L28.6308 231.548L27.9856 231.404L27.2686 231.189L25.8345 230.903L25.1175 230.688L24.4007 230.544L22.9666 230.114L22.1778 229.971L21.461 229.756L20.6722 229.54L19.9552 229.325L19.1666 229.11L18.3778 228.823L17.5893 228.608L16.8005 228.322L16.0119 228.106L15.1516 227.82L14.3628 227.533L10.9214 226.386L9.98929 226.027L9.12894 225.74L6.33261 224.665L5.32895 224.306L4.39684 223.948L3.39296 223.518L2.89124 223.374L0.883705 222.514L0.309998 222.299M0.309998 222.299V0.679993" stroke="black" stroke-width="1"/>
</svg>
