<svg width="97" height="826" viewBox="0 0 97 826" fill="none" xmlns="http://www.w3.org/2000/svg">
<path d="M1.16 222.466V0.679993M1.16 222.466V233.875L20.1743 244.853M1.16 222.466L3.67138 223.543L4.17348 223.686L5.17812 224.117L6.18253 224.475L9.9138 225.911L10.8466 226.197L11.7076 226.556L15.1516 227.704L15.941 227.991L16.802 228.278L17.5913 228.494L18.3805 228.781L19.1699 228.996L19.9591 229.283L21.5376 229.713L22.2552 229.929L23.0444 230.144L23.7619 230.287L24.4795 230.503L25.2687 230.718L25.9862 230.862L26.7038 231.077L27.4214 231.22L28.0671 231.364L28.7847 231.579L29.502 231.723L30.148 231.866L30.8653 232.01L31.5113 232.153L32.2287 232.225L33.5204 232.512L34.1661 232.584L34.8119 232.727L35.5294 232.799L36.1752 232.942L37.4667 233.086L38.0406 233.157L40.6238 233.445L41.1977 233.516L41.8434 233.588H42.4894L43.7091 233.732L44.929 233.803H46.2205L47.4401 233.875H49.8799L51.0996 233.803H52.3194L53.6109 233.732L54.8308 233.588H55.4766L56.0505 233.516L59.2794 233.157L59.8533 233.086L61.1448 232.942L61.7906 232.799L62.4365 232.727L63.1539 232.584L63.7999 232.512L65.0913 232.225L65.8089 232.153L66.4547 232.01L67.172 231.866L67.818 231.723L68.5353 231.579L69.2529 231.364L69.8986 231.22L70.6162 231.077L71.3338 230.862L72.0513 230.718L72.7689 230.503L73.5581 230.287L74.2756 230.144L75.0648 229.929L75.7824 229.713L77.3609 229.283L78.0785 228.996L78.9395 228.781L79.7287 228.494L80.5181 228.278L81.3072 227.991L85.6124 226.556L86.4734 226.197L87.4062 225.911L91.1375 224.475L92.1419 224.117L93.1465 223.686L93.577 223.543L94.1509 223.327L96.16 222.466M72.41 257.051H24.91M72.41 257.051V276.065L95.299 628.369L94.7251 633.464L92.429 638.056L88.6261 641.5L83.8186 643.366M72.41 257.051L77.1457 254.324M24.91 257.051V276.065L2.021 628.369L2.59492 633.464L4.89105 638.056L8.69391 641.5L13.5014 643.366M24.91 257.051L20.1743 254.324M77.1457 254.324H20.1743M77.1457 254.324V244.853M20.1743 254.324V244.853M77.1457 244.853H20.1743M77.1457 244.853L96.16 233.875V222.466M96.16 222.466V0.679993M81.9532 805.885H15.367M81.9532 805.885L96.16 814.136V825.473L94.1509 824.612L93.577 824.468L93.1465 824.253L92.1419 823.823L91.1375 823.464L88.339 822.388L87.4062 822.101L86.4734 821.742L85.6124 821.455L84.7514 821.096L81.3072 819.948L80.5181 819.733L78.9395 819.159L78.0785 818.943L77.3609 818.728L75.7824 818.298L75.0648 818.082L74.2756 817.867L73.5581 817.652L72.7689 817.437L72.0513 817.293L71.3338 817.078L70.6162 816.934L69.8986 816.719L69.2529 816.576L67.818 816.289L67.172 816.145L66.4547 816.002L65.8089 815.858L65.0913 815.715L64.4456 815.571L63.7999 815.499L63.1539 815.356L62.4365 815.212L61.1448 815.069L60.4991 814.925L59.8533 814.854L59.2794 814.782L56.0505 814.423H55.4766L54.8308 814.351L53.6109 814.28L52.3194 814.208L51.0996 814.136H46.2205L44.929 814.208L42.4894 814.351L41.8434 814.423H41.1977L40.6238 814.495L38.0406 814.782L37.4667 814.854L36.8209 814.925L36.1752 815.069L35.5294 815.141L34.8119 815.212L33.5204 815.499L32.8744 815.571L32.2287 815.715L31.5113 815.858L30.8653 816.002L30.148 816.145L29.502 816.289L28.0671 816.576L27.4214 816.719L26.7038 816.934L25.9862 817.078L25.2687 817.293L24.4795 817.437L23.0444 817.867L22.2552 818.082L21.5376 818.298L18.3805 819.159L16.802 819.733L15.941 819.948L15.1516 820.235L12.5686 821.096L11.7076 821.455L10.8466 821.742L9.9138 822.101L8.98098 822.388L6.18253 823.464L5.17812 823.823L3.67138 824.468L3.16906 824.612L1.16 825.473V814.136L15.367 805.885M81.9532 805.885V796.342M15.367 805.885V796.342M81.9532 796.342H15.367M81.9532 796.342L88.4108 783.067L92.3571 768.789L93.5052 754.008L91.9266 739.298L83.3163 710.885L81.7379 696.175L82.8858 681.394L86.8323 667.116L93.3618 653.77M15.367 796.342L8.90916 783.067L4.96287 768.789L3.8148 754.008L5.39336 739.298L14.0037 710.885L15.5823 696.175L14.4342 681.394L10.4877 667.116L3.95823 653.77M93.3618 653.77H3.95823M93.3618 653.77L89.2718 649.465L83.8186 647.168M3.95823 653.77L8.04816 649.465L13.5014 647.168M83.8186 643.366H13.5014M83.8186 643.366V647.168M13.5014 643.366V647.168M83.8186 647.168H13.5014" stroke="black" stroke-width="1"/>
</svg>
