<svg width="97" height="827" viewBox="0 0 97 827" fill="none" xmlns="http://www.w3.org/2000/svg">
<path d="M0.869995 222.746V0.960007M0.869995 222.746V234.083L19.8845 245.061M0.869995 222.746L1.87463 223.177L2.37695 223.32L2.95065 223.536L3.95529 223.966L4.88811 224.325L5.89275 224.684L6.82556 225.114L7.75838 225.473L8.69119 225.76L10.5564 226.478L12.2788 227.052L13.1398 227.41L14.8618 227.984L15.7228 228.2L17.3011 228.774L18.1625 228.989L18.9517 229.276L19.7409 229.491L20.4582 229.706L22.037 230.137L23.4722 230.567L24.2613 230.783L24.9787 230.926L25.6965 231.141L27.1316 231.428L27.7771 231.644L29.2122 231.931L29.8578 232.074L30.5756 232.218L31.2211 232.361L31.9389 232.505L32.5844 232.576L33.8759 232.863L34.5937 232.935L35.2392 233.079L36.5311 233.222L37.1767 233.366L37.8226 233.437L38.3963 233.509L40.3338 233.724H40.9797L41.5534 233.796L42.1994 233.868L43.4191 233.94L44.7106 234.012L45.9307 234.083H50.8098L52.1013 234.012L54.5406 233.868L55.8325 233.724H56.4062L59.6352 233.366L60.2811 233.222L61.5726 233.079L62.2181 232.935L62.8641 232.863L64.1556 232.576L64.8729 232.505L66.1644 232.218L66.8822 232.074L67.5277 231.931L68.9629 231.644L69.6807 231.428L70.3262 231.285L71.044 231.141L71.7613 230.926L72.5505 230.783L73.9856 230.352L74.7748 230.137L75.4926 229.922L77.8601 229.276L78.6497 228.989L79.4389 228.774L80.228 228.487L81.089 228.2L81.8782 227.984L83.6006 227.41L84.4616 227.052L86.1836 226.478L88.0492 225.76L88.9821 225.473L89.9149 225.114L90.8472 224.684L92.8565 223.966L94.3635 223.32L94.8654 223.177L95.87 222.746M76.9273 254.533H19.8845M76.9273 254.533L72.12 257.331M76.9273 254.533V245.061M19.8845 254.533L24.62 257.331M19.8845 254.533V245.061M76.9273 245.061H19.8845M76.9273 245.061L95.87 234.083V222.746M95.87 222.746V0.960007M81.6632 806.093H15.0768M81.6632 806.093L95.87 814.344V825.681L94.8654 825.251L94.3635 825.107L92.8565 824.461L91.8519 824.103L90.8472 823.672L88.9821 822.954L88.0492 822.668L86.1836 821.95L84.4616 821.376L83.6006 821.017L81.8782 820.443L81.089 820.228L80.228 819.941L79.4389 819.654L78.6497 819.439L77.8601 819.152L75.4926 818.506L74.7748 818.291L73.9856 818.075L72.5505 817.645L71.7613 817.501L71.044 817.286L70.3262 817.143L69.6807 816.927L67.5277 816.497L66.8822 816.353L66.1644 816.21L64.8729 815.923L64.1556 815.779L63.5096 815.708L62.8641 815.564L62.2181 815.492L61.5726 815.349L60.2811 815.205L59.6352 815.062L56.4062 814.703H55.8325L54.5406 814.56L52.1013 814.416L50.8098 814.344H45.9307L44.7106 814.416L43.4191 814.488L42.1994 814.56L41.5534 814.631L40.9797 814.703H40.3338L38.3963 814.918L37.8226 814.99L37.1767 815.062L36.5311 815.205L35.2392 815.349L34.5937 815.492L33.8759 815.564L33.2304 815.708L32.5844 815.779L31.9389 815.923L31.2211 816.066L30.5756 816.21L29.8578 816.353L29.2122 816.497L27.7771 816.784L27.1316 816.927L26.4138 817.143L25.6965 817.286L24.9787 817.501L24.2613 817.645L23.4722 817.86L22.037 818.291L20.4582 818.721L19.7409 818.936L18.9517 819.152L18.1625 819.439L17.3011 819.654L15.7228 820.228L14.8618 820.443L13.1398 821.017L12.2788 821.376L10.5564 821.95L8.69119 822.668L7.75838 822.954L5.89275 823.672L4.88811 824.103L3.95529 824.461L2.95065 824.892L2.37695 825.107L1.87463 825.251L0.869995 825.681V814.344L15.0768 806.093M81.6632 806.093V796.621M15.0768 806.093V796.621M81.6632 796.621H15.0768M81.6632 796.621L88.1211 783.275L92.0673 768.997L93.2152 754.216L91.6369 739.507L87.3315 725.3L83.0265 711.164L81.4477 696.383L82.6678 681.603L86.5423 667.324L93.0715 654.05M15.0768 796.621L8.61937 783.275L4.67308 768.997L3.5248 754.216L5.10357 739.507L9.40854 725.3L13.7135 711.164L15.2923 696.383L14.144 681.603L10.1977 667.324L3.74026 654.05M93.0715 654.05H3.74026M93.0715 654.05L88.9821 649.673L83.5288 647.377M3.74026 654.05L7.75838 649.673L13.2116 647.377M83.5288 647.377H13.2116M83.5288 647.377V643.574M13.2116 647.377V643.574M72.12 257.331H24.62M72.12 257.331V272.614L72.0482 272.758V273.117L71.9768 273.332V274.049L71.8331 275.197L71.7613 276.345L71.6895 277.278L71.6177 278.283L71.5459 279.215L71.4026 280.22L71.259 281.153L71.1872 282.157L70.9722 283.09L70.8285 284.095L70.6849 285.027L70.4698 286.032L70.2544 286.965L70.0393 287.969L69.4652 289.835L69.2502 290.839L68.9629 291.772L68.6042 292.705L68.3173 293.709L67.9582 294.642L67.5996 295.647L66.8822 297.512L66.5235 298.517L65.2321 301.315L64.8016 302.32L64.3706 303.252L63.8687 304.185L63.4382 305.118L62.4336 306.983L61.9313 307.988L61.429 308.921L60.8548 309.854L60.3525 310.787L58.6305 313.585L58.0568 314.589L56.9085 316.455L56.263 317.388L55.6889 318.32L54.3974 320.186L53.8232 321.119L50.5943 325.783L49.231 327.648L47.9395 329.442L45.2847 333.173L43.9214 335.039L42.5581 336.832L41.2666 338.698L39.9033 340.492L38.6118 342.286L37.3203 344.151L36.0288 345.945L34.7373 347.811L34.0914 348.672L33.5172 349.604L32.8717 350.537L32.2975 351.398L31.7234 352.331L31.0779 353.192L29.9296 355.058L29.3559 355.919L28.8536 356.851L28.2794 357.712L27.7053 358.645L27.203 359.578L26.7007 360.439L26.1988 361.372L25.6965 362.233L25.1941 363.166L24.7636 364.027L24.2613 364.959L23.8308 365.82L23.4003 366.753L22.9698 367.614L22.6112 368.547L22.1807 369.408L21.8215 370.269L21.4629 371.202L21.1042 372.063L20.7455 372.996L20.3869 373.857L20.0996 374.718L19.8127 375.651L19.5254 376.512L19.3104 377.444L19.0235 378.305L18.593 380.028L18.3776 380.96L18.1625 381.821L18.0189 382.682L17.8753 383.615L17.5884 385.337L17.4448 387.059L17.3729 387.992L17.3011 388.853V389.714L17.2297 390.575V392.297L17.3011 393.23L17.3729 394.091M24.62 257.331V272.471L24.6918 272.542V273.117L24.7636 273.188V273.762L24.8355 273.978V274.839L24.9068 275.197V276.345L24.7636 277.35V277.852L24.6918 278.067V278.283L24.62 278.929L24.2613 281.799V282.373L24.1895 282.947L22.4675 309.064M83.5288 643.574H13.2116M83.5288 643.574L88.4797 641.636L92.3542 637.977L94.6503 633.17V632.883L94.7222 632.811V632.38L94.794 632.237V631.806L94.8654 631.447V630.658L94.9372 630.443V628.577L94.8654 628.291V625.779L94.794 625.277V624.775L92.9283 595.5M13.2116 643.574L8.26069 641.636L4.38579 637.977L2.08966 633.17V632.811L2.01828 632.667V632.524M76.8559 354.771L76.9273 355.273L77.0709 355.775L77.1427 356.278L77.2146 356.851L77.4296 358.358V358.861L77.5732 359.865V360.367L77.6451 360.87V361.372L77.7169 361.874V365.964L77.6451 366.466V366.969L77.5732 367.471V367.973L77.4296 368.978V369.48L77.3582 369.91L77.1427 371.417L76.9991 371.919L76.8559 372.924L76.7122 373.426L76.6404 373.929L76.4968 374.431L76.4254 374.933L75.9949 376.44L75.9231 376.942L75.6358 377.947L75.4208 378.449L74.9903 379.956L74.7748 380.458L74.6316 380.889L74.2011 381.893L73.842 382.898L72.5505 385.911L72.0482 386.844L71.6177 387.849L71.044 388.853L70.5417 389.858L70.0393 390.79L68.8911 392.799L68.3173 393.732L67.6714 394.737L67.0972 395.741L66.4517 396.674L65.8058 397.679L65.0884 398.683L64.4424 399.616L63.0077 401.625L62.29 402.558L61.5726 403.562L60.8548 404.495L60.0657 405.5L59.3483 406.504L58.5587 407.437L57.7695 408.441L56.9804 409.374L56.1912 410.379L55.3302 411.311L54.5406 412.316L53.6796 413.249L52.8904 414.253L51.1684 416.191L49.5183 418.128L47.7959 420.065L46.0739 421.931L42.7017 425.806L40.9797 427.671L39.2573 429.608L37.6071 431.474L36.7462 432.478L35.8852 433.411L34.3068 435.277L33.4454 436.281L30.2883 440.012L29.5709 440.945L28.7818 441.878L28.064 442.882L27.2748 443.815L25.8397 445.681L25.1941 446.614L24.4764 447.546L21.2478 452.21L18.9517 455.941L16.4401 460.605L16.0096 461.538L15.5791 462.399L15.2205 463.332L14.79 464.265L14.0726 466.13L13.929 466.561L13.7853 467.063L13.6421 467.494L13.4985 467.996L13.3548 468.426L13.2116 468.857L13.068 469.359L12.9243 469.79L12.7811 470.292L12.7093 470.722L12.5657 471.153L12.422 471.655L12.3502 472.086L12.2788 472.588L12.1352 473.018L12.0633 473.449L11.9915 473.951L11.8483 474.812L11.7765 475.315L11.7047 475.745L11.6328 476.247V476.678L11.561 477.108V477.611L11.4892 478.041L9.62401 506.599M76.8559 354.771V355.273L76.7841 355.775V356.278L76.5686 357.784L76.4968 358.358L76.1381 360.87L75.9949 361.372L75.8513 362.376L75.5644 363.381L75.4926 363.883L74.3443 367.901L73.2683 370.915L71.5459 374.933L69.537 378.951L68.9629 379.956L68.4606 380.96L67.3127 382.969L66.6667 383.902L66.0212 384.907L65.4471 385.911L64.8016 386.916L64.0838 387.92L63.4382 388.853L62.7205 389.858L62.0749 390.862L61.3571 391.867L60.6398 392.799L59.922 393.804L59.1328 394.808L58.4155 395.741L56.0475 398.755L55.2584 399.688L53.6796 401.697L52.8904 402.629L51.2403 404.567L49.5897 406.576L47.9395 408.513L46.2175 410.45L42.9167 414.325L41.1948 416.262L39.5446 418.2L37.8944 420.065L36.3157 422.003L35.4547 423.007L33.8759 424.873L33.0867 425.877L32.2975 426.81L31.5802 427.743L30.7906 428.676L30.0014 429.68L28.5663 431.546L27.8489 432.55L25.6965 435.349L25.0505 436.281L24.405 437.286L22.4675 440.084L20.7455 442.882L20.1714 443.887L19.5972 444.82L17.5884 448.551L15.8664 452.282L14.79 455.08L14.5031 456.013L14.144 456.946L14.0008 457.377L13.929 457.879L13.7853 458.309L13.6421 458.811L13.4985 459.242L13.3548 459.744L13.283 460.175L13.1398 460.677L13.068 461.108L12.9962 461.61L12.8525 462.04L12.7811 462.471L12.7093 462.973L12.6375 463.404L12.5657 463.906L12.4938 464.336L12.422 464.839L12.3502 465.269V465.771L12.2788 466.202V466.632L12.207 467.135V467.565L12.1352 468.068V471.225L12.207 471.727V472.66M76.8559 354.771V354.268L76.9273 353.766V349.676L76.8559 349.174V348.672L75.1335 321.836M92.1392 590.477L92.2824 591.123L92.426 591.697L92.4978 592.271L92.6411 592.917L92.7129 593.491L92.7847 594.136L92.8565 594.71V595.356L92.9283 595.93V599.518L92.8565 600.164L92.7129 601.312L92.6411 601.957L92.4978 603.105L92.3542 603.751L92.0673 604.899L91.9237 605.545L91.6369 606.693L91.4214 607.339L91.2777 607.913L91.0627 608.487L90.8472 609.133L90.6322 609.707L90.3454 610.281L90.1299 610.855L89.843 611.5L89.5558 612.074L89.3407 612.648L88.9821 613.294L88.4079 614.442L88.0492 615.016L87.7619 615.662L86.6859 617.384L86.3273 618.03L85.8963 618.604L85.5376 619.178L85.1071 619.752L84.7485 620.398L83.457 622.12L82.9547 622.694L82.5242 623.34L82.0219 623.914L81.5914 624.488L80.5867 625.636L80.0844 626.281L79.0802 627.429L78.5061 628.004L78.0037 628.577L77.7169 628.865L77.5014 629.152L77.2146 629.367L76.9273 629.654L76.7122 629.941L76.4254 630.156L76.1381 630.443L75.5644 630.874L75.2771 631.161L74.9184 631.376L74.6316 631.663L74.3443 631.878L73.9856 632.093L73.6988 632.309L73.3397 632.524L73.2683 632.596L73.1246 632.667L72.9092 632.811L72.6941 632.883L72.4787 633.026H72.1918L72.0482 633.098H71.6895L71.6177 633.17H71.4745L71.259 633.098H70.9003L70.7567 633.026H70.6135L70.5417 632.954H70.398L70.3262 632.883L70.183 632.811H70.1112L69.8957 632.667L69.8239 632.596L69.6807 632.524L69.6088 632.452L69.4652 632.38L69.3934 632.237L69.3215 632.165L69.2502 632.093L69.1783 631.95L69.1065 631.878L69.0347 631.735L68.9629 631.663L68.8911 631.519L68.8197 631.447L68.676 631.161V631.089L68.5324 630.802V630.658L68.4606 630.515V630.3L68.3892 630.156V629.008L68.4606 628.865L68.6042 628.291L68.676 628.075L68.8197 627.788V627.645L68.8911 627.573L69.0347 627.286L69.2502 627.071L69.3215 626.999L69.3934 626.855L69.4652 626.784L69.6088 626.712L70.9003 625.42L71.6177 624.775L72.2636 624.129L72.9092 623.555L73.5551 622.909L74.1293 622.263L75.4208 620.972L76.5686 619.68L77.7887 618.46L78.3624 617.815L78.8647 617.169L80.013 615.877L83.5288 611.357L84.3898 610.065L84.8203 609.491L85.6813 608.2L86.04 607.554L86.4705 606.908L88.2643 603.679L89.4125 601.096L89.6994 600.379L89.9863 599.733L91.0627 596.504L91.9237 592.63L92.1392 590.692L92.2106 589.975L92.2824 589.329V586.1L92.2106 585.454L90.3454 556.323M74.2725 315.522L74.4879 316.527L74.9184 319.54L74.9903 320.617L75.0621 321.621L75.1335 322.123V323.128L75.2053 323.63V326.644L74.9184 330.662L74.3443 334.68L73.9138 336.689L73.627 337.694L73.4115 338.626L72.5505 341.64L72.1918 342.644L71.8331 343.577L71.1154 345.586L70.6849 346.591L70.2544 347.524L69.3934 349.533L68.8911 350.466L67.3845 353.479L66.8822 354.412L65.7339 356.421L65.1602 357.354L64.5861 358.358L63.9401 359.363L63.2946 360.296L62.7205 361.3L62.0749 362.305L61.3571 363.238L60.0657 365.247L59.3483 366.179L58.6305 367.184L57.9132 368.117L56.478 370.126L55.7607 371.058L54.9711 372.063L54.2537 372.996L53.4646 374L52.7468 374.933L51.9576 375.938L51.1684 376.87L44.8542 384.62L43.2759 386.485L38.54 392.297L36.9616 394.163L36.2438 395.096L35.4547 396.1L34.6655 397.033L33.2304 398.898L32.4412 399.903L30.2883 402.701L29.6427 403.634L28.9254 404.639L28.2076 405.571L25.6246 409.302L25.0505 410.307L24.405 411.24L22.1088 414.971L20.0996 418.702L19.6691 419.635L19.1667 420.568L18.3058 422.433L17.9471 423.366L17.5166 424.227L17.1579 425.16L16.8706 426.092L16.5119 427.025L15.9378 428.891L15.651 429.752L15.3641 430.685L14.9336 432.55L14.79 433.483L14.5749 434.344L14.5031 434.846L14.3595 435.707L14.2876 436.209V436.64L14.2158 437.142L14.144 437.573V438.003L14.0726 438.506V438.936L12.207 467.207M89.6276 551.228L89.7712 551.803L89.843 552.448L89.9863 553.094L90.0581 553.74L90.1299 554.314L90.2735 555.605L90.3454 556.179V556.825L90.4167 557.471V559.91L90.3454 560.556V561.202L90.2735 561.776L90.2017 562.422L90.1299 562.996L89.9863 563.642L89.9149 564.287L89.7712 564.861L89.6994 565.507L89.5558 566.081L89.4125 566.727L89.1971 567.373L89.0534 567.947L88.9102 568.593L88.6948 569.167L88.2643 570.458L88.0492 571.032L87.7619 571.678L87.5469 572.252L87.2596 572.898L87.0446 573.472L86.7577 574.117L86.4705 574.692L86.1118 575.337L85.8249 575.911L85.4658 576.557L85.179 577.131L84.4616 578.423L84.1025 578.997L83.7438 579.642L83.3133 580.216L82.9547 580.79L82.5242 581.436L82.0937 582.01L81.735 582.656L81.3045 583.23L80.8022 583.876L80.3717 584.45L79.9412 585.096L79.4389 585.67L78.9366 586.315L78.5061 586.889L78.0037 587.535L77.5014 588.109L76.9273 588.683L76.4254 589.329L75.9231 589.903L75.3489 590.549L74.8466 591.123L74.2725 591.768L73.1246 592.917L72.5505 593.562L71.9768 594.136L71.4026 594.782L70.8285 595.356L70.183 595.93L69.6088 596.576L68.9629 597.15L68.3892 597.796L67.0972 598.944L66.4517 599.59L65.1602 600.738L64.5143 601.383L63.2228 602.531L60.4962 604.971L59.1328 606.119L57.7695 607.339L56.3344 608.559L54.8997 609.707L53.5364 610.926L52.1013 612.074L50.6661 613.294L49.1592 614.442L46.2893 616.81L43.3472 619.178L40.4774 621.546L39.0423 622.766L36.172 625.062L34.7373 626.281L33.374 627.429L31.9389 628.577L31.2929 629.152L30.7192 629.654L29.4273 630.658L28.8536 631.161L28.2076 631.663L27.6335 632.093L26.9879 632.524L26.9161 632.596L26.8443 632.667L26.7007 632.739L26.6293 632.811L26.4856 632.883H26.4138L26.2702 632.954L26.1988 633.026H25.9115L25.8397 633.098H25.481L25.1941 633.17H25.1223L24.9787 633.098H24.62L24.4764 633.026H24.405L24.2613 632.954L23.9745 632.883L23.759 632.811L23.544 632.667L23.4722 632.596L23.3285 632.524L23.2567 632.452L23.113 632.38L23.0417 632.237L22.898 632.165L22.8262 632.093L22.7544 631.95L22.6825 631.878L22.5393 631.735L22.4675 631.663L22.3957 631.519L22.3239 631.447L22.252 631.304L22.1807 631.161V631.089L21.9652 630.658V630.515L21.8934 630.371V630.156L21.8215 630.013V629.295L21.8934 629.152V628.865L21.9652 628.721V628.577L22.037 628.291L22.1807 628.075L22.252 627.788L22.3957 627.573L22.5393 627.286L22.8262 626.999L22.898 626.855L23.0417 626.784L23.113 626.712L23.759 626.066L24.405 625.492L25.1223 624.846L25.7683 624.272L26.4138 623.627L27.1316 623.053L28.4945 621.833L29.9296 620.613L31.2929 619.393L34.1632 616.954L35.6697 615.662L37.1048 614.442L38.6118 613.223L40.0469 612.003L43.0604 609.563L46.002 607.052L49.016 604.612L50.5225 603.321L51.9576 602.101L53.4646 600.881L54.8997 599.59L57.7695 597.15L59.2047 595.858L60.6398 594.639L62.0031 593.347L63.3664 592.127L64.0119 591.482L64.7297 590.907L66.6667 588.97L67.3845 588.396L67.9582 587.75L69.2502 586.459L69.8957 585.885L70.4698 585.239L71.1154 584.593L71.6895 583.947L72.9092 582.728L75.2053 580.145L75.7076 579.499L76.2818 578.925L77.2864 577.633L77.8601 576.988L78.3624 576.342L78.7929 575.696L79.2952 575.122L79.7975 574.476L80.228 573.83L80.7304 573.185L82.4523 570.602L82.811 569.956L83.2415 569.31L83.6006 568.664L83.9593 568.09L84.3898 567.445L84.6767 566.799L85.3944 565.507L85.9681 564.216L86.3273 563.57L86.5423 562.924L87.1164 561.633L87.3315 560.987L87.6187 560.341L88.2643 558.404L88.4079 557.758L88.6229 557.112L89.1971 554.529L89.2689 553.883L89.4125 553.166L89.6276 551.228ZM89.6276 551.228L89.6994 550.583V549.291L89.7712 548.645V547.354L89.6994 546.708V546.062L87.8338 517.218M14.79 433.339V432.909L14.7181 432.407V428.747L14.79 427.886L15.0054 425.088L15.2923 423.222L15.4359 422.361L16.2969 418.63L17.4448 414.899L18.5212 412.101L18.9517 411.168L19.3104 410.235L20.6019 407.437L23.113 402.773L24.2613 400.907L24.8355 399.903L25.9833 398.037L26.6293 397.105L27.203 396.172L27.8489 395.239L28.4945 394.234L29.1404 393.302L29.8578 392.369L30.5037 391.436L31.2211 390.431L31.867 389.499L32.5844 388.566L33.3022 387.561L34.7373 385.696L35.5265 384.763L36.2438 383.759L36.9616 382.826L39.9751 378.951L41.5534 377.014L43.0604 375.148L44.6387 373.211L46.1457 371.274L47.7245 369.336L49.231 367.327L52.2449 363.453L52.9622 362.448L53.7514 361.515L54.4692 360.511L55.1866 359.578L57.339 356.564L57.985 355.632L58.7023 354.627L59.3483 353.623L60.0657 352.618L60.7116 351.613L61.3571 350.681L62.0031 349.676L62.5768 348.672L63.2228 347.667L66.093 342.644L66.5954 341.64L67.0972 340.707L68.1019 338.698L68.5324 337.694L69.0347 336.689L69.4652 335.684L69.8239 334.68L70.2544 333.675L70.6135 332.599L71.6895 329.586L72.5505 326.572L72.8378 325.496L73.4833 322.482L73.627 321.406L73.842 320.401L73.9856 319.325L74.0574 318.32L74.2011 317.316L74.2725 316.24L74.3443 315.235V314.231L74.4161 313.154V312.15L74.3443 311.073V310.069L74.2725 309.064L72.5505 282.947M71.905 276.345V276.848L71.9768 277.35V277.637L72.0482 277.852V278.067L72.12 278.283L72.1918 279.287L72.4787 281.296L72.6223 283.305V284.31L72.6941 285.314V288.328L72.4787 291.342L72.4073 292.274L71.6895 297.297L71.4745 298.23L71.259 299.234L70.9722 300.239L70.7567 301.243L70.4698 302.176L69.8957 304.185L69.537 305.19L69.2502 306.123L68.5324 308.132L68.1019 309.064L67.7432 310.069L67.3127 311.002L66.4517 313.011L65.9494 313.943L65.5189 314.948L65.0166 315.881L64.5143 316.885L64.0119 317.818L63.5096 318.823L62.9359 319.756L62.3618 320.76L61.8595 321.693L61.2853 322.626L60.7116 323.63L60.0657 324.563L59.4915 325.568L58.846 326.5L58.2719 327.433L57.6263 328.438L56.3344 330.303L55.6889 331.308L54.9711 332.24L54.3256 333.173L53.6796 334.178L52.9622 335.111L52.3163 336.043L51.5989 336.976L50.1638 338.913L48.8005 340.779L47.3654 342.716L45.9307 344.582L43.0604 348.385L38.7554 353.981L37.3921 355.847L35.957 357.712L35.311 358.645L34.5937 359.578L30.0732 366.108L29.4991 367.04L28.8536 367.973L26.5574 371.704L26.0551 372.637L25.481 373.498L23.4722 377.229L23.0417 378.09L22.5393 379.023L21.6783 380.889L21.3192 381.75L20.8887 382.682L20.5301 383.615L20.1714 384.476L19.454 386.342L19.1667 387.203L18.593 389.068L18.3058 389.929L18.0907 390.862L17.8753 391.723L17.4448 393.589L17.2297 394.45L17.0861 395.382L16.9424 396.243L16.8706 397.176L16.7274 398.037L16.6556 398.97L16.5838 399.831L14.79 427.743M87.0446 511.908L87.1882 512.41L87.2596 512.913L87.3315 513.343L87.4751 514.348L87.5469 514.778L87.6901 515.783L87.7619 516.213V516.716L87.8338 517.218M87.8338 517.218V518.653L87.9056 519.155V520.088L87.8338 520.518V521.523L87.7619 521.954V522.456L87.6901 522.958V523.389L87.5469 524.393L87.4751 524.824L87.4033 525.326L87.3315 525.756L87.1882 526.259L87.1164 526.761L87.0446 527.191L86.901 527.694L86.8291 528.124L86.5423 529.129L86.3986 529.559L86.2554 530.062L86.1118 530.492L85.8249 531.497L85.6813 531.927L85.4658 532.429L85.3226 532.86L85.1071 533.362L84.9639 533.865L84.7485 534.295L84.5334 534.797L84.318 535.228L84.1025 535.73L83.8875 536.16L83.672 536.663L83.457 537.093L83.2415 537.596L82.9547 538.098L82.7396 538.528L82.4523 539.031L82.2373 539.461L81.95 539.963L81.6632 540.394L81.3763 540.896L81.089 541.327L80.8022 541.829L80.5149 542.259L80.228 542.762L79.9412 543.192L79.5825 543.695L79.2952 544.125L79.0084 544.627L78.6497 545.058L78.3624 545.56L78.0037 546.062L77.2864 546.995L76.5686 547.856L75.1335 549.722L74.3443 550.655L73.627 551.587L72.8378 552.52L71.9768 553.453L71.1872 554.386L68.6042 557.184L64.0119 561.776L63.0791 562.637L62.1463 563.57L61.1421 564.503L60.2093 565.435L59.2047 566.368L58.2 567.229L56.1912 569.095L55.1866 569.956L54.1101 570.889L53.1059 571.821L48.9441 575.409L46.8635 577.275L44.7824 579.068L42.6299 580.862L36.3875 586.244L35.3828 587.176L34.3782 588.037L33.374 588.97L32.3694 589.831L31.3647 590.764L30.3601 591.625L29.3559 592.558L28.3513 593.419L27.4184 594.352L26.4856 595.213L25.481 596.074L22.7544 598.8L21.8215 599.661L20.9606 600.522L20.0996 601.455L18.3776 603.177L17.5884 604.11L16.0096 605.832L15.2205 606.765L14.4313 607.626L13.7135 608.487L12.9962 609.42L11.561 611.142L10.9155 612.003L10.2695 612.935L9.98268 613.366L9.62401 613.796L7.90158 616.38L7.61473 616.882L7.32788 617.312L7.11241 617.743L6.53827 618.604L6.10777 619.465L5.82092 619.895L4.95993 621.617L4.74446 622.12L4.52943 622.55L4.38579 622.981L3.95529 623.842L3.81209 624.272L3.59662 624.703L2.30513 628.577L2.23331 628.865V629.152L2.16148 629.367L2.08966 629.654V629.941L2.01828 630.156V630.443L1.94646 630.658V631.878L2.01828 632.093V632.524M2.01828 632.524V632.237L1.94646 632.093V631.806L1.87463 631.376V630.3L1.80281 629.726V629.152L1.87463 628.865V626.281L1.94646 625.779V624.918L2.01828 624.488V624.057L2.08966 623.555V623.124L2.30513 621.833L2.37695 621.331L2.52016 620.469L2.6638 620.039L2.73563 619.537L2.87927 619.106L2.95065 618.676L3.0943 618.245L3.23794 617.743L3.38115 617.312L3.45297 616.882L3.66844 616.451L3.81209 615.949L3.95529 615.518L4.09894 615.088L4.31397 614.657L4.45761 614.155L4.67308 613.725L4.81629 613.294L5.03175 612.864L5.24678 612.362L5.89275 611.07L6.10777 610.568L6.53827 609.707L6.82556 609.204L7.04059 608.774L7.32788 608.343L7.54291 607.913L7.8302 607.411L8.4039 606.549L8.69119 606.047L9.26489 605.186L9.55218 604.684L9.83903 604.254L10.1977 603.823L10.485 603.321L10.7719 602.89L11.1305 602.46L11.7765 601.527L12.4938 600.666L14.6463 597.867L15.4359 597.006L17.0143 595.141L17.8034 594.28L20.3869 591.482L21.2478 590.621L22.1088 589.688L23.9745 587.822L24.9068 586.961L26.7725 585.096L27.7771 584.163L28.7099 583.23L30.7192 581.365L31.7234 580.504L32.728 579.571L33.8045 578.638L34.8087 577.705L35.8852 576.772L36.8898 575.839L38.9705 573.974L43.2759 570.243L45.3565 568.377L49.6615 564.646L51.7426 562.709L53.8232 560.843L54.8997 559.91L55.9039 558.978L56.9804 557.973L60.9985 554.242L61.9313 553.238L62.9359 552.305L63.8687 551.372L64.8729 550.439L65.8058 549.435L66.6667 548.502L67.5996 547.569L68.5324 546.565L70.2544 544.699L71.1154 543.695L71.905 542.762L72.766 541.829L73.5551 540.824L74.3443 539.892L75.0621 538.887L75.8513 537.954L76.5686 537.022L76.8559 536.519L77.5732 535.515L77.9319 535.084L78.2192 534.582L78.5779 534.08L78.8647 533.577L79.2234 533.147L79.7975 532.142L80.1562 531.64L80.4435 531.209L81.0172 530.205L81.2327 529.703L81.5195 529.272L82.0937 528.268L82.3087 527.766L82.5242 527.335L82.811 526.833L83.457 525.326L83.672 524.895L84.5334 522.886L84.6767 522.456L84.8921 521.954L85.179 520.949L85.3944 520.447L85.5376 519.945L85.6813 519.514L85.9681 518.509L86.04 518.007L86.3273 517.003L86.3986 516.5L86.4705 516.07L86.6141 515.568L87.0446 512.554V512.052L87.1164 511.621V511.119L87.1882 510.617V507.603L87.1164 507.101V506.599L85.2508 478.041M84.5334 472.66L84.6048 473.162L84.7485 473.664L85.1071 476.176V476.678L85.2508 477.682V478.185L85.3226 478.687V482.203L85.2508 482.705V483.207L85.179 483.709V484.212L84.7485 487.226L84.6048 487.728L84.4616 488.732L84.0311 490.239L83.9593 490.741L83.672 491.746L83.457 492.248L83.3133 492.75L83.1701 493.181L83.0265 493.683L82.596 494.688L82.4523 495.19L80.9458 498.706L80.6585 499.136L80.4435 499.639L80.1562 500.141L79.9412 500.643L79.0802 502.15L78.8647 502.652L78.5061 503.155L78.2192 503.585L77.3582 505.092L76.9991 505.594L76.7122 506.096L76.3536 506.599L76.0663 507.029L74.2725 509.54L73.5551 510.473L72.8378 511.478L72.0482 512.482L71.259 513.415L70.4698 514.419L69.6088 515.352L68.8197 516.357L67.9582 517.361L67.0972 518.294L66.2363 519.299L65.3034 520.231L64.3706 521.236L63.5096 522.169L61.5726 524.106L60.6398 525.111L59.6352 526.044L58.7023 527.048L57.6977 527.981L56.6935 528.985L54.6842 530.851L53.6796 531.855L51.5989 533.793L49.5897 535.658L47.509 537.596L45.3565 539.533L41.1948 543.336L39.1141 545.201L37.033 547.139L35.0242 549.004L34.0195 550.009L30.0014 553.74L25.266 558.476L24.405 559.408L23.4722 560.341L22.6112 561.274L21.6783 562.207L20.8887 563.211L19.1667 565.077L16.7992 567.875L13.929 571.606L13.5703 572.037L13.2116 572.539L12.9243 572.969L12.5657 573.472L12.2788 573.902L11.9197 574.405L11.346 575.266L11.0587 575.768L10.7719 576.198L10.485 576.701L10.1977 577.131L9.91086 577.633L9.62401 578.064L9.33672 578.566L9.12169 578.997L8.8344 579.499L8.61937 579.929L8.33208 580.36L8.11705 580.862L7.90158 581.293L7.68655 581.795L7.47109 582.226L7.25606 582.728L6.82556 583.589L6.61009 584.091L6.46689 584.522L6.25142 585.024L6.10777 585.454L5.89275 585.885L5.7491 586.387L5.60589 586.818L5.46225 587.32L5.17496 588.181L5.03175 588.683L4.88811 589.114L4.81629 589.616L4.67308 590.046L4.60126 590.477M4.60126 590.477L4.45761 590.979L4.38579 591.41L4.31397 591.912L4.17076 592.773L4.09894 593.275L3.95529 594.136V594.639L3.88347 595.069V595.5L1.94646 624.775M4.60126 590.477L4.52943 590.046V589.544L4.45761 589.114V585.957L4.52943 585.454M4.52943 585.454V585.024L4.60126 584.522V584.091L4.67308 583.661L4.74446 583.158L4.81629 582.728L4.88811 582.226L5.03175 581.365L5.10357 580.862L5.24678 580.432L5.3186 579.929L5.46225 579.499L5.53407 578.997L5.82092 578.136L5.96457 577.633L6.10777 577.203L6.25142 576.701L6.39506 576.27L6.53827 575.768L6.75374 575.337L6.89738 574.835L7.04059 574.405L7.25606 573.974L7.47109 573.472L7.61473 573.041L7.8302 572.539L8.04523 572.108L8.26069 571.606L8.47572 571.176L8.69119 570.673L8.97804 570.243L9.19351 569.741L9.40854 569.31L9.69539 568.808L9.98268 568.377L10.1977 567.875L10.485 567.445L10.7719 566.942L11.0587 566.512L11.346 566.009L11.6328 565.579L11.9197 565.077L12.207 564.646L12.4938 564.144L12.8525 563.714L13.1398 563.211L13.4985 562.781L13.7853 562.278L14.144 561.848L14.79 560.843L16.9424 558.045L19.3104 555.247L20.0996 554.242L20.8887 553.309L24.3331 549.578L25.266 548.574L26.127 547.641L27.9926 545.775L28.9254 544.771L29.9296 543.838L30.8624 542.905L31.867 541.972L32.7999 540.968L34.8087 539.102L35.8133 538.098L37.8226 536.232L39.9033 534.295L41.9125 532.358L46.0739 528.483L48.0831 526.617L50.1638 524.68L52.1731 522.743L53.1773 521.738L54.1819 520.806L55.1866 519.801L56.1912 518.868L57.1954 517.864L58.1282 516.859L59.1328 515.926L60.0657 514.922L60.9985 513.989L61.9313 512.985L62.8641 512.052L63.7969 511.047L64.6579 510.043L65.5907 509.11L67.3127 507.101L68.1737 506.168L68.9629 505.164L69.8239 504.159L70.6135 503.155L71.4026 502.222L72.8378 500.213L73.627 499.208L74.2725 498.275L75.3489 496.768L75.6358 496.266L75.9949 495.764L76.5686 494.759L76.9273 494.257L77.2146 493.755L77.5014 493.324L78.9366 490.813L79.152 490.311L79.4389 489.808L79.6539 489.306L79.9412 488.804L80.3717 487.799L80.6585 487.297L81.3045 485.79L81.4477 485.288L81.8782 484.284L82.0219 483.853L82.2373 483.351L82.3805 482.849L82.596 482.346L83.457 479.333L83.5288 478.83L83.8157 477.826L83.9593 476.821L84.1025 476.319L84.2462 475.315L84.318 474.74L84.3898 474.238V473.736L84.5334 472.731V472.229L84.6048 471.727V467.709L84.5334 467.207L82.7396 438.936M4.52943 585.454L6.39506 556.323L6.46689 555.892V555.462L6.53827 554.96L6.61009 554.529V554.099L6.68192 553.596L6.82556 552.735L6.89738 552.233L7.04059 551.803L7.11241 551.3L7.18423 550.87L7.32788 550.439L7.3997 549.937L7.54291 549.506L7.68655 549.004L7.9734 548.143L8.11705 547.641L8.4039 546.78L8.54755 546.278L8.69119 545.847L8.90622 545.345L9.04986 544.914L9.26489 544.484L9.40854 543.982L9.62401 543.551L9.83903 543.049L10.2695 542.188L10.485 541.685L10.7 541.255L10.9155 540.753L11.1305 540.322L11.4178 539.82L11.6328 539.389L11.9197 538.959L12.1352 538.457L12.422 538.026L12.7093 537.524L12.9243 537.093L13.2116 536.591L13.4985 536.16L14.0726 535.228L14.7181 534.295L15.2923 533.362L16.5838 531.497L17.3011 530.564L17.9471 529.631L19.3822 527.766L20.1714 526.833L20.8887 525.9L23.2567 523.102L24.1177 522.169L24.9068 521.236L27.4903 518.438L28.4231 517.505L29.2841 516.5L30.2169 515.568L31.0779 514.635L33.8759 511.837L34.8087 510.832L35.8133 509.899L36.7462 508.966L37.7508 508.034L39.6882 506.096L41.6253 504.231L45.5715 500.356L47.509 498.49L51.3835 494.616L52.3881 493.683L53.3209 492.679L54.3256 491.746L55.2584 490.741L56.1912 489.808L57.124 488.804L58.9892 486.938L59.8506 485.934L60.783 485.001L62.5054 482.992L63.3664 482.059L64.2274 481.055L65.0884 480.122L65.9494 479.117L66.7386 478.113L67.5277 477.18L69.1065 475.171L69.8239 474.238L71.259 472.229L71.9768 471.296L72.6941 470.292L73.3397 469.287L73.9856 468.355L74.5598 467.35L74.9184 466.848L76.0663 464.839L76.3536 464.408L76.6404 463.906L76.8559 463.404L77.1427 462.901L77.3582 462.399L77.6451 461.897L77.8601 461.395L78.1474 460.892L78.3624 460.39L78.5779 459.959L79.6539 457.448L79.7975 456.946L80.228 455.941L80.5149 454.937L80.7304 454.435L80.874 453.932L81.0172 453.502L81.5914 451.493L81.6632 450.99L81.8068 450.488L81.8782 449.986L82.0219 449.484L82.1655 448.479L82.3087 447.977L82.5242 446.47V445.968L82.6678 444.963V444.461L82.7396 443.959V442.954L82.811 442.452V440.443L82.7396 439.941V438.936M19.8845 354.771V354.197L19.8127 353.623V350.035L19.8845 349.461V348.887L19.9564 348.241V347.667L20.0277 347.093L20.0996 346.447L20.2432 345.299L20.315 344.653L20.3869 344.08L20.5301 343.506L20.6019 342.931L20.7455 342.286L20.8173 341.712L20.9606 341.138L21.1042 340.492L21.3911 339.344L21.5347 338.698L21.8215 337.55L21.9652 336.904L22.1807 336.33L22.3239 335.756L22.5393 335.111L22.7544 334.537L22.898 333.962L23.113 333.317L23.3285 332.743L23.544 332.097L23.759 331.523L24.0459 330.949L24.2613 330.303L24.4764 329.729L24.7636 329.083L24.9787 328.509L25.266 327.863L25.481 327.29L25.7683 326.715L26.0551 326.07L26.342 325.496L26.6293 324.85L26.9161 324.276L27.203 323.63L27.4903 323.056L27.7771 322.41L30.3601 317.531L32.513 313.872L33.2304 312.58L34.0195 311.361L34.7373 310.141L36.3157 307.701L37.1048 306.41L39.4728 302.75L40.2619 301.459L41.1229 300.239L41.9125 299.019L48.5136 288.974L49.3028 287.682L50.1638 286.462L50.953 285.171L51.7426 283.951L53.3209 281.368L54.0387 280.148L54.8279 278.857L55.5452 277.565L56.263 276.345L57.4827 274.049L57.6263 273.762L57.7695 273.691L57.9132 273.403L57.985 273.332L58.1282 273.188L58.2 273.117L58.4155 272.901L58.5587 272.83L58.6305 272.758L58.7742 272.686L58.9178 272.614L58.9892 272.542L59.1328 272.471L59.2765 272.399L59.4201 272.327H59.5633L59.707 272.255H60.0657L60.2093 272.184H60.3525L60.4962 272.255H60.783L60.8548 272.327H60.9985L61.1421 272.399H61.2853L61.429 272.471L61.5008 272.542L61.6444 272.614L61.7158 272.686L61.8595 272.758L62.0749 272.973L62.1463 273.045L62.4336 273.332L62.5054 273.475L62.5768 273.619L62.6486 273.691L62.8641 274.121V274.264L63.0077 274.552L63.0791 274.839L63.2228 275.413V276.848L63.151 277.063V277.35L63.0791 277.637L63.0077 277.852L62.9359 278.067L62.7923 278.283L62.5054 279L62.1463 279.646L61.8595 280.292L61.5008 281.009L60.4243 282.947L60.1375 283.664L59.3483 284.956L58.6305 286.319L57.8414 287.611L57.0522 288.974L55.4734 291.557L54.6124 292.92L53.8232 294.212L52.9622 295.575L51.2403 298.158L50.3793 299.521L49.4465 300.813L48.5855 302.104L46.7917 304.759L44.926 307.342L43.1322 309.925L42.2712 311.217L41.3384 312.509L40.4774 313.8L39.5446 315.092L33.5172 324.132L32.728 325.424L31.9389 326.644L31.1497 327.935L30.4319 329.227L29.6427 330.518L28.2076 333.101L27.8489 333.675L27.4903 334.321L27.203 334.967L26.8443 335.613L26.5574 336.259L26.1988 336.904L25.9115 337.55L25.5528 338.196L25.266 338.77L23.8308 341.999L23.6154 342.573L23.3285 343.219L23.113 343.864L22.8262 344.51L22.6112 345.156L22.3957 345.73L21.7502 347.667L21.5347 348.241L21.3192 348.887L21.176 349.533L20.9606 350.179L20.8173 350.824L20.6737 351.398L20.4582 352.044L20.1714 353.336L20.0277 353.91L19.9564 354.555L19.8127 355.201L19.7409 355.847L19.5972 356.421L19.3822 358.358L19.3104 358.932L19.1667 360.224L19.0949 360.798L17.3729 388.207M81.95 433.339L82.0937 433.842L82.3087 435.349L82.3805 435.922L82.6678 437.931V438.434L82.7396 438.936M81.95 433.339V433.842L81.8068 434.846V435.349L81.735 435.922L81.5195 437.429L81.3763 437.931L81.2327 438.936L81.089 439.438L81.0172 439.941L80.1562 442.954L80.013 443.528L79.8694 444.03L79.6539 444.533L79.367 445.537L78.9366 446.542L78.7929 447.044L77.7169 449.556L77.4296 450.058L76.9991 451.062L76.7122 451.565L76.4968 452.067L75.9231 453.071L75.7076 453.574L74.2725 456.085L73.627 457.089L73.0528 458.094L72.4073 459.027L71.7613 460.031L68.8911 464.049L68.1737 464.982L65.8058 467.996L65.0166 468.929L64.2274 469.933L62.5054 471.942L61.6444 472.875L59.922 474.884L58.9892 475.817L58.1282 476.821L57.1954 477.754L56.263 478.759L55.4016 479.763L54.4692 480.696L53.5364 481.7L52.5318 482.633L51.5989 483.638L49.7333 485.575L43.9214 491.387L41.9839 493.253L40.0469 495.19L38.1813 497.127L37.2485 498.06L36.2438 498.993L35.311 499.997L34.3782 500.93L33.5172 501.863L32.5844 502.867L31.6516 503.8L30.7906 504.733L29.8578 505.666L28.9968 506.67L25.5528 510.401L24.7636 511.334L23.9745 512.339L23.113 513.271L22.3957 514.204L20.8173 516.07L18.6644 518.868L18.0189 519.873L17.3011 520.806L16.0096 522.671L14.8618 524.537L14.2876 525.398L14.0008 525.9L13.7135 526.33L13.4267 526.833L13.1398 527.263L12.9243 527.766L12.6375 528.196L12.422 528.698L12.1352 529.129L11.9197 529.631L11.7047 530.062L11.4892 530.564L11.2023 530.994L10.9873 531.497L10.7719 531.927L10.6282 532.358L10.4132 532.86L10.1977 533.29L9.98268 533.793L9.83903 534.223L9.62401 534.726L9.48036 535.156L9.26489 535.658L8.97804 536.519L8.8344 537.022L8.69119 537.452L8.54755 537.954L8.4039 538.385L8.26069 538.815L8.18887 539.318L8.04523 539.748L7.9734 540.25L7.8302 540.681L7.75838 541.183L7.61473 541.614L7.54291 542.044L7.47109 542.546L7.3997 542.977L7.32788 543.479L7.25606 543.91V544.34L7.18423 544.843L7.11241 545.273V545.704L7.04059 546.206V550.296L7.11241 550.726V551.228M81.95 433.339L82.0219 432.837V431.833L82.0937 431.33V429.752L82.0219 429.25V428.245L81.95 427.743L80.1562 399.831M22.4675 315.522L22.3957 314.876V310.643L22.4675 310.069V308.849L22.5393 308.275L22.6112 307.629L22.6825 307.055V306.41L22.7544 305.836L22.898 305.262L22.9698 304.616L23.0417 304.042L23.113 303.396L23.2567 302.822L23.3285 302.176L23.4722 301.602L23.6154 300.956L23.6872 300.382L23.8308 299.737L23.9745 299.163L24.1177 298.517L24.2613 297.943L24.4764 297.297L24.62 296.723L24.7636 296.077L24.9787 295.503L25.1223 294.858L25.3378 294.283L25.481 293.638L25.6965 292.992L25.9115 292.418L26.127 291.772L26.342 291.198L26.5574 290.552L26.7725 289.978L26.9879 289.332L27.2748 288.687L29.2841 283.808L29.8578 282.516L30.4319 281.296L31.0779 280.076L31.6516 278.785L32.9435 276.345L33.9477 274.049L34.0914 273.762L34.1632 273.691L34.3068 273.403L34.3782 273.332L34.45 273.188L34.5937 273.117L34.6655 272.973L34.7373 272.901L34.8805 272.83L34.9523 272.758L35.096 272.686L35.1678 272.614L35.311 272.542L35.3828 272.471L35.5265 272.399L35.6697 272.327H35.8133L35.957 272.255H36.3157L36.4593 272.184H36.6025L36.7462 272.255H37.033L37.1048 272.327H37.2485L37.3921 272.399H37.5353L37.679 272.471L37.8226 272.542L37.9658 272.614L38.0376 272.686L38.1813 272.758L38.4681 273.045L38.6118 273.117L38.6836 273.26L38.8986 273.475L38.9705 273.619L39.0423 273.691L39.1859 273.978L39.2573 274.121L39.5446 274.695V274.839L39.6164 274.982V275.126L39.6882 275.269V275.556L39.7596 275.7V276.345L39.6882 276.561V276.848L39.6164 277.063L39.4728 277.637L39.3291 277.852L39.2573 278.067L39.1141 278.283L38.2531 279.718L37.3921 281.081L36.6025 282.444L35.7415 283.879L32.5844 289.332L31.867 290.696L31.1497 292.131L30.4319 293.494L30.0732 294.14L29.7146 294.858L29.3559 295.503L29.0686 296.221L28.7099 296.867L28.4231 297.584L28.064 298.23L27.7771 298.947L27.4903 299.593L27.203 300.311L26.9161 300.956L26.6293 301.674L26.342 302.32L26.0551 303.037L25.8397 303.683L25.5528 304.401L25.3378 305.046L25.0505 305.764L24.62 307.055L24.405 307.773L24.1895 308.419L23.9745 309.136L23.8308 309.782L23.6154 310.428L23.4003 311.145L23.113 312.437L22.9698 313.154L22.7544 313.8L22.6825 314.446L22.5393 315.163L22.252 316.455L22.1807 317.172L22.037 317.818L21.9652 318.536L21.8215 319.827L21.7502 320.545L21.6783 321.191V321.836L19.8845 348.672M79.4389 394.091L79.6539 395.598L79.7975 396.1L79.9412 397.105V397.607L80.1562 399.114V400.19L80.228 400.692V402.199L80.2999 402.701L80.228 403.203V404.71L80.1562 405.212V405.715L80.0844 406.217V406.719L79.8694 408.226V408.728L79.7975 409.231L79.6539 409.733L79.4389 411.24L79.2952 411.742L79.2234 412.244L78.9366 413.249L78.8647 413.751L78.1474 416.262L77.9319 416.765L77.6451 417.769L77.4296 418.271L77.2864 418.702L76.8559 419.707L76.7122 420.209L75.6358 422.72L75.3489 423.222L74.9184 424.227L74.6316 424.729L73.9138 426.164L72.766 428.173L72.1918 429.106L71.044 431.115L70.398 432.12L69.752 433.052L69.1065 434.057L68.3892 435.061L67.6714 435.994L67.0259 436.999L66.3081 438.003L65.5189 438.936L64.8016 439.941L64.0119 440.873L63.2228 441.878L62.4336 442.811L60.8548 444.82L59.9938 445.753L59.1328 446.757L58.3437 447.69L57.4827 448.694L56.6217 449.627L55.7607 450.632L54.8279 451.565L53.9669 452.569L53.1059 453.502L51.2403 455.439L49.4465 457.377L45.787 461.179L42.1276 465.054L40.2619 466.919L38.4681 468.857L37.5353 469.79L36.6743 470.722L35.7415 471.655L34.8805 472.66L30.5756 477.324L29.7146 478.328L28.9254 479.261L28.064 480.194L24.9068 483.925L24.1895 484.858L23.4003 485.79L21.2478 488.589L20.6019 489.521L19.8845 490.454L18.593 492.32L18.0189 493.253L17.3729 494.185L16.2251 496.051L15.7228 496.984L15.1486 497.917L14.144 499.782L13.7135 500.715L13.4985 501.145L13.283 501.576L13.068 502.078L12.8525 502.509L12.6375 503.011L12.422 503.441L12.207 503.944L12.0633 504.374L11.8483 504.805L11.7047 505.307L11.4892 505.738L11.346 506.24L11.1305 506.67L10.9873 507.101L10.8437 507.603L10.7 508.034L10.5564 508.536L10.2695 509.397L10.1977 509.899L10.0545 510.33L9.91086 510.832L9.83903 511.262L9.69539 511.693L9.62401 512.195L9.48036 513.056L9.40854 513.558L9.26489 514.419L9.19351 514.922L9.12169 515.352L9.04986 515.855V516.285L8.97804 516.716V517.218L7.11241 546.062M9.69539 511.908L9.62401 511.478V510.545L9.55218 510.115V507.818L9.62401 507.316V506.383L9.69539 505.953L9.76721 505.45V505.02L9.83903 504.589L9.91086 504.087L9.98268 503.657L10.0545 503.155L10.1259 502.724L10.1977 502.222L10.2695 501.791L10.3414 501.289L10.485 500.858L10.5564 500.428L10.7 499.926L10.7719 499.495L10.9155 498.993L11.0587 498.562L11.2023 498.06L11.346 497.629L11.4892 497.127L11.6328 496.697L11.7765 496.195L11.9197 495.764L12.0633 495.262L12.2788 494.831L12.422 494.329L12.6375 493.898L12.7811 493.396L12.9962 492.966L13.2116 492.463L13.4267 492.033L13.5703 491.53L13.7853 491.1L14.0008 490.598L14.5031 489.665L14.9336 488.732L15.9378 486.867L16.5119 485.934L17.0143 485.001L18.1625 483.136L18.8081 482.203L19.3822 481.27L20.6737 479.405L21.3192 478.4L22.037 477.467L22.6825 476.534L24.1177 474.669L24.9068 473.736L25.6246 472.731L28.7818 469L29.5709 467.996L30.3601 467.063L32.0821 465.197L32.8717 464.193L34.5937 462.327L35.4547 461.323L36.3157 460.39L37.2485 459.457L38.9705 457.52L40.7643 455.583L44.3519 451.78L51.5271 444.03L52.3881 443.026L53.3209 442.093L55.0429 440.084L55.9039 439.151L56.7649 438.147L57.5545 437.214L58.4155 436.209L59.2047 435.205L60.0657 434.272L61.6444 432.263L62.4336 431.33L63.2228 430.326L63.9401 429.321L64.7297 428.389L66.8822 425.375L67.5277 424.442L68.2455 423.438L69.537 421.429L70.1112 420.424L70.7567 419.419L71.3308 418.415L71.905 417.482L72.4787 416.478L73.4833 414.469L73.7706 413.966L73.9856 413.464L74.2725 412.962L76.2099 408.441L76.3536 407.939L76.5686 407.437L76.7122 406.935L76.9273 406.432L77.3582 404.926L77.5732 404.423L77.8601 403.419L77.9319 402.917L78.3624 401.41L78.4342 400.907L78.5779 400.405L78.7211 399.401L78.8647 398.898L79.2234 396.387L79.2952 395.813V395.311L79.367 394.808V394.306L79.4389 393.804V393.302L79.5107 392.799V389.714L79.4389 389.212V388.207L77.6451 360.798" stroke="black" stroke-width="1"/>
</svg>
