<svg width="96" height="841" viewBox="0 0 96 841" fill="none" xmlns="http://www.w3.org/2000/svg">
<path d="M76.7098 275.42H19.7098M76.7098 275.42V282.088M76.7098 275.42L79.9363 273.341L81.2269 269.756L79.9363 266.1L76.7098 264.02M19.7098 275.42V282.088M19.7098 275.42L16.4833 273.341L15.1927 269.756L16.4833 266.1L19.7098 264.02M76.7098 264.02H19.7098M76.7098 264.02V257.352M19.7098 264.02V257.352M76.7098 257.352H19.7098M76.7098 257.352L95.71 246.383V235.054M19.7098 257.352L0.710022 246.383V235.054M95.71 235.054V0.960007M95.71 235.054L95.2081 235.269L94.6344 235.485L93.6305 235.915L93.1286 236.058L91.6232 236.703L90.6911 237.062L89.6872 237.42L87.823 238.137L86.8909 238.424L86.0305 238.783L85.1702 239.069L84.2381 239.428L82.5174 240.001L81.7288 240.288L80.8685 240.575L80.0799 240.79L79.2191 241.077L78.4305 241.364L76.0644 242.009L75.3476 242.224L74.559 242.439L73.8417 242.654L73.0532 242.869L71.6191 243.3L70.1855 243.586L69.4683 243.801L68.0342 244.088L67.3892 244.232L66.6719 244.375L66.0269 244.518L65.3097 244.662L64.0191 244.949L63.3023 245.02L62.0118 245.307L60.7213 245.451L60.0758 245.594L57.4948 245.881L56.9211 245.952L54.9855 246.168H54.4118L53.1213 246.239L50.6834 246.383H45.7362L43.2987 246.239L42.0078 246.168H41.4345L40.144 246.024L39.5703 245.952L36.3438 245.594L35.6987 245.451L34.4078 245.307L33.1173 245.02L32.4005 244.949L31.11 244.662L30.3927 244.518L29.7477 244.375L29.0304 244.232L28.3854 244.088L26.9513 243.801L26.2345 243.586L24.8005 243.3L23.3664 242.869L22.5779 242.654L21.8606 242.439L21.072 242.224L20.3552 242.009L17.9891 241.364L17.2005 241.077L16.3402 240.79L15.5516 240.575L14.6908 240.288L13.9022 240.001L12.1815 239.428L11.3212 239.069L10.3891 238.783L9.52875 238.424L8.59664 238.137L6.73242 237.42L5.72854 237.062L4.79687 236.703L3.29105 236.058L2.78911 235.915L1.78523 235.485L1.21196 235.269L0.710022 235.054M76.7098 817.745H19.7098M76.7098 817.745L95.71 828.715V840.043L95.2081 839.828L94.6344 839.613L94.1324 839.398L93.6305 839.254L92.6271 838.824L91.6232 838.466L90.6911 838.035L89.6872 837.677L88.7551 837.318L87.823 837.032L86.8909 836.673L86.0305 836.315L85.1702 836.028L84.2381 835.741L83.3777 835.383L82.5174 835.096L81.7288 834.809L80.8685 834.594L80.0799 834.307L79.2191 834.02L78.4305 833.805L77.642 833.518L76.0644 833.088L75.3476 832.873L74.559 832.658L73.8417 832.443L73.0532 832.228L72.3364 832.013L71.6191 831.869L70.9023 831.654L70.1855 831.511L69.4683 831.296L68.0342 831.009L67.3892 830.866L66.6719 830.722L66.0269 830.579L65.3097 830.435L64.0191 830.149L63.3023 830.077L62.6569 829.933L62.0118 829.862L61.3663 829.718L60.0758 829.575L59.4308 829.432L57.4948 829.217L56.9211 829.145L56.2761 829.073H55.6306L54.9855 829.002L54.4118 828.93L53.1213 828.858L50.6834 828.715H45.7362L43.2987 828.858L42.0078 828.93L41.4345 829.002L40.789 829.073H40.144L39.5703 829.145L36.9892 829.432L36.3438 829.575L35.0533 829.718L34.4078 829.862L33.7627 829.933L33.1173 830.077L32.4005 830.149L31.11 830.435L30.3927 830.579L29.7477 830.722L29.0304 830.866L28.3854 831.009L26.9513 831.296L26.2345 831.511L25.5173 831.654L24.8005 831.869L24.0832 832.013L23.3664 832.228L22.5779 832.443L21.8606 832.658L21.072 832.873L20.3552 833.088L18.7776 833.518L17.9891 833.805L17.2005 834.02L16.3402 834.307L15.5516 834.594L14.6908 834.809L13.9022 835.096L13.0419 835.383L12.1815 835.741L11.3212 836.028L10.3891 836.315L9.52875 836.673L8.59664 837.032L7.66453 837.318L6.73242 837.677L5.72854 838.035L4.79687 838.466L3.79299 838.824L2.78911 839.254L2.28717 839.398L1.78523 839.613L1.21196 839.828L0.710022 840.043V828.715L19.7098 817.745M76.7098 817.745V811.077M19.7098 817.745V811.077M76.7098 811.077H19.7098M76.7098 811.077L79.9363 808.998L81.2269 805.413L79.9363 801.756L76.7098 799.677M19.7098 811.077L16.4833 808.998L15.1927 805.413L16.4833 801.756L19.7098 799.677M76.7098 799.677H19.7098M76.7098 799.677V793.081M19.7098 799.677V793.081M76.7098 793.081H19.7098M76.7098 793.081L88.11 786.484M19.7098 793.081L8.31 786.484M88.11 786.484H8.31M88.11 786.484V762.394L88.0383 762.322V761.462L87.9665 761.319V319.658L88.0383 319.515V318.654L88.11 318.511V288.684M8.31 786.484V762.466L8.38177 762.394V761.462L8.4531 761.319V759.669L8.52487 758.952V322.024L8.4531 321.307V319.658L8.38177 319.515V318.511L8.31 318.439V288.684M76.7098 282.088H19.7098M76.7098 282.088L88.11 288.684M19.7098 282.088L8.31 288.684M88.11 288.684H8.31M0.710022 235.054V0.960007M15.6229 759.669L15.5516 759.813V760.171L15.4798 760.315V760.53L15.3363 760.817V760.96L15.2645 761.175L15.121 761.462L15.0496 761.605L14.9779 761.677L14.8343 761.964L14.7626 762.035L14.6908 762.179L14.6195 762.251L14.4759 762.322L14.3324 762.466L14.2606 762.537L14.1175 762.609H14.0458L13.974 762.681H13.7591L13.6874 762.752L13.5438 762.681H13.4003L13.3285 762.609H13.1854L13.1137 762.537L13.0419 762.466L12.8984 762.322L12.827 762.251L12.7553 762.179L12.6835 762.035L12.6117 761.964L12.4682 761.677L12.3968 761.605V761.462L12.2533 761.175V760.96L12.1815 760.817V760.673L12.038 759.956V759.669L11.9667 759.311V321.666L12.038 321.307V320.949L12.1098 320.59L12.1815 320.303V320.088L12.2533 319.945V319.801L12.3968 319.515V319.371L12.4682 319.228L12.5399 319.156L12.6117 319.013L12.6835 318.941L12.7553 318.798L12.827 318.726L12.8984 318.654L12.9701 318.511L13.0419 318.439H13.1137L13.1854 318.368L13.3285 318.296H13.4003L13.4721 318.224H13.8305L13.974 318.296H14.0458L14.1175 318.368L14.2606 318.439H14.3324L14.4042 318.511L14.4759 318.654L14.6195 318.726L14.6908 318.798L14.7626 318.941L14.8343 319.013L14.9061 319.156L14.9779 319.228L15.0496 319.371L15.121 319.515L15.3363 319.945V320.088L15.408 320.303L15.4798 320.447V320.59L15.5516 320.805V321.164L15.6229 321.307V759.669ZM31.5401 759.311L31.4684 759.454V759.813L31.3966 759.956L31.3248 760.171L31.2531 760.315V760.53L31.1817 760.673L31.0382 760.817L30.9664 760.96L30.8946 761.175L30.8229 761.319L30.6798 761.462L30.608 761.605L30.4645 761.677L30.3214 761.82L30.2496 761.964L30.1061 762.035L29.9625 762.179L29.8194 762.251L29.6759 762.322L29.5324 762.394L29.3893 762.466L29.2457 762.537L29.1022 762.609H28.8873L28.7438 762.681H28.4572L28.2419 762.752L28.0988 762.681H27.8117L27.5968 762.609H27.4533L26.5929 762.179L26.5212 762.035L26.3776 761.964L26.2345 761.82L26.1628 761.677L26.0192 761.605L25.9475 761.462L25.8044 761.319L25.7326 761.175L25.6608 760.96L25.4455 760.53L25.3742 760.315V760.171L25.3024 759.956L25.2307 759.813V759.454L25.1589 759.311V321.666L25.2307 321.522V321.164L25.3024 320.949L25.3742 320.805V320.59L25.4455 320.447L25.5173 320.303L25.5891 320.088L25.8044 319.658L25.9475 319.515L26.0192 319.371L26.3776 319.013L26.5212 318.941L26.5929 318.798L26.7365 318.726L26.8796 318.654L27.0231 318.511L27.1666 318.439H27.3097L27.4533 318.368L27.5968 318.296H27.8117L27.9552 318.224H28.6003L28.7438 318.296H28.8873L29.1022 318.368L29.2457 318.439H29.3893L29.5324 318.511L29.6759 318.654L29.8194 318.726L29.9625 318.798L30.1061 318.941L30.2496 319.013L30.3214 319.156L30.4645 319.228L30.608 319.371L30.6798 319.515L30.8229 319.658L31.0382 320.088L31.1817 320.303L31.2531 320.447V320.59L31.3248 320.805L31.3966 320.949L31.4684 321.164V321.522L31.5401 321.666V759.311ZM51.9021 759.096L51.8308 759.311V759.669L51.759 759.813V759.956L51.6873 760.171L51.6155 760.315L51.5437 760.53L51.472 760.673L51.4006 760.817L51.2571 760.96L51.1853 761.175L51.0418 761.319L50.97 761.462L50.8269 761.605L50.6834 761.677L50.6116 761.82L50.4685 761.964L50.325 762.035L50.1815 762.179L49.9666 762.251L49.8231 762.322L49.6795 762.394L49.4647 762.466L49.3211 762.537L49.1062 762.609H48.9627L48.7474 762.681H48.389L48.2459 762.752L48.0306 762.681H47.6722L47.4569 762.609H47.3138L47.0985 762.537L46.955 762.466L46.7401 762.394L46.4535 762.251L46.2381 762.179L46.0946 762.035L45.9515 761.964L45.808 761.82L45.7362 761.677L45.5927 761.605L45.4496 761.462L45.3778 761.319L45.2343 761.175L45.1625 760.96L45.0194 760.817L44.8759 760.53L44.8041 760.315L44.7323 760.171L44.661 759.956V759.813L44.5892 759.669V759.311L44.5175 759.096V321.881L44.5892 321.666V321.307L44.661 321.164V320.949L44.7323 320.805L44.8041 320.59L44.9476 320.303L45.0194 320.088L45.1625 319.945L45.2343 319.801L45.3778 319.658L45.4496 319.515L45.5927 319.371L45.9515 319.013L46.0946 318.941L46.2381 318.798L46.4535 318.726L46.5966 318.654L46.7401 318.511L46.955 318.439H47.0985L47.3138 318.368L47.4569 318.296H47.6722L47.8157 318.224H48.6043L48.7474 318.296H48.9627L49.1062 318.368L49.3211 318.439H49.4647L49.6795 318.511L49.8231 318.654L49.9666 318.726L50.1815 318.798L50.325 318.941L50.4685 319.013L50.8269 319.371L50.97 319.515L51.0418 319.658L51.1853 319.801L51.2571 319.945L51.4006 320.088L51.472 320.303L51.6155 320.59L51.6873 320.805L51.759 320.949V321.164L51.8308 321.307V321.666L51.9021 321.881V759.096ZM71.2607 759.311L71.189 759.454V759.813L71.1176 759.956L71.0459 760.171V760.315L70.9741 760.53L70.7588 760.96L70.687 761.175L70.6157 761.319L70.4721 761.462L70.4004 761.605L70.2568 761.677L70.1855 761.82L70.042 761.964L69.9702 762.035L69.8267 762.179L69.6836 762.251L69.54 762.322L69.3965 762.394L69.2534 762.466L69.1099 762.537L68.9663 762.609H68.8232L68.6079 762.681H68.3213L68.1778 762.752L68.0342 762.681H67.6758L67.5327 762.609H67.3174L66.4571 762.179L66.3135 762.035L66.1704 761.964L66.0987 761.82L65.9551 761.677L65.8116 761.605L65.7403 761.462L65.5967 761.319L65.525 761.175L65.4532 760.96L65.3814 760.817L65.2383 760.673L65.1666 760.53V760.315L65.0948 760.171L65.023 759.956V759.813L64.9513 759.669V759.454L64.8795 759.311V321.666L64.9513 321.522V321.307L65.023 321.164V320.949L65.0948 320.805L65.1666 320.59V320.447L65.2383 320.303L65.3814 320.088L65.5967 319.658L65.7403 319.515L65.8116 319.371L65.9551 319.228L66.0987 319.156L66.1704 319.013L66.3135 318.941L66.4571 318.798L66.6006 318.726L66.7437 318.654L66.8872 318.511L67.0308 318.439H67.1739L67.3174 318.368L67.5327 318.296H67.6758L67.8194 318.224H68.4644L68.6079 318.296H68.8232L68.9663 318.368L69.1099 318.439H69.2534L69.3965 318.511L69.54 318.654L69.6836 318.726L69.8267 318.798L70.1855 319.156L70.2568 319.228L70.4004 319.371L70.4721 319.515L70.6157 319.658L70.687 319.801L70.8305 320.088L70.9023 320.303L71.0459 320.59V320.805L71.1176 320.949L71.189 321.164V321.522L71.2607 321.666V759.311ZM84.4534 759.311L84.3816 759.669V759.956L84.2381 760.673V760.817L84.1663 760.96V761.175L84.095 761.319L84.0232 761.462V761.605L83.9514 761.677L83.8079 761.964L83.7361 762.035L83.6648 762.179L83.593 762.251L83.5213 762.322L83.3777 762.466L83.306 762.537L83.2342 762.609H83.0911L83.0193 762.681H82.8758L82.7327 762.752L82.6609 762.681H82.4456L82.3738 762.609H82.3025L82.159 762.537L82.0872 762.466L81.9437 762.322L81.8006 762.251L81.7288 762.179L81.657 762.035L81.5853 761.964L81.4417 761.677L81.3704 761.605L81.1551 761.175L81.0833 760.96V760.817L81.0116 760.673L80.9402 760.53V760.315L80.8685 760.171V759.813L80.7967 759.669V321.307L80.8685 321.164V320.805L80.9402 320.59V320.447L81.0116 320.303L81.0833 320.088V319.945L81.3704 319.371L81.4417 319.228L81.5135 319.156L81.5853 319.013L81.657 318.941L81.7288 318.798L81.8006 318.726L81.9437 318.654L82.0154 318.511L82.0872 318.439H82.159L82.3025 318.368L82.3738 318.296H82.4456L82.5891 318.224H82.9475L83.0193 318.296H83.0911L83.2342 318.368L83.306 318.439H83.3777L83.4495 318.511L83.5213 318.654L83.6648 318.798L83.7361 318.941L83.8079 319.013L83.8797 319.156L83.9514 319.228L84.0232 319.371V319.515L84.095 319.658L84.1663 319.801V319.945L84.2381 320.088V320.303L84.3098 320.59L84.3816 320.949V321.307L84.4534 321.666V759.311Z" stroke="black" stroke-width="1"/>
</svg>
