<svg width="96" height="842" viewBox="0 0 96 842" fill="none" xmlns="http://www.w3.org/2000/svg">
<path d="M76.5459 275.628H19.5745M76.5459 275.628V282.301M76.5459 275.628L79.8462 273.547L81.0663 269.959L79.8462 266.3L76.5459 264.219M19.5745 275.628V282.301M19.5745 275.628L16.2738 273.547L15.0541 269.959L16.2738 266.3L19.5745 264.219M76.5459 264.219H19.5745M76.5459 264.219V257.546M19.5745 264.219V257.546M76.5459 257.546H19.5745M76.5459 257.546L95.56 246.568V235.231M19.5745 257.546L0.559998 246.568V235.231M95.56 235.231V0.960007M95.56 235.231L94.0535 235.877L93.4793 236.092L92.977 236.236L92.4747 236.451L91.5419 236.882L90.5372 237.24L87.7392 238.317L86.8064 238.604L85.8736 238.962L85.0126 239.25L84.1516 239.608L80.7072 240.756L79.918 240.971L79.1289 241.259L78.2679 241.545L77.4787 241.761L76.7609 241.976L74.393 242.622L72.9583 243.052L72.1687 243.268L71.4513 243.483L70.0162 243.77L69.2988 243.985L68.6529 244.129L67.2177 244.416L66.5722 244.559L65.8544 244.703L65.2089 244.846L64.4911 244.99L63.8456 245.133L63.1996 245.205L62.5541 245.348L61.8363 245.492L60.5448 245.635L59.8993 245.779L58.6078 245.922L58.0337 245.994L55.4507 246.281L54.8766 246.353H54.2306L53.0109 246.425L51.7194 246.496L50.4998 246.568H45.6207L44.3287 246.496L41.8894 246.353H41.2434L40.5979 246.281L40.0238 246.209L36.7948 245.851L36.2211 245.779L35.5752 245.635L34.8578 245.564L34.2119 245.492L32.9204 245.205L32.2744 245.133L31.6289 244.99L30.9111 244.846L30.2656 244.703L29.5478 244.559L28.9023 244.416L26.7498 243.985L26.1038 243.77L24.6687 243.483L23.8795 243.268L22.4444 242.837L21.6552 242.622L20.9378 242.406L17.7807 241.545L16.202 240.971L15.341 240.756L14.5518 240.469L11.9688 239.608L11.1078 239.25L10.2464 238.962L9.31401 238.604L8.38119 238.317L5.58275 237.24L4.57811 236.882L3.07115 236.236L2.56927 236.092L0.559998 235.231M76.5459 818.362H19.5745M76.5459 818.362L95.56 829.341V840.677L94.0535 840.032L93.4793 839.888L92.4747 839.458L91.5419 839.099L90.5372 838.668L88.6721 837.951L87.7392 837.664L85.8736 836.946L84.1516 836.372L83.2906 836.013L81.5682 835.44L80.7072 835.224L79.1289 834.65L78.2679 834.435L77.4787 834.148L76.7609 833.933L74.393 833.287L72.9583 832.856L72.1687 832.641L71.4513 832.498L70.734 832.282L70.0162 832.139L69.2988 831.924L68.6529 831.78L67.2177 831.493L66.5722 831.35L65.8544 831.206L65.2089 831.063L64.4911 830.919L63.8456 830.775L63.1996 830.704L62.5541 830.56L61.8363 830.489L61.1908 830.345L59.8993 830.202L59.2533 830.058L58.6078 829.986L58.0337 829.914L56.0962 829.699H55.4507L54.8766 829.628L54.2306 829.556L53.0109 829.484L51.7194 829.412L50.4998 829.341H45.6207L44.3287 829.412L41.8894 829.556L40.5979 829.699H40.0238L36.7948 830.058L36.2211 830.202L35.5752 830.273L34.8578 830.345L34.2119 830.489L33.5659 830.56L32.9204 830.704L32.2744 830.775L31.6289 830.919L30.9111 831.063L30.2656 831.206L29.5478 831.35L28.9023 831.493L26.7498 831.924L26.1038 832.139L25.3865 832.282L24.6687 832.498L23.8795 832.641L22.4444 833.072L21.6552 833.287L20.9378 833.502L18.5699 834.148L17.7807 834.435L16.9911 834.65L16.202 834.937L15.341 835.224L14.5518 835.44L12.8298 836.013L11.9688 836.372L10.2464 836.946L8.38119 837.664L7.44838 837.951L5.58275 838.668L4.57811 839.099L3.57347 839.458L2.56927 839.888L2.06695 840.032L0.559998 840.677V829.341L19.5745 818.362M76.5459 818.362V811.69M19.5745 818.362V811.69M76.5459 811.69H19.5745M76.5459 811.69L79.8462 809.609L81.0663 806.021L79.8462 802.362L76.5459 800.281M19.5745 811.69L16.2738 809.609L15.0541 806.021L16.2738 802.362L19.5745 800.281M76.5459 800.281H19.5745M76.5459 800.281V793.68M19.5745 800.281V793.68M76.5459 793.68H19.5745M76.5459 793.68L87.9543 787.078M19.5745 793.68L8.16573 787.078M87.9543 787.078H8.16573M87.9543 787.078V762.611L87.8824 762.467V761.463L87.8106 761.248V757.66L87.8824 757.373V756.942L87.9543 756.153V732.834M8.16573 787.078V746.682L8.23755 746.036V745.462L8.30937 744.888V744.314L8.38119 743.74L8.45258 743.094L8.66804 741.372L8.73987 740.726L8.88307 740.152L8.9549 739.578L9.09854 739.004L9.17036 738.43L9.31401 737.784L9.38539 737.211L9.52904 736.636L9.67268 735.991L9.95953 734.843L10.175 734.269L10.3182 733.623L10.4619 733.049L10.6769 732.475L10.8205 731.829L11.251 730.681L11.3947 730.107L11.6097 729.461L12.2557 727.739L12.4707 727.093L12.758 726.519L13.1885 725.371L13.4753 724.726L13.7626 724.152L13.9776 723.578L14.2645 723.004L14.5518 722.358L15.6996 720.062L15.9869 719.416L16.5606 718.268L16.9197 717.694L17.2066 717.12L17.8521 715.9L18.5699 714.752L19.2154 713.532L19.9332 712.384L20.7224 711.164L21.4397 710.016L22.2293 708.796L23.0185 707.649L24.5968 705.209L25.4583 704.061L26.3193 702.841L27.1803 701.693L28.0413 700.473L28.9741 699.325L29.8351 698.105L30.7679 696.957L31.7007 695.738L32.6335 694.59L33.5659 693.37L35.4315 691.074L36.4362 689.854L37.369 688.706L38.3736 687.486L39.3778 686.338L40.3824 685.118L41.3871 683.97L42.3917 682.751L46.4098 678.015L48.4905 675.647L50.4998 673.279L52.5804 670.911L54.5897 668.544L55.5939 667.395L56.5985 666.176L57.5314 665.028L58.536 663.808L59.5406 662.66L60.473 661.44L61.4058 660.292L62.4105 659.072L63.3433 657.924L64.2761 656.704L65.2089 655.556L66.1417 654.337L67.0027 653.188L67.9355 651.969L68.7965 650.821L69.6575 649.601L70.5185 648.453L71.3795 647.233L72.1687 646.085L72.9583 644.865L73.7475 643.717L74.5366 642.497L75.254 641.349L76.0436 640.13L76.7609 638.982L77.4069 637.762L78.1242 636.614L78.7702 635.394L79.4157 634.246L79.9899 633.098L80.3485 632.452L81.2095 630.73L81.4968 630.084L81.7837 629.51L81.9987 628.936L82.286 628.362L82.5728 627.716L82.7883 627.143L83.0752 626.568L83.2906 625.994L83.5057 625.349L83.7925 624.775L84.008 624.201L84.223 623.555L84.869 621.833L85.0126 621.187L85.2276 620.613L85.3713 620.039L85.5863 619.393L85.73 618.819L85.9454 618.245L86.0886 617.671L86.2323 617.025L86.6628 615.303L86.8064 614.657L86.8782 614.084L87.0215 613.509L87.0933 612.935L87.2369 612.362L87.3087 611.716L87.452 610.568L87.5956 609.994V609.348L87.8106 607.626V607.052L87.8824 606.406V605.832L87.9543 605.258V601.096L87.8824 600.522V599.948L87.8106 599.374V598.728L87.6674 597.58M76.5459 282.301H19.5745M76.5459 282.301L87.9543 288.902M19.5745 282.301L8.16573 288.902M87.9543 288.902H8.16573M87.9543 288.902V335.111L87.8824 335.684V336.33L87.7392 337.478V338.052L87.6674 338.626L87.5956 339.272L87.452 340.42L87.3087 341.066L87.1651 342.214L87.0215 342.788L86.9496 343.434L86.6628 344.582L86.5191 345.228L86.0886 346.95L85.9454 347.595L85.6581 348.743L85.4431 349.318L85.2995 349.963L84.6539 351.685L84.5103 352.331L83.8643 354.053L83.5775 354.699L83.147 355.847L82.8601 356.421L82.6447 357.067L82.3578 357.641L82.1423 358.215L81.5682 359.363L81.2814 360.009L80.4204 361.731L80.1335 362.376L79.8462 362.95L79.4875 363.524L79.2007 364.099L78.8416 364.744L78.5547 365.318L77.8374 366.466L77.5501 367.112L76.8327 368.26L76.1154 369.48L75.3976 370.628L73.8193 373.068L73.0297 374.216L72.2405 375.435L71.4513 376.583L70.5903 377.731L69.8012 378.951L68.9402 380.099L68.0074 381.319L67.1464 382.467L66.2849 383.687L64.4197 385.983L63.4869 387.203L62.5541 388.351L61.6213 389.57L60.6167 390.719L59.6838 391.938L58.6792 393.086L57.675 394.306L56.7422 395.454L55.7375 396.674L53.6569 399.042L49.6388 403.778L45.5488 408.513L41.5307 413.249L39.5215 415.545L38.5886 416.765L37.584 417.913L36.5798 419.132L35.647 420.28L34.6423 421.5L33.7095 422.648L31.8439 425.088L30.9111 426.236L29.9783 427.456L29.0459 428.604L28.1845 429.824L27.3235 430.972L26.4625 432.191L25.6015 433.339L24.7405 434.559L23.1622 436.855L22.3725 438.075L21.5834 439.223L20.866 440.443L20.0769 441.591L19.3591 442.811L18.7135 443.959L17.9958 445.107L17.3502 446.327L16.7043 447.475L16.0583 448.694L15.4846 449.842L15.1973 450.488L14.6236 451.636L14.3363 452.282L14.0495 452.856L13.834 453.43L13.5471 454.076L13.3321 454.65L13.0448 455.224L12.8298 455.798L12.5425 456.444L11.897 458.166L11.6815 458.811L11.251 459.959L11.1078 460.534L10.8923 461.108L10.6769 461.753L10.39 462.901L10.175 463.476L10.0314 464.121L9.45722 466.417L9.31401 467.063L9.24219 467.637L9.09854 468.211L9.02672 468.785L8.88307 469.359L8.81169 470.005L8.73987 470.579L8.59622 471.153L8.5244 471.727L8.45258 472.373V472.947L8.30937 474.095L8.23755 474.74V475.315L8.16573 475.889V480.624L8.23755 481.27V481.844L8.30937 482.418V482.992L8.38119 483.638L8.45258 484.212M8.16573 288.902V319.253L8.23755 319.469V320.545L8.30937 320.76V323.63L8.23755 323.917V324.778L8.16573 325.568V348.959M8.45258 613.725L8.30937 612.577V612.003L8.23755 611.357V610.783L8.16573 610.209V605.473L8.23755 604.899V604.325L8.30937 603.751L8.38119 603.105V602.531L8.5244 601.383L8.59622 600.738L8.73987 600.164L8.88307 599.016L9.02672 598.442L9.09854 597.796L9.24219 597.222L9.31401 596.648L9.45722 596.074L9.60086 595.428L9.88771 594.28L10.0314 593.634L10.175 593.06L10.39 592.486L10.5337 591.912L10.6769 591.266L11.1078 590.118L11.251 589.473L11.897 587.75L12.112 587.105L12.5425 585.957L12.8298 585.383L13.0448 584.737L13.3321 584.163L13.5471 583.589L13.834 583.015L14.0495 582.369L14.9105 580.647L15.1973 580.001L16.0583 578.279L16.4174 577.705L16.7043 577.059L17.3502 575.911L17.9958 574.692L18.6417 573.544L19.3591 572.395L20.0769 571.176L20.7942 570.028L21.5834 568.808L22.3725 567.66L23.1622 566.44L23.9513 565.292L24.7405 564.072L25.6015 562.852L26.4625 561.704L27.3235 560.485L28.1845 559.337L29.1173 558.117L29.9783 556.969L30.9111 555.749L31.8439 554.601L32.7767 553.381L33.7095 552.233L34.6423 551.013L35.647 549.865L36.5798 548.717L37.584 547.497L38.5168 546.349L39.5215 545.129L40.5261 543.982L41.5307 542.762L45.5488 538.026L49.7102 533.29L53.7283 528.555L54.7329 527.335L55.7375 526.187L56.7422 524.967L57.7468 523.819L58.6792 522.671L59.6838 521.451L60.6167 520.303L61.6213 519.084L62.5541 517.935L63.4869 516.716L64.4197 515.568L65.3526 514.348L66.2849 513.2L67.1464 511.98L68.0787 510.832L68.9402 509.612L69.8012 508.464L70.6622 507.244L71.5231 506.096L73.1015 503.657L73.8911 502.509L74.6803 501.289L75.3976 500.141L76.1154 498.921L77.5501 496.625L78.1961 495.405L78.9134 494.257L79.2007 493.683L79.4875 493.037L79.8462 492.463L80.4204 491.315L80.7072 490.669L81.8555 488.374L82.1423 487.728L82.3578 487.154L82.6447 486.58L82.8601 486.006L83.147 485.36L83.5775 484.212L83.8643 483.638L84.0798 482.992L84.5103 481.844L84.7253 481.198L84.869 480.624L85.2995 479.476L85.4431 478.83L85.6581 478.256L85.8018 477.682L85.9454 477.037L86.1605 476.463L86.4478 475.315L86.591 474.669L86.6628 474.095L86.9496 472.947L87.0215 472.301L87.1651 471.727L87.3087 470.579L87.452 469.933L87.7392 467.637V466.991L87.8824 465.843V465.269L87.9543 464.623V441.376M87.6674 467.996L87.7392 468.57L87.8106 469.216V469.79L87.8824 470.364V470.938L87.9543 471.583V475.673L87.8824 476.247V476.893L87.8106 477.467V478.041L87.7392 478.615L87.6674 479.261V479.835L87.5956 480.409L87.452 480.983L87.3801 481.629L87.2369 482.777L87.0933 483.351L87.0215 483.997L86.7346 485.145L86.6628 485.79L86.2323 487.512L86.0886 488.158L85.8736 488.732L85.73 489.306L85.5863 489.952L85.3713 490.526L85.2276 491.1L84.7971 492.248L84.6539 492.894L84.008 494.616L83.7925 495.262L83.5057 495.836L83.0752 496.984L82.7883 497.629L82.5728 498.204L82.286 498.778L82.0705 499.352L81.7837 499.926L81.4968 500.571L80.3485 502.867L80.0617 503.513L79.703 504.087L79.1289 505.235L78.7702 505.881L78.4829 506.455L77.7656 507.603L77.4069 508.249L76.7609 509.397L76.0436 510.617L75.254 511.765L74.5366 512.985L73.7475 514.204L72.9583 515.352L72.1687 516.572L71.3077 517.72L70.5185 518.94L69.6575 520.088L68.7965 521.308L67.9355 522.456L67.0027 523.604L66.1417 524.824L65.2089 525.972L64.2761 527.191L63.3433 528.339L62.4105 529.559L61.4776 530.707L60.473 531.927L59.5406 533.075L58.536 534.223L57.5314 535.443L56.5985 536.663L55.5939 537.811L54.5897 539.031L52.5086 541.398L48.4905 546.134L46.4098 548.502L40.3824 555.605L38.3736 557.901L37.4408 559.121L36.4362 560.269L35.5033 561.489L34.4987 562.637L33.5659 563.857L32.6335 565.005L30.7679 567.445L29.8351 568.593L28.9023 569.812L28.0413 570.96L27.1803 572.18L26.3193 573.328L25.4583 574.548L24.5968 575.696L23.8077 576.916L23.0185 578.064L22.2293 579.284L21.4397 580.432L20.7224 581.652L19.2872 583.947L18.5699 585.167L17.9239 586.315L17.2066 587.535L16.6324 588.683L15.9869 589.903L15.1259 591.625L14.8386 592.271L14.2645 593.419L13.9776 594.065L13.6908 594.639L13.4753 595.213L13.1885 595.858L12.758 597.006L12.4707 597.58L12.2557 598.226L11.6097 599.948L11.3947 600.594L11.1792 601.168L11.036 601.742L10.8205 602.316L10.6769 602.962L10.4619 603.536L10.175 604.684L9.95953 605.33L9.52904 607.052L9.45722 607.626L9.31401 608.272L9.17036 608.846L9.09854 609.42L8.9549 609.994L8.88307 610.639L8.73987 611.214L8.5244 612.935L8.45258 613.581L8.30937 614.729V615.303L8.23755 615.949V616.523L8.16573 617.097V640.417M15.7715 319.756L17.5653 320.903L18.9286 322.267M15.7715 319.756L15.2691 320.832L14.6954 321.908L14.1931 323.056L13.6908 324.132L12.3993 327.361L11.9688 328.509L11.7533 329.012L11.5383 329.586L11.3947 330.088L11.1792 330.662L11.036 331.236L10.8205 331.738L10.6769 332.312L10.5337 332.814L10.39 333.389L10.175 333.891L9.88771 335.039L9.81589 335.541L9.67268 336.115L9.52904 336.617L9.38539 337.191L9.31401 337.765L9.17036 338.268L9.09854 338.842L8.9549 339.344L8.81169 340.492L8.73987 340.994L8.66804 341.568L8.59622 342.07L8.45258 343.219L8.38119 343.721L8.30937 344.295V344.869L8.23755 345.371V345.945L8.16573 346.447V351.398L8.23755 351.972V352.475L8.30937 353.049V353.551L8.38119 354.125L8.45258 354.627M15.7715 319.756L15.9869 319.325L16.1301 319.253L16.202 319.11L16.2738 319.038L16.3456 318.966L16.4892 318.894L16.5606 318.751L16.7043 318.679H16.7761L16.9197 318.608L16.9911 318.536H17.1348L17.2784 318.464H17.7089L17.8521 318.536H17.9958L18.0676 318.608L18.2112 318.679L18.3544 318.751L18.4263 318.823L18.5699 318.894L18.6417 318.966L18.7849 319.038L18.8568 319.181L19.0004 319.253L19.144 319.54L19.2154 319.612L19.3591 319.756L19.5745 320.186L19.6459 320.401V320.545L19.7177 320.688L19.7896 320.903V321.047L19.8614 321.191V321.406L19.9332 321.549V322.984L19.8614 323.2V323.343L19.7896 323.558V323.702L19.7177 323.845L19.6459 324.061L19.5745 324.204L19.2872 324.778L18.6417 325.926L17.9958 327.002L17.4216 328.151L16.7761 329.227L16.202 330.375L15.6278 331.451L15.0541 332.599L14.5518 333.675L14.0495 334.823L13.5471 335.9L13.1167 337.048L12.6143 338.124L12.1838 339.272L11.9688 339.774L11.8252 340.349L11.3947 341.497L11.251 341.999L11.036 342.573L10.8923 343.147L10.6769 343.721L10.5337 344.223L10.39 344.797L10.175 345.371L9.88771 346.519L9.7445 347.021L9.67268 347.595L9.38539 348.743L9.24219 349.246L9.17036 349.82L9.02672 350.394L8.9549 350.968L8.88307 351.47L8.73987 352.044L8.59622 353.192L8.5244 353.694L8.45258 354.268V354.842L8.38119 355.416L8.30937 355.919V356.493L8.23755 357.067V357.569L8.16573 358.143V381.319M8.45258 646.157L8.38119 645.511L8.30937 644.937V644.363L8.23755 643.789V643.143L8.16573 642.569V637.834L8.23755 637.26V636.685L8.30937 636.04L8.45258 634.892V634.318L8.5244 633.744L8.59622 633.098L8.73987 632.524L8.88307 631.376L9.02672 630.73L9.09854 630.156L9.24219 629.582L9.31401 629.008L9.45722 628.434L9.60086 627.788L10.0314 626.066L10.175 625.42L10.39 624.846L10.6769 623.698L10.8923 623.053L11.1078 622.478L11.251 621.905L11.4665 621.331L11.6815 620.685L12.3275 618.963L12.5425 618.317L12.8298 617.743L13.0448 617.169L13.3321 616.523L13.5471 615.949L14.1213 614.801L14.3363 614.155L15.1973 612.433L15.4846 611.787L16.0583 610.639L16.4174 610.065L16.7043 609.42L17.3502 608.272L17.9958 607.052L18.7135 605.904L19.3591 604.756L20.0769 603.536L20.7942 602.388L21.5834 601.168L22.3725 600.02L23.1622 598.8L23.9513 597.652L24.7405 596.433L25.6015 595.284L26.4625 594.065L27.3235 592.917L28.1845 591.697L29.1173 590.549L29.9783 589.329L30.9111 588.181L32.7767 585.741L34.6423 583.445L35.647 582.226L36.5798 581.077L37.584 579.858L38.5886 578.71L39.5215 577.49L41.5307 575.122L43.5396 572.826L45.5488 570.458L47.6295 568.09L49.6388 565.723L51.7194 563.283L52.7241 562.135L53.7283 560.915L54.7329 559.767L55.7375 558.547L56.7422 557.399L57.7468 556.179L58.6792 555.031L59.6838 553.812L60.6885 552.664L61.6213 551.444L63.4869 549.148L64.4197 547.928L65.3526 546.78L66.2849 545.56L67.1464 544.412L68.0787 543.192L68.9402 542.044L69.8012 540.825L70.6622 539.676L71.4513 538.457L72.3123 537.308L73.1015 536.089L73.8911 534.941L74.6803 533.721L75.3976 532.501L76.1154 531.353L76.8327 530.133L77.5501 528.985L78.1961 527.766L78.9134 526.617L79.4875 525.469L79.8462 524.824L80.7072 523.102L80.9945 522.456L82.1423 520.16L82.3578 519.514L82.6447 518.94L82.8601 518.366L83.147 517.792L83.362 517.218L83.5775 516.572L83.8643 515.998L84.2948 514.85L84.5103 514.204L84.6539 513.63L85.0844 512.482L85.2995 511.837L85.4431 511.262L85.6581 510.688L85.8018 510.115L85.9454 509.469L86.0886 508.895L86.3041 508.321L86.4478 507.675L86.5191 507.101L86.8064 505.953L86.9496 505.307L87.0215 504.733L87.1651 504.159L87.2369 503.513L87.3087 502.939L87.452 502.365L87.5238 501.791L87.5956 501.145L87.7392 499.997V499.423L87.8106 498.778L87.8824 498.204V497.629L87.9543 497.056V473.736M87.6674 500.428L87.8106 501.576V502.15L87.8824 502.796V503.37L87.9543 503.944V508.105L87.8824 508.679V509.325L87.8106 509.899V510.473L87.7392 511.119L87.452 513.415L87.3801 514.061L87.2369 515.209L87.0933 515.783L87.0215 516.429L86.7346 517.577L86.6628 518.151L86.5191 518.725L86.3759 519.37L86.0886 520.518L85.8736 521.093L85.73 521.667L85.5863 522.312L85.3713 522.886L85.2276 523.46L85.0126 524.034L84.7971 524.68L84.6539 525.254L84.008 526.976L83.7925 527.622L83.5057 528.196L83.0752 529.344L82.7883 529.99L82.5728 530.564L82.286 531.138L82.0705 531.784L81.2095 533.506L80.9227 534.151L80.3485 535.299L79.9899 535.945L79.4157 537.093L78.7702 538.313L78.1242 539.461L77.4069 540.681L75.9718 542.977L75.254 544.197L74.5366 545.345L73.7475 546.565L72.9583 547.713L72.1687 548.932L71.3795 550.08L70.5185 551.228L69.6575 552.448L68.7965 553.596L67.9355 554.816L67.0745 555.964L66.1417 557.184L65.2089 558.332L64.2761 559.552L63.3433 560.7L61.4776 563.139L60.473 564.287L59.5406 565.507L58.536 566.655L57.5314 567.875L56.5267 569.023L54.5897 571.391L52.5804 573.759L50.4998 576.127L46.4817 580.79L44.4724 583.158L42.3917 585.526L40.3824 587.894L38.3736 590.334L37.4408 591.482L36.4362 592.701L35.4315 593.849L34.4987 595.069L33.5659 596.217L32.6335 597.437L31.7007 598.585L30.7679 599.805L29.8351 600.953L28.9023 602.173L28.0413 603.321L27.1803 604.54L26.3193 605.688L25.4583 606.908L24.5968 608.056L23.0185 610.496L22.2293 611.644L21.4397 612.864L20.6506 614.012L19.9332 615.232L19.2154 616.38L18.5699 617.599L17.8521 618.747L17.5653 619.322L17.2066 619.967L16.9197 620.541L16.5606 621.115L16.2738 621.689L15.9869 622.335L15.6996 622.909L15.341 623.483L15.0541 624.057L14.8386 624.631L14.5518 625.277L13.6908 626.999L13.4753 627.573L13.1885 628.219L12.758 629.367L12.4707 629.941L12.2557 630.587L11.6097 632.309L11.3947 632.954L11.251 633.528L10.8205 634.676L10.6769 635.322L10.4619 635.896L10.175 637.044L9.95953 637.69L9.67268 638.838L9.52904 639.484L9.45722 640.058L9.17036 641.206L9.09854 641.852L8.9549 642.426L8.88307 643L8.73987 643.574L8.66804 644.219L8.45258 645.942L8.38119 646.587L8.30937 647.161V647.735L8.23755 648.309V648.883L8.16573 649.529V672.777M38.4454 319.756L38.5886 319.612L38.6605 319.469L38.8041 319.325L38.9473 319.253L39.091 319.11L39.2346 319.038L39.3778 318.966L39.5215 318.894L39.7369 318.751L39.8801 318.679H40.0238L40.2392 318.608L40.3824 318.536H40.5979L40.8129 318.464H41.5307L41.6739 318.536H41.8894L42.033 318.608L42.2481 318.679L42.3917 318.751L42.6068 318.823L42.7504 318.894L42.894 318.966L43.0372 319.038L43.1809 319.181L43.3245 319.253L43.4677 319.397L43.6114 319.54L43.755 319.612L43.8982 319.756L43.9701 319.899L44.1137 320.042L44.1855 320.186L44.2574 320.401L44.3287 320.545L44.4724 320.688L44.5442 320.903V321.047L44.616 321.191L44.6878 321.406V321.549L44.7592 321.765V322.841L44.6878 322.984V323.2L44.616 323.343L44.5442 323.558L44.4006 323.845L44.3287 324.061L44.2574 324.204L44.1855 324.348L44.0419 324.491L43.9701 324.635L43.8269 324.778L42.033 326.931L41.1002 328.007L40.2392 329.083L39.3064 330.16L38.4454 331.164L37.5126 332.24L34.9292 335.469L34.0682 336.474L33.2072 337.55L32.418 338.626L31.5571 339.703L30.6961 340.707L28.3281 343.936L27.5389 344.941L25.9602 347.093L25.2428 348.169L24.4536 349.246L23.7359 350.25L21.5834 353.479L19.6459 356.708L19.0004 357.712L18.3544 358.789L16.6324 362.018L16.0583 363.022L15.4846 364.099L14.48 366.251L13.9776 367.256L13.1167 369.408L12.6862 370.413L11.8252 372.565L11.1078 374.718L10.8205 375.722L10.4619 376.799L9.60086 380.028L9.52904 380.53L9.38539 381.104L9.31401 381.606L9.17036 382.18L9.09854 382.682L8.9549 383.185L8.88307 383.759L8.81169 384.261L8.73987 384.835L8.66804 385.337L8.59622 385.911L8.45258 386.916L8.38119 387.49V387.992L8.30937 388.494L8.23755 389.068V389.57L8.16573 390.145V413.751M38.4454 319.756L39.8801 320.903L41.4589 322.267M38.4454 319.756L37.584 320.832L36.6516 321.836L34.9292 323.989L34.14 324.993L32.418 327.146L31.6289 328.151L30.7679 329.227L29.9783 330.303L29.1891 331.308L28.3999 332.384L27.6108 333.389L26.032 335.541L25.3146 336.546L23.8795 338.698L23.1622 339.703L21.727 341.855L21.0811 342.86L19.144 346.089L18.4981 347.093L17.3502 349.246L16.7761 350.25L15.6278 352.403L15.1259 353.407L14.1213 355.56L13.6908 356.564L13.2603 357.641L12.8298 358.645L11.9688 360.798L11.6097 361.802L10.8923 363.955L10.6055 364.959L10.0314 367.112L9.7445 368.117L9.45722 369.193L9.38539 369.695L9.24219 370.269L9.17036 370.771L9.02672 371.345L8.88307 372.35L8.81169 372.924L8.66804 373.929L8.59622 374.502L8.45258 375.507L8.38119 376.081L8.30937 376.583V377.086L8.23755 377.588V378.162L8.16573 378.664V381.319M8.45258 678.517L8.30937 677.369V676.723L8.23755 676.149V675.575L8.16573 675.001V670.194L8.23755 669.62V669.046L8.30937 668.4L8.45258 667.252V666.678L8.5244 666.104L8.66804 665.458L8.88307 663.736L9.02672 663.09L9.09854 662.516L9.24219 661.942L9.31401 661.368L9.45722 660.794L9.60086 660.148L10.0314 658.426L10.175 657.781L10.39 657.207L10.5337 656.633L10.7487 656.059L10.8923 655.485L11.1078 654.839L11.251 654.265L11.6815 653.117L11.897 652.471L12.5425 650.749L12.8298 650.103L13.0448 649.529L13.3321 648.955L13.5471 648.381L13.834 647.735L14.0495 647.161L14.3363 646.587L14.6236 645.942L15.4846 644.219L15.7715 643.574L16.1301 643L16.7043 641.852L17.3502 640.632L17.9958 639.484L18.7135 638.264L19.4309 637.116L20.0769 635.896L20.866 634.748L21.5834 633.528L22.3725 632.38L23.1622 631.161L24.7405 628.865L25.6015 627.645L26.4625 626.497L27.3235 625.277L28.1845 624.129L29.0459 622.909L29.9783 621.761L30.9111 620.541L31.8439 619.393L33.7095 616.954L34.6423 615.806L35.647 614.586L36.5798 613.438L37.584 612.218L38.5886 611.07L39.5933 609.85L41.5307 607.554L43.5396 605.186L45.6207 602.818L51.6476 595.715L53.7283 593.347L55.7375 590.979L56.7422 589.759L57.7468 588.611L58.6792 587.392L59.6838 586.244L60.6885 585.024L61.6213 583.876L62.5541 582.656L63.4869 581.508L64.4197 580.288L65.3526 579.14L66.2849 577.92L67.1464 576.772L68.0787 575.624L68.9402 574.405L69.8012 573.256L70.6622 572.037L71.4513 570.889L72.3123 569.669L73.1015 568.521L73.8911 567.301L74.6084 566.153L75.3976 564.933L76.1154 563.785L76.8327 562.565L77.5501 561.417L77.9092 560.772L78.1961 560.197L78.5547 559.624L78.9134 558.978L79.4875 557.83L79.8462 557.256L80.1335 556.61L81.2814 554.314L81.5682 553.668L82.1423 552.52L82.3578 551.946L82.6447 551.3L82.8601 550.726L83.147 550.152L83.5775 549.004L83.8643 548.358L84.5103 546.636L84.6539 546.062L84.869 545.417L85.2995 544.268L85.4431 543.695L85.6581 543.049L86.0886 541.327L86.2323 540.681L86.6628 538.959L86.8064 538.313L86.9496 537.739L87.0215 537.165L87.1651 536.591L87.2369 535.945L87.3087 535.371L87.452 534.797L87.5238 534.151L87.7392 532.429V531.784L87.8824 530.636V530.062L87.9543 529.416V506.096M8.45258 387.059L8.38119 386.557L8.30937 385.983V385.481L8.23755 384.978V384.404L8.16573 383.902V381.319M87.6674 532.788L87.8106 533.936V534.582L87.8824 535.156V535.73L87.9543 536.304V540.466L87.8824 541.04V541.614L87.8106 542.259V542.834L87.6674 543.982L87.5956 544.627L87.452 545.775L87.3801 546.421L87.2369 547.569L87.0933 548.215L87.0215 548.789L86.7346 549.937L86.6628 550.583L86.2323 552.305L86.0886 552.951L85.8736 553.525L85.5863 554.673L85.3713 555.318L85.2276 555.892L84.7971 557.04L84.6539 557.615L84.4385 558.26L83.7925 559.982L83.5057 560.628L83.0752 561.776L82.7883 562.35L82.5728 562.924L82.286 563.57L82.0705 564.144L81.4968 565.292L81.2095 565.938L80.0617 568.234L79.703 568.879L79.1289 570.028L78.7702 570.602L78.4111 571.247L78.1242 571.821L77.7656 572.395L77.4069 573.041L77.0478 573.615L76.7609 574.189L75.9718 575.409L75.254 576.557L74.5366 577.777L73.7475 578.925L72.9583 580.145L72.1687 581.293L71.3077 582.513L70.5185 583.661L69.6575 584.88L68.7965 586.028L67.9355 587.248L67.0027 588.396L66.1417 589.544L65.2089 590.764L64.2761 591.912L63.3433 593.132L62.4105 594.28L61.4776 595.5L60.473 596.648L59.5406 597.867L58.536 599.016L57.5314 600.235L56.5267 601.383L54.5179 603.823L50.4998 608.559L46.4098 613.294L44.4006 615.59L38.3736 622.694L37.4408 623.914L36.4362 625.062L35.5033 626.281L34.4987 627.429L33.5659 628.649L32.5617 629.797L31.6289 631.017L30.6961 632.165L29.8351 633.385L28.9023 634.605L27.1803 636.901L26.3193 638.121L25.4583 639.269L24.5968 640.488L23.8077 641.636L23.0185 642.856L22.2293 644.004L21.4397 645.224L20.005 647.52L19.2872 648.74L18.5699 649.888L17.9239 651.108L17.2066 652.256L16.6324 653.476L15.9869 654.624L15.6996 655.269L15.1259 656.417L14.8386 657.063L13.9776 658.785L13.6908 659.431L13.4753 660.005L13.1885 660.579L12.973 661.225L12.758 661.799L12.4707 662.373L12.2557 662.947L12.0402 663.593L11.1792 665.889L11.036 666.534L10.8205 667.108L10.6769 667.683L10.4619 668.256L10.3182 668.902L10.175 669.476L9.95953 670.05L9.67268 671.198L9.52904 671.844L9.45722 672.418L9.17036 673.566L9.09854 674.212L8.9549 674.786L8.88307 675.36L8.73987 675.934L8.66804 676.508L8.59622 677.154L8.38119 678.876L8.30937 679.522V680.096L8.23755 680.67V681.244L8.16573 681.889V705.209M65.5676 319.756L65.7112 319.612L65.783 319.469L65.9263 319.325L66.0699 319.253L66.2135 319.11L66.3568 319.038L66.4286 318.966L66.5722 318.894L66.7159 318.751L66.9309 318.679H67.0745L67.3614 318.536H67.5769L67.7201 318.464H68.366L68.5097 318.536H68.6529L68.7965 318.608L69.0116 318.679L69.5857 318.966L69.8012 319.181L69.9444 319.253L70.0162 319.397L70.2317 319.612L70.3749 319.756L70.5185 320.042L70.6622 320.186L70.734 320.401L70.8054 320.545V320.688L70.8772 320.903L71.0208 321.191V321.406L71.0926 321.549V322.841L71.0208 322.984V323.2L70.949 323.343V323.558L70.8054 323.845L70.734 324.061L70.4467 324.635L70.3035 324.778L69.8012 325.568L68.6529 327.146L68.0074 327.935L66.8591 329.514L61.98 335.828L60.6885 337.335L56.814 342.07L55.4507 343.577L54.1592 345.156L51.4326 348.313L50.1407 349.891L43.3245 357.784L42.033 359.291L40.6697 360.87L36.7948 365.605L35.5033 367.112L34.2119 368.691L32.9922 370.269L31.7007 371.848L30.4806 373.426L29.3327 374.933L28.6868 375.722L25.2428 380.458L24.7405 381.247L23.5926 382.826L22.588 384.404L22.0139 385.194L21.0092 386.772L20.5787 387.561L19.5745 389.14L19.144 389.929L18.6417 390.647L16.0583 395.382L15.6996 396.172L15.2691 396.961L14.9105 397.679L13.4753 400.836L13.1885 401.625L12.8298 402.414L12.2557 403.993L11.897 404.782L11.6097 405.571L11.3947 406.361L11.1078 407.15L10.8923 407.939L10.6055 408.728L9.7445 411.886L9.60086 412.603L9.38539 413.392L8.66804 417.339L8.5244 418.917L8.38119 419.707L8.30937 420.496V421.213L8.16573 422.792V446.111M65.5676 319.756L65.9981 320.903M65.5676 319.756V319.827L65.6394 319.971V320.114L65.783 320.401V320.545L65.9263 320.688L65.9981 320.903M65.5676 319.756L64.3479 321.334L63.1282 322.841L61.9081 324.419L59.3252 327.577L58.0337 329.083L55.4507 332.24L54.0874 333.747L52.7959 335.326L51.4326 336.904L50.1407 338.411L47.4145 341.568L44.7592 344.725L43.3964 346.232L42.1044 347.811L40.7411 349.389L39.4496 350.968L38.1581 352.475L35.5752 355.632L34.2837 357.139L31.8439 360.296L30.6242 361.802L29.4046 363.381L27.1084 366.538L26.5343 367.256L24.8123 369.623L24.31 370.413L23.7359 371.202L22.7317 372.78L22.1575 373.57L21.6552 374.359L21.1529 375.077L20.7224 375.866L19.7177 377.444L19.2872 378.234L18.7849 379.023L18.3544 379.74L16.6324 382.898L16.202 383.615L15.8433 384.404L15.4128 385.194L14.6954 386.772L14.3363 387.49L13.619 389.068L13.3321 389.858L12.973 390.647L12.6862 391.436L12.3275 392.225L12.0402 392.943L11.4665 394.521L11.251 395.311L10.9642 396.1L10.5337 397.679L10.2464 398.468L10.0314 399.257L9.88771 399.975L9.67268 400.764L9.52904 401.553L9.31401 402.342L8.88307 404.71L8.73987 405.428L8.66804 406.217L8.5244 407.006L8.30937 409.374L8.23755 410.092V410.881L8.16573 411.67V416.334L8.30937 417.913L8.38119 418.63L8.45258 419.419M65.9981 320.903L67.0745 322.267L66.9309 322.123L66.7159 321.908L66.5722 321.765L66.4286 321.549L66.2849 321.406L66.2135 321.191L66.0699 321.047L65.9981 320.903ZM8.45258 710.949L8.38119 710.303L8.30937 709.729V709.155L8.23755 708.581V707.935L8.16573 707.362V702.626L8.23755 702.052V701.406L8.45258 699.684V699.038L8.59622 697.89L8.73987 697.244L8.88307 696.096L9.02672 695.522L9.09854 694.877L9.24219 694.303L9.31401 693.729L9.60086 692.581L9.7445 691.935L10.175 690.213L10.39 689.567L10.5337 688.993L10.7487 688.419L10.8923 687.845L11.1078 687.271L11.251 686.625L12.112 684.329L12.3275 683.683L12.5425 683.109L12.8298 682.535L13.0448 681.961L13.3321 681.315L13.5471 680.742L13.834 680.167L14.0495 679.593L14.3363 678.948L15.1973 677.226L15.4846 676.58L16.0583 675.432L16.4174 674.858L16.7043 674.212L17.3502 673.064L17.9958 671.844L18.7135 670.696L20.1482 668.256L21.5834 665.961L22.3725 664.741L23.1622 663.593L23.9513 662.373L24.8123 661.225L25.6015 660.005L26.4625 658.857L27.3235 657.637L29.0459 655.341L29.9783 654.121L30.9111 652.973L31.8439 651.754L32.7767 650.605L33.7095 649.386L34.6423 648.238L35.647 647.018L36.5798 645.798L37.584 644.65L38.5886 643.43L39.5933 642.282L49.6388 630.443L51.7194 628.075L53.7283 625.707L55.7375 623.411L57.675 620.972L58.6792 619.824L59.6838 618.604L60.6167 617.456L61.6213 616.236L62.5541 615.088L63.4869 613.868L64.4197 612.72L65.3526 611.5L66.2849 610.353L67.2177 609.133L68.0787 607.985L68.9402 606.765L69.8012 605.617L70.6622 604.397L71.4513 603.249L72.3123 602.101L73.1015 600.881L73.8911 599.733L74.6084 598.513L75.3976 597.365L76.1154 596.145L76.8327 594.997L77.5501 593.778L78.1961 592.63L78.8416 591.41L79.2007 590.836L79.4875 590.262L79.8462 589.616L80.4204 588.468L80.7072 587.822L81.5682 586.1L81.8555 585.454L82.1423 584.88L82.3578 584.306L82.6447 583.732L82.8601 583.087L83.147 582.513L83.5775 581.365L83.8643 580.79L84.0798 580.145L84.7253 578.423L84.869 577.777L85.2995 576.629L85.4431 576.055L85.6581 575.481L85.8018 574.835L86.2323 573.113L86.3759 572.467L86.9496 570.171L87.0215 569.525L87.1651 568.951L87.3087 567.803L87.452 567.157L87.6674 565.435L87.7392 564.79V564.216L87.8106 563.642L87.8824 562.996V562.422L87.9543 561.848V538.528M87.6674 565.148L87.7392 565.794L87.8106 566.368V566.942L87.8824 567.516V568.162L87.9543 568.736V572.898L87.8824 573.472V574.046L87.8106 574.62V575.266L87.6674 576.414L87.5956 577.059L87.3801 578.781L87.3087 579.427L87.2369 580.001L87.0933 580.575L87.0215 581.149L86.8782 581.795L86.7346 582.369L86.6628 582.943L86.5191 583.517L86.3759 584.163L86.0886 585.311L85.8736 585.885L85.73 586.531L85.5863 587.105L85.3713 587.679L85.2276 588.253L85.0126 588.898L84.5821 590.046L84.4385 590.621L84.223 591.266L84.008 591.84L83.7211 592.414L83.5057 593.06L83.2906 593.634L83.0033 594.208L82.7883 594.782L82.501 595.428L82.286 596.002L81.9987 596.576L81.7119 597.222L80.8509 598.944L80.564 599.59L79.9899 600.738L79.3439 601.957L78.6984 603.105L78.0524 604.325L77.4069 605.473L76.6891 606.621L75.9718 607.841L75.254 608.989L74.4648 610.209L73.7475 611.357L72.9583 612.577L72.1687 613.725L71.3077 614.873L70.5185 616.093L69.6575 617.241L68.7965 618.46L67.8637 619.608L67.0027 620.828L66.0699 621.976L65.2089 623.196L64.2761 624.416L63.2715 625.564L62.3386 626.784L61.4058 627.932L60.4016 629.152L59.4688 630.3L58.4642 631.519L57.5314 632.667L56.5267 633.887L54.5179 636.183L48.4905 643.287L46.4098 645.655L42.3917 650.39L41.3871 651.61L40.3824 652.758L39.3778 653.978L38.3736 655.126L37.369 656.346L36.3643 657.494L35.4315 658.714L34.4987 659.862L33.4945 661.081L31.6289 663.377L30.6961 664.597L29.8351 665.745L28.9023 666.965L28.0413 668.113L27.1803 669.333L25.4583 671.629L24.6687 672.849L23.8077 673.997L22.2293 676.436L21.4397 677.584L20.7224 678.804L19.9332 679.952L19.2154 681.172L18.9286 681.746L18.5699 682.32L18.2112 682.966L17.8521 683.54L17.5653 684.114L17.2066 684.688L16.9197 685.334L16.5606 685.908L15.6996 687.63L15.341 688.275L14.7668 689.423L14.5518 689.997L14.2645 690.643L13.6908 691.791L13.4753 692.365L13.1885 692.939L12.973 693.585L12.758 694.159L12.4707 694.733L12.0402 695.881L11.8252 696.527L11.3947 697.675L11.251 698.249L11.036 698.895L10.8205 699.469L10.6769 700.043L10.4619 700.617L10.3182 701.263L10.175 701.837L9.95953 702.411L9.81589 702.985L9.67268 703.631L9.52904 704.204L9.45722 704.778L9.31401 705.353L9.17036 705.998L9.09854 706.572L8.9549 707.146L8.88307 707.792L8.73987 708.366L8.59622 709.514L8.5244 710.16L8.30937 711.882V712.528L8.23755 713.102V713.676L8.16573 714.25V737.569M8.45258 743.31L8.38119 742.735L8.30937 742.09V741.516L8.23755 740.942V740.368L8.16573 739.794V735.058L8.23755 734.412V733.838L8.38119 732.69V732.044L8.59622 730.322L8.73987 729.676L8.88307 728.528L9.02672 727.883L9.09854 727.309L9.24219 726.735L9.31401 726.161L9.45722 725.515L9.88771 723.793L10.0314 723.147L10.175 722.573L10.39 721.999L10.5337 721.425L10.7487 720.779L10.8923 720.205L11.1078 719.631L11.251 719.057L11.4665 718.411L12.3275 716.115L12.5425 715.47L12.8298 714.895L13.0448 714.322L13.3321 713.747L13.5471 713.102L13.834 712.528L14.0495 711.954L14.6236 710.806L14.9105 710.16L15.7715 708.438L16.0583 707.792L16.3456 707.218L16.7043 706.644L16.9911 706.07L17.3502 705.424L17.6371 704.85L18.3544 703.702L18.7135 703.056L19.0004 702.482L19.3591 701.908L20.0769 700.689L20.866 699.541L21.5834 698.321L22.3725 697.101L23.1622 695.953L23.9513 694.733L24.8123 693.585L25.6015 692.437L26.4625 691.217L27.3235 690.069L28.1845 688.849L29.1173 687.702L29.9783 686.482L30.9111 685.334L31.8439 684.114L33.7095 681.818L34.6423 680.598L35.5752 679.45L36.5798 678.23L37.584 677.082L38.5168 675.862L39.5215 674.643L41.5307 672.275L43.6114 669.907L45.6207 667.539L49.7102 662.803L51.7194 660.435L53.7283 658.139L55.7375 655.772L57.675 653.404L58.6792 652.184L59.6838 651.036L60.6167 649.816L61.6213 648.668L62.5541 647.448L63.4869 646.3L65.3526 643.861L66.2849 642.713L67.2177 641.493L68.0787 640.345L68.9402 639.125L69.8012 637.977L70.6622 636.757L71.5231 635.609L72.3123 634.461L73.1015 633.241L73.8911 632.093L74.6803 630.874L75.3976 629.726L76.1154 628.506L76.8327 627.358L77.5501 626.138L78.8416 623.842L80.1335 621.402L80.9945 619.68L81.2814 619.034L81.8555 617.886L82.1423 617.241L82.3578 616.667L82.9315 615.518L83.147 614.873L83.362 614.299L83.6493 613.725L83.8643 613.151L84.0798 612.505L84.7253 610.783L84.869 610.137L85.2995 608.989L85.4431 608.415L85.6581 607.769L86.0886 606.047L86.3041 605.473L86.4478 604.827L86.5191 604.254L86.8064 603.105L86.9496 602.46L87.0215 601.886L87.1651 601.312L87.3087 600.164L87.452 599.518L87.6674 597.796L87.7392 597.15V596.576L87.8824 595.428V594.782L87.9543 594.208V570.889M8.45258 451.851L8.30937 450.775L8.23755 449.771L8.16573 448.694V443.528L8.30937 441.519L8.45258 440.443L8.5244 439.438L8.66804 438.434L8.81169 437.358L9.02672 436.353L9.17036 435.349L9.38539 434.272L9.67268 433.268L9.88771 432.263L10.175 431.187L10.7487 429.178L11.1078 428.101L11.4665 427.097L11.8252 426.021L12.1838 425.016L12.6143 423.94L13.4753 421.931L13.9058 420.855L14.3363 419.85L14.8386 418.774L15.8433 416.765L16.4174 415.688L16.9197 414.684L17.4934 413.679L18.0676 412.603L18.6417 411.599L19.2872 410.594L19.9332 409.518L20.5074 408.513L21.1529 407.509L21.8707 406.432L22.5162 405.428L23.2335 404.423L23.8795 403.347L25.3146 401.338L26.1038 400.262L26.8212 399.257L27.6108 398.181L28.3281 397.176L29.1173 396.1L29.9069 395.096L30.7679 394.091L31.5571 393.015L32.3462 392.01L33.1354 390.934L34.8578 388.925L35.647 387.849L37.369 385.839L40.8129 381.678L42.5349 379.669L44.3287 377.588L46.0512 375.507L47.845 373.498L53.2264 367.256L56.6704 363.094L57.5314 362.089L58.3923 361.013L60.1143 359.004L60.9753 357.928L61.7649 356.923L62.6259 355.919L63.4151 354.842L64.2761 353.838L65.0653 352.833L65.8544 351.757L66.644 350.752L67.4332 349.676L69.0116 347.667L69.7293 346.591L70.4467 345.586L71.2359 344.51L71.9536 343.506L72.671 342.429L73.317 341.425L74.0343 340.42L74.6803 339.344L75.3258 338.339L75.9718 337.263L76.6173 336.259L77.1914 335.254L77.8374 334.178L78.9852 332.169L79.5594 331.092L80.564 329.083L81.0663 328.007L81.5682 327.002L82.0705 325.926L82.9315 323.917L83.362 322.841L83.7925 321.836L84.1516 320.76L84.5103 319.756L84.6539 319.469L84.7253 319.325V319.253L84.7971 319.11L84.869 319.038L85.0126 318.894V318.751L85.0844 318.679H85.1558L85.2276 318.608L85.2995 318.536H85.3713L85.4431 318.464H85.73V318.536H85.8018L85.8736 318.608L85.9454 318.679L86.0168 318.751V318.823L86.0886 318.894L86.1605 318.966V319.038L86.2323 319.181L86.3041 319.253V319.397L86.3759 319.54V319.612L86.4478 319.756V319.899L86.5191 320.042V320.401L86.591 320.688V321.047L86.6628 321.406V323.2L86.591 323.558V323.845L86.5191 324.204V324.348L86.4478 324.491V324.778L86.1605 325.854L85.8736 326.859L85.5863 327.935L85.2995 328.94L84.9408 330.016L84.5821 331.021L84.223 332.097L83.8643 333.101L83.4338 334.178L83.0033 335.182L82.5728 336.259L82.1423 337.263L81.64 338.268L81.1377 339.344L80.6354 340.349L80.1335 341.425L79.5594 342.429L79.0571 343.434L78.4829 344.51L77.9092 345.515L77.2632 346.591L76.6891 347.595L76.0436 348.672L75.3976 349.676L74.7521 350.752L74.0343 351.757L73.3888 352.833L72.671 353.838L71.9536 354.914L71.2359 355.919L70.5185 356.995L69.7293 358L69.0116 359.076L68.2224 360.08L67.4332 361.157L65.8544 363.166L65.0653 364.242L64.2761 365.247L63.4869 366.323L62.6259 367.327L61.8363 368.332L60.9753 369.408L60.1143 370.413L59.2533 371.489L57.5314 373.498L56.6704 374.574L54.9484 376.655L45.9793 387.059L44.2574 389.14L42.4635 391.221L40.6697 393.23L37.2253 397.391L36.3643 398.396L35.5033 399.472L34.7142 400.477L33.8532 401.553L33.064 402.558L32.2026 403.634L31.4134 404.639L30.5524 405.715L29.7632 406.719L28.9741 407.796L28.1845 408.8L27.3953 409.877L26.6779 410.881L25.8888 411.957L25.171 412.962L24.4536 414.038L23.7359 415.043L23.0185 416.119L22.3725 417.123L21.6552 418.128L21.0092 419.204L20.3637 420.209L19.7177 421.285L19.144 422.29L18.4981 423.294L17.9239 424.37L17.3502 425.375L16.7761 426.451L16.202 427.456L15.6996 428.532L14.6954 430.541L14.1931 431.617L13.7626 432.622L13.2603 433.698L12.8298 434.703L12.4707 435.779L12.0402 436.855L11.6815 437.86L11.3228 438.936L10.9642 439.941L10.6769 441.017L10.3182 442.021L10.0314 443.026L9.81589 444.102L9.52904 445.107L9.31401 446.183L9.09854 447.188L8.9549 448.192L8.73987 449.268L8.59622 450.273L8.5244 451.349L8.38119 452.354L8.30937 453.43L8.16573 455.439V478.472M87.6674 338.483L87.8106 339.631V340.205L87.8824 340.851V341.425L87.9543 341.999V346.16L87.8824 346.734V347.308L87.8106 347.882V348.528L87.6674 349.676L87.5956 350.322V350.896L87.452 351.47L87.3801 352.044L87.3087 352.69L87.2369 353.264L87.0933 353.838L87.0215 354.484L86.7346 355.632L86.6628 356.206L86.5191 356.851L86.0886 358.573L85.8736 359.219L85.5863 360.367L85.3713 360.941L85.2276 361.587L84.7971 362.735L84.6539 363.309L84.4385 363.883L84.223 364.529L83.7925 365.677L83.5057 366.251L83.2906 366.897L83.0752 367.471L82.7883 368.045L82.5728 368.619L82.286 369.193L82.0705 369.839L81.2095 371.561L80.9227 372.207L80.0617 373.929L79.703 374.502L79.4157 375.148L79.1289 375.722L78.7702 376.296L78.4829 376.942L77.4069 378.664L77.0478 379.31L76.7609 379.884L75.9718 381.104L75.254 382.252L74.5366 383.471L73.7475 384.62L72.9583 385.839L72.1687 386.988L71.3077 388.207L70.5185 389.355L69.6575 390.575L67.9355 392.871L67.0027 394.091L66.1417 395.239L65.2089 396.459L64.2761 397.607L63.3433 398.827L62.4105 399.975L61.4776 401.194L60.473 402.342L59.5406 403.562L58.536 404.71L57.5314 405.93L56.5267 407.078L54.5179 409.446L52.5086 411.886L50.4998 414.253L46.4098 418.917L38.3736 428.389L37.4408 429.537L36.4362 430.756L35.5033 431.904L34.4987 433.124L33.5659 434.272L32.6335 435.492L31.6289 436.712L30.6961 437.86L29.8351 439.08L28.9023 440.228L28.0413 441.447L27.1803 442.596L26.3193 443.815L25.4583 444.963L24.5968 446.183L23.8077 447.331L23.0185 448.551L21.4397 450.847L20.7224 452.067L20.005 453.215L19.2872 454.435L18.5699 455.583L17.9239 456.802L17.2066 457.95L16.6324 459.17L15.9869 460.318L15.6996 460.892L15.4128 461.538L14.8386 462.686L14.5518 463.332L13.9776 464.48L13.6908 465.126L13.4753 465.7L13.1885 466.274L12.973 466.848L12.6862 467.494L12.0402 469.216L11.8252 469.861L11.1792 471.583L11.036 472.229L10.8205 472.803L10.6769 473.377L10.4619 473.951L10.3182 474.525L10.175 475.171L9.95953 475.745L9.67268 476.893L9.52904 477.539L9.45722 478.113L9.17036 479.261L9.09854 479.835L8.9549 480.481L8.88307 481.055L8.73987 481.629L8.66804 482.203L8.59622 482.849L8.30937 485.145V485.79L8.23755 486.364V486.938L8.16573 487.512V510.904M87.6674 629.941L87.7392 630.945L87.8824 632.022V633.026L87.9543 634.103V637.188L87.8824 638.192V639.197L87.8106 640.273L87.6674 641.278L87.5956 642.282L87.452 643.358L87.3087 644.363L87.0933 645.367L86.8782 646.444L86.6628 647.448L86.4478 648.525L86.2323 649.529L85.9454 650.605L85.6581 651.61L85.2995 652.615L85.0126 653.691L84.6539 654.695L84.2948 655.772L83.9362 656.776L83.5057 657.781L83.0752 658.857L82.6447 659.862L82.2142 660.938L81.7119 661.942L81.2814 662.947L80.779 664.023L80.2767 665.028L79.703 666.032L79.2007 667.108L78.0524 669.117L77.4069 670.194L76.8327 671.198L76.1868 672.203L75.5413 673.279L74.2498 675.288L73.6038 676.365L72.8865 677.369L72.1687 678.445L71.4513 679.45L70.734 680.526L70.0162 681.531L69.227 682.607L68.5097 683.612L67.7201 684.616L66.9309 685.692L66.1417 686.697L65.3526 687.773L63.7738 689.782L62.9128 690.858L62.1236 691.863L61.2626 692.868L60.4016 693.944L59.612 694.948L58.751 695.953L57.89 697.029L57.029 698.034L55.3071 700.115L53.5132 702.124L51.7913 704.204L44.616 712.528L42.894 714.609L41.1002 716.618L37.6558 720.779L35.9338 722.788L35.1447 723.865L34.2837 724.869L33.4945 725.874L32.6335 726.95L31.0547 728.959L30.1937 730.035L29.4046 731.04L28.615 732.116L27.8976 733.121L27.1084 734.197L26.3193 735.202L25.6015 736.278L24.1664 738.287L23.449 739.363L22.7317 740.368L22.0857 741.444L21.4397 742.448L20.7224 743.453L20.1482 744.529L18.8568 746.538L18.283 747.615L16.5606 750.628L16.0583 751.704L15.5564 752.709L15.0541 753.785L14.0495 755.794L13.619 756.871L12.758 758.88L12.3275 759.956L11.9688 760.961L11.5383 762.037V762.18L11.4665 762.252L11.3947 762.395V762.539L11.3228 762.611L11.251 762.754L11.1792 762.826L11.1078 762.898L10.9642 763.041V763.113L10.8205 763.257H10.6769L10.6055 763.328H10.5337L10.4619 763.257H10.3182V763.185H10.2464L10.175 763.113L10.1032 763.041L10.0314 762.97V762.898L9.95953 762.826L9.88771 762.683V762.611L9.81589 762.539V762.395L9.7445 762.252V762.109L9.67268 761.965V761.822L9.60086 761.678V761.391L9.52904 761.032V760.745L9.45722 760.386V758.593L9.52904 758.234V757.875L9.60086 757.588V757.229L9.67268 757.086V756.942L9.95953 755.938L10.2464 754.862L10.5337 753.857L10.8205 752.781L11.1792 751.776L11.5383 750.7L11.897 749.695L12.2557 748.619L13.1167 746.61L13.5471 745.534L13.9776 744.529L14.48 743.453L15.4846 741.444L15.9869 740.368L16.4892 739.363L17.0629 738.287L18.2112 736.278L18.8568 735.202L19.4309 734.197L20.0769 733.121L20.7224 732.116L21.3683 731.04L22.0857 730.035L22.7317 728.959L23.449 727.883L24.1664 726.878L24.8841 725.802L25.6015 724.797L26.3907 723.793L27.1084 722.716L27.8976 721.712L28.615 720.636L29.4046 719.631L30.1937 718.555L31.0547 717.55L31.8439 716.546L32.6335 715.47L33.4945 714.465L34.2837 713.389L36.0057 711.38L36.8667 710.303L37.7276 709.299L38.5886 708.223L39.4496 707.218L41.1716 705.137L48.3468 696.814L50.0693 694.733L53.6569 690.572L55.3789 688.491L57.1727 686.41L58.8947 684.401L59.7557 683.325L60.5448 682.32L61.4058 681.244L62.2668 680.239L63.0564 679.235L63.9174 678.158L64.7066 677.154L65.4958 676.077L66.3568 675.073L67.9355 672.92L68.6529 671.916L69.442 670.84L70.1598 669.835L70.949 668.759L72.3841 666.75L73.1015 665.673L73.7475 664.669L74.4648 663.593L75.1108 662.588L75.7563 661.512L76.4023 660.507L76.9764 659.503L77.6219 658.426L78.1961 657.422L78.7702 656.346L79.3439 655.341L79.8462 654.337L80.4204 653.26L80.9227 652.256L81.425 651.179L81.9273 650.175L82.3578 649.099L82.7883 648.094L83.2188 647.018L83.6493 646.013L84.0798 644.937L84.4385 643.933L84.7971 642.856L85.1558 641.852L85.4431 640.775L85.73 639.771L86.0168 638.695L86.3041 637.69L86.5191 636.614L86.8064 635.609L87.0215 634.605L87.1651 633.528L87.3087 632.524L87.5238 631.447L87.5956 630.443L87.7392 629.438L87.8106 628.362L87.8824 627.358L87.9543 626.281V603.249M8.45258 516.572L8.30937 515.424V514.85L8.23755 514.204V513.63L8.16573 513.056V508.321L8.23755 507.675V507.101L8.38119 505.953L8.45258 505.307V504.733L8.5244 504.159L8.59622 503.513L8.73987 502.939L8.88307 501.791L9.02672 501.145L9.09854 500.571L9.24219 499.997L9.31401 499.423L9.45722 498.849L9.60086 498.204L10.0314 496.481L10.175 495.836L10.39 495.262L10.5337 494.688L10.7487 494.114L10.8923 493.54L11.1078 492.894L11.251 492.32L11.897 490.598L12.112 489.952L12.5425 488.804L12.8298 488.23L13.0448 487.584L13.3321 487.01L13.5471 486.436L13.834 485.862L14.0495 485.216L14.9105 483.494L15.1973 482.849L16.0583 481.127L16.4174 480.481L16.7043 479.907L17.3502 478.687L17.9958 477.539L18.7135 476.319L19.4309 475.171L20.1482 473.951L20.866 472.803L21.5834 471.583L22.3725 470.435L23.1622 469.216L24.7405 466.919L25.6015 465.7L26.4625 464.552L27.3235 463.332L28.1845 462.184L29.0459 460.964L29.9783 459.816L30.9111 458.596L31.8439 457.448L32.7767 456.228L33.7095 455.08L34.6423 453.861L35.647 452.713L36.5798 451.493L37.584 450.345L38.5886 449.125L39.5933 447.977L49.6388 436.138L51.7194 433.77L55.7375 429.034L57.675 426.667L58.6792 425.518L59.6838 424.299L60.6167 423.079L61.6213 421.931L62.5541 420.711L63.4869 419.563L64.4197 418.343L65.3526 417.195L66.2849 415.975L67.1464 414.827L68.0787 413.679L68.9402 412.459L69.8012 411.311L70.6622 410.092L71.4513 408.944L72.3123 407.724L73.8911 405.428L74.6084 404.208L75.3976 403.06L76.1154 401.84L76.8327 400.692L77.5501 399.472L78.1961 398.324L78.8416 397.105L79.2007 396.53L79.4875 395.885L79.8462 395.311L80.1335 394.737L80.4204 394.091L81.2814 392.369L81.5682 391.723L82.1423 390.575L82.3578 390.001L82.6447 389.355L82.8601 388.781L83.147 388.207L83.5775 387.059L83.8643 386.413L84.5103 384.691L84.7253 384.046L84.869 383.471L85.2995 382.323L85.4431 381.75L85.6581 381.104L86.2323 378.808L86.3759 378.162L86.8064 376.44L86.9496 375.794L87.0215 375.22L87.1651 374.646L87.2369 374.072L87.3087 373.426L87.452 372.852L87.5956 371.704L87.6674 371.058L87.7392 370.484V369.91L87.8106 369.265L87.8824 368.691V368.117L87.9543 367.542V344.151M87.6674 370.843L87.7392 371.417L87.8106 372.063V372.637L87.8824 373.211V373.785L87.9543 374.431V378.521L87.8824 379.167V379.74L87.8106 380.314V380.96L87.5956 382.682L87.5238 383.328L87.3087 385.05L87.2369 385.696L87.0933 386.27L87.0215 386.844L86.8782 387.418L86.7346 388.064L86.6628 388.638L86.3759 389.786L86.2323 390.431L86.0886 391.006L85.8736 391.58L85.5863 392.728L85.3713 393.373L85.2276 393.947L84.7971 395.096L84.6539 395.741L83.7925 398.037L83.5057 398.683L83.0752 399.831L82.7883 400.405L82.5728 401.051L82.286 401.625L82.0705 402.199L81.4968 403.347L81.2095 403.993L80.6354 405.141L80.3485 405.787L80.0617 406.361L79.703 406.935L79.4157 407.509L78.1242 409.948L77.4069 411.096L76.6891 412.316L75.9718 413.464L75.254 414.684L74.5366 415.832L73.7475 417.052L72.1687 419.348L71.3077 420.568L70.5185 421.716L69.6575 422.935L68.7965 424.083L67.9355 425.303L67.0027 426.451L66.1417 427.671L64.2761 429.967L63.3433 431.187L62.4105 432.335L61.4776 433.555L60.473 434.775L59.5406 435.922L58.536 437.142L57.5314 438.29L56.5267 439.51L50.4998 446.614L46.4817 451.278L44.4006 453.645L38.3736 460.749L37.4408 461.969L36.4362 463.117L35.4315 464.337L34.4987 465.556L33.5659 466.704L32.5617 467.924L31.6289 469.072L30.7679 470.292L28.9023 472.588L28.0413 473.808L27.1803 474.956L26.3193 476.176L25.4583 477.324L24.6687 478.543L23.8077 479.691L23.0185 480.911L22.2293 482.059L21.5116 483.207L20.7224 484.427L20.005 485.575L19.2872 486.795L18.5699 487.943L17.9239 489.163L17.2066 490.383L16.6324 491.53L16.2738 492.105L15.9869 492.75L15.4128 493.898L15.1259 494.544L14.2645 496.266L13.9776 496.912L13.6908 497.486L13.4753 498.06L13.1885 498.634L12.973 499.208L12.758 499.854L12.4707 500.428L12.0402 501.576L11.8252 502.222L11.3947 503.37L11.251 503.944L11.036 504.518L10.8205 505.164L10.6769 505.738L10.4619 506.312L10.3182 506.886L10.175 507.531L10.0314 508.105L9.81589 508.679L9.52904 509.827L9.45722 510.473L9.17036 511.621L9.09854 512.195L8.9549 512.841L8.88307 513.415L8.73987 513.989L8.66804 514.563L8.59622 515.209L8.38119 516.931L8.30937 517.577V518.151L8.23755 518.725V519.37L8.16573 519.945V543.264M87.6674 662.301L87.8824 664.669V665.458L87.9543 666.247V670.122L87.8824 670.911V671.629L87.6674 673.997L87.5238 674.786L87.452 675.504L87.3087 676.293L87.2369 677.082L86.8064 679.45L86.591 680.167L86.4478 680.957L85.1558 685.692L84.5821 687.271L84.3667 687.988L84.0798 688.778L83.7211 689.567L83.147 691.145L82.7883 691.935L82.501 692.724L82.1423 693.442L81.0663 695.809L80.6354 696.599L80.2767 697.316L79.8462 698.105L79.4875 698.895L78.6266 700.473L78.1961 701.191L77.3351 702.769L76.8327 703.559L76.4023 704.348L75.8999 705.137L75.3976 705.855L72.3841 710.59L71.81 711.38L71.2359 712.097L70.734 712.886L66.7159 718.411L65.4958 719.918L63.0564 723.075L61.8363 724.582L59.2533 727.739L57.9619 729.246L55.3789 732.403L54.0156 733.982L52.7241 735.488L48.6341 740.224L45.9793 743.31L44.616 744.888L43.3245 746.466L41.9612 747.973L39.3778 751.131L38.0863 752.637L35.5033 755.794L34.2119 757.301L31.7721 760.458L30.4806 762.037L30.4088 762.18L30.2656 762.252L30.1937 762.395L30.0501 762.539L29.9069 762.611L29.7632 762.754L28.7586 763.257H28.3999L28.2563 763.328H28.1131L27.8976 763.257H27.6108L27.4671 763.185H27.2521L27.1084 763.113L26.9648 763.041L26.8212 762.97L26.6779 762.898L26.5343 762.826L26.3907 762.683L26.3193 762.611L26.1756 762.539L26.032 762.395L25.9602 762.252L25.817 762.109L25.6733 761.822L25.5297 761.678L25.4583 761.534L25.3146 761.248L25.2428 761.032V760.889L25.171 760.745L25.0992 760.53V760.386L25.0273 760.171V758.736L25.0992 758.593V758.377L25.2428 758.091L25.3146 757.875V757.732L25.3865 757.588L25.5297 757.373L25.7451 756.942L28.0413 753.785L28.6868 752.996L29.2609 752.279L34.14 745.964L35.4315 744.386L36.723 742.879L40.5979 738.143L41.9612 736.565L43.3245 735.058L44.616 733.479L51.4326 725.587L52.7241 724.008L55.4507 720.851L56.7422 719.344L60.6167 714.609L61.9081 713.102L64.3479 709.945L65.6394 708.366L66.7872 706.787L67.4332 705.998L70.8772 701.263L71.3795 700.473L71.9536 699.684L72.456 698.966L73.0297 698.177L76.5459 692.652L76.9764 691.863L77.4787 691.074L78.3397 689.495L78.7702 688.778L79.6312 687.199L79.9899 686.41L80.4204 685.621L80.779 684.831L81.2095 684.042L81.9273 682.464L82.286 681.746L82.6447 680.957L82.9315 680.167L83.2906 679.378L85.0126 674.643L85.2276 673.853L85.5149 673.064L86.3759 669.907L86.5191 669.117L86.7346 668.328L87.0215 666.75L87.1651 666.032L87.3087 665.243L87.3801 664.454L87.5238 663.664L87.9543 658.929V635.681M8.45258 549.004L8.38119 548.358L8.30937 547.784V547.21L8.23755 546.636V546.062L8.16573 545.417V540.681L8.23755 540.107V539.533L8.30937 538.959L8.38119 538.313V537.739L8.5244 536.591L8.59622 535.945L8.73987 535.371L8.81169 534.797L8.88307 534.151L9.02672 533.577L9.09854 533.003L9.24219 532.429L9.31401 531.784L9.7445 530.062L9.88771 529.416L10.175 528.268L10.39 527.694L10.5337 527.048L10.7487 526.474L10.8923 525.9L11.1078 525.326L11.251 524.68L12.112 522.384L12.3275 521.738L12.5425 521.164L12.8298 520.59L13.0448 520.016L13.3321 519.37L13.5471 518.796L13.834 518.222L14.0495 517.648L14.3363 517.075L14.6236 516.429L15.4846 514.707L15.7715 514.061L16.3456 512.913L16.7043 512.339L16.9911 511.693L17.3502 511.119L17.6371 510.545L17.9958 509.971L18.3544 509.325L18.7135 508.751L19.0004 508.177L19.3591 507.531L20.0769 506.383L20.866 505.164L21.5834 504.016L22.3725 502.796L23.1622 501.648L23.9513 500.428L24.8123 499.28L25.6015 498.06L26.4625 496.912L27.3235 495.692L28.1845 494.544L29.1173 493.396L29.9783 492.176L30.9111 491.028L31.8439 489.808L32.7767 488.66L33.7095 487.441L34.6423 486.293L35.5752 485.073L36.5798 483.925L37.584 482.705L38.5886 481.557L39.5215 480.337L41.5307 477.969L43.6114 475.601L45.6207 473.234L49.7102 468.498L53.7283 463.762L55.7375 461.466L57.675 459.099L58.6792 457.879L59.6838 456.731L60.6167 455.511L61.6213 454.363L63.4869 451.923L64.4197 450.775L65.3526 449.556L66.2849 448.407L67.2177 447.188L68.0787 446.04L68.9402 444.82L69.8012 443.672L70.6622 442.452L71.5231 441.304L72.3123 440.084L73.8911 437.788L74.6803 436.568L75.3976 435.42L76.1154 434.2L76.8327 433.052L77.5501 431.833L78.1961 430.685L78.8416 429.465L79.4875 428.317L80.1335 427.097L80.7072 425.949L80.9945 425.303L81.5682 424.155L81.8555 423.509L82.1423 422.935L82.3578 422.361L82.6447 421.787L82.9315 421.141L83.362 419.993L83.6493 419.419L83.8643 418.774L84.5103 417.052L84.7253 416.406L84.869 415.832L85.2995 414.684L85.4431 414.11L85.6581 413.464L86.0886 411.742L86.3041 411.096L86.4478 410.522L86.5191 409.948L86.8064 408.8L86.9496 408.154L87.0215 407.58L87.1651 407.006L87.2369 406.432L87.3087 405.787L87.452 405.212L87.6674 403.49L87.7392 402.845V402.271L87.8824 401.123V400.477L87.9543 399.903V376.583M87.6674 403.275L87.8106 404.423V404.997L87.8824 405.643V406.217L87.9543 406.791V410.953L87.8824 411.527V412.172L87.8106 412.747V413.32L87.7392 413.895L87.6674 414.54L87.452 416.262L87.3801 416.908L87.2369 418.056L87.0933 418.63L87.0215 419.204L86.8782 419.85L86.7346 420.424L86.6628 420.998L86.5191 421.572L86.3759 422.218L86.0886 423.366L85.8736 423.94L85.73 424.514L85.5863 425.16L85.3713 425.734L85.2276 426.308L85.0126 426.882L84.7971 427.528L84.6539 428.101L84.008 429.824L83.7925 430.469L83.5057 431.043L83.0752 432.191L82.7883 432.837L82.5728 433.411L82.286 433.985L81.9987 434.631L81.7837 435.205L81.2095 436.353L80.9227 436.999L80.3485 438.147L79.9899 438.793L79.4157 439.941L78.7702 441.16L78.1242 442.308L77.4069 443.528L75.9718 445.824L75.254 447.044L74.5366 448.192L73.7475 449.412L72.9583 450.56L72.1687 451.78L71.3077 452.928L70.5185 454.148L68.7965 456.444L67.9355 457.663L67.0027 458.811L66.1417 460.031L65.2089 461.179L63.3433 463.619L62.4105 464.767L61.4058 465.987L60.473 467.135L59.4688 468.355L58.536 469.503L57.5314 470.722L56.5267 471.87L46.4817 483.709L44.4006 486.077L40.3824 490.813L39.3778 491.961L37.369 494.401L36.4362 495.549L35.4315 496.768L33.5659 499.065L32.5617 500.284L31.6289 501.432L30.7679 502.652L29.8351 503.8L28.9023 505.02L28.0413 506.168L27.1803 507.388L25.4583 509.684L24.6687 510.904L23.8077 512.052L23.0185 513.271L22.2293 514.419L21.4397 515.639L20.7224 516.787L19.2872 519.227L18.2112 520.949L17.8521 521.595L17.5653 522.169L17.2066 522.743L16.9197 523.317L16.5606 523.963L15.6996 525.685L15.4128 526.33L14.5518 528.053L14.2645 528.698L13.9776 529.272L13.7626 529.846L13.1885 530.994L12.973 531.64L12.758 532.214L12.4707 532.788L12.2557 533.362L12.0402 534.008L11.3947 535.73L11.251 536.304L11.036 536.95L10.8205 537.524L10.6769 538.098L10.4619 538.672L10.3182 539.318L10.0314 540.466L9.81589 541.04L9.67268 541.614L9.60086 542.259L9.31401 543.407L9.17036 544.053L9.09854 544.627L8.9549 545.201L8.88307 545.775L8.73987 546.421L8.59622 547.569L8.5244 548.215L8.30937 549.937V550.583L8.23755 551.157V551.731L8.16573 552.305V575.624M87.6674 694.733L87.7392 695.235V695.738L87.8106 696.312L87.8824 696.814V697.89L87.9543 698.393V700.473M87.9543 700.473V702.554L87.8824 703.128V704.133L87.8106 704.707L87.7392 705.209V705.711L87.6674 706.214L87.5956 706.787L87.452 707.792L87.3801 708.366L87.2369 709.371L87.1651 709.945L87.0215 710.447L86.9496 710.949L86.8782 711.523L86.7346 712.025L86.591 712.6L86.3759 713.604L85.8018 715.756L85.5149 716.761L85.2276 717.837L84.869 718.914L84.5103 719.918L84.1516 720.994L83.7211 722.071L83.2906 723.075L82.4292 725.228L81.9273 726.232L81.4968 727.309L80.9945 728.313L80.4204 729.39L79.918 730.466L79.3439 731.47L78.1961 733.623L77.6219 734.627L75.6849 737.856L75.0389 738.861L74.393 739.937L73.6756 741.013L72.9583 742.018L71.5231 744.171L70.8054 745.175L70.0162 746.251L69.2988 747.328L68.5097 748.332L67.7201 749.408L66.9309 750.413L65.3526 752.565L64.4911 753.57L63.702 754.646L62.841 755.723L61.98 756.727L60.258 758.88L59.397 759.884L57.675 762.037L57.3159 762.395L57.1727 762.539L57.029 762.611L56.8854 762.754L56.7422 762.826L56.5985 762.898L56.3835 762.97L56.2399 763.041L56.0244 763.113L55.8812 763.185L55.6657 763.257H55.3071L55.1634 763.328H54.9484L54.8047 763.257H54.4461L54.2306 763.185H54.0874L53.8719 763.113L53.7283 763.041L53.5132 762.97L53.2264 762.826L53.0827 762.683L52.7959 762.539L52.5086 762.252L52.2218 761.965L52.1499 761.822L52.0063 761.678L51.9345 761.534L51.8631 761.391L51.7194 761.248L51.6476 761.032L51.5758 760.889V760.745L51.504 760.53L51.4326 760.386V760.171L51.3608 760.028V758.952L51.4326 758.736V758.593L51.504 758.377L51.6476 758.091L51.7194 757.875L51.8631 757.588L51.9345 757.373L52.0781 757.229L52.1499 757.086L52.2936 756.942L54.0874 754.862L55.0202 753.785L55.8812 752.709L56.814 751.633L58.536 749.48L59.4688 748.476L62.0518 745.247L62.9128 744.242L63.702 743.166L64.5629 742.09L65.3526 741.013L66.2135 740.009L68.5811 736.78L69.3707 735.775L70.1598 734.699L70.8772 733.623L71.6664 732.547L73.1015 730.394L73.8193 729.39L74.4648 728.313L75.1826 727.237L77.1196 724.008L77.7656 723.004L80.0617 718.698L80.564 717.694L81.1377 716.618L81.64 715.541L82.0705 714.465L82.5728 713.461L83.8643 710.232L84.223 709.227L84.6539 708.151L85.0126 707.075L85.2995 705.998L85.6581 704.922L85.9454 703.917L86.2323 702.841L86.4478 701.765L86.591 701.191L86.7346 700.689L86.8064 700.115L86.9496 699.612L87.0215 699.11L87.1651 698.536L87.2369 698.034L87.3087 697.46L87.452 696.455L87.5238 695.881L87.5956 695.379L87.6674 694.805L87.7392 694.303V693.8L87.8106 693.226L87.8824 692.724V691.648L87.9543 691.145V668.041M87.9543 700.473V723.578L87.8824 724.152V724.726L87.8106 725.3V725.802L87.5956 727.524V728.098L87.5238 728.6L87.3801 729.174L87.1651 730.896L87.0215 731.399L86.9496 731.973L86.8064 732.547L86.7346 733.121L86.591 733.623L86.1605 735.345L86.0168 735.847L85.5863 737.569L85.4431 738.072L85.2276 738.645L85.0844 739.22L84.869 739.722L84.7253 740.296L84.2948 741.444L84.0798 741.946L83.9362 742.52L83.7211 743.094L83.5057 743.596L83.2188 744.171L83.0033 744.744L82.5728 745.821L82.0705 746.969L81.5682 748.045L80.9945 749.193L80.4922 750.27L79.918 751.417L79.3439 752.494L78.6984 753.642L78.1242 754.718L77.4787 755.866L76.8327 756.942L76.6891 757.086L76.6173 757.229L76.5459 757.373L76.4741 757.588V757.732L76.4023 757.875L76.3304 758.091V758.234L76.2586 758.377V758.593L76.1868 758.736V759.095L76.1154 759.31V759.669L76.1868 759.813V760.386L76.2586 760.53V760.745L76.4023 761.032V761.248L76.5459 761.534L76.6173 761.678L76.7609 761.965L76.9046 762.109L76.9764 762.252L77.0478 762.395L77.1196 762.539L77.2632 762.611L77.4787 762.826L77.5501 762.898L77.6937 762.97L77.7656 763.041L77.9092 763.113L78.0524 763.185H78.1242L78.2679 763.257H78.4829L78.6266 763.328H78.7702L78.8416 763.257H79.1289L79.2007 763.185L79.3439 763.113L79.4157 763.041L79.5594 762.97L79.6312 762.898L79.7744 762.826L79.8462 762.754L79.918 762.611L79.9899 762.539L80.1335 762.395L80.2049 762.252L80.2767 762.18L80.3485 762.037L80.8509 760.961L81.425 759.813L82.4292 757.66L82.8601 756.584L83.2906 755.436L84.1516 753.283L84.3667 752.709L84.5103 752.207L84.7253 751.633L84.9408 751.131L85.0844 750.556L85.2995 750.054L85.5863 748.906L85.73 748.404L85.8736 747.83L86.0168 747.328L86.1605 746.754L86.3041 746.251L86.591 745.103L86.6628 744.601L86.8064 744.027L86.9496 743.525L87.0215 742.951L87.0933 742.448L87.2369 741.874L87.3087 741.301L87.3801 740.798L87.452 740.224L87.5238 739.722L87.6674 738.574L87.7392 738.072V737.497L87.8106 736.995L87.8824 736.421V735.345L87.9543 734.771V730.394L87.8824 729.82V729.318L87.8106 728.744V728.17L87.7392 727.667L87.6674 727.093M8.45258 581.365L8.30937 580.216V579.571L8.23755 578.997V578.423L8.16573 577.849V573.113L8.23755 572.539V571.965L8.30937 571.319L8.38119 570.745V570.171L8.45258 569.597L8.5244 568.951L8.59622 568.377L8.73987 567.803L8.81169 567.229L8.88307 566.584L9.02672 566.009L9.09854 565.435L9.24219 564.79L9.31401 564.216L9.60086 563.068L9.7445 562.422L10.0314 561.274L10.175 560.628L10.39 560.054L10.5337 559.48L10.7487 558.906L10.8923 558.26L11.1078 557.686L11.251 557.112L11.4665 556.538L11.6815 555.892L12.3275 554.17L12.5425 553.525L12.8298 552.951L13.0448 552.377L13.3321 551.803L13.5471 551.228L13.834 550.583L14.0495 550.009L14.6236 548.861L14.9105 548.215L16.0583 545.919L16.3456 545.273L16.7043 544.699L16.9911 544.125L17.3502 543.551L17.6371 542.905L17.9958 542.331L18.6417 541.183L19.3591 539.963L20.0769 538.815L20.7942 537.596L21.5834 536.447L23.1622 534.008L23.9513 532.86L24.8123 531.64L25.6015 530.492L26.4625 529.272L27.3235 528.124L28.1845 526.905L29.1173 525.756L29.9783 524.537L30.9111 523.389L31.8439 522.169L33.7095 519.873L34.6423 518.653L35.647 517.505L36.5798 516.285L37.584 515.137L38.5168 513.917L39.5215 512.769L40.5261 511.549L41.5307 510.401L42.5349 509.182L43.5396 508.034L45.6207 505.594L47.6295 503.226L49.7102 500.858L51.7194 498.49L53.7283 496.195L55.7375 493.827L56.7422 492.607L57.7468 491.459L58.6792 490.239L59.6838 489.091L60.6167 487.871L61.6213 486.723L62.5541 485.503L63.4869 484.355L64.4197 483.136L65.3526 481.988L66.2849 480.768L67.2177 479.62L68.0787 478.4L68.9402 477.252L70.6622 474.812L71.5231 473.664L72.3123 472.445L73.8911 470.148L74.6803 468.929L75.3976 467.78L76.1154 466.561L76.8327 465.413L77.5501 464.193L78.1961 463.045L78.8416 461.825L79.4875 460.677L79.8462 460.103L80.1335 459.529L80.4204 458.883L81.2814 457.161L81.5682 456.516L82.1423 455.367L82.3578 454.793L82.6447 454.148L82.8601 453.574L83.147 453L83.362 452.354L83.6493 451.78L83.8643 451.206L84.0798 450.56L84.7253 448.838L84.9408 448.192L85.0844 447.618L85.2995 447.044L85.4431 446.47L85.6581 445.824L85.9454 444.676L86.1605 444.102L86.3041 443.457L86.591 442.308L86.6628 441.735L86.8064 441.16L86.9496 440.515L87.0215 439.941L87.1651 439.367L87.2369 438.793L87.3087 438.147L87.452 437.573L87.6674 435.851L87.7392 435.205V434.631L87.8824 433.483V432.837L87.9543 432.263V408.944M87.6674 435.636L87.8106 436.784V437.429L87.8824 438.003V438.577L87.9543 439.223V443.313L87.8824 443.959V444.533L87.8106 445.107V445.681L87.7392 446.255L87.6674 446.901L87.3801 449.197L87.3087 449.842L87.2369 450.417L87.0933 450.99L87.0215 451.565L86.8782 452.21L86.7346 452.784L86.6628 453.358L86.3759 454.506L86.2323 455.152L85.9454 456.3L85.73 456.874L85.5863 457.52L85.3713 458.094L85.2276 458.668L85.0126 459.242L84.869 459.888L84.223 461.61L84.008 462.256L83.7925 462.83L83.5057 463.404L83.2906 464.049L83.0752 464.623L82.7883 465.197L82.5728 465.771L82.286 466.417L81.9987 466.991L81.7837 467.565L81.4968 468.211L80.6354 469.933L80.3485 470.579L79.9899 471.153L79.4157 472.301L78.7702 473.521L78.1242 474.669L77.4069 475.889L76.7609 477.037L76.0436 478.185L75.254 479.405L74.5366 480.552L73.7475 481.772L72.9583 482.92L72.1687 484.14L71.3795 485.288L70.5185 486.508L69.6575 487.656L68.7965 488.876L67.9355 490.024L67.0027 491.244L66.1417 492.392L65.2089 493.611L64.2761 494.759L63.3433 495.979L62.4105 497.127L61.4776 498.347L60.473 499.495L59.5406 500.715L58.536 501.863L57.5314 503.083L56.5985 504.231L50.5716 511.334L48.4905 513.702L46.4817 516.07L44.4006 518.438L43.3964 519.657L42.3917 520.806L41.3871 522.025L40.3824 523.173L39.3778 524.393L38.3736 525.541L37.4408 526.761L36.4362 527.909L35.5033 529.129L34.4987 530.277L33.5659 531.425L32.6335 532.645L31.7007 533.793L30.7679 535.013L29.8351 536.16L28.9741 537.38L28.0413 538.528L27.1803 539.676L26.3193 540.896L25.4583 542.044L24.6687 543.264L23.8077 544.484L23.0185 545.632L22.2293 546.852L21.4397 548L20.7224 549.219L20.005 550.367L19.2872 551.587L18.5699 552.735L17.9239 553.955L17.2066 555.103L16.9197 555.749L16.6324 556.323L16.2738 556.897L15.6996 558.045L15.4128 558.691L14.2645 560.987L13.9776 561.633L13.7626 562.207L13.4753 562.781L13.2603 563.355L12.973 564L12.5425 565.148L12.2557 565.723L12.0402 566.296L11.8252 566.942L11.3947 568.09L11.251 568.664L11.036 569.31L10.8205 569.884L10.6769 570.458L10.4619 571.032L10.3182 571.678L10.0314 572.826L9.81589 573.472L9.52904 574.62L9.45722 575.194L9.31401 575.839L9.17036 576.414L9.09854 576.988L8.9549 577.633L8.88307 578.207L8.73987 578.781L8.66804 579.355L8.59622 580.001L8.38119 581.723L8.30937 582.369V582.943L8.23755 583.517V584.091L8.16573 584.737V608.056M0.559998 235.231V0.960007M83.7211 322.052L83.7925 322.267L83.7211 322.123V322.052Z" stroke="black" stroke-width="1"/>
</svg>
