<svg width="96" height="844" viewBox="0 0 96 844" fill="none" xmlns="http://www.w3.org/2000/svg">
<path d="M0.400024 0.960007V235.126M0.400024 235.126L0.901526 235.341L1.47523 235.556L2.47911 235.986L2.98105 236.13L4.48643 236.775L5.41854 237.133L6.42242 237.492L8.28664 238.209L9.14698 238.568L10.0791 238.854L10.9394 239.213L11.8715 239.5L12.7319 239.858L13.5922 240.145L14.3808 240.432L15.2411 240.647L16.0302 240.933L16.8905 241.22L17.6791 241.435L18.4677 241.722L20.0452 242.152L20.762 242.439L21.5506 242.654L22.2679 242.798L23.0564 243.013L24.4905 243.443L25.2073 243.586L25.9245 243.801L27.3581 244.088L28.0036 244.303L29.4377 244.59L30.0827 244.733L30.8 244.877L31.445 245.02L32.0905 245.092L32.7355 245.235L33.4527 245.379L34.0978 245.451L34.7433 245.594L36.6793 245.809L37.3243 245.952L38.6148 246.096L39.1885 246.168L39.834 246.239H40.479L41.1245 246.311L41.6978 246.383L42.9887 246.454L45.4262 246.598H50.3734L54.0301 246.383L55.3206 246.239H55.9661L56.5393 246.168L58.4753 245.952L59.1208 245.809L61.0563 245.594L61.7018 245.451L62.3469 245.379L63.6374 245.092L64.3546 245.02L64.9997 244.877L65.7169 244.733L66.3619 244.59L67.0792 244.447L67.7242 244.303L68.4415 244.088L69.8755 243.801L70.5923 243.586L71.3091 243.443L73.4604 242.798L74.249 242.654L74.9658 242.439L75.7544 242.152L77.332 241.722L78.1205 241.435L78.9091 241.22L79.6981 240.933L80.5585 240.647L81.347 240.432L83.0677 239.858L83.9281 239.5L84.7884 239.213L85.7205 238.854L86.5809 238.568L89.3772 237.492L90.3811 237.133L91.3132 236.775L92.8186 236.13L93.3205 235.986L94.8263 235.341L95.4 235.126M0.400024 235.126V246.598L8.00001 251.043L12.8037 254.986L16.1019 260.292L17.6073 266.386L17.1054 272.552L14.6679 278.288M76.3998 746.62H19.3998M76.3998 746.62L82.6376 751.639L87.1546 758.235L89.5207 765.907V773.866L87.1546 781.537L82.6376 788.134L76.3998 793.152M76.3998 746.62V742.82M19.3998 746.62L13.1621 751.639L8.64504 758.235L6.27888 765.907V773.866L8.64504 781.537L13.1621 788.134L19.3998 793.152M19.3998 746.62V742.82M76.3998 742.82H19.3998M76.3998 742.82L81.1317 740.096M19.3998 742.82L14.6679 740.096M76.3998 335.216H19.3998M76.3998 335.216L81.1317 337.941M76.3998 335.216V331.416M19.3998 335.216L14.6679 337.941M19.3998 335.216V331.416M76.3998 331.416H19.3998M76.3998 331.416L82.6376 326.398L87.1546 319.801L89.5207 312.13V304.1L87.1546 296.428L82.6376 289.832L76.3998 284.884M19.3998 331.416L13.1621 326.398L8.64504 319.801L6.27888 312.13V304.1L8.64504 296.428L13.1621 289.832L19.3998 284.884M76.3998 284.884H19.3998M76.3998 284.884V281.084M19.3998 284.884V281.084M76.3998 281.084H19.3998M76.3998 281.084L81.1317 278.288M19.3998 281.084L14.6679 278.288M81.1317 278.288H14.6679M81.1317 278.288L78.6942 272.552L78.1923 266.386L79.6264 260.292L82.996 254.986L87.8 251.043L95.4 246.598V235.126M95.4 235.126V0.960007M81.1317 799.677H14.6679M81.1317 799.677L78.6942 805.413L78.1923 811.651L79.6264 817.673L82.996 822.979L87.8 826.994L95.4 831.367V842.911L94.8263 842.696L92.3166 841.62L91.3132 841.262L90.3811 840.903L89.3772 840.473L87.513 839.756L86.5809 839.469L85.7205 839.111L84.7884 838.824L83.9281 838.466L81.347 837.605L80.5585 837.318L79.6981 837.032L78.9091 836.817L78.1205 836.53L77.332 836.315L76.5434 836.028L74.9658 835.598L74.249 835.383L73.4604 835.167L72.7432 834.952L72.0264 834.809L70.5923 834.379L69.8755 834.235L69.1583 834.02L67.7242 833.733L67.0792 833.59L66.3619 833.447L65.7169 833.303L64.9997 833.16L64.3546 833.017L63.6374 832.873L62.9923 832.802L61.7018 832.515L60.4113 832.371L59.7658 832.228L56.5393 831.869L55.9661 831.798L54.6751 831.654H54.0301L50.3734 831.439H49.0829L47.8641 831.367L46.645 831.439H45.4262L42.9887 831.583L41.6978 831.654H41.1245L39.1885 831.869L38.6148 831.941L36.0338 832.228L35.3887 832.371L34.0978 832.515L33.4527 832.658L32.7355 832.802L32.0905 832.873L30.8 833.16L30.0827 833.303L29.4377 833.447L28.0036 833.733L27.3581 833.877L26.6413 834.02L25.9245 834.235L25.2073 834.379L23.7732 834.809L23.0564 834.952L22.2679 835.167L21.5506 835.383L20.762 835.598L20.0452 835.813L19.2567 836.028L18.4677 836.315L17.6791 836.53L16.8905 836.817L16.0302 837.032L15.2411 837.318L14.3808 837.605L13.5922 837.892L11.8715 838.466L10.9394 838.824L10.0791 839.111L9.14698 839.469L8.28664 839.756L6.42242 840.473L5.41854 840.903L4.48643 841.262L3.48299 841.62L1.47523 842.481L0.901526 842.696L0.400024 842.911V831.367L8.00001 826.994L12.8037 822.979L16.1019 817.673L17.6073 811.651L17.1054 805.413L14.6679 799.677M81.1317 799.677L76.3998 796.952M14.6679 799.677L19.3998 796.952M76.3998 793.152H19.3998M76.3998 793.152V796.952M19.3998 793.152V796.952M76.3998 796.952H19.3998M81.1317 337.941H14.6679M81.1317 337.941L78.4789 344.681L78.4076 351.85L80.9886 358.59L85.8641 363.967L87.2981 365.617L87.8 367.767V382.322L87.7283 382.896V384.115L87.5847 385.262V385.836L87.513 386.481L87.3699 387.628L87.2981 388.273L87.1546 389.42L87.011 389.994L86.9393 390.639L86.8679 391.213L86.7244 391.786L86.5809 392.432L86.5091 393.005L86.2225 394.152L86.0789 394.798L85.9358 395.371L85.7205 395.945L85.5774 396.518L85.4339 397.164L85.2186 397.737L85.0755 398.311L84.8602 398.884L84.6453 399.53L84.5018 400.103L84.0716 401.251L83.8563 401.896L83.4261 403.043L83.1395 403.688L82.9242 404.262L82.6376 404.835L82.4227 405.409L82.1356 406.054L81.9207 406.628L81.6337 407.201L81.347 407.847L80.4867 409.568L80.2001 410.213L79.913 410.786L79.2679 411.934L78.6225 413.152L77.977 414.299L77.332 415.518L76.6152 416.666L75.8979 417.884L75.1811 419.032L74.3921 420.179L73.6753 421.398L72.8867 422.545L72.0981 423.764L71.2378 424.911L70.4488 426.13L69.5884 427.277L68.7281 428.496L67.8678 429.643L66.9356 430.862L66.0753 432.009L65.1432 433.228L64.2111 434.375L63.279 435.594L62.3469 436.741L61.3434 437.96L60.4113 439.107L59.4074 440.326L58.4753 441.473L57.4714 442.692L56.4676 443.839L55.4641 445.058L53.5281 447.424L51.5208 449.718L49.4413 452.085L45.4262 456.817L43.3471 459.183L41.3394 461.549L40.3355 462.767L39.332 463.915L38.3282 465.134L37.3243 466.281L36.3922 467.5L35.3887 468.647L34.4566 469.866L33.5245 471.013L32.5924 472.232L31.6603 473.379L30.7282 474.598L29.7961 475.745L28.9357 476.892L28.0036 478.111L27.1433 479.258L26.2829 480.477L25.4226 481.624L24.634 482.843L23.7732 483.99L22.9847 485.209L22.1961 486.356L21.4075 487.575L20.6903 488.722L19.9017 489.941L19.1849 491.088L18.8261 491.734L18.5394 492.307L18.181 492.881L17.8226 493.526L17.4642 494.1L17.1771 494.673L16.8187 495.247L16.5321 495.82L16.245 496.466L15.8866 497.039L15.3129 498.186L15.0263 498.832L14.1659 500.553L13.9506 501.126L13.664 501.771L13.3774 502.345L13.1621 502.918L12.8754 503.492L12.6601 504.137L12.23 505.284L11.9433 505.858L11.728 506.432L11.5131 507.077L11.3696 507.651L10.7246 509.371L10.581 510.016L10.3657 510.59L10.0791 511.737L9.93556 512.383L9.72069 512.956L9.43362 514.103L9.36229 514.749L9.07522 515.896L8.93212 516.541L8.78858 517.688L8.64504 518.334L8.43018 520.054L8.35841 520.7L8.14311 522.42V523.066L8.07134 523.639V524.213L8.00001 524.786V528.371L8.07134 528.945V530.092L8.14311 530.666L8.21487 531.311V531.885L8.28664 532.458M14.6679 337.941L17.3207 344.681V351.85L14.7396 358.59L9.86379 363.967L8.50195 365.617M81.1317 740.096H14.6679M81.1317 740.096L78.4789 733.356L78.4076 726.115L80.9886 719.375L85.8641 714.069M14.6679 740.096L17.3207 733.356V726.115L14.7396 719.375L9.86379 714.069L8.50195 712.42L8.00001 710.269V698.224L8.07134 697.651V697.005L8.14311 696.432V695.858L8.21487 695.284L8.28664 694.639V694.066L8.43018 692.918L8.57328 692.273L8.71681 691.126L8.86035 690.481L8.93212 689.907L9.07522 689.334L9.14698 688.76L9.29052 688.115L9.57716 686.968L9.72069 686.322L10.1509 684.601L10.3657 683.956L10.5093 683.383L10.7246 682.809L10.8677 682.235L11.083 681.59L11.728 679.869L11.9433 679.224L12.5884 677.503L12.8754 676.858L13.0903 676.284L13.3774 675.711L13.5922 675.137L13.8793 674.492L14.1659 673.918L14.3808 673.345L14.6679 672.771L14.9545 672.126L15.5282 670.979L15.8866 670.405L16.1733 669.76L16.4603 669.186L16.8187 668.613L17.1054 667.967L17.8226 666.82L18.4677 665.601L19.1849 664.454L19.9017 663.235L20.6185 662.088L21.3358 660.869L22.1243 659.722L22.9129 658.503L23.7019 657.356L24.5623 656.137L25.3508 654.99L26.2112 653.843L27.0715 652.624L27.9319 651.477L28.7922 650.258L29.7243 649.111L30.5847 647.892L31.5168 646.745L32.4489 645.526L33.381 644.379L34.3849 643.16L35.317 642.013L36.3204 640.794L37.3243 639.647L38.2564 638.428L46.2866 628.964L50.3734 624.303L56.3962 617.205L57.3997 615.986L58.4036 614.839L59.3357 613.62L60.3395 612.473L61.2717 611.254L62.2755 610.107L63.2072 608.888L64.1393 607.741L65.0714 606.522L66.0035 605.375L66.8639 604.156L67.796 603.009L68.6563 601.79L69.5167 600.643L70.3057 599.424L71.166 598.277L71.9546 597.13L72.8149 595.911L73.5317 594.764L74.3208 593.545L75.1093 592.398L75.8261 591.179L76.5434 590.032L77.2602 588.813L77.9057 587.666L78.5507 586.447L79.1962 585.3L79.8412 584.081L80.4149 582.934L80.7016 582.288L81.5619 580.567L81.849 579.922L82.1356 579.349L82.3509 578.775L82.6376 578.201L82.8529 577.556L83.1395 576.983L83.785 575.262L83.9998 574.617L84.6453 572.896L84.8602 572.251L85.0037 571.677L85.2186 571.103L85.3621 570.53L85.5774 569.956L85.7205 569.311L86.2942 567.017L86.4378 566.371L86.5809 565.798L86.6526 565.224L86.7962 564.65L86.9393 564.005L87.0828 562.858L87.2263 562.284L87.2981 561.639L87.513 559.919L87.5847 559.273V558.7L87.6565 558.126V557.552L87.7283 556.907V555.76L87.8 555.115V553.394L87.7283 552.749V551.602L87.6565 551.028V550.383L87.4412 548.662M87.4412 451.583L87.6565 453.303V453.949L87.7283 454.522V455.669L87.8 456.243V458.035L87.7283 458.609V459.828L87.6565 460.402V460.975L87.5847 461.549V462.194L87.3699 463.915L87.2981 464.56L87.2263 465.134L87.0828 465.707L86.9393 466.854L86.7962 467.5L86.7244 468.073L86.4378 469.22L86.2942 469.866L86.0076 471.013L85.8641 471.658L85.5774 472.805L85.3621 473.379L85.2186 474.024L85.0037 474.598L84.8602 475.171L84.6453 475.817L83.9998 477.537L83.785 478.183L83.3544 479.33L83.0677 479.903L82.8529 480.549L82.6376 481.122L82.3509 481.696L82.1356 482.269L81.849 482.915L80.9886 484.636L80.7016 485.281L79.5546 487.575L79.1962 488.22L78.9091 488.794L78.5507 489.367L77.9057 490.586L77.2602 491.734L76.5434 492.881L75.8261 494.1L75.1093 495.247L74.3208 496.466L73.6035 497.613L72.8149 498.832L71.9546 500.051L71.166 501.198L70.3057 502.417L69.4453 503.564L68.5846 504.783L67.7242 505.93L66.8639 507.149L65.9318 508.296L64.9997 509.515L64.068 510.662L63.1359 511.881L62.2038 513.028L61.2717 514.247L60.3395 515.394L59.3357 516.541L58.4036 517.76L57.3997 518.907L56.3962 520.126L55.3924 521.273L54.3885 522.492L50.3734 527.224L48.2943 529.59L46.2866 531.956L44.2075 534.322L42.1997 536.688L41.1963 537.907L40.1924 539.054L39.1885 540.273L38.2564 541.42L37.2525 542.567L36.2491 543.786L35.317 544.933L34.3131 546.152L33.381 547.3L32.4489 548.518L31.5168 549.666L30.5847 550.885L29.7243 552.032L28.7922 553.25L27.9319 554.398L26.9997 555.617L26.1394 556.764L25.2791 557.983L24.4905 559.202L23.6301 560.349L22.8416 561.567L22.0526 562.715L21.264 563.934L20.5472 565.081L19.8299 566.3L18.3959 568.594L17.7508 569.813L17.1054 570.96L16.4603 572.179L16.1733 572.752L15.8149 573.326L15.5282 573.9L15.2411 574.545L14.3808 576.266L14.0942 576.911L13.8793 577.484L13.3056 578.632L13.0903 579.205L12.8037 579.851L12.3735 580.998L12.1582 581.643L11.8715 582.217L11.4414 583.364L11.2978 584.009L10.8677 585.156L10.7246 585.801L10.5093 586.375L10.3657 586.949L10.1509 587.522L10.0073 588.167L9.57716 589.888L9.43362 590.534L9.00345 592.254L8.93212 592.899L8.78858 593.473L8.64504 594.62L8.57328 595.266L8.43018 595.839L8.28664 596.986V597.56L8.21487 598.205L8.14311 598.779V599.352L8.07134 599.926V600.571L8.00001 601.145V623.801M8.28664 597.201L8.21487 596.556V595.983L8.07134 594.835V593.617L8.00001 593.043V589.53L8.07134 588.884V588.311L8.14311 587.737V587.164L8.21487 586.518L8.50195 584.224L8.57328 583.579L8.64504 583.005L8.78858 582.432L8.93212 581.284L9.07522 580.639L9.21875 580.066L9.29052 579.492L9.43362 578.918L9.57716 578.273L9.86379 577.126L10.0791 576.552L10.2226 575.907L10.3657 575.334L10.581 574.76L10.7246 574.186L10.9394 573.541L11.3696 572.394L11.5131 571.749L11.728 571.175L12.0151 570.601L12.23 569.956L12.6601 568.809L12.9472 568.235L13.1621 567.59L13.4487 567.017L13.664 566.443L13.9506 565.869L14.2377 565.224L14.4526 564.65L15.0263 563.503L15.3129 562.858L15.6718 562.284L16.5321 560.564L17.1771 559.345L17.8226 558.198L18.5394 556.979L19.2567 555.832L19.9735 554.613L20.6903 553.466L21.4075 552.247L22.9847 549.952L23.7732 548.733L24.634 547.515L25.4226 546.367L26.2829 545.149L27.1433 544.002L28.0754 542.783L28.9357 541.635L29.8678 540.417L30.7282 539.269L31.6603 538.05L32.5924 536.903L33.5245 535.685L34.528 534.537L35.4601 533.318L36.4639 532.171L37.3961 530.952L38.3999 529.805L39.4038 528.586L40.4073 527.439L41.3394 526.292L43.4189 523.926L47.434 519.194L49.5131 516.756L53.5281 512.024L54.6038 510.877L55.5359 509.658L56.5393 508.511L57.5432 507.292L58.5471 506.145L59.4792 504.926L60.4831 503.779L61.4148 502.632L62.3469 501.413L63.3507 500.266L64.2829 499.047L65.1432 497.899L66.0753 496.681L67.0074 495.534L67.8678 494.315L68.7281 493.167L69.5884 491.949L70.4488 490.801L71.3091 489.582L72.0981 488.436L73.6753 485.998L74.4639 484.851L75.2529 483.632L75.9697 482.484L76.6865 481.266L77.332 480.119L78.0488 478.9L78.6942 477.752L78.9809 477.179L79.3393 476.605L79.6264 475.96L79.913 475.386L80.2714 474.813L80.8451 473.666L81.1317 473.02L81.4188 472.447L81.6337 471.873L81.9207 471.3L82.2074 470.654L82.4227 470.081L82.7093 469.507L82.9242 468.934L83.2113 468.288L84.0716 465.994L84.2865 465.349L84.7166 464.202L84.8602 463.556L85.2903 462.409L85.4339 461.835L85.5774 461.19L85.7923 460.617L85.9358 460.043L86.0789 459.398L86.5091 457.677L86.6526 457.032L86.7244 456.458L86.8679 455.885L86.9393 455.311L87.0828 454.666L87.2981 452.945L87.3699 452.3L87.5847 450.579V449.933L87.7283 448.786V447.639L87.8 446.994V424.911M87.4412 483.918L87.5847 485.066L87.6565 485.711V486.284L87.7283 486.858V488.005L87.8 488.651V490.371L87.7283 491.017V492.164L87.6565 492.737V493.311L87.5847 493.956V494.53L87.4412 495.677L87.3699 496.322L87.2263 497.469L87.0828 498.043L87.011 498.688L86.9393 499.262L86.7962 499.835L86.7244 500.481L86.2942 502.201L86.1507 502.847L85.8641 503.994L85.7205 504.639L85.5774 505.213L85.3621 505.786L85.2186 506.36L85.0037 507.005L84.8602 507.579L84.2151 509.299L83.9998 509.945L83.3544 511.666L83.1395 512.311L82.8529 512.884L82.6376 513.458L82.3509 514.032L82.1356 514.605L81.849 515.251L81.2753 516.398L81.0604 516.971L80.7733 517.545L80.4867 518.19L80.1283 518.764L79.5546 519.911L79.2679 520.556L78.9091 521.13L78.6225 521.703L78.2641 522.277L77.977 522.922L77.2602 524.069L76.5434 525.288L75.8261 526.435L75.1093 527.654L74.3208 528.801L73.6035 530.02L72.8149 531.168L71.9546 532.386L71.166 533.533L70.3057 534.752L69.5167 535.9L68.6563 537.118L67.7242 538.266L66.8639 539.485L65.9318 540.632L65.0714 541.85L63.2072 544.145L62.2755 545.364L61.3434 546.511L60.3395 547.73L59.4074 548.877L58.4036 550.096L57.3997 551.243L56.4676 552.462L55.4641 553.609L54.4602 554.828L53.4564 555.975L52.3812 557.194L48.3661 561.926L46.2866 564.292L40.2642 571.39L38.2564 573.684L37.3243 574.903L36.3204 576.051L35.3887 577.269L34.3849 578.417L33.4527 579.636L32.5206 580.782L31.5885 582.001L30.6564 583.149L28.7922 585.586L27.9319 586.734L27.0715 587.952L26.2112 589.1L25.3508 590.318L24.4905 591.466L23.7019 592.684L22.1243 594.979L21.3358 596.198L20.6185 597.345L19.9017 598.564L19.1849 599.711L18.4677 600.93L17.8226 602.077L17.1054 603.224L16.4603 604.443L15.8866 605.59L15.6 606.235L14.7396 607.956L14.4526 608.601L13.5922 610.322L13.3774 610.968L13.0903 611.541L12.8754 612.115L12.5884 612.76L11.9433 614.481L11.728 615.126L11.2978 616.273L11.083 616.918L10.8677 617.492L10.7246 618.066L10.5093 618.639L10.3657 619.285L10.1509 619.858L9.86379 621.005L9.72069 621.651L9.29052 623.371L9.14698 624.016L9.07522 624.59L8.93212 625.164L8.86035 625.737L8.71681 626.383L8.50195 628.103L8.35841 628.749V629.322L8.21487 630.469L8.14311 631.115V631.688L8.07134 632.262V632.907L8.00001 633.481V656.209M8.28664 629.537L8.21487 628.964V628.39L8.14311 627.745L8.07134 627.171V625.952L8.00001 625.379V621.866L8.07134 621.22V620.647L8.14311 620.073V619.5L8.21487 618.854L8.43018 617.133L8.50195 616.488L8.64504 615.341L8.78858 614.768L8.86035 614.194L9.00345 613.549L9.07522 612.975L9.36229 611.828L9.43362 611.183L9.72069 610.035L9.93556 609.462L10.0791 608.888L10.2226 608.243L10.3657 607.669L10.581 607.096L10.7246 606.522L10.9394 605.877L11.3696 604.73L11.5131 604.156L11.728 603.511L11.9433 602.937L12.23 602.364L12.4453 601.79L12.6601 601.145L12.9472 600.571L13.1621 599.998L13.4487 599.352L13.664 598.779L14.2377 597.632L14.5243 596.986L14.7396 596.413L15.0263 595.839L15.3847 595.266L15.6718 594.62L15.9584 594.047L16.6034 592.899L17.1771 591.681L17.8944 590.534L18.5394 589.315L19.2567 588.167L19.9735 586.949L20.6903 585.801L21.4075 584.582L22.9847 582.288L23.7732 581.069L24.634 579.922L25.4226 578.703L26.2829 577.556L27.1433 576.337L28.0036 575.19L28.9357 573.971L29.7961 572.824L31.6603 570.386L32.5924 569.239L33.5963 568.02L34.528 566.873L35.4601 565.654L36.4639 564.507L37.3961 563.288L38.3999 562.141L39.4038 560.922L41.4111 558.628L47.434 551.53L49.5131 549.164L53.5281 544.432L54.532 543.213L55.5359 542.066L56.5393 540.847L57.5432 539.7L58.5471 538.481L59.551 537.333L60.4831 536.115L61.4148 534.968L62.4186 533.749L63.3507 532.601L64.2829 531.383L65.215 530.235L66.0753 529.088L67.0074 527.869L67.8678 526.722L68.7281 525.503L69.5884 524.356L70.4488 523.137L71.3091 521.99L72.0981 520.771L72.8867 519.624L73.6753 518.405L74.4639 517.258L75.1811 516.039L75.9697 514.82L77.0453 513.1L77.332 512.454L78.0488 511.307L78.3358 510.734L78.6942 510.088L78.9809 509.515L79.3393 508.941L79.6264 508.368L79.913 507.722L80.2714 507.149L81.1317 505.428L81.4188 504.783L81.6337 504.209L82.2074 503.062L82.4227 502.417L82.7093 501.843L82.9242 501.269L83.2113 500.696L83.4261 500.122L83.6414 499.477L84.5018 497.183L84.7166 496.537L84.8602 495.964L85.0755 495.39L85.2186 494.817L85.4339 494.171L85.5774 493.598L85.7923 493.024L85.9358 492.451L86.0789 491.805L86.366 490.658L86.5091 490.013L86.5809 489.439L86.8679 488.292L86.9393 487.647L87.0828 487.073L87.1546 486.5L87.2263 485.854L87.4412 484.134L87.513 483.488L87.5847 482.915V482.341L87.6565 481.767L87.7283 481.122V479.975L87.8 479.401V457.247M87.4412 386.839L87.5847 387.986L87.6565 388.632V389.205L87.7283 389.779V390.998L87.8 391.571V393.364L87.7283 393.937V395.156L87.6565 395.73V396.303L87.5847 396.949V397.522L87.3699 399.243L87.2981 399.888L87.2263 400.462L87.0828 401.035L87.011 401.609L86.9393 402.254L86.7962 402.828L86.7244 403.401L86.4378 404.549L86.2942 405.194L85.7205 407.488L85.5774 408.134L85.3621 408.707L85.2186 409.281L85.0037 409.854L84.8602 410.499L83.9998 412.794L83.785 413.439L83.3544 414.586L83.1395 415.232L82.8529 415.805L82.6376 416.379L82.3509 416.952L82.1356 417.598L81.5619 418.745L81.2753 419.39L80.4149 421.111L80.1283 421.756L79.8412 422.33L79.1962 423.477L78.5507 424.696L77.9057 425.843L77.2602 427.062L76.5434 428.209L75.8261 429.428L75.1093 430.575L74.3208 431.722L73.6035 432.941L72.8149 434.088L71.9546 435.307L71.166 436.454L70.3057 437.673L69.5167 438.82L68.6563 440.039L67.7242 441.186L66.8639 442.405L65.9318 443.552L65.0714 444.771L64.1393 445.918L63.2072 447.137L62.2038 448.285L61.2717 449.503L60.3395 450.65L59.3357 451.869L58.3318 453.017L57.3997 454.235L56.3962 455.383L48.3661 464.847L46.2866 467.213L40.2642 474.311L39.2603 475.458L37.2525 477.896L36.2491 479.043L35.317 480.262L34.3849 481.409L33.381 482.556L32.4489 483.775L31.5168 484.922L30.5847 486.141L29.7243 487.288L28.7922 488.507L27.0715 490.801L26.2112 492.02L25.3508 493.167L24.4905 494.386L23.7019 495.534L22.9129 496.752L22.1243 497.899L21.3358 499.118L20.6185 500.266L19.8299 501.484L19.1131 502.703L18.4677 503.851L18.1092 504.424L17.7508 505.069L17.3924 505.643L17.1054 506.217L16.747 506.79L16.4603 507.435L16.1733 508.009L15.8149 508.583L15.5282 509.156L15.2411 509.801L14.3808 511.522L14.0942 512.168L13.8793 512.741L13.3056 513.888L13.0903 514.534L12.8037 515.107L12.5884 515.681L12.3735 516.326L11.9433 517.473L11.6562 518.047L11.5131 518.692L10.8677 520.413L10.7246 521.058L10.5093 521.632L10.3657 522.205L10.1509 522.851L9.72069 524.571L9.57716 525.216L9.14698 526.937L9.00345 527.583L8.93212 528.156L8.78858 528.73L8.71681 529.303L8.64504 529.949L8.57328 530.522L8.43018 531.096L8.35841 531.669L8.28664 532.315V532.888L8.14311 534.035V534.609L8.07134 535.254V535.828L8.00001 536.402V559.13M87.4412 678.077L87.5847 679.081L87.7283 681.088V682.092L87.8 683.096V684.1L87.7283 685.103V686.179L87.513 689.19L87.3699 690.194L87.2981 691.198L87.1546 692.201L86.9393 693.205L86.7962 694.209L86.1507 697.22L85.0037 701.235L84.6453 702.239L84.3582 703.243L83.9998 704.247L83.5697 705.251L83.2113 706.254L81.9207 709.266L81.4188 710.269L81.347 710.485L81.2035 710.7L81.1317 710.915L80.9886 711.13L80.8451 711.273L80.6302 711.488L80.4867 711.632L80.3432 711.847L80.1283 711.99L79.9848 712.205L79.7695 712.349L79.5546 712.492L79.411 712.635L78.9809 712.922L78.766 712.994L78.3358 713.281L77.9057 713.424L77.6186 713.568L76.7583 713.854H76.5434L76.3281 713.926L76.1132 713.998H75.683L75.4677 714.069H74.4639L74.3921 713.998H74.1772L74.0337 713.926L73.9619 713.854H73.8906L73.6753 713.639L73.6035 713.568V713.209L73.6753 713.066V712.922L73.7471 712.707L73.8906 712.42L73.9619 712.277L74.0337 712.062L74.1772 711.918L74.249 711.703L74.3921 711.56L74.4639 711.345L74.7509 710.986L75.1811 710.269L75.8979 709.051L76.9736 707.33L77.332 706.685L77.6904 706.111L77.977 705.537L78.3358 704.892L78.6942 704.318L78.9809 703.745L79.3393 703.171L79.6264 702.526L80.7733 700.232L81.0604 699.586L81.9207 697.866L82.2074 697.22L82.4227 696.647L82.7093 696.073L82.9242 695.499L83.1395 694.854L83.4261 694.281L84.0716 692.56L84.2865 691.915L84.7166 690.768L84.8602 690.194L85.0755 689.549L85.2186 688.975L85.4339 688.401L85.5774 687.828L85.7205 687.183L85.9358 686.609L86.2225 685.462L86.366 684.817L86.5091 684.243L86.5809 683.669L86.7244 683.024L86.8679 682.451L86.9393 681.877L87.0828 681.232L87.2981 679.511L87.3699 678.866L87.513 677.718L87.5847 677.073V676.5L87.7283 675.352V674.134L87.8 673.56V651.405M87.4412 645.741L87.5847 646.745L87.7283 648.752V649.756L87.8 650.76V651.764L87.7283 652.767V653.771L87.513 656.783L87.3699 657.786L87.2981 658.79L87.1546 659.794L86.9393 660.869L86.7962 661.873L86.366 663.881L86.0789 664.884L85.8641 665.888L85.0037 668.9L83.5697 672.915L83.1395 673.918L82.7811 674.922L82.3509 675.926L81.849 677.001L81.4188 678.005L78.9091 683.024L77.1884 686.035L76.5434 687.039L75.9697 688.115L73.3887 692.13L72.6714 693.134L72.0264 694.137L67.7242 700.16L65.3585 703.171L64.6413 704.175L63.8527 705.179L62.9923 706.254L61.4148 708.262L60.5544 709.266L59.7658 710.269L59.551 710.485L59.3357 710.7L59.1921 710.915L58.9773 711.13L58.762 711.273L58.5471 711.488L58.3318 711.632L58.1169 711.847L57.9016 711.99L57.6867 712.205L57.3997 712.349L57.1848 712.492L56.9695 712.635L56.6829 712.779L56.4676 712.922L56.1809 712.994L55.9661 713.137L55.679 713.281L55.4641 713.352L55.1771 713.424L54.8904 713.568L54.6751 713.639L53.8148 713.854H53.5281L53.2415 713.926L53.0262 713.998H52.4525L52.1659 714.069H50.8036L50.5887 713.998H50.2299L50.0868 713.926L49.8715 713.854H49.7284L49.5848 713.783L49.3695 713.711L49.2978 713.639L49.1547 713.568L49.0111 713.424L48.9393 713.352V713.281H48.8676V713.209L48.7963 713.137V712.922L48.7245 712.851V712.707L48.7963 712.564V712.42L48.8676 712.277V712.062L48.9393 711.918L49.0829 711.703L49.1547 711.56L49.2978 711.345L49.3695 711.201L49.6566 710.771L49.7997 710.628L50.0868 710.269L51.951 708.047L53.8865 705.896L55.7508 703.673L56.6111 702.598L57.5432 701.451L59.4074 699.299L60.2678 698.224L61.1999 697.077L62.9206 694.926L63.7809 693.779L66.3619 690.553L67.151 689.405L68.0113 688.33L68.7999 687.254L69.5884 686.107L71.166 683.956L71.9546 682.809L72.6714 681.734L73.4604 680.586L74.1772 679.511L74.8227 678.436L75.5395 677.288L76.1845 676.213L76.9018 675.137L77.5468 674.062L78.1205 672.915L78.766 671.839L79.3393 670.764L79.913 669.617L80.4867 668.541L81.4906 666.39L81.9925 665.243L82.494 664.167L83.3544 662.017L83.785 660.869L84.2151 659.794L84.43 659.22L84.5735 658.719L84.7884 658.145L84.9319 657.571L85.1468 657.069L85.4339 655.922L85.5774 655.42L85.7923 654.847L86.0789 653.7L86.1507 653.198L86.4378 652.05L86.5809 651.549L86.6526 650.975L86.7962 650.402L86.8679 649.9L87.011 649.326L87.0828 648.752L87.1546 648.25L87.2981 647.103L87.3699 646.602L87.513 645.454L87.5847 644.952V644.379L87.6565 643.877V643.303L87.7283 642.73V641.654L87.8 641.081V619.069M8.28664 500.122L8.21487 499.047L8.07134 497.039L8.00001 495.964V492.881L8.07134 491.877L8.14311 490.801V490.3L8.21487 489.798V489.224L8.43018 487.718L8.57328 486.643L8.71681 485.639L8.86035 484.564L9.07522 483.56L9.29052 482.484L9.50539 481.481L9.79246 480.477L10.0791 479.401L10.3657 478.398L10.6528 477.322L11.0112 476.319L11.2978 475.315L11.728 474.239L12.4453 472.232L12.8754 471.156L13.3056 470.152L13.8075 469.149L14.2377 468.073L14.7396 467.069L15.2411 465.994L15.7431 464.99L16.3168 463.986L16.8187 462.911L17.3924 461.907L17.9657 460.832L18.6112 459.828L19.1849 458.752L19.8299 457.749L20.4754 456.673L21.1204 455.669L21.7659 454.594L22.4827 453.59L23.1282 452.586L23.845 451.511L25.2791 449.503L26.0676 448.428L26.7849 447.424L27.5735 446.349L28.2903 445.345L29.0793 444.341L29.8678 443.266L31.445 441.258L32.3053 440.183L33.0943 439.179L33.9547 438.103L34.7433 437.1L35.6036 436.096L36.4639 435.02L37.3243 434.016L39.045 431.937L40.8374 429.858L42.5585 427.779L44.351 425.7L47.8641 421.613L51.449 417.454L53.1697 415.375L54.9622 413.368L60.1242 407.13L60.9846 406.126L61.7736 405.051L62.6339 404.047L63.4943 402.971L64.2829 401.968L65.0714 400.892L65.8604 399.888L66.649 398.813L67.4376 397.809L68.2262 396.734L69.0147 395.73L69.732 394.726L70.4488 393.651L71.2378 392.647L71.9546 391.571L72.5996 390.567L73.3169 389.492L74.0337 388.488L74.6792 387.413L75.3242 386.409L75.9697 385.334L76.6152 384.33L77.1884 383.254L77.8339 382.251L78.4076 381.175L78.9809 380.171L79.4828 379.167L80.0565 378.092L80.5585 377.088L81.0604 376.013L81.5619 375.009L81.9925 373.934L82.494 372.93L82.9242 371.854L83.3544 370.85L83.7132 369.847L84.1434 368.771L84.5018 367.767L84.6453 367.337V367.122L84.7166 366.907L84.7884 366.692V366.334L84.8602 366.19V364.039L84.9319 363.967H85.3621L85.4339 364.039H85.5056L85.5774 364.111H85.6487L85.8641 364.326L86.0076 364.398L86.0789 364.469L86.4378 364.828L86.5809 364.971L86.7244 365.258L86.8679 365.402L86.9393 365.617L87.0828 365.903L87.1546 366.119V366.262L87.2263 366.477V366.62L87.2981 366.835V367.552L87.2263 367.767L87.1546 368.269L87.0828 368.843L87.011 369.345L86.8679 369.919L86.7962 370.42L86.7244 370.994L86.5809 371.496L86.4378 372.069L86.366 372.643L86.2225 373.145L86.0789 373.719L85.9358 374.22L85.7923 374.794L85.6487 375.296L85.5056 375.869L85.3621 376.371L85.2186 376.945L85.0037 377.447L84.7166 378.522L84.2865 379.598L83.9281 380.673L82.6376 383.9L82.2074 385.047L80.7016 388.273L77.8339 393.651L77.1884 394.726L76.5434 395.873L75.2529 398.024L73.8188 400.175L73.1733 401.251L72.3848 402.326L70.9507 404.477L69.3736 406.628L68.5846 407.632L67.0074 409.783L66.2188 410.93L64.4982 413.081L63.7091 414.156L62.8488 415.232L61.9167 416.307L60.196 418.458L59.2639 419.534L55.679 423.835L53.8865 426.058L52.0223 428.209L48.3661 432.439L42.7734 438.892L40.981 441.115L39.1167 443.266L37.3243 445.417L36.4639 446.492L35.5318 447.567L30.3698 454.02L29.5808 455.096L28.7204 456.171L25.5657 460.473L24.8489 461.549L24.0603 462.624L21.1922 466.926L20.5472 468.002L19.8299 469.149L18.5394 471.3L17.9657 472.375L17.3207 473.45L15.6 476.677L15.0981 477.752L14.5243 478.828L14.0224 479.903L13.5922 480.979L13.0903 482.054L11.7998 485.281L10.7246 488.507L10.4375 489.582L10.2226 490.156L10.0791 490.658L9.93556 491.232L9.79246 491.734L9.64892 492.307L9.57716 492.809L9.43362 493.383L9.29052 493.884L9.21875 494.458L9.07522 494.96L9.00345 495.534L8.86035 496.035L8.78858 496.609L8.71681 497.111L8.57328 497.684L8.50195 498.258L8.43018 498.76L8.35841 499.334V499.835L8.28664 500.409L8.21487 500.911L8.14311 501.484V501.986L8.07134 502.56V503.635L8.00001 504.209V526.722M87.4412 580.998L87.5847 582.001L87.7283 584.009V585.013L87.8 586.017V587.092L87.7283 588.096V589.1L87.513 592.111L87.3699 593.115L87.2981 594.118L87.1546 595.122L86.9393 596.126L86.7962 597.13L86.366 599.137L86.0789 600.141L85.8641 601.145L85.2903 603.152L85.0037 604.228L83.5697 608.243L82.7093 610.251L82.2791 611.326L81.4188 613.334L79.411 617.349L78.2641 619.356L77.7621 620.36L77.1167 621.364L75.9697 623.371L73.3887 627.386L72.6714 628.39L72.0264 629.394L71.3091 630.469L69.1583 633.481L68.3697 634.485L67.6529 635.488L66.8639 636.492L66.1471 637.567L62.9923 641.583L62.132 642.586L60.5544 644.594L58.8337 646.602L58.0451 647.605L56.3245 649.613L54.6751 651.62L51.2337 655.635L49.4413 657.715L45.9999 661.73L44.2075 663.809L40.7661 667.824L39.1167 669.832L36.5357 672.843L35.7471 673.847L34.8868 674.851L34.0978 675.926L33.3092 676.93L32.4489 677.934L30.0827 680.945L29.3659 681.949L27.7883 683.956L27.0715 684.96L26.3547 686.035L25.5657 687.039L24.1321 689.047L23.4866 690.051L22.7698 691.054L22.1243 692.058L21.4793 693.134L19.5433 696.145L16.6752 701.164L16.1733 702.168L15.6 703.171L15.0981 704.175L14.6679 705.179L14.1659 706.183L13.7358 707.258L12.4453 710.269L12.1582 711.13L12.0869 711.273L12.0151 711.488V711.632L11.9433 711.847V711.99L11.8715 712.205V712.635L11.7998 712.779V713.352L11.728 713.424V713.783L11.6562 713.854L11.5849 713.926V713.998H11.5131L11.4414 714.069H11.083L11.0112 713.998H10.7959L10.7246 713.926L10.6528 713.854H10.581L10.4375 713.783L10.3657 713.711L10.2226 713.639L10.1509 713.568L9.86379 713.281L9.79246 713.209L9.64892 713.066L9.57716 712.922L9.43362 712.707L9.36229 712.564L9.21875 712.277L9.14698 712.062L9.07522 711.918V711.703L9.00345 711.56V710.413L9.07522 710.269L9.50539 708.118L9.79246 707.115L10.0073 706.039L10.3657 704.964L10.6528 703.96L11.728 700.734L12.0869 699.73L12.9472 697.579L13.3774 696.575L13.8075 695.499L14.3095 694.424L14.811 693.42L15.3129 692.345L15.8866 691.269L16.3886 690.266L17.5355 688.115L18.181 687.111L18.7547 686.035L20.0452 683.884L20.6903 682.881L21.4075 681.805L22.0526 680.73L23.4866 678.579L24.2034 677.575L24.9207 676.5L25.7092 675.424L26.4265 674.42L28.0036 672.269L28.7922 671.266L30.3698 669.115L31.2301 668.111L32.0187 667.035L32.879 665.96L33.7394 664.956L35.4601 662.805L36.3204 661.801L38.9019 658.575L39.834 657.571L40.6943 656.496L41.6264 655.42L43.4189 653.341L45.2113 651.19L48.8676 646.96L52.4525 642.802L54.2449 640.65L57.8298 636.492L60.4113 633.266L61.2717 632.262L62.9923 630.111L63.7809 629.107L65.5016 626.956L67.0792 624.805L67.8678 623.801L69.4453 621.651L70.1621 620.575L70.9507 619.571L72.3848 617.42L73.1016 616.416L73.8188 615.341L74.4639 614.266L75.1093 613.262L75.8261 612.186L76.3998 611.111L77.0453 610.107L77.6904 609.032L78.2641 607.956L78.8378 606.952L79.9848 604.801L80.4867 603.798L81.9925 600.571L82.4227 599.568L82.9242 598.492L83.3544 597.417L83.7132 596.341L84.1434 595.266L84.5018 594.262L84.8602 593.186L85.1468 592.111L85.5056 591.107L86.0789 588.956L86.2942 587.952L86.7244 585.801L86.9393 584.798L87.011 584.224L87.1546 583.722L87.2263 583.22L87.2981 582.647L87.4412 581.643V581.069L87.5847 580.066V579.492L87.6565 578.99V578.488L87.7283 577.915V576.911L87.8 576.337V554.326M8.28664 435.379L8.21487 434.877V434.303L8.14311 433.801V433.228L8.07134 432.726V432.224L8.00001 431.651V427.994L8.07134 427.42V426.416L8.14311 425.843V425.341L8.21487 424.768L8.28664 424.266V423.764L8.35841 423.19L8.50195 422.186L8.57328 421.613L8.64504 421.111L8.78858 420.609L8.93212 419.534L9.14698 418.53L9.36229 417.454L9.64892 416.379L9.86379 415.375L10.1509 414.299L10.5093 413.224L10.7959 412.22L11.8715 408.994L12.3017 407.99L13.5922 404.764L14.0942 403.688L14.5961 402.684L15.6 400.534L16.1733 399.458L16.747 398.454L18.4677 395.228L19.1131 394.224L21.0491 390.998L21.7659 389.994L22.411 388.918L23.845 386.767L24.634 385.692L25.3508 384.688L26.1394 383.613L26.8566 382.537L27.6452 381.462L28.4338 380.458L29.2224 379.383L30.0827 378.307L30.8717 377.232L31.7321 376.228L32.5206 375.152L34.2413 373.002L35.1017 371.998L37.6827 368.771L38.6148 367.767L38.7583 367.552L38.9736 367.337L39.1885 367.122L39.4038 366.907L39.6187 366.692L39.7622 366.549L39.9771 366.334L40.2642 366.19L40.479 365.975L40.6943 365.832L40.9092 365.688L41.1245 365.545L41.4111 365.402L41.6264 365.258L41.9131 365.115L42.1279 364.971L42.415 364.828L42.6299 364.756L42.917 364.613L43.1318 364.541L43.7055 364.398L43.9204 364.326L44.7812 364.111H44.996L45.5697 363.967H47.7206L47.9359 364.039H48.079L48.2943 364.111H48.4374L48.5809 364.183L48.7963 364.254L48.9393 364.326L49.0829 364.398L49.2264 364.469L49.2978 364.541L49.3695 364.613L49.5131 364.756V364.828L49.5848 364.9V365.043L49.6566 365.115V365.402L49.5848 365.617V365.76L49.5131 365.903L49.4413 366.119L49.3695 366.262L49.2978 366.477L49.1547 366.62L49.0111 366.835L48.9393 367.05L48.7963 367.194L48.6527 367.409L48.3661 367.767L46.3583 370.062L44.4223 372.356L42.415 374.65L40.479 376.945L39.5469 378.092L38.543 379.167L32.0187 387.198L31.1584 388.345L30.2262 389.492L28.5056 391.786L27.6452 393.005L25.9245 395.3L25.1355 396.375L22.7698 399.817L22.0526 400.964L21.264 402.111L19.8299 404.405L19.1849 405.553L18.4677 406.699L17.1771 408.994L16.6034 410.069L15.9584 411.217L14.811 413.511L13.8075 415.805L13.5205 416.379L13.3056 416.952L13.0185 417.526L12.5884 418.673L12.3017 419.247L12.0869 419.82L11.8715 420.466L11.6562 421.039L11.5131 421.613L10.8677 423.334L10.7246 423.907L10.5093 424.481L10.0791 426.201L9.86379 426.775L9.72069 427.277L9.43362 428.424L9.36229 428.998L9.07522 430.145L9.00345 430.718L8.86035 431.292L8.71681 432.439L8.57328 433.013L8.21487 435.881V436.454L8.14311 437.028V437.601L8.07134 438.175V438.749L8.00001 439.394V462.05M87.4412 613.334L87.5847 614.122V614.911L87.6565 615.628L87.7283 616.416V617.133L87.8 617.922V620.145L87.7283 620.933V621.722L87.6565 622.439L87.5847 623.228V623.945L87.513 624.733L87.3699 625.45L87.2981 626.239L87.2263 626.956L87.0828 627.745L86.9393 628.462L86.7962 629.25L86.6526 629.968L86.5091 630.756L86.366 631.473L86.1507 632.262L86.0076 632.979L85.7923 633.768L85.5774 634.485L85.3621 635.273L85.1468 635.99L84.9319 636.779L84.6453 637.567L84.43 638.285L84.1434 639.073L83.8563 639.79L83.283 641.367L82.9242 642.085L82.6376 642.873L82.3509 643.59L81.6337 645.167L81.2753 645.885L80.9169 646.673L80.5585 647.39L80.2001 648.179L79.7695 648.896L79.411 649.684L78.9809 650.402L78.6225 651.19L78.1923 651.907L77.7621 652.696L77.332 653.413L76.9018 654.202L76.3998 654.919L75.9697 655.707L75.4677 656.424L75.0376 657.213L74.5356 657.93L74.0337 658.719L73.6035 659.435L73.1016 660.224L72.5283 660.941L71.5244 662.519L71.0225 663.235L70.4488 664.024L69.9468 664.741L69.3736 665.53L68.7999 666.247L68.2979 667.035L67.7242 667.824L66.5772 669.33L65.3585 670.836L64.2111 672.341L62.9923 673.847L61.7736 675.424L59.3357 678.436L58.0451 679.941L56.8264 681.447L52.9544 685.964L51.6639 687.541L50.3734 689.047L47.7206 692.058L45.1396 695.141L37.3961 704.175L36.1773 705.681L34.9581 707.258L33.6676 708.764L32.4489 710.269L32.1622 710.7L31.8038 711.13L31.445 711.488L31.3019 711.632L30.9431 711.99L30.8 712.205L30.5847 712.349L30.4416 712.492L30.298 712.635L30.0827 712.779L29.9396 712.922L29.7961 712.994L29.5808 713.137L29.4377 713.281L29.2224 713.352L29.0793 713.424L28.864 713.568L28.7204 713.639L28.2903 713.783L28.1472 713.854H27.9319L27.5017 713.998H27.0715L26.8566 714.069H25.781L25.5657 713.998H25.2073L25.0642 713.926L24.8489 713.854H24.7054L24.5623 713.783L24.3469 713.711L24.0603 713.568L23.7732 713.281L23.6301 713.209L23.5584 713.137L23.4866 713.066V712.994L23.4148 712.922V712.851L23.3431 712.707V712.564L23.2717 712.42V711.703L23.3431 711.56L23.4148 711.345L23.4866 711.201L23.6301 710.771L23.7732 710.628L23.845 710.413L23.9885 710.269L24.5623 709.481L25.0642 708.692L25.6375 707.832L26.2829 707.043L27.4299 705.466L28.0036 704.605L28.6491 703.816L29.2224 703.028L29.8678 702.239L31.0866 700.662L32.3053 699.013L34.8868 695.858L36.1773 694.209L38.9019 691.054L40.1924 689.477L41.5547 687.828L42.917 686.251L44.351 684.601L47.0751 681.375L49.8715 678.149L52.596 674.994L53.9583 673.345L56.6829 670.19L58.0451 668.541L61.9167 663.809L63.2072 662.16L64.4982 660.583L65.7169 659.005L66.9356 657.356L67.5811 656.567L68.1544 655.779L68.7281 654.919L69.3736 654.13L70.5206 652.552L71.0943 651.692L71.5962 650.903L72.7432 649.326L73.2451 648.537L73.8188 647.677L76.3281 643.733L76.7583 642.945L77.2602 642.085L77.6904 641.296L78.1923 640.507L79.913 637.352L80.2714 636.492L80.7016 635.703L81.4188 634.126L81.849 633.337L82.2074 632.477L82.494 631.688L83.2113 630.111L83.4979 629.322L83.785 628.462L84.1434 627.673L84.43 626.885L84.6453 626.096L84.9319 625.235L85.2186 624.447L85.8641 622.081L86.0789 621.22L86.2942 620.432L86.4378 619.643L86.6526 618.854L86.9393 617.277L87.0828 616.416L87.1546 615.628L87.2981 614.839L87.3699 614.051L87.513 613.262L87.6565 611.685V610.824L87.7283 610.035V609.247L87.8 608.458V586.734M8.28664 467.715L8.21487 466.926L8.14311 466.209L8.07134 465.42V464.632L8.00001 463.843V460.688L8.07134 459.9V459.111L8.28664 456.745L8.35841 456.028L8.50195 454.45L9.07522 451.296L9.21875 450.579L9.36229 449.79L9.57716 449.002L9.72069 448.213L10.1509 446.635L10.3657 445.918L10.6528 445.13L10.8677 444.341L11.1547 443.552L11.3696 442.764L11.9433 441.186L12.23 440.469L12.517 439.681L12.8754 438.892L13.1621 438.103L14.9545 434.16L15.3847 433.371L15.7431 432.583L16.1733 431.794L16.6034 431.077L18.7547 427.133L19.2567 426.345L19.6868 425.556L20.1883 424.768L20.6903 424.051L23.2 420.107L23.7019 419.39L24.2752 418.601L24.7771 417.813L26.4978 415.447L27.0715 414.73L29.9396 410.786L30.5847 409.998L31.1584 409.209L31.8038 408.42L32.4489 407.703L33.0226 406.915L39.4751 399.028L40.8374 397.451L42.1279 395.945L43.4902 394.367L44.7812 392.79L47.5053 389.636L50.2299 386.552L51.5208 384.975L54.2449 381.82L56.8264 378.666L58.1887 377.16L60.7697 374.005L61.9885 372.428L63.279 370.85L64.4982 369.273L65.7169 367.767L66.0753 367.337L66.5055 366.692L66.7208 366.549L66.8639 366.334L67.0074 366.19L67.151 365.975L67.3658 365.832L67.6529 365.545L68.0831 365.115L68.2979 364.971L68.4415 364.828L68.5846 364.756L68.7281 364.613L68.9434 364.541L69.0865 364.469L69.23 364.398L69.4453 364.326L69.5884 364.254L69.8037 364.183L69.9468 364.111H70.1621L70.5923 363.967H72.2412L72.3848 364.039H72.5283L72.7432 364.111H72.8867L73.0302 364.183L73.2451 364.254L73.6753 364.469L73.8188 364.613L73.9619 364.684L74.249 364.971L74.3208 365.115L74.3921 365.258L74.4639 365.402V365.617L74.5356 365.76V366.119L74.4639 366.262V366.477L74.3921 366.62L74.3208 366.835L74.249 367.05L74.1772 367.194L74.1055 367.409L73.9619 367.552L73.8906 367.767L73.3169 368.556L72.8149 369.417L72.2412 370.205L71.668 371.066L71.0943 371.854L70.5206 372.715L69.8755 373.503L68.7281 375.224L68.0831 376.013L67.5094 376.873L66.8639 377.662L66.2188 378.522L65.5734 379.311L64.9283 380.171L64.2829 380.96L63.6374 381.82L62.9923 382.609L61.7018 384.258L58.9773 387.556L57.615 389.277L56.1809 390.926L54.8186 392.575L53.3846 394.224L50.5887 397.522L47.7206 400.82L44.9243 404.118L42.0566 407.417L39.332 410.715L37.898 412.364L33.8112 417.311L32.5206 418.96L31.8752 419.82L31.2301 420.609L30.5847 421.469L29.9396 422.258L29.2941 423.118L28.6491 423.907L28.0754 424.768L27.4299 425.556L26.8566 426.416L26.2112 427.205L25.6375 428.066L25.0642 428.854L24.4905 429.715L23.9168 430.503L23.3431 431.364L22.7698 432.152L22.2679 433.013L21.6942 433.801L21.1922 434.662L20.6903 435.451L20.117 436.311L19.6151 437.1L19.1131 437.96L18.683 438.749L18.181 439.609L17.6791 440.398L17.2489 441.258L16.8187 442.047L16.3886 442.907L15.9584 443.696L15.5282 444.556L15.0981 445.345L14.6679 446.205L14.3095 447.066L13.9506 447.854L13.5205 448.715L13.1621 449.503L12.8754 450.364L12.517 451.152L12.1582 452.013L11.8715 452.802L11.5849 453.662L11.2978 454.45L11.0112 455.311L10.7246 456.1L10.5093 456.96L10.2226 457.749L10.0073 458.609L9.79246 459.398L9.57716 460.258L9.43362 461.047L9.21875 461.907L9.07522 462.696L8.93212 463.556L8.78858 464.345L8.64504 465.205L8.50195 465.994L8.43018 466.854L8.28664 467.643L8.21487 468.503L8.14311 469.292L8.07134 470.152V470.941L8.00001 471.801V494.386M8.28664 694.281L8.21487 693.707V693.062L8.07134 691.915V690.768L8.00001 690.122V686.609L8.07134 686.035V685.39L8.14311 684.817V684.243L8.21487 683.598L8.43018 681.877L8.50195 681.232L8.64504 680.084L8.78858 679.439L8.86035 678.866L9.00345 678.292L9.07522 677.718L9.21875 677.073L9.50539 675.926L9.57716 675.352L9.79246 674.707L10.2226 672.986L10.4375 672.413L10.581 671.767L10.7959 671.194L10.9394 670.62L11.1547 670.047L11.3696 669.401L11.5849 668.828L11.728 668.254L12.0151 667.681L12.23 667.107L12.4453 666.462L12.8754 665.315L13.1621 664.741L13.3774 664.167L13.664 663.522L13.9506 662.949L14.1659 662.375L14.4526 661.801L14.7396 661.156L15.6 659.435L15.9584 658.79L16.5321 657.643L16.8905 657.069L17.1771 656.424L17.8944 655.277L18.5394 654.058L19.2567 652.839L19.9735 651.692L20.6903 650.473L21.4793 649.326L22.1961 648.107L22.9847 646.96L23.845 645.741L24.634 644.594L25.4944 643.447L26.2829 642.228L27.1433 641.081L28.0754 639.862L28.9357 638.715L29.7961 637.496L31.6603 635.202L32.5924 633.983L33.5245 632.835L34.4566 631.617L35.4601 630.469L36.3922 629.25L37.3961 628.032L38.3999 626.885L39.4038 625.666L45.4262 618.568L49.5131 613.835L51.5208 611.541L57.5432 604.443L58.4753 603.224L59.4792 602.077L60.4831 600.858L61.4148 599.711L62.4186 598.492L63.3507 597.273L64.2829 596.126L65.215 594.907L66.0753 593.76L67.0074 592.541L67.8678 591.394L68.7999 590.247L69.5884 589.028L70.4488 587.881L71.3091 586.662L72.0981 585.515L72.8867 584.296L73.6753 583.149L74.4639 581.93L75.8979 579.636L76.6152 578.417L77.332 577.269L78.0488 576.051L78.6942 574.903L79.3393 573.684L79.913 572.466L80.2714 571.892L80.8451 570.745L81.1317 570.1L81.4188 569.526L81.6337 568.952L81.9207 568.307L82.2074 567.734L82.4227 567.16L82.7093 566.586L82.9242 565.941L83.2113 565.367L83.6414 564.22L83.8563 563.575L84.7166 561.281L84.8602 560.635L85.2903 559.488L85.5774 558.341L85.7923 557.696L86.2225 555.975L86.366 555.33L86.5091 554.756L86.5809 554.183L86.8679 553.035L86.9393 552.39L87.011 551.817L87.1546 551.243L87.2263 550.669L87.2981 550.024L87.513 548.303L87.5847 547.658V547.085L87.7283 545.937V544.718L87.8 544.145V521.99M8.28664 403.043L8.21487 402.469V401.896L8.14311 401.322V400.82L8.07134 400.247V399.673L8.00001 399.171V395.3L8.07134 394.726V394.224L8.14311 393.651V393.077L8.21487 392.575L8.28664 392.001V391.428L8.35841 390.926L8.57328 389.205L8.71681 388.703L8.86035 387.556L9.00345 387.054L9.07522 386.481L9.21875 385.907L9.29052 385.405L9.72069 383.684L9.86379 383.183L10.1509 382.035L10.2944 381.534L10.581 380.386L10.7959 379.884L10.9394 379.311L11.1547 378.737L11.2978 378.235L11.728 377.088L11.9433 376.586L12.3735 375.439L13.2338 373.288L13.7358 372.141L14.2377 371.066L14.7396 369.919L15.3129 368.843L15.8149 367.767L16.1019 367.337L16.245 367.122L16.5321 366.692L16.6752 366.549L16.8187 366.334L17.0336 366.19L17.3924 365.832L17.6073 365.688L18.683 364.971L18.8978 364.828L19.1131 364.756L19.328 364.613L19.6151 364.541L20.0452 364.398L20.3319 364.326L20.9773 364.111H21.264L21.4793 364.039L21.6942 363.967H23.2717L23.4148 364.039H23.5584L23.6301 364.111H23.7732L23.9885 364.326L24.0603 364.398L24.1321 364.469V365.115L23.9885 365.402L23.9168 365.617L23.7732 365.903L23.6301 366.119L23.5584 366.262L23.4148 366.477L23.3431 366.62L23.0564 367.05L22.8416 367.409L22.6263 367.767L21.7659 369.058L21.3358 369.632L20.9056 370.277L20.5472 370.922L20.117 371.567L19.7582 372.213L19.328 372.858L18.6112 374.149L18.181 374.794L17.1054 376.73L16.8187 377.375L15.7431 379.311L15.4565 379.884L15.1698 380.53L14.811 381.175L12.8037 385.692L12.5884 386.337L12.3017 386.983L12.0869 387.628L11.7998 388.273L10.5093 392.145L10.3657 392.718L10.1509 393.364L10.0073 394.009L9.79246 394.654L8.93212 398.526L8.86035 399.171L8.71681 399.817L8.64504 400.462L8.57328 401.035L8.43018 401.681L8.21487 403.617V404.262L8.07134 405.553V406.198L8.00001 406.843V429.643M87.4412 419.175L87.513 419.82L87.6565 420.968V421.541L87.7283 422.186V423.334L87.8 423.907V425.7L87.7283 426.273V427.492L87.6565 428.066V428.639L87.5847 429.213V429.858L87.3699 431.579L87.2981 432.224L87.2263 432.798L87.0828 433.371L86.9393 434.518L86.7962 435.164L86.7244 435.737L86.2942 437.458L86.1507 438.103L85.7205 439.824L85.5774 440.469L85.3621 441.043L85.2186 441.617L85.0037 442.19L84.8602 442.835L84.43 443.983L84.2151 444.628L83.5697 446.349L83.3544 446.994L83.1395 447.567L82.8529 448.141L82.6376 448.786L82.3509 449.36L82.1356 449.933L81.849 450.507L81.5619 451.152L80.7016 452.873L80.4149 453.518L79.5546 455.239L79.1962 455.813L78.5507 457.032L77.9057 458.179L77.2602 459.398L76.5434 460.545L75.8261 461.764L75.1093 462.911L74.3208 464.058L73.6035 465.277L72.8149 466.424L72.0264 467.643L71.166 468.79L70.377 470.009L69.5167 471.156L68.6563 472.375L67.7242 473.594L66.8639 474.741L65.9318 475.96L64.9997 477.107L64.1393 478.326L63.1359 479.473L62.2038 480.692L61.2717 481.839L60.3395 483.058L59.3357 484.205L58.4036 485.424L56.3962 487.718L55.3924 488.937L54.3885 490.084L48.3661 497.183L46.2866 499.549L44.2792 501.915L43.2754 503.134L42.1997 504.281L40.1924 506.718L39.2603 507.866L38.2564 509.013L37.2525 510.232L36.2491 511.379L35.317 512.598L34.3849 513.745L33.381 514.964L32.4489 516.111L31.5168 517.33L30.5847 518.477L29.7243 519.624L28.7922 520.843L27.9319 521.99L27.0715 523.209L26.2112 524.356L25.3508 525.575L24.4905 526.722L22.9129 529.16L22.1243 530.307L21.3358 531.526L20.5472 532.673L19.8299 533.892L19.1131 535.039L18.3959 536.258L17.7508 537.405L17.3924 537.979L17.1054 538.624L16.747 539.198L16.1733 540.345L15.8149 540.918L15.5282 541.564L14.6679 543.285L14.3808 543.93L14.1659 544.503L13.5922 545.65L13.3774 546.224L13.0903 546.869L12.8754 547.443L12.5884 548.017L12.3735 548.59L12.1582 549.235L11.5131 550.956L11.2978 551.602L10.8677 552.749L10.7246 553.322L10.5093 553.967L10.3657 554.541L10.1509 555.115L10.0073 555.688L9.86379 556.334L9.57716 557.481L9.43362 558.126L9.14698 559.273L9.07522 559.847L8.93212 560.492L8.86035 561.066L8.71681 561.639L8.64504 562.284L8.57328 562.858L8.43018 563.432L8.35841 564.005L8.28664 564.65V565.224L8.14311 566.371V567.017L8.07134 567.59V568.164L8.00001 568.737V591.466M87.4412 710.485L87.513 710.628V711.058L87.4412 711.273V711.632L87.3699 711.775V711.918L87.2981 712.133L87.0828 712.564V712.707L86.9393 712.994L86.7962 713.066L86.7244 713.209L86.6526 713.281L86.5809 713.424L86.5091 713.496L86.4378 713.568L86.366 713.639M86.366 713.639L85.8641 714.069M86.366 713.639L86.1507 713.854L86.0789 713.926H86.0076L85.8641 714.069M85.8641 714.069H85.7205V713.998H85.7923V713.854H85.8641L85.9358 713.783V713.711L86.0076 713.639L86.0789 713.568L86.2225 713.281L86.366 713.209L86.4378 713.066L86.5091 712.922L86.6526 712.707L86.8679 712.277L87.011 712.062L87.0828 711.918L87.1546 711.703L87.2263 711.56L87.2981 711.345V711.201L87.3699 710.986L87.4412 710.771V710.413L87.513 710.269L87.5847 709.552V708.907L87.7283 707.473V706.111L87.8 705.466V683.813M8.28664 564.794L8.21487 564.22V563.647L8.14311 563.073L8.07134 562.428V561.281L8.00001 560.707V557.122L8.07134 556.549V555.975L8.14311 555.402V554.828L8.21487 554.183L8.43018 552.462L8.50195 551.817L8.64504 550.669L8.78858 550.096L8.86035 549.45L8.93212 548.877L9.21875 547.73L9.29052 547.085L9.72069 545.364L9.86379 544.718L10.0791 544.145L10.2226 543.571L10.3657 542.926L10.581 542.352L10.7246 541.779L10.9394 541.205L11.1547 540.56L11.7998 538.839L12.0151 538.194L12.6601 536.473L12.9472 535.828L13.1621 535.254L13.4487 534.681L13.664 534.107L13.9506 533.462L14.2377 532.888L14.4526 532.315L15.0263 531.168L15.3129 530.522L15.6 529.949L15.9584 529.375L16.245 528.801L16.5321 528.156L16.8905 527.583L17.1771 527.009L17.8226 525.862L18.5394 524.643L19.1849 523.496L19.9017 522.277L20.6903 521.13L21.4075 519.911L22.1961 518.764L23.7732 516.326L24.634 515.179L25.4944 513.96L26.2829 512.813L27.1433 511.594L28.0754 510.447L28.9357 509.228L29.8678 508.081L30.7282 506.862L31.6603 505.715L32.5924 504.496L33.5245 503.349L34.528 502.13L36.3922 499.835L37.3961 498.617L38.3999 497.469L39.4038 496.251L40.3355 495.103L41.3394 493.884L42.415 492.737L43.4189 491.518L45.4262 489.152L47.5053 486.786L51.5208 482.054L53.5999 479.688L55.5359 477.322L56.5393 476.103L58.5471 473.809L59.4792 472.59L60.4831 471.443L61.4148 470.224L62.3469 469.077L63.3507 467.858L64.2829 466.711L65.1432 465.492L66.0753 464.345L67.0074 463.126L67.8678 461.979L68.7281 460.76L69.6602 459.541L70.4488 458.394L71.3091 457.175L72.0981 456.028L72.9585 454.809L73.7471 453.662L74.4639 452.443L75.2529 451.296L75.9697 450.149L76.6865 448.93L77.332 447.783L78.0488 446.564L78.6942 445.417L79.3393 444.198L79.913 443.05L80.2714 442.477L80.5585 441.832L81.4188 440.111L81.6337 439.466L82.2074 438.318L82.4227 437.745L82.7093 437.1L82.9242 436.526L83.2113 435.952L83.4261 435.379L83.6414 434.733L84.0716 433.586L84.2865 432.941L84.9319 431.22L85.0755 430.575L85.2903 430.001L85.4339 429.428L85.6487 428.783L86.0789 427.062L86.2225 426.416L86.6526 424.696L86.7244 424.122L86.8679 423.477L86.9393 422.903L87.0828 422.33L87.1546 421.756L87.2263 421.111L87.513 418.816L87.5847 418.171V417.598L87.7283 416.451V415.232L87.8 414.658V392.575M87.4412 516.254L87.513 516.9L87.6565 518.047V518.62L87.7283 519.194V520.413L87.8 520.986V522.779L87.7283 523.352V524.571L87.6565 525.145V525.718L87.5847 526.292V526.937L87.4412 528.085L87.3699 528.73L87.2263 529.877L87.0828 530.45L87.011 531.096L86.9393 531.669L86.7962 532.243L86.6526 532.888L86.5809 533.462L86.2942 534.609L86.1507 535.254L85.5774 537.549L85.3621 538.194L85.2186 538.768L85.0037 539.341L84.8602 539.915L84.6453 540.56L83.785 542.854L83.5697 543.5L83.1395 544.647L82.8529 545.22L82.6376 545.866L82.3509 546.439L82.1356 547.013L81.5619 548.16L81.2753 548.805L80.4149 550.526L80.1283 551.171L79.5546 552.318L79.1962 552.892L78.9091 553.537L78.5507 554.111L78.2641 554.684L77.9057 555.258L77.5468 555.903L77.2602 556.477L76.5434 557.696L75.8261 558.843L75.1093 560.062L74.3208 561.209L73.5317 562.428L72.7432 563.575L71.9546 564.794L71.166 565.941L70.3057 567.16L69.4453 568.307L68.5846 569.526L66.8639 571.82L65.9318 573.039L65.0714 574.186L64.1393 575.405L63.2072 576.552L62.2755 577.771L61.2717 578.918L60.3395 580.137L59.3357 581.284L58.4036 582.503L57.3997 583.651L56.3962 584.869L52.3812 589.601L50.3016 591.968L44.2792 599.066L42.1997 601.432L40.2642 603.726L38.2564 606.092L37.2525 607.311L36.3204 608.458L34.3131 610.896L33.381 612.043L32.4489 613.262L31.5168 614.409L30.5847 615.628L29.6525 616.775L28.7922 617.994L27.8601 619.141L26.9997 620.36L26.1394 621.507L25.2791 622.726L24.4905 623.873L23.6301 625.092L22.0526 627.386L21.3358 628.605L20.5472 629.752L19.8299 630.971L19.1131 632.118L18.4677 633.337L17.7508 634.485L17.1054 635.703L16.4603 636.85L15.8149 638.069L15.2411 639.217L14.9545 639.862L14.3808 641.009L14.0942 641.654L13.8075 642.228L13.5922 642.802L13.3056 643.375L13.0903 644.02L12.8037 644.594L12.3735 645.741L12.0869 646.386L11.4414 648.107L11.2978 648.752L10.8677 649.9L10.7246 650.473L10.5093 651.047L10.3657 651.692L10.1509 652.266L9.72069 653.986L9.57716 654.632L9.14698 656.352L9.07522 656.998L8.93212 657.571L8.86035 658.145L8.71681 658.719L8.64504 659.292L8.57328 659.937L8.50195 660.511L8.35841 661.084V661.658L8.28664 662.303L8.14311 663.45V664.024L8.07134 664.669V665.243L8.00001 665.817V688.545M8.28664 661.945L8.21487 661.3V660.726L8.07134 659.579V658.36L8.00001 657.786V654.202L8.07134 653.628V652.983L8.14311 652.409V651.835L8.21487 651.262L8.28664 650.617L8.50195 648.896L8.57328 648.25L8.64504 647.677L8.78858 647.103L8.86035 646.53L9.00345 645.885L9.07522 645.311L9.50539 643.59L9.57716 642.945L9.79246 642.371L10.2226 640.65L10.3657 640.005L10.581 639.432L10.7246 638.858L10.9394 638.285L11.1547 637.639L11.3696 637.066L11.5131 636.492L11.9433 635.345L12.23 634.7L12.8754 632.979L13.1621 632.333L13.3774 631.76L13.9506 630.613L14.2377 629.968L14.4526 629.394L14.7396 628.82L15.0263 628.175L15.3129 627.601L15.6718 627.028L15.9584 626.454L16.6034 625.235L17.1771 624.016L17.8944 622.869L18.5394 621.651L19.2567 620.503L19.9735 619.285L20.6903 618.137L21.4793 616.99L22.1961 615.771L22.9847 614.624L23.7732 613.405L24.634 612.258L25.4226 611.039L27.1433 608.745L28.0036 607.526L28.9357 606.379L29.7961 605.16L30.7282 604.013L31.6603 602.794L32.5924 601.647L33.5245 600.428L34.528 599.209L35.4601 598.062L36.4639 596.843L37.3961 595.696L38.3999 594.477L39.4038 593.33L45.4262 586.232L49.5131 581.5L57.5432 572.035L58.5471 570.888L59.4792 569.669L60.4831 568.522L61.4148 567.303L62.4186 566.156L63.3507 564.937L64.2829 563.79L65.215 562.571L66.0753 561.424L67.0074 560.205L67.8678 559.058L68.7281 557.839L70.4488 555.545L71.3091 554.326L72.0981 553.179L72.8867 551.96L73.6753 550.813L74.4639 549.594L75.1811 548.447L75.8979 547.228L76.6152 546.081L77.332 544.862L78.0488 543.715L78.3358 543.069L78.6942 542.496L78.9809 541.922L79.3393 541.277L79.913 540.13L80.2714 539.556L80.5585 538.911L81.4188 537.19L81.6337 536.545L82.2074 535.398L82.4227 534.824L82.7093 534.179L82.9242 533.605L83.2113 533.032L83.6414 531.885L83.8563 531.239L84.7166 528.945L84.8602 528.3L85.0755 527.726L85.2186 527.152L85.4339 526.579L85.5774 525.933L85.7923 525.36L86.2225 523.639L86.366 522.994L86.5091 522.42L86.5809 521.847L86.7244 521.273L86.8679 520.628L87.011 519.481L87.1546 518.907L87.2263 518.262L87.3699 517.115L87.4412 516.469L87.5847 515.322V514.677L87.7283 513.53V512.311L87.8 511.737V489.654M8.28664 370.635L8.14311 369.202V368.484L8.07134 367.767V366.907L8.14311 366.692V366.549L8.21487 366.334L8.28664 366.19L8.35841 365.975L8.50195 365.688L8.57328 365.545L8.86035 364.971L9.00345 364.828L9.07522 364.756L9.14698 364.613L9.29052 364.541L9.36229 364.469L9.43362 364.398L9.57716 364.326L9.79246 364.111H9.93556L10.0073 364.039L10.0791 363.967H10.3657V364.111L10.2944 364.183V364.254L10.2226 364.326V364.398L10.1509 364.469L10.0791 364.613L10.0073 364.684L9.93556 364.828L9.79246 364.971L9.64892 365.258L9.43362 365.617L9.36229 365.76L9.29052 365.903L9.21875 366.119L9.14698 366.262L9.07522 366.477L9.00345 366.62L8.93212 366.835L8.86035 367.05L8.78858 367.194V367.409L8.71681 367.552V367.767L8.57328 368.269L8.50195 368.843L8.43018 369.345L8.35841 369.919V370.42L8.28664 370.994L8.21487 371.496L8.14311 372.069V372.571L8.07134 373.145V374.22L8.00001 374.722V397.307" stroke="black" stroke-width="1"/>
</svg>
