<svg width="97" height="844" viewBox="0 0 97 844" fill="none" xmlns="http://www.w3.org/2000/svg">
<path d="M96.24 235.126V0.960007M96.24 235.126L95.2361 235.556L94.6628 235.771L94.1609 235.986L93.659 236.13L92.1531 236.775L90.2889 237.492L89.2855 237.851L88.3534 238.209L87.493 238.568L86.5609 238.854L85.7006 239.213L84.7685 239.5L83.9081 239.858L83.1191 240.145L82.2588 240.432L81.3984 240.647L80.6099 240.933L79.7495 241.22L78.9609 241.435L78.1719 241.722L77.3834 241.937L76.6665 242.152L75.878 242.439L75.089 242.654L74.3722 242.798L73.6553 243.013L72.8663 243.228L72.1495 243.443L71.4327 243.586L70.7155 243.801L69.2814 244.088L68.6364 244.303L67.2023 244.59L65.9118 244.877L65.1946 245.02L64.5495 245.092L63.9041 245.235L63.1873 245.379L62.5418 245.451L61.8968 245.594L59.9608 245.809L59.3157 245.952L58.6702 246.024L58.0965 246.096L56.806 246.239H56.161L55.5873 246.311L54.9418 246.383L53.7231 246.454L52.4325 246.526L51.2138 246.598H46.2666L42.6099 246.383L41.3194 246.239H40.674L40.1002 246.168L38.1647 245.952L37.5192 245.809L35.5837 245.594L34.9382 245.451L34.2927 245.379L33.0022 245.092L32.2854 245.02L30.9949 244.733L29.5608 244.447L28.9154 244.303L28.1986 244.088L26.7645 243.801L26.0477 243.586L25.3305 243.443L23.1796 242.798L22.391 242.654L21.6742 242.439L20.8852 242.152L19.3081 241.722L18.5195 241.435L17.7305 241.22L16.9419 240.933L16.0816 240.647L15.293 240.432L13.5723 239.858L12.712 239.5L11.8512 239.213L10.9195 238.854L10.0587 238.568L6.33071 237.133L5.32684 236.775L3.82102 236.13L3.31952 235.986L1.8137 235.341L1.23999 235.126M96.24 235.126V246.598L88.64 251.043L83.8364 254.986L80.5381 260.292L79.0327 266.386L79.5342 272.552L81.9721 278.288M77.2403 746.62H20.2402M77.2403 746.62L83.5493 751.639L87.995 758.235L90.3607 765.907V773.866L87.995 781.537L83.5493 788.134L77.2403 793.152M77.2403 746.62V742.82M20.2402 746.62L14.0025 751.639L9.48545 758.235L7.11929 765.907V773.866L9.48545 781.537L14.0025 788.134L20.2402 793.152M20.2402 746.62V742.82M77.2403 742.82H20.2402M77.2403 742.82L81.9721 740.096M20.2402 742.82L15.5078 740.096M77.2403 335.216H20.2402M77.2403 335.216L81.9721 337.941M77.2403 335.216V331.416M20.2402 335.216L15.5078 337.941M20.2402 335.216V331.416M77.2403 331.416H20.2402M77.2403 331.416L83.5493 326.398L87.995 319.801L90.3607 312.13V304.1L87.995 296.428L83.5493 289.832L77.2403 284.884M20.2402 331.416L14.0025 326.398L9.48545 319.801L7.11929 312.13V304.1L9.48545 296.428L14.0025 289.832L20.2402 284.884M77.2403 284.884H20.2402M77.2403 284.884V281.084M20.2402 284.884V281.084M77.2403 281.084H20.2402M77.2403 281.084L81.9721 278.288M20.2402 281.084L15.5078 278.288M81.9721 278.288H15.5078M15.5078 278.288L17.9458 272.552L18.4477 266.386L17.0137 260.292L13.7154 254.986L8.83997 251.043L1.23999 246.598V235.126M1.23999 235.126V0.960007M81.9721 799.677H15.5078M81.9721 799.677L79.5342 805.413L79.0327 811.651L80.5381 817.673L83.8364 822.979L88.64 826.994L96.24 831.367V842.911L95.2361 842.481L94.6628 842.266L93.157 841.62L92.1531 841.262L91.221 840.903L90.2889 840.473L89.2855 840.115L88.3534 839.756L87.493 839.469L86.5609 839.111L85.7006 838.824L84.7685 838.466L83.9081 838.179L83.1191 837.892L81.3984 837.318L80.6099 837.032L79.7495 836.817L78.9609 836.53L78.1719 836.315L77.3834 836.028L76.6665 835.813L75.089 835.383L73.6553 834.952L72.8663 834.809L71.4327 834.379L70.7155 834.235L69.9987 834.02L69.2814 833.877L68.6364 833.733L67.2023 833.447L65.9118 833.16L65.1946 833.017L64.5495 832.873L63.9041 832.802L63.1873 832.658L62.5418 832.515L61.2513 832.371L60.6062 832.228L58.6702 832.013L58.0965 831.941L56.161 831.726L55.5873 831.654H54.9418L53.7231 831.583L52.4325 831.511L51.2138 831.439H49.9946L48.7759 831.367L47.5571 831.439H46.2666L42.6099 831.654H41.9645L40.674 831.798L40.1002 831.869L36.8742 832.228L36.2287 832.371L34.9382 832.515L33.6477 832.802L33.0022 832.873L32.2854 833.017L30.9949 833.303L29.5608 833.59L28.9154 833.733L27.4817 834.02L26.7645 834.235L26.0477 834.379L24.6136 834.809L23.8968 834.952L23.1796 835.167L22.391 835.383L21.6742 835.598L20.0966 836.028L19.3081 836.315L18.5195 836.53L17.7305 836.817L16.9419 837.032L16.0816 837.318L15.293 837.605L12.712 838.466L11.8512 838.824L10.9195 839.111L10.0587 839.469L9.12705 839.756L7.26282 840.473L6.33071 840.903L4.32296 841.62L1.8137 842.696L1.23999 842.911V831.367L8.83997 826.994L13.7154 822.979L17.0137 817.673L18.4477 811.651L17.9458 805.413L15.5078 799.677M81.9721 799.677L77.2403 796.952M15.5078 799.677L20.2402 796.952M77.2403 793.152H20.2402M77.2403 793.152V796.952M20.2402 793.152V796.952M77.2403 796.952H20.2402M81.9721 337.941H15.5078M81.9721 337.941L79.3193 344.609V351.85L81.9004 358.59L86.7758 363.967H86.8476V364.039H86.9193V364.111L87.0629 364.254L87.1342 364.326L87.206 364.398L87.3495 364.541L87.4213 364.684L87.493 364.756L87.5648 364.9L87.7079 364.971L87.995 365.545L88.0663 365.76L88.2098 366.047L88.2816 366.262V366.405L88.3534 366.62L88.4251 366.764V367.194L88.4965 367.337V710.628L88.4251 710.843V711.058L88.3534 711.201V711.416L88.2816 711.56V711.775L88.2098 711.918L88.1381 712.133L88.0663 712.277L87.995 712.42L87.7079 712.994L87.5648 713.137L87.493 713.281L87.4213 713.352L87.3495 713.424L87.2777 713.568L87.206 713.639L87.1342 713.711L87.0629 713.783L86.9911 713.854L86.9193 713.926L86.7758 714.069L81.9004 719.375L79.3193 726.115V733.356L81.9721 740.096M15.5078 337.941L18.1606 344.609L18.2324 351.85L15.6514 358.59L10.776 363.967H10.7042L10.6324 364.039L10.5607 364.111L10.4893 364.183L10.4176 364.254V364.326L10.3458 364.398L10.274 364.469L10.1305 364.541L10.0587 364.684L9.98739 364.756L9.91562 364.9L9.84385 364.971L9.70032 365.258L9.55722 365.402L9.48545 365.545L9.41368 365.76V365.903L9.34191 366.047L9.27014 366.262L9.19838 366.405V366.62L9.12705 366.764V366.979L9.05528 367.194V710.843L9.12705 711.058V711.201L9.19838 711.416V711.56L9.27014 711.775L9.34191 711.918L9.41368 712.133V712.277L9.55722 712.564L9.70032 712.707L9.98739 713.281L10.0587 713.352L10.1305 713.424L10.274 713.568L10.3458 713.639L10.4176 713.711V713.783L10.4893 713.854L10.5607 713.926H10.6324V713.998H10.7042V714.069H10.776L15.6514 719.375L18.2324 726.115L18.1606 733.356L15.5078 740.096M81.9721 740.096H15.5078M16.2251 363.967L16.2969 364.039L16.3682 364.111V364.183L16.44 364.254V364.398L16.5117 364.469V364.756L16.44 364.9V365.258L16.3682 365.402V365.76L16.2969 365.903V366.262L16.2251 366.62V711.416L16.2969 711.775V712.133L16.3682 712.277V712.564L16.44 712.707V713.137L16.5117 713.209V713.568L16.44 713.639V713.783L16.3682 713.854V713.926H16.2969V713.998H16.2251L16.1533 714.069H15.5078L15.3647 713.998H15.293L15.1494 713.926H15.0059L14.5757 713.711L14.4326 713.639L14.2891 713.568L14.1456 713.424L14.0025 713.352L13.5005 712.851L13.357 712.707L13.2852 712.564L13.1421 712.42L12.9986 712.133L12.9268 711.918L12.7833 711.775V711.56L12.712 711.416L12.6402 711.201L12.5684 711.058V710.628L12.4966 710.485V367.552L12.5684 367.337V366.979L12.6402 366.764L12.712 366.62L12.7833 366.405V366.262L12.9268 366.047L13.0704 365.76L13.1421 365.545L13.2852 365.402L13.357 365.258L13.5005 365.115L13.6436 364.971L13.7872 364.9L14.1456 364.541L14.8628 364.183L15.0059 364.111L15.1494 364.039H15.293L15.3647 363.967H16.2251ZM30.4212 363.967L30.5647 364.039H30.7078L30.8513 364.111L30.9949 364.183L31.0667 364.254L31.2097 364.326L31.2815 364.398L31.3533 364.469L31.4968 364.541L31.5682 364.684L31.6399 364.756L31.7117 364.9V364.971L31.8552 365.258V365.402L31.927 365.545V365.76L31.9988 365.903V366.262L32.0701 366.62V711.416L31.9988 711.775V712.133L31.927 712.277V712.42L31.8552 712.564V712.707L31.7117 712.994V713.137L31.6399 713.209L31.5682 713.352L31.4968 713.424L31.3533 713.568L31.2815 713.639L31.2097 713.711L31.0667 713.783L30.9231 713.854L30.8513 713.926H30.7078L30.5647 713.998H30.4212L30.2776 714.069H29.2024L29.0589 713.998H28.844L28.7005 713.926H28.4852L28.3421 713.854L28.1268 713.783L27.9832 713.711L27.7684 713.639L27.6248 713.568L27.4817 713.424L27.2664 713.352L27.1229 713.281L26.6927 712.851L26.5496 712.707L26.4779 712.564L26.3343 712.42L26.1908 712.133L26.0477 711.918L25.9759 711.775L25.9042 711.56V711.416L25.8324 711.201L25.7606 711.058V710.485L25.6893 710.269V367.767L25.7606 367.552V366.979L25.8324 366.764L25.9042 366.62V366.405L25.9759 366.262L26.0477 366.047L26.1908 365.903L26.2626 365.76L26.3343 365.545L26.6214 365.258L26.6927 365.115L26.8363 364.971L26.9798 364.9L27.1229 364.756L27.2664 364.684L27.4817 364.541L27.6248 364.469L27.7684 364.398L27.9832 364.326L28.1268 364.254L28.3421 364.183L28.4852 364.111L28.7005 364.039H28.844L29.0589 363.967H30.4212ZM49.5644 363.967L49.7798 364.039H49.9233L50.1382 364.111L50.2817 364.183L50.4248 364.254L50.6401 364.326L50.7836 364.398L50.9267 364.469L51.0703 364.541L51.2138 364.684L51.3569 364.756L51.7157 365.115L51.7871 365.258L51.8588 365.402L52.0024 365.545L52.0741 365.76L52.1459 365.903V366.047L52.2172 366.262L52.289 366.405V366.62L52.3608 366.764V366.979L52.4325 367.194V710.628L52.3608 710.843V711.201L52.289 711.416V711.56L52.2172 711.775L52.1459 711.918V712.133L52.0024 712.42L51.8588 712.564L51.7871 712.707L51.7157 712.851L51.5722 712.994L51.5004 713.137L51.3569 713.281L51.2138 713.352L51.0703 713.424L50.9267 713.568L50.6401 713.711L50.4248 713.783L50.2817 713.854L50.1382 713.926H49.9233L49.7798 713.998H49.5644L49.3496 714.069H48.1308L47.9155 713.998H47.772L47.5571 713.926H47.4136L47.1987 713.854L46.9117 713.711L46.7686 713.639L46.5533 713.568L46.4097 713.424L46.2666 713.352L45.9078 712.994L45.8364 712.851L45.6929 712.707L45.4776 712.277L45.4063 712.133L45.3345 711.918L45.2627 711.775V711.56L45.191 711.416V711.201L45.1192 711.058V366.979L45.191 366.764V366.62L45.2627 366.405V366.262L45.3345 366.047L45.4063 365.903L45.4776 365.76L45.5494 365.545L45.6929 365.258L45.8364 365.115L45.9078 364.971L46.0513 364.9L46.4097 364.541L46.5533 364.469L46.7686 364.398L47.1987 364.183L47.4136 364.111L47.5571 364.039H47.772L47.9155 363.967H49.5644ZM68.4929 363.967L68.6364 364.039H68.8513L68.9948 364.111L69.2097 364.183L69.3532 364.254L69.5685 364.326L69.7116 364.398L69.9269 364.469L70.0704 364.541L70.2135 364.684L70.3571 364.756L70.5006 364.9L70.6437 364.971L70.9308 365.258L71.0739 365.402L71.1457 365.545L71.2892 365.76L71.4327 366.047L71.5041 366.262L71.5758 366.405L71.6476 366.62V366.764L71.7194 366.979V367.194L71.7911 367.337V710.628L71.7194 710.843V711.058L71.6476 711.201V711.416L71.5758 711.56L71.5041 711.775L71.4327 711.918L71.361 712.133L71.2892 712.277L71.1457 712.42L71.0739 712.564L70.9308 712.707L70.6437 712.994L70.5006 713.137L70.3571 713.209L70.2135 713.352L70.0704 713.424L69.9269 713.568L69.7116 713.639L69.5685 713.711L69.3532 713.783L69.2097 713.854L68.9948 713.926H68.8513L68.6364 713.998H68.4929L68.278 714.069H67.2023L67.0588 713.998H66.9157L66.7722 713.926H66.7004L66.5569 713.854L66.4138 713.783L66.342 713.711L66.1985 713.639L66.1267 713.568L66.0554 713.424L65.9836 713.352L65.9118 713.281L65.6965 712.851V712.707L65.6248 712.564V712.42L65.5534 712.277V711.918L65.4817 711.775V711.058L65.4099 710.628V367.337L65.4817 366.979V366.262L65.5534 366.047V365.76L65.6248 365.545V365.402L65.6965 365.258V365.115L65.7683 364.971L65.8401 364.9L65.9118 364.756L65.9836 364.684L66.0554 364.541L66.1267 364.469L66.1985 364.398L66.342 364.326L66.4138 364.254L66.5569 364.183L66.7004 364.111L66.8439 364.039H66.9157L67.0588 363.967H68.4929ZM82.1157 363.967L82.2588 364.039H82.4023L82.4741 364.111L82.6176 364.183L82.7607 364.254L82.9042 364.326L83.0478 364.398L83.1909 364.469L83.3344 364.541L83.478 364.684L83.6211 364.756L83.7646 364.9L83.9081 364.971L83.9799 365.115L84.2665 365.402L84.3383 365.545L84.4101 365.76L84.5532 365.903L84.6249 366.047L84.6967 366.262L84.7685 366.405L84.8402 366.62V366.764L84.9116 366.979L84.9833 367.194V710.843L84.9116 711.058L84.8402 711.201V711.416L84.7685 711.56L84.6967 711.775L84.6249 711.918L84.5532 712.133L84.4101 712.277L84.2665 712.564L83.9799 712.851L83.9081 712.994L83.7646 713.137L83.6211 713.209L83.478 713.352L83.3344 713.424L83.1909 713.568L82.7607 713.783L82.6176 713.854L82.4741 713.926H82.4023L82.2588 713.998H82.1157L81.9721 714.069H81.3984L81.3267 713.998H81.2553L81.1836 713.926L81.1118 713.854V713.783L81.04 713.711V712.851L81.1118 712.707V712.42L81.1836 712.277V711.918L81.2553 711.775V711.416L81.3267 711.058V366.979L81.2553 366.62V366.262L81.1836 365.903V365.76L81.1118 365.545V365.258L81.04 365.115V364.326L81.1118 364.254V364.183L81.1836 364.111V364.039H81.2553L81.3267 363.967H82.1157Z" stroke="black" stroke-width="1"/>
</svg>
