<svg width="902" height="312" viewBox="0 0 902 312" fill="none" xmlns="http://www.w3.org/2000/svg">
<path data-isMain d="M899.19 228.837V1.11226C578.328 -2.84195 264.89 97.7079 6.20573 287.579C3.55385 289.525 1.7569 292.421 1.19044 295.662C0.623986 298.902 1.33187 302.236 3.16613 304.967C5.0004 307.697 7.81908 309.613 11.0331 310.314C14.2471 311.015 17.6076 310.447 20.4123 308.728C294.187 174.932 607.652 146.666 900.945 229.33" stroke="black"/>
<path data-isHole d="M426.031 138.405L387.524 118.99C386.022 118.232 384.385 117.78 382.707 117.658C381.03 117.536 379.345 117.747 377.749 118.28C324.508 136.039 272.47 157.22 221.96 181.689C219.075 183.087 216.822 185.521 215.65 188.506C214.479 191.491 214.475 194.807 215.64 197.795C216.805 200.782 219.052 203.221 221.935 204.626C224.817 206.03 228.123 206.297 231.194 205.373C293.764 186.541 357.593 172.179 422.199 162.396C424.874 161.991 427.35 160.746 429.27 158.842C431.19 156.937 432.454 154.471 432.881 151.8C433.307 149.13 432.874 146.392 431.642 143.984C430.411 141.577 428.446 139.623 426.031 138.405Z" stroke="black"/>
<path data-isHole d="M582.46 125.871L535.454 81.917C533.96 80.5208 532.154 79.5042 530.185 78.9527C528.217 78.4012 526.145 78.3311 524.143 78.7483C499.023 83.985 474.063 89.9627 449.296 96.6733C446.806 97.3481 444.579 98.7626 442.909 100.73C441.24 102.697 440.206 105.125 439.946 107.691C439.685 110.258 440.209 112.844 441.449 115.107C442.689 117.369 444.586 119.203 446.89 120.364L506.406 150.372C508.509 151.433 510.866 151.89 513.214 151.693C533.531 149.985 553.883 148.729 574.255 147.924C576.769 147.824 579.197 146.984 581.233 145.508C583.27 144.032 584.825 141.987 585.702 139.629C586.579 137.272 586.739 134.708 586.162 132.26C585.585 129.811 584.297 127.589 582.46 125.871Z" stroke="black"/>
<path data-isHole d="M722.135 129.226L675.3 62.8138C674.002 60.9732 672.24 59.5093 670.192 58.571C668.144 57.6327 665.885 57.2536 663.643 57.4721C638.077 59.9645 612.589 63.2123 587.215 67.2113C584.855 67.5832 582.648 68.6103 580.844 70.1757C579.04 71.7411 577.711 73.7818 577.011 76.0652C576.31 78.3487 576.265 80.783 576.88 83.0909C577.496 85.3989 578.747 87.4875 580.491 89.1188L638.689 143.536C641.007 145.704 644.052 146.93 647.226 146.972C668.484 147.257 689.733 148.034 710.956 149.302C713.352 149.445 715.74 148.908 717.845 147.754C719.951 146.6 721.687 144.875 722.855 142.778C724.023 140.68 724.575 138.296 724.448 135.898C724.321 133.501 723.519 131.188 722.135 129.226Z" stroke="black"/>
<path data-isHole d="M848.19 149.532V64.8719C848.19 61.568 846.908 58.3931 844.613 56.0162C842.318 53.6393 839.19 52.2459 835.889 52.1298C798.44 50.8123 760.952 51.1107 723.53 53.0243C721.252 53.1408 719.047 53.8662 717.145 55.1248C715.243 56.3835 713.713 58.1293 712.715 60.1804C711.718 62.2314 711.288 64.5126 711.472 66.786C711.656 69.0594 712.447 71.2418 713.761 73.1058L767.62 149.478C768.664 150.958 770.011 152.198 771.572 153.117C773.133 154.036 774.872 154.612 776.672 154.806C795.679 156.857 814.642 159.302 833.547 162.141C835.361 162.413 837.212 162.291 838.975 161.782C840.737 161.274 842.369 160.391 843.76 159.194C845.15 157.997 846.265 156.514 847.03 154.847C847.794 153.179 848.19 151.367 848.19 149.532Z" stroke="black"/>
</svg>
