<svg width="707" height="245" viewBox="0 0 707 245" fill="none" xmlns="http://www.w3.org/2000/svg">
<path data-isMain d="M705.463 179.696V1.08803C453.806 -2.0133 207.972 76.8493 5.08291 225.768C3.00301 227.294 1.59363 229.566 1.14935 232.107C0.705074 234.649 1.26027 237.264 2.69891 239.405C4.13755 241.547 6.34829 243.05 8.86906 243.6C11.3898 244.149 14.0256 243.704 16.2253 242.355C230.95 137.417 476.805 115.248 706.839 180.082" stroke="black"/>
<path data-isHole d="M334.357 108.769L304.156 93.5409C302.978 92.947 301.694 92.592 300.378 92.4964C299.063 92.4009 297.741 92.5666 296.49 92.984C254.732 106.913 213.918 123.525 174.302 142.717C172.039 143.813 170.272 145.722 169.353 148.063C168.435 150.404 168.432 153.006 169.345 155.349C170.259 157.692 172.021 159.605 174.282 160.706C176.543 161.808 179.136 162.017 181.544 161.292C230.619 146.522 280.681 135.258 331.353 127.585C333.45 127.267 335.392 126.291 336.898 124.797C338.404 123.303 339.396 121.369 339.73 119.275C340.065 117.18 339.724 115.033 338.759 113.145C337.793 111.256 336.251 109.724 334.357 108.769Z" stroke="black"/>
<path data-isHole d="M457.047 98.9377L420.179 64.4643C419.008 63.3693 417.591 62.5719 416.047 62.1394C414.503 61.7068 412.878 61.6518 411.309 61.979C391.607 66.0863 372.03 70.7746 352.605 76.0379C350.652 76.5671 348.905 77.6765 347.595 79.2195C346.286 80.7624 345.476 82.6663 345.271 84.6796C345.067 86.6929 345.478 88.7208 346.45 90.4955C347.423 92.2702 348.911 93.708 350.718 94.6191L397.397 118.155C399.047 118.987 400.895 119.345 402.736 119.19C418.671 117.851 434.634 116.866 450.612 116.234C452.583 116.156 454.488 115.497 456.085 114.34C457.682 113.182 458.902 111.578 459.59 109.729C460.278 107.88 460.403 105.869 459.951 103.949C459.498 102.029 458.488 100.285 457.047 98.9377Z" stroke="black"/>
<path data-isHole d="M566.596 101.57L529.863 49.4814C528.845 48.0378 527.462 46.8896 525.857 46.1537C524.251 45.4178 522.478 45.1204 520.72 45.2918C500.668 47.2466 480.678 49.7939 460.776 52.9304C458.926 53.2221 457.194 54.0277 455.779 55.2554C454.364 56.4832 453.323 58.0837 452.773 59.8747C452.224 61.6656 452.188 63.5749 452.671 65.385C453.153 67.1952 454.135 68.8333 455.503 70.1128L501.148 112.793C502.967 114.494 505.354 115.455 507.844 115.488C524.517 115.712 541.183 116.321 557.828 117.315C559.708 117.427 561.581 117.007 563.232 116.101C564.883 115.196 566.245 113.843 567.161 112.198C568.077 110.553 568.51 108.683 568.41 106.803C568.31 104.922 567.682 103.108 566.596 101.57Z" stroke="black"/>
<path data-isHole d="M665.463 117.496V51.0956C665.463 48.5043 664.457 46.0142 662.657 44.1499C660.857 42.2857 658.404 41.1929 655.815 41.1018C626.443 40.0685 597.041 40.3025 567.69 41.8034C565.903 41.8947 564.174 42.4637 562.682 43.4508C561.19 44.438 559.991 45.8073 559.208 47.416C558.426 49.0247 558.089 50.8138 558.233 52.5968C558.378 54.3799 558.998 56.0916 560.028 57.5536L602.271 117.453C603.09 118.614 604.146 119.587 605.37 120.308C606.595 121.028 607.958 121.48 609.37 121.632C624.278 123.24 639.15 125.158 653.978 127.385C655.401 127.599 656.853 127.503 658.235 127.104C659.618 126.705 660.898 126.013 661.988 125.074C663.078 124.135 663.953 122.972 664.553 121.664C665.153 120.356 665.463 118.935 665.463 117.496Z" stroke="black"/>
</svg>
