<svg width="1639" height="574" viewBox="0 0 1639 574" fill="none" xmlns="http://www.w3.org/2000/svg">
<path d="M1.10938 1V233.381C463.422 233.381 922.208 313.843 1356.93 471.167C1361.36 472.771 1365.09 475.89 1367.44 479.973L1415.34 562.924C1417.09 565.964 1419.62 568.489 1422.66 570.244C1425.7 572 1429.15 572.924 1432.66 572.924H1570.26C1573.59 572.924 1576.87 572.092 1579.8 570.505C1582.72 568.917 1585.21 566.623 1587.03 563.832L1637.35 486.498C1150.44 169.659 582.024 1 1.10938 1Z" stroke="#FF0000" data-isMain stroke-width="2"/>
<path d="M131.864 140.084L142.966 89.5962C144.5 82.6224 148.47 76.4242 154.164 72.1157C159.859 67.8073 166.903 65.6711 174.031 66.091C284.765 72.6154 395.042 85.4015 504.331 104.388C508.264 105.071 512.021 106.533 515.382 108.686C518.743 110.84 521.641 113.643 523.905 116.93C526.169 120.218 527.754 123.924 528.567 127.832C529.381 131.74 529.406 135.771 528.642 139.689L521.022 178.755C519.57 186.198 515.354 192.815 509.221 197.275C503.088 201.735 495.493 203.706 487.965 202.794C379.041 189.585 269.624 180.814 159.986 176.504C155.602 176.332 151.309 175.2 147.41 173.188C143.511 171.177 140.1 168.335 137.419 164.862C134.738 161.389 132.85 157.371 131.891 153.09C130.931 148.809 130.922 144.369 131.864 140.084Z" stroke="black" data-isHole stroke-width="2"/>
<path d="M1065.02 297.641L1070.49 284.159C1071.49 281.699 1071.98 279.064 1071.95 276.409C1071.92 273.754 1071.36 271.132 1070.31 268.695C1069.25 266.259 1067.72 264.056 1065.81 262.217C1063.89 260.378 1061.63 258.939 1059.15 257.983C917.462 203.33 771.75 159.738 623.325 127.598C619.424 126.753 615.393 126.695 611.469 127.428C607.546 128.16 603.807 129.669 600.474 131.865C597.14 134.06 594.278 136.899 592.056 140.215C589.833 143.531 588.295 147.257 587.531 151.175L581.227 183.496C580.452 187.468 580.489 191.556 581.335 195.513C582.181 199.47 583.82 203.216 586.151 206.523C588.483 209.831 591.459 212.633 594.902 214.76C598.345 216.887 602.182 218.296 606.183 218.902C752.787 241.085 898.059 271.314 1041.34 309.452C1046.05 310.705 1051.05 310.197 1055.41 308.022C1059.77 305.847 1063.19 302.156 1065.02 297.641Z" stroke="black" data-isHole stroke-width="2"/>
<path d="M1319.98 373.418C1322.24 374.555 1323.99 376.511 1324.87 378.889C1325.75 381.267 1325.69 383.89 1324.71 386.228C1323.73 388.565 1321.9 390.443 1319.58 391.48C1317.27 392.517 1314.65 392.637 1312.25 391.815C1254.52 372.031 1196.36 353.557 1137.79 336.406C1135.11 335.62 1132.62 334.281 1130.49 332.474C1128.36 330.667 1126.62 328.434 1125.41 325.917C1124.19 323.4 1123.52 320.656 1123.42 317.862C1123.33 315.068 1123.83 312.286 1124.88 309.696L1126.09 306.707C1127.09 304.246 1128.57 302.009 1130.44 300.125C1132.31 298.242 1134.54 296.75 1136.99 295.736C1139.45 294.723 1142.08 294.209 1144.73 294.223C1147.39 294.237 1150.02 294.78 1152.46 295.82C1209.1 319.926 1264.96 345.804 1319.98 373.418Z" stroke="black" data-isHole stroke-width="2"/>
<path d="M1401.11 395.281C1404.98 395.281 1408.11 392.147 1408.11 388.281C1408.11 384.415 1404.98 381.281 1401.11 381.281C1397.24 381.281 1394.11 384.415 1394.11 388.281C1394.11 392.147 1397.24 395.281 1401.11 395.281Z" stroke="black" data-isHole/>
<path d="M1401.11 495.281C1404.98 495.281 1408.11 492.147 1408.11 488.281C1408.11 484.415 1404.98 481.281 1401.11 481.281C1397.24 481.281 1394.11 484.415 1394.11 488.281C1394.11 492.147 1397.24 495.281 1401.11 495.281Z" stroke="black" data-isHole/>
<path d="M1561.11 487.66C1564.98 487.66 1568.11 484.526 1568.11 480.66C1568.11 476.794 1564.98 473.66 1561.11 473.66C1557.24 473.66 1554.11 476.794 1554.11 480.66C1554.11 484.526 1557.24 487.66 1561.11 487.66Z" stroke="black" data-isHole/>
<path d="M1561.11 557.66C1564.98 557.66 1568.11 554.526 1568.11 550.66C1568.11 546.794 1564.98 543.66 1561.11 543.66C1557.24 543.66 1554.11 546.794 1554.11 550.66C1554.11 554.526 1557.24 557.66 1561.11 557.66Z" stroke="black" data-isHole/>
<path d="M21.1094 220.379C24.9754 220.379 28.1094 217.245 28.1094 213.379C28.1094 209.513 24.9754 206.379 21.1094 206.379C17.2434 206.379 14.1094 209.513 14.1094 213.379C14.1094 217.245 17.2434 220.379 21.1094 220.379Z" stroke="black" data-isHole/>
<path d="M81.1094 220.379C84.9754 220.379 88.1094 217.245 88.1094 213.379C88.1094 209.513 84.9754 206.379 81.1094 206.379C77.2434 206.379 74.1094 209.513 74.1094 213.379C74.1094 217.245 77.2434 220.379 81.1094 220.379Z" stroke="black" data-isHole/>
<path d="M21.1094 33C24.9754 33 28.1094 29.866 28.1094 26C28.1094 22.134 24.9754 19 21.1094 19C17.2434 19 14.1094 22.134 14.1094 26C14.1094 29.866 17.2434 33 21.1094 33Z" stroke="black" data-isHole/>
<path d="M121.109 36C124.975 36 128.109 32.866 128.109 29C128.109 25.134 124.975 22 121.109 22C117.243 22 114.109 25.134 114.109 29C114.109 32.866 117.243 36 121.109 36Z" stroke="black" data-isHole/>
</svg>
