<svg width="1890" height="642" viewBox="0 0 1890 642" fill="none" xmlns="http://www.w3.org/2000/svg">
<path d="M1.10938 1.84375V257.13C548.69 257.13 1092.09 352.512 1606.93 538.998C1611.37 540.603 1615.09 543.721 1617.44 547.802L1665.34 630.755C1667.09 633.795 1669.62 636.32 1672.66 638.075C1675.7 639.831 1679.15 640.755 1682.66 640.755H1820.26C1823.59 640.755 1826.87 639.923 1829.8 638.336C1832.72 636.748 1835.21 634.454 1837.03 631.663L1887.68 553.819C1324.46 193.391 669.782 1.84375 1.10938 1.84375Z" stroke="#FF0000" data-isMain stroke-width="2"/>
<path d="M129.941 163.858L144.625 90.3536C146.035 83.295 149.936 76.9786 155.616 72.5572C161.296 68.1358 168.376 65.9041 175.565 66.2691C314.941 73.3465 453.758 88.8987 591.245 112.84C595.17 113.523 598.92 114.982 602.275 117.13C605.63 119.278 608.524 122.073 610.788 125.352C613.051 128.631 614.639 132.327 615.458 136.226C616.277 140.125 616.312 144.148 615.559 148.061L604.194 207.156C602.76 214.611 598.554 221.245 592.422 225.721C586.29 230.197 578.69 232.182 571.153 231.276C434.08 214.795 296.357 204.266 158.371 199.719C154.019 199.576 149.75 198.486 145.861 196.527C141.972 194.568 138.556 191.785 135.851 188.373C133.145 184.961 131.216 181 130.195 176.767C129.174 172.534 129.088 168.129 129.941 163.858Z" stroke="black" data-isHole stroke-width="2"/>
<path d="M1231.6 340.222L1241.66 315.022C1242.65 312.56 1243.13 309.927 1243.09 307.276C1243.04 304.626 1242.47 302.01 1241.41 299.582C1240.35 297.153 1238.81 294.96 1236.89 293.131C1234.97 291.301 1232.71 289.871 1230.24 288.924C1061.17 224.245 887.255 173.012 710.123 135.703C706.224 134.882 702.201 134.845 698.288 135.596C694.376 136.346 690.652 137.869 687.334 140.074C684.016 142.279 681.17 145.123 678.963 148.44C676.756 151.757 675.232 155.481 674.479 159.393L664.427 211.666C663.661 215.647 663.71 219.742 664.571 223.703C665.432 227.665 667.087 231.411 669.436 234.715C671.786 238.019 674.78 240.813 678.239 242.927C681.698 245.042 685.55 246.433 689.561 247.018C864.174 272.458 1037.24 307.557 1207.97 352.154C1212.69 353.386 1217.69 352.853 1222.04 350.656C1226.39 348.459 1229.79 344.748 1231.6 340.222Z" stroke="black" data-isHole stroke-width="2"/>
<path d="M1574.27 442.631C1576.52 443.788 1578.24 445.755 1579.1 448.136C1579.96 450.517 1579.88 453.134 1578.89 455.46C1577.89 457.786 1576.05 459.648 1573.74 460.671C1571.42 461.694 1568.81 461.801 1566.42 460.972C1479.98 430.98 1392.7 403.479 1304.68 378.503C1301.98 377.738 1299.48 376.416 1297.33 374.623C1295.18 372.829 1293.43 370.603 1292.19 368.09C1290.95 365.577 1290.26 362.832 1290.15 360.034C1290.04 357.235 1290.52 354.445 1291.56 351.844L1297.38 337.277C1298.37 334.815 1299.83 332.573 1301.69 330.682C1303.54 328.79 1305.76 327.287 1308.2 326.259C1310.65 325.232 1313.27 324.7 1315.92 324.695C1318.57 324.691 1321.2 325.213 1323.64 326.232C1408.71 361.66 1492.32 400.491 1574.27 442.631Z" stroke="black" data-isHole stroke-width="2"/>
<path d="M1651.11 463.113C1654.98 463.113 1658.11 459.979 1658.11 456.113C1658.11 452.247 1654.98 449.113 1651.11 449.113C1647.24 449.113 1644.11 452.247 1644.11 456.113C1644.11 459.979 1647.24 463.113 1651.11 463.113Z" stroke="black" data-isHole/>
<path d="M1651.11 563.113C1654.98 563.113 1658.11 559.979 1658.11 556.113C1658.11 552.247 1654.98 549.113 1651.11 549.113C1647.24 549.113 1644.11 552.247 1644.11 556.113C1644.11 559.979 1647.24 563.113 1651.11 563.113Z" stroke="black" data-isHole/>
<path d="M1811.11 555.492C1814.98 555.492 1818.11 552.358 1818.11 548.492C1818.11 544.626 1814.98 541.492 1811.11 541.492C1807.24 541.492 1804.11 544.626 1804.11 548.492C1804.11 552.358 1807.24 555.492 1811.11 555.492Z" stroke="black" data-isHole/>
<path d="M1811.11 625.492C1814.98 625.492 1818.11 622.358 1818.11 618.492C1818.11 614.626 1814.98 611.492 1811.11 611.492C1807.24 611.492 1804.11 614.626 1804.11 618.492C1804.11 622.358 1807.24 625.492 1811.11 625.492Z" stroke="black" data-isHole/>
<path d="M21.1094 244.129C24.9754 244.129 28.1094 240.995 28.1094 237.129C28.1094 233.263 24.9754 230.129 21.1094 230.129C17.2434 230.129 14.1094 233.263 14.1094 237.129C14.1094 240.995 17.2434 244.129 21.1094 244.129Z" stroke="black" data-isHole/>
<path d="M81.1094 244.129C84.9754 244.129 88.1094 240.995 88.1094 237.129C88.1094 233.263 84.9754 230.129 81.1094 230.129C77.2434 230.129 74.1094 233.263 74.1094 237.129C74.1094 240.995 77.2434 244.129 81.1094 244.129Z" stroke="black" data-isHole/>
<path d="M21.1094 33.8438C24.9754 33.8438 28.1094 30.7097 28.1094 26.8438C28.1094 22.9778 24.9754 19.8438 21.1094 19.8438C17.2434 19.8438 14.1094 22.9778 14.1094 26.8438C14.1094 30.7097 17.2434 33.8438 21.1094 33.8438Z" stroke="black" data-isHole/>
<path d="M121.109 33.8438C124.975 33.8438 128.109 30.7097 128.109 26.8438C128.109 22.9778 124.975 19.8438 121.109 19.8438C117.243 19.8438 114.109 22.9778 114.109 26.8438C114.109 30.7097 117.243 33.8438 121.109 33.8438Z" stroke="black" data-isHole/>
</svg>
