<svg width="2140" height="709" viewBox="0 0 2140 709" fill="none" xmlns="http://www.w3.org/2000/svg">
<path d="M1915.34 697.601C1917.09 700.641 1919.62 703.167 1922.66 704.922C1925.7 706.677 1929.15 707.601 1932.66 707.601H2070.26C2073.59 707.601 2076.87 706.77 2079.8 705.182C2082.72 703.594 2085.21 701.301 2087.03 698.51L2137.93 620.283C1498.47 216.192 757.544 1.70312 1.10938 1.70312V279.895C633.958 279.895 1261.96 390.196 1856.94 605.845C1861.37 607.451 1865.09 610.568 1867.44 614.648L1915.34 697.601Z" stroke="#FF0000" data-isMain stroke-width="2"/>
<path d="M145.995 90.193L128.33 186.712C127.551 190.967 127.702 195.34 128.771 199.531C129.841 203.723 131.804 207.633 134.526 210.994C137.249 214.356 140.665 217.089 144.543 219.006C148.42 220.923 152.667 221.979 156.991 222.101C263.329 225.113 369.557 231.206 475.542 240.372C483.187 241.033 490.795 238.74 496.8 233.964C502.806 229.188 506.753 222.293 507.831 214.696L520.312 126.676C520.871 122.737 520.64 118.727 519.634 114.878C518.628 111.028 516.866 107.418 514.452 104.256C512.037 101.094 509.018 98.4444 505.569 96.4605C502.121 94.4767 498.312 93.1984 494.365 92.7003C388.933 79.3964 283.006 70.3634 176.843 65.6236C169.601 65.3003 162.486 67.6104 156.815 72.127C151.144 76.6437 147.3 83.0616 145.995 90.193Z" stroke="black" data-isHole stroke-width="2"/>
<path d="M1059.23 237.956L1043.63 291.835C1041.56 298.991 1036.9 305.121 1030.56 309.031C1024.22 312.941 1016.65 314.351 1009.32 312.987C871.854 287.383 733.461 267.024 594.443 251.956C590.444 251.523 586.572 250.289 583.059 248.329C579.546 246.369 576.463 243.723 573.994 240.548C571.524 237.372 569.719 233.732 568.684 229.845C567.65 225.957 567.408 221.902 567.973 217.919L579.717 135.1C580.276 131.161 581.612 127.373 583.649 123.955C585.685 120.538 588.381 117.559 591.58 115.194C594.778 112.828 598.416 111.121 602.28 110.174C606.144 109.228 610.157 109.059 614.087 109.678C757.058 132.195 898.679 162.573 1038.31 200.674C1042.14 201.721 1045.74 203.521 1048.87 205.969C1052.01 208.418 1054.62 211.466 1056.57 214.935C1058.52 218.405 1059.76 222.227 1060.21 226.179C1060.67 230.131 1060.33 234.135 1059.23 237.956Z" stroke="black" data-isHole stroke-width="2"/>
<path d="M1573.83 431.241L1581.34 414.551C1582.43 412.136 1583.02 409.53 1583.09 406.883C1583.16 404.236 1582.71 401.601 1581.75 399.132C1580.8 396.662 1579.36 394.407 1577.53 392.497C1575.69 390.587 1573.5 389.06 1571.07 388.005C1435.2 328.977 1296.11 277.659 1154.46 234.295C1150.66 233.13 1146.66 232.734 1142.7 233.129C1138.74 233.524 1134.9 234.702 1131.4 236.595C1127.9 238.489 1124.81 241.059 1122.32 244.157C1119.82 247.255 1117.97 250.818 1116.86 254.64L1104.17 298.498C1103.02 302.467 1102.7 306.63 1103.24 310.726C1103.77 314.822 1105.15 318.764 1107.28 322.304C1109.41 325.844 1112.25 328.906 1115.61 331.298C1118.98 333.69 1122.81 335.361 1126.85 336.205C1269.23 365.944 1410.38 401.314 1549.97 442.23C1554.6 443.589 1559.57 443.224 1563.96 441.204C1568.35 439.184 1571.85 435.645 1573.83 431.241Z" stroke="black" data-isHole stroke-width="2"/>
<path d="M1827.25 510.455C1829.49 511.626 1831.2 513.601 1832.04 515.983C1832.89 518.365 1832.8 520.978 1831.79 523.295C1830.79 525.613 1828.94 527.465 1826.63 528.477C1824.31 529.49 1821.7 529.59 1819.31 528.755C1761.9 508.67 1704.16 489.538 1646.11 471.366C1643.42 470.522 1640.93 469.114 1638.81 467.238C1636.7 465.361 1635.01 463.058 1633.85 460.479C1632.69 457.9 1632.09 455.105 1632.09 452.278C1632.09 449.451 1632.69 446.656 1633.85 444.077L1636.06 439.157C1637.15 436.742 1638.7 434.567 1640.64 432.757C1642.57 430.948 1644.84 429.541 1647.32 428.617C1649.81 427.693 1652.45 427.27 1655.09 427.375C1657.74 427.479 1660.34 428.108 1662.74 429.225C1718.2 455.021 1773.05 482.105 1827.25 510.455Z" stroke="black" data-isHole stroke-width="2"/>
<path d="M1901.11 529.961C1904.98 529.961 1908.11 526.827 1908.11 522.961C1908.11 519.095 1904.98 515.961 1901.11 515.961C1897.24 515.961 1894.11 519.095 1894.11 522.961C1894.11 526.827 1897.24 529.961 1901.11 529.961Z" stroke="black" data-isHole/>
<path d="M1901.11 629.961C1904.98 629.961 1908.11 626.827 1908.11 622.961C1908.11 619.095 1904.98 615.961 1901.11 615.961C1897.24 615.961 1894.11 619.095 1894.11 622.961C1894.11 626.827 1897.24 629.961 1901.11 629.961Z" stroke="black" data-isHole/>
<path d="M2061.11 622.336C2064.98 622.336 2068.11 619.202 2068.11 615.336C2068.11 611.47 2064.98 608.336 2061.11 608.336C2057.24 608.336 2054.11 611.47 2054.11 615.336C2054.11 619.202 2057.24 622.336 2061.11 622.336Z" stroke="black" data-isHole/>
<path d="M2061.11 692.336C2064.98 692.336 2068.11 689.202 2068.11 685.336C2068.11 681.47 2064.98 678.336 2061.11 678.336C2057.24 678.336 2054.11 681.47 2054.11 685.336C2054.11 689.202 2057.24 692.336 2061.11 692.336Z" stroke="black" data-isHole/>
<path d="M21.1094 266.898C24.9754 266.898 28.1094 263.764 28.1094 259.898C28.1094 256.032 24.9754 252.898 21.1094 252.898C17.2434 252.898 14.1094 256.032 14.1094 259.898C14.1094 263.764 17.2434 266.898 21.1094 266.898Z" stroke="black" data-isHole/>
<path d="M81.1094 266.898C84.9754 266.898 88.1094 263.764 88.1094 259.898C88.1094 256.032 84.9754 252.898 81.1094 252.898C77.2434 252.898 74.1094 256.032 74.1094 259.898C74.1094 263.764 77.2434 266.898 81.1094 266.898Z" stroke="black" data-isHole/>
<path d="M21.1094 33.7031C24.9754 33.7031 28.1094 30.5691 28.1094 26.7031C28.1094 22.8371 24.9754 19.7031 21.1094 19.7031C17.2434 19.7031 14.1094 22.8371 14.1094 26.7031C14.1094 30.5691 17.2434 33.7031 21.1094 33.7031Z" stroke="black" data-isHole/>
<path d="M121.109 33.7031C124.975 33.7031 128.109 30.5691 128.109 26.7031C128.109 22.8371 124.975 19.7031 121.109 19.7031C117.243 19.7031 114.109 22.8371 114.109 26.7031C114.109 30.5691 117.243 33.7031 121.109 33.7031Z" stroke="black" data-isHole/>
</svg>
