<svg width="2390" height="776" viewBox="0 0 2390 776" fill="none" xmlns="http://www.w3.org/2000/svg">
<path d="M2165.34 764.722C2167.09 767.762 2169.62 770.287 2172.66 772.042C2175.7 773.797 2179.15 774.722 2182.66 774.722H2320.26C2323.59 774.722 2326.87 773.89 2329.8 772.302C2332.72 770.715 2335.21 768.421 2337.03 765.63L2388.12 687.105C1672.48 239.303 845.307 1.83594 1.10938 1.83594V302.933C719.226 302.933 1431.84 428.153 2106.94 672.965C2111.37 674.571 2115.09 677.688 2117.44 681.768L2165.34 764.722Z" stroke="#FF0000" data-isMain stroke-width="2"/>
<path d="M126.966 209.868L147.149 90.3407C148.364 83.1465 152.159 76.642 157.824 72.0438C163.489 67.4457 170.635 65.0692 177.925 65.3598C305.63 70.4495 433.055 81.0508 559.845 97.1342C563.788 97.6343 567.592 98.9129 571.036 100.895C574.48 102.878 577.496 105.525 579.908 108.683C582.321 111.84 584.083 115.446 585.09 119.29C586.098 123.134 586.331 127.14 585.778 131.076L570.398 240.387C569.328 247.99 565.383 254.894 559.376 259.677C553.369 264.459 545.757 266.756 538.107 266.095C410.92 255.104 283.425 248.02 155.803 244.854C151.504 244.747 147.279 243.718 143.413 241.836C139.548 239.954 136.132 237.262 133.397 233.944C130.663 230.626 128.673 226.759 127.563 222.605C126.454 218.451 126.25 214.108 126.966 209.868Z" stroke="black" data-isHole stroke-width="2"/>
<path d="M1168.83 325.563L1189.04 255.165C1190.14 251.345 1190.47 247.346 1190 243.399C1189.54 239.451 1188.3 235.636 1186.35 232.172C1184.4 228.709 1181.79 225.668 1178.65 223.225C1175.52 220.782 1171.93 218.986 1168.09 217.941C1007.3 174.141 844.177 139.427 679.485 113.965C675.558 113.358 671.549 113.538 667.692 114.493C663.834 115.448 660.205 117.16 657.014 119.529C653.824 121.899 651.136 124.879 649.107 128.296C647.078 131.712 645.748 135.498 645.194 139.434L630.551 243.513C629.99 247.501 630.237 251.56 631.278 255.449C632.319 259.339 634.132 262.979 636.61 266.153C639.088 269.327 642.179 271.97 645.699 273.924C649.22 275.878 653.098 277.103 657.102 277.526C817.084 294.447 976.351 317.55 1134.55 346.785C1141.88 348.139 1149.45 346.717 1155.79 342.794C1162.13 338.87 1166.78 332.728 1168.83 325.563Z" stroke="black" data-isHole stroke-width="2"/>
<path d="M1769.58 462.292L1765.8 470.761C1762.85 477.372 1757.61 482.694 1751.05 485.746C1744.49 488.798 1737.04 489.374 1730.08 487.367C1572.41 441.874 1412.99 402.622 1252.22 369.703C1248.16 368.874 1244.33 367.215 1240.95 364.833C1237.57 362.45 1234.72 359.393 1232.57 355.856C1230.43 352.319 1229.04 348.377 1228.5 344.277C1227.95 340.178 1228.26 336.01 1229.4 332.035L1246.71 271.722C1247.81 267.902 1249.65 264.339 1252.14 261.238C1254.63 258.137 1257.7 255.561 1261.19 253.659C1264.68 251.757 1268.51 250.567 1272.47 250.159C1276.42 249.75 1280.41 250.132 1284.22 251.28C1443.91 299.487 1600.76 356.654 1754.02 422.511C1757.67 424.08 1760.98 426.359 1763.74 429.215C1766.5 432.071 1768.67 435.448 1770.12 439.149C1771.56 442.85 1772.26 446.802 1772.17 450.774C1772.08 454.747 1771.2 458.663 1769.58 462.292Z" stroke="black" data-isHole stroke-width="2"/>
<path d="M2079.44 578.302C2081.67 579.484 2083.38 581.465 2084.21 583.847C2085.04 586.23 2084.94 588.839 2083.92 591.151C2082.91 593.462 2081.06 595.306 2078.75 596.311C2076.43 597.317 2073.82 597.41 2071.44 596.572C1993.07 568.992 1914.14 542.98 1834.73 518.552C1832.02 517.72 1829.52 516.324 1827.4 514.455C1825.27 512.586 1823.57 510.286 1822.4 507.71C1821.23 505.133 1820.62 502.337 1820.61 499.507C1820.6 496.676 1821.19 493.876 1822.34 491.291L1828.5 477.48C1829.58 475.064 1831.12 472.885 1833.05 471.071C1834.97 469.257 1837.24 467.842 1839.71 466.909C1842.19 465.976 1844.83 465.544 1847.47 465.637C1850.11 465.731 1852.71 466.348 1855.12 467.452C1930.92 502.288 2005.72 539.252 2079.44 578.302Z" stroke="black" data-isHole stroke-width="2"/>
<path d="M2151.11 597.082C2154.98 597.082 2158.11 593.948 2158.11 590.082C2158.11 586.216 2154.98 583.082 2151.11 583.082C2147.24 583.082 2144.11 586.216 2144.11 590.082C2144.11 593.948 2147.24 597.082 2151.11 597.082Z" stroke="black" data-isHole/>
<path d="M2151.11 697.082C2154.98 697.082 2158.11 693.948 2158.11 690.082C2158.11 686.216 2154.98 683.082 2151.11 683.082C2147.24 683.082 2144.11 686.216 2144.11 690.082C2144.11 693.948 2147.24 697.082 2151.11 697.082Z" stroke="black" data-isHole/>
<path d="M2311.11 689.457C2314.98 689.457 2318.11 686.323 2318.11 682.457C2318.11 678.591 2314.98 675.457 2311.11 675.457C2307.24 675.457 2304.11 678.591 2304.11 682.457C2304.11 686.323 2307.24 689.457 2311.11 689.457Z" stroke="black" data-isHole/>
<path d="M2311.11 759.457C2314.98 759.457 2318.11 756.323 2318.11 752.457C2318.11 748.591 2314.98 745.457 2311.11 745.457C2307.24 745.457 2304.11 748.591 2304.11 752.457C2304.11 756.323 2307.24 759.457 2311.11 759.457Z" stroke="black" data-isHole/>
<path d="M21.1094 289.934C24.9754 289.934 28.1094 286.8 28.1094 282.934C28.1094 279.068 24.9754 275.934 21.1094 275.934C17.2434 275.934 14.1094 279.068 14.1094 282.934C14.1094 286.8 17.2434 289.934 21.1094 289.934Z" stroke="black" data-isHole/>
<path d="M81.1094 289.934C84.9754 289.934 88.1094 286.8 88.1094 282.934C88.1094 279.068 84.9754 275.934 81.1094 275.934C77.2434 275.934 74.1094 279.068 74.1094 282.934C74.1094 286.8 77.2434 289.934 81.1094 289.934Z" stroke="black" data-isHole/>
<path d="M21.1094 33.8359C24.9754 33.8359 28.1094 30.7019 28.1094 26.8359C28.1094 22.9699 24.9754 19.8359 21.1094 19.8359C17.2434 19.8359 14.1094 22.9699 14.1094 26.8359C14.1094 30.7019 17.2434 33.8359 21.1094 33.8359Z" stroke="black" data-isHole/>
<path d="M121.109 33.8359C124.975 33.8359 128.109 30.7019 128.109 26.8359C128.109 22.9699 124.975 19.8359 121.109 19.8359C117.243 19.8359 114.109 22.9699 114.109 26.8359C114.109 30.7019 117.243 33.8359 121.109 33.8359Z" stroke="black" data-isHole/>
</svg>
