<svg width="2640" height="843" viewBox="0 0 2640 843" fill="none" xmlns="http://www.w3.org/2000/svg">
<path d="M2415.34 831.654C2417.09 834.695 2419.62 837.219 2422.66 838.975C2425.7 840.73 2429.15 841.654 2432.66 841.654H2570.26C2573.59 841.654 2576.87 840.822 2579.8 839.234C2582.72 837.647 2585.21 835.354 2587.03 832.562L2638.28 753.8C1846.49 262.251 933.072 1.78125 1.10938 1.78125V325.784C804.493 325.784 1601.72 465.923 2356.94 739.898C2361.37 741.504 2365.09 744.621 2367.44 748.699L2415.34 831.654Z" stroke="#FF0000" data-isMain stroke-width="2"/>
<path d="M125.799 232.842L148.139 90.3153C149.275 83.0666 153.028 76.4858 158.688 71.8173C164.349 67.1488 171.524 64.7164 178.856 64.9804C282.287 68.7044 385.576 75.6778 488.569 85.8905C492.52 86.2823 496.354 87.4551 499.849 89.3398C503.343 91.2244 506.429 93.7838 508.927 96.87C511.425 99.9563 513.286 103.508 514.401 107.318C515.516 111.129 515.864 115.123 515.424 119.069L500.28 254.867C499.424 262.548 495.636 269.602 489.706 274.559C483.777 279.515 476.164 281.993 468.453 281.475C364.012 274.454 259.427 269.788 154.776 267.479C150.5 267.385 146.294 266.377 142.44 264.524C138.585 262.671 135.171 260.017 132.427 256.736C129.683 253.456 127.672 249.627 126.529 245.506C125.386 241.385 125.137 237.067 125.799 232.842Z" stroke="black" data-isHole stroke-width="2"/>
<path d="M1029.04 314.018L1053.4 206.15C1054.27 202.277 1054.37 198.268 1053.69 194.358C1053 190.447 1051.54 186.711 1049.4 183.367C1047.26 180.023 1044.48 177.138 1041.22 174.877C1037.95 172.617 1034.27 171.027 1030.39 170.199C890.868 140.477 750.126 116.812 608.557 99.2707C604.617 98.7825 600.619 99.0811 596.795 100.15C592.971 101.218 589.397 103.035 586.281 105.495C583.164 107.955 580.567 111.01 578.639 114.482C576.712 117.953 575.494 121.772 575.053 125.718L560.38 257.298C559.936 261.281 560.294 265.312 561.434 269.154C562.573 272.995 564.471 276.57 567.015 279.666C569.559 282.763 572.697 285.317 576.244 287.181C579.792 289.044 583.677 290.178 587.67 290.516C724.04 302.036 860.04 317.572 995.495 337.102C1002.96 338.179 1010.57 336.401 1016.78 332.122C1023 327.844 1027.38 321.379 1029.04 314.018Z" stroke="black" data-isHole stroke-width="2"/>
<path d="M1578.41 352.318L1556.95 414.336C1554.54 421.301 1549.65 427.135 1543.21 430.725C1536.78 434.315 1529.24 435.411 1522.05 433.802C1386.81 403.553 1250.7 377.346 1113.9 355.215C1109.86 354.561 1105.99 353.086 1102.54 350.881C1099.09 348.676 1096.13 345.787 1093.83 342.394C1091.54 339 1089.97 335.173 1089.21 331.149C1088.45 327.124 1088.53 322.986 1089.43 318.991L1111.93 219.368C1112.8 215.495 1114.44 211.834 1116.74 208.598C1119.04 205.361 1121.96 202.613 1125.33 200.514C1128.7 198.414 1132.45 197.004 1136.37 196.366C1140.29 195.728 1144.29 195.875 1148.16 196.797C1286.91 229.92 1424.16 269.037 1559.53 314.039C1563.29 315.292 1566.78 317.28 1569.77 319.888C1572.76 322.496 1575.21 325.673 1576.97 329.233C1578.72 332.794 1579.76 336.668 1580 340.631C1580.25 344.594 1579.71 348.566 1578.41 352.318Z" stroke="black" data-isHole stroke-width="2"/>
<path d="M2083.29 557.235L2083.99 555.77C2085.7 552.184 2086.67 548.297 2086.87 544.331C2087.06 540.365 2086.46 536.4 2085.11 532.667C2083.76 528.933 2081.68 525.505 2079 522.581C2076.31 519.657 2073.07 517.296 2069.46 515.634C1939.92 455.907 1807.85 401.818 1673.62 353.521C1669.88 352.177 1665.92 351.588 1661.95 351.788C1657.99 351.988 1654.1 352.972 1650.52 354.686C1646.94 356.399 1643.73 358.806 1641.09 361.768C1638.44 364.729 1636.41 368.186 1635.11 371.938L1617.77 422.062C1616.4 426.014 1615.87 430.209 1616.22 434.376C1616.57 438.543 1617.79 442.591 1619.79 446.261C1621.8 449.93 1624.55 453.141 1627.87 455.685C1631.19 458.228 1635 460.05 1639.06 461.033C1776.28 494.217 1912.45 531.563 2047.4 573.02C2054.28 575.134 2061.69 574.702 2068.28 571.805C2074.87 568.907 2080.2 563.736 2083.29 557.235Z" stroke="black" data-isHole stroke-width="2"/>
<path d="M2331.13 645.795C2333.35 646.984 2335.05 648.969 2335.87 651.352C2336.69 653.736 2336.58 656.342 2335.56 658.648C2334.55 660.955 2332.7 662.792 2330.38 663.792C2328.07 664.792 2325.46 664.881 2323.08 664.041C2266.18 643.928 2209.01 624.556 2151.6 605.929C2148.89 605.05 2146.41 603.605 2144.3 601.687C2142.2 599.77 2140.53 597.426 2139.4 594.811C2138.28 592.197 2137.72 589.373 2137.78 586.527C2137.83 583.681 2138.49 580.879 2139.71 578.309L2142.52 572.425C2143.65 570.038 2145.25 567.899 2147.22 566.134C2149.18 564.368 2151.48 563.01 2153.98 562.138C2156.47 561.267 2159.12 560.898 2161.76 561.055C2164.4 561.211 2166.98 561.888 2169.35 563.049C2223.78 589.636 2277.72 617.223 2331.13 645.795Z" stroke="black" data-isHole stroke-width="2"/>
<path d="M2401.11 664.012C2404.98 664.012 2408.11 660.878 2408.11 657.012C2408.11 653.146 2404.98 650.012 2401.11 650.012C2397.24 650.012 2394.11 653.146 2394.11 657.012C2394.11 660.878 2397.24 664.012 2401.11 664.012Z" stroke="black" data-isHole/>
<path d="M2401.11 764.012C2404.98 764.012 2408.11 760.878 2408.11 757.012C2408.11 753.146 2404.98 750.012 2401.11 750.012C2397.24 750.012 2394.11 753.146 2394.11 757.012C2394.11 760.878 2397.24 764.012 2401.11 764.012Z" stroke="black" data-isHole/>
<path d="M2561.11 756.387C2564.98 756.387 2568.11 753.253 2568.11 749.387C2568.11 745.521 2564.98 742.387 2561.11 742.387C2557.24 742.387 2554.11 745.521 2554.11 749.387C2554.11 753.253 2557.24 756.387 2561.11 756.387Z" stroke="black" data-isHole/>
<path d="M2561.11 826.387C2564.98 826.387 2568.11 823.253 2568.11 819.387C2568.11 815.521 2564.98 812.387 2561.11 812.387C2557.24 812.387 2554.11 815.521 2554.11 819.387C2554.11 823.253 2557.24 826.387 2561.11 826.387Z" stroke="black" data-isHole/>
<path d="M21.1094 312.781C24.9754 312.781 28.1094 309.647 28.1094 305.781C28.1094 301.915 24.9754 298.781 21.1094 298.781C17.2434 298.781 14.1094 301.915 14.1094 305.781C14.1094 309.647 17.2434 312.781 21.1094 312.781Z" stroke="black" data-isHole/>
<path d="M81.1094 312.781C84.9754 312.781 88.1094 309.647 88.1094 305.781C88.1094 301.915 84.9754 298.781 81.1094 298.781C77.2434 298.781 74.1094 301.915 74.1094 305.781C74.1094 309.647 77.2434 312.781 81.1094 312.781Z" stroke="black" data-isHole/>
<path d="M21.1094 33.7812C24.9754 33.7812 28.1094 30.6472 28.1094 26.7812C28.1094 22.9153 24.9754 19.7812 21.1094 19.7812C17.2434 19.7812 14.1094 22.9153 14.1094 26.7812C14.1094 30.6472 17.2434 33.7812 21.1094 33.7812Z" stroke="black" data-isHole/>
<path d="M121.109 33.7812C124.975 33.7812 128.109 30.6472 128.109 26.7812C128.109 22.9153 124.975 19.7812 121.109 19.7812C117.243 19.7812 114.109 22.9153 114.109 26.7812C114.109 30.6472 117.243 33.7812 121.109 33.7812Z" stroke="black" data-isHole/>
</svg>
