<svg width="2913" height="959" viewBox="0 0 2913 959" fill="none" xmlns="http://www.w3.org/2000/svg">
<path d="M2665.34 947.86C2667.09 950.901 2669.62 953.425 2672.66 955.181C2675.7 956.936 2679.15 957.86 2682.66 957.86H2820.26C2823.59 957.86 2826.87 957.029 2829.8 955.441C2832.72 953.854 2835.21 951.56 2837.03 948.769L2911.59 834.188C2038.47 289.666 1030.11 1 1.10938 1V397.909C889.76 397.909 1771.6 552.966 2606.94 856.104C2611.37 857.711 2615.09 860.827 2617.44 864.905L2665.34 947.86Z" stroke="#FF0000" data-isMain stroke-width="2"/>
<path d="M140.92 282.332L185.451 107.81C187.149 101.154 191.08 95.2819 196.587 91.1759C202.094 87.0699 208.844 84.9781 215.707 85.2501C325.432 89.5979 434.999 97.28 544.257 108.284C548.205 108.682 552.034 109.858 555.524 111.746C559.014 113.634 562.095 116.196 564.588 119.282C567.081 122.369 568.937 125.919 570.049 129.728C571.16 133.536 571.506 137.529 571.064 141.472L552.326 308.809C551.466 316.488 547.677 323.539 541.747 328.493C535.816 333.447 528.204 335.922 520.494 335.402C403.575 327.517 286.491 322.296 169.334 319.742C164.819 319.644 160.385 318.527 156.361 316.476C152.338 314.424 148.83 311.491 146.098 307.895C143.366 304.298 141.482 300.132 140.585 295.706C139.689 291.28 139.803 286.708 140.92 282.332V282.332Z" stroke="black" data-isHole stroke-width="2"/>
<path d="M1133.27 373.434L1163.94 238.186C1164.82 234.317 1164.92 230.312 1164.24 226.403C1163.56 222.494 1162.11 218.76 1159.97 215.415C1157.84 212.07 1155.06 209.181 1151.8 206.917C1148.55 204.652 1144.87 203.057 1140.99 202.222C983.33 168.306 824.233 141.443 664.175 121.714C660.237 121.228 656.242 121.529 652.421 122.598C648.6 123.667 645.029 125.483 641.915 127.942C638.801 130.401 636.205 133.453 634.279 136.922C632.352 140.39 631.133 144.207 630.691 148.15L612.44 311.141C611.994 315.128 612.352 319.165 613.492 323.011C614.633 326.858 616.534 330.436 619.082 333.535C621.631 336.634 624.775 339.19 628.328 341.052C631.882 342.915 635.773 344.045 639.772 344.377C793.581 357.146 946.972 374.527 1099.74 396.494C1107.2 397.567 1114.8 395.79 1121.01 391.517C1127.22 387.244 1131.6 380.788 1133.27 373.434Z" stroke="black" data-isHole stroke-width="2"/>
<path d="M1742.37 400.277L1713.62 482.995C1711.2 489.945 1706.32 495.765 1699.89 499.348C1693.46 502.931 1685.94 504.027 1678.76 502.427C1526.18 468.453 1372.6 439.121 1218.23 414.472C1214.18 413.825 1210.31 412.355 1206.85 410.15C1203.39 407.946 1200.41 405.054 1198.12 401.656C1195.82 398.257 1194.24 394.424 1193.48 390.391C1192.72 386.359 1192.8 382.214 1193.71 378.213L1222.46 251.459C1223.33 247.589 1224.97 243.932 1227.27 240.699C1229.57 237.466 1232.49 234.723 1235.86 232.626C1239.23 230.529 1242.98 229.12 1246.89 228.483C1250.81 227.846 1254.81 227.992 1258.67 228.913C1415.54 266.331 1570.66 310.731 1723.57 361.982C1727.33 363.243 1730.81 365.237 1733.79 367.85C1736.78 370.463 1739.22 373.643 1740.96 377.205C1742.71 380.766 1743.74 384.639 1743.98 388.599C1744.22 392.56 1743.67 396.529 1742.37 400.277V400.277Z" stroke="black" data-isHole stroke-width="2"/>
<path d="M2292.76 639.143L2299.17 625.729C2300.88 622.149 2301.87 618.266 2302.07 614.303C2302.27 610.34 2301.68 606.378 2300.34 602.644C2299 598.91 2296.93 595.478 2294.25 592.549C2291.58 589.62 2288.35 587.251 2284.75 585.579C2138.49 517.631 1989.28 456.245 1837.55 401.603C1833.81 400.258 1829.85 399.668 1825.89 399.865C1821.92 400.063 1818.04 401.044 1814.46 402.753C1810.88 404.462 1807.67 406.865 1805.03 409.821C1802.38 412.778 1800.35 416.23 1799.04 419.978L1774.55 490.445C1773.17 494.405 1772.64 498.61 1772.99 502.787C1773.34 506.965 1774.56 511.022 1776.57 514.699C1778.58 518.376 1781.34 521.591 1784.68 524.136C1788.01 526.681 1791.83 528.499 1795.91 529.474C1950.84 566.513 2104.58 608.338 2256.92 654.891C2263.79 656.99 2271.19 656.555 2277.76 653.665C2284.34 650.775 2289.66 645.622 2292.76 639.143V639.143Z" stroke="black" data-isHole stroke-width="2"/>
<path d="M2558.43 722.248C2561.76 724.03 2564.3 727.003 2565.53 730.573C2566.77 734.142 2566.61 738.046 2565.09 741.504C2563.57 744.963 2560.81 747.721 2557.34 749.228C2553.88 750.735 2549.98 750.881 2546.41 749.635C2488.55 729.425 2430.45 709.905 2372.12 691.079C2368.05 689.765 2364.31 687.596 2361.14 684.716C2357.98 681.837 2355.47 678.314 2353.78 674.384C2352.09 670.455 2351.26 666.209 2351.34 661.932C2351.43 657.655 2352.43 653.447 2354.27 649.587L2353.3 651.613C2355.01 648.033 2357.42 644.829 2360.38 642.185C2363.34 639.541 2366.79 637.51 2370.54 636.21C2374.29 634.91 2378.26 634.367 2382.22 634.612C2386.18 634.856 2390.05 635.885 2393.61 637.636C2449.03 664.899 2503.98 693.107 2558.43 722.248V722.248Z" stroke="black" data-isHole stroke-width="2"/>
<path d="M2651.11 730.223C2654.98 730.223 2658.11 727.089 2658.11 723.223C2658.11 719.357 2654.98 716.223 2651.11 716.223C2647.24 716.223 2644.11 719.357 2644.11 723.223C2644.11 727.089 2647.24 730.223 2651.11 730.223Z" stroke="black" data-isHole/>
<path d="M2651.11 880.223C2654.98 880.223 2658.11 877.089 2658.11 873.223C2658.11 869.357 2654.98 866.223 2651.11 866.223C2647.24 866.223 2644.11 869.357 2644.11 873.223C2644.11 877.089 2647.24 880.223 2651.11 880.223Z" stroke="black" data-isHole/>
<path d="M2811.11 822.598C2814.98 822.598 2818.11 819.464 2818.11 815.598C2818.11 811.732 2814.98 808.598 2811.11 808.598C2807.24 808.598 2804.11 811.732 2804.11 815.598C2804.11 819.464 2807.24 822.598 2811.11 822.598Z" stroke="black" data-isHole/>
<path d="M2811.11 942.598C2814.98 942.598 2818.11 939.464 2818.11 935.598C2818.11 931.732 2814.98 928.598 2811.11 928.598C2807.24 928.598 2804.11 931.732 2804.11 935.598C2804.11 939.464 2807.24 942.598 2811.11 942.598Z" stroke="black" data-isHole/>
<path d="M21.1094 384.91C24.9754 384.91 28.1094 381.776 28.1094 377.91C28.1094 374.044 24.9754 370.91 21.1094 370.91C17.2434 370.91 14.1094 374.044 14.1094 377.91C14.1094 381.776 17.2434 384.91 21.1094 384.91Z" stroke="black" data-isHole/>
<path d="M81.1094 384.91C84.9754 384.91 88.1094 381.776 88.1094 377.91C88.1094 374.044 84.9754 370.91 81.1094 370.91C77.2434 370.91 74.1094 374.044 74.1094 377.91C74.1094 381.776 77.2434 384.91 81.1094 384.91Z" stroke="black" data-isHole/>
<path d="M21.1094 33C24.9754 33 28.1094 29.866 28.1094 26C28.1094 22.134 24.9754 19 21.1094 19C17.2434 19 14.1094 22.134 14.1094 26C14.1094 29.866 17.2434 33 21.1094 33Z" stroke="black" data-isHole/>
<path d="M171.109 33C174.975 33 178.109 29.866 178.109 26C178.109 22.134 174.975 19 171.109 19C167.243 19 164.109 22.134 164.109 26C164.109 29.866 167.243 33 171.109 33Z" stroke="black" data-isHole/>
</svg>
