<svg width="3164" height="1027" viewBox="0 0 3164 1027" fill="none" xmlns="http://www.w3.org/2000/svg">
<path d="M2915.34 1015.22C2917.09 1018.26 2919.62 1020.78 2922.66 1022.54C2925.7 1024.29 2929.15 1025.22 2932.66 1025.22H3070.26C3073.59 1025.22 3076.87 1024.39 3079.8 1022.8C3082.72 1021.21 3085.21 1018.92 3087.03 1016.13L3161.73 901.324C2212.47 313.047 1117.87 1.37109 1.10938 1.37109V421.185C975.027 421.185 1941.47 591.161 2856.95 923.463C2861.37 925.069 2865.09 928.185 2867.44 932.263L2915.34 1015.22Z" stroke="#FF0000" data-isMain stroke-width="2"/>
<path d="M139.211 305.805L186.832 108.263C188.454 101.534 192.354 95.5727 197.868 91.3901C203.383 87.2075 210.175 85.0604 217.092 85.313C301.723 88.4026 386.278 93.3082 470.698 100.026C474.651 100.34 478.502 101.435 482.029 103.248C485.556 105.06 488.689 107.554 491.246 110.584C493.804 113.615 495.735 117.122 496.928 120.904C498.121 124.685 498.553 128.666 498.198 132.616L480.843 325.811C480.148 333.547 476.48 340.712 470.61 345.798C464.741 350.885 457.127 353.496 449.371 353.084C355.572 348.101 261.697 344.683 167.783 342.831C163.296 342.742 158.886 341.647 154.879 339.628C150.871 337.609 147.367 334.717 144.625 331.165C141.883 327.612 139.973 323.489 139.036 319.1C138.099 314.711 138.159 310.168 139.211 305.805V305.805Z" stroke="black" data-isHole stroke-width="2"/>
<path d="M994.032 371.455L1024.97 201.276C1025.68 197.375 1025.61 193.371 1024.76 189.497C1023.91 185.623 1022.3 181.957 1020.03 178.708C1017.76 175.459 1014.86 172.693 1011.51 170.57C1008.16 168.447 1004.42 167.01 1000.52 166.341C864.64 143.068 727.993 124.55 590.824 110.817C586.879 110.422 582.894 110.813 579.1 111.968C575.307 113.122 571.78 115.018 568.723 117.544C565.667 120.07 563.142 123.177 561.294 126.685C559.446 130.194 558.311 134.034 557.956 137.983L540.917 327.659C540.56 331.639 541.001 335.651 542.215 339.458C543.429 343.265 545.391 346.792 547.987 349.83C550.583 352.868 553.759 355.357 557.33 357.151C560.901 358.945 564.794 360.007 568.781 360.275C699.816 369.098 830.626 380.975 961.107 395.895C968.672 396.76 976.283 394.717 982.397 390.179C988.511 385.64 992.67 378.946 994.032 371.455V371.455Z" stroke="black" data-isHole stroke-width="2"/>
<path d="M1540.84 316.422L1504.39 448.328C1502.4 455.523 1497.8 461.718 1491.49 465.704C1485.18 469.689 1477.61 471.179 1470.26 469.881C1340.66 447 1210.54 427.15 1080.02 410.346C1075.98 409.827 1072.09 408.49 1068.59 406.42C1065.08 404.349 1062.04 401.587 1059.63 398.302C1057.23 395.016 1055.52 391.276 1054.61 387.309C1053.7 383.342 1053.6 379.231 1054.33 375.226L1084 212.006C1084.71 208.104 1086.19 204.382 1088.34 201.055C1090.5 197.727 1093.29 194.861 1096.57 192.62C1099.84 190.379 1103.52 188.809 1107.4 188.001C1111.29 187.193 1115.29 187.162 1119.18 187.911C1253.68 213.778 1387.24 244.304 1519.62 279.435C1523.45 280.452 1527.04 282.219 1530.19 284.634C1533.33 287.048 1535.97 290.062 1537.94 293.502C1539.91 296.941 1541.19 300.738 1541.68 304.672C1542.18 308.606 1541.89 312.6 1540.84 316.422Z" stroke="black" data-isHole stroke-width="2"/>
<path d="M2014.77 557.474L2044.81 477.539C2046.2 473.827 2046.85 469.875 2046.7 465.913C2046.56 461.95 2045.64 458.054 2043.98 454.452C2042.32 450.849 2039.97 447.61 2037.05 444.923C2034.14 442.236 2030.72 440.154 2026.99 438.797C1898.13 391.867 1767.68 349.427 1635.87 311.557C1632.06 310.462 1628.07 310.134 1624.13 310.59C1620.19 311.047 1616.38 312.281 1612.92 314.219C1609.46 316.158 1606.42 318.763 1603.98 321.883C1601.53 325.004 1599.73 328.579 1598.67 332.401L1565.03 454.133C1563.93 458.127 1563.67 462.306 1564.26 466.407C1564.85 470.508 1566.28 474.442 1568.47 477.96C1570.66 481.479 1573.55 484.506 1576.97 486.852C1580.38 489.198 1584.24 490.811 1588.31 491.589C1719.41 516.661 1849.9 544.835 1979.66 576.087C1986.78 577.801 1994.27 576.854 2000.74 573.426C2007.2 569.998 2012.19 564.325 2014.77 557.474V557.474Z" stroke="black" data-isHole stroke-width="2"/>
<path d="M2524.24 699.908L2532.28 683.235C2534.01 679.664 2535 675.786 2535.22 671.826C2535.43 667.867 2534.86 663.904 2533.53 660.167C2532.2 656.43 2530.15 652.994 2527.49 650.056C2524.82 647.118 2521.6 644.738 2518.01 643.052C2393.89 584.746 2267.77 530.772 2139.89 481.226C2136.19 479.793 2132.25 479.108 2128.29 479.209C2124.32 479.311 2120.42 480.196 2116.8 481.816C2113.18 483.436 2109.92 485.758 2107.2 488.647C2104.48 491.535 2102.37 494.934 2100.97 498.646L2075.85 565.493C2074.37 569.439 2073.73 573.652 2073.99 577.859C2074.24 582.066 2075.38 586.173 2077.33 589.91C2079.28 593.648 2081.99 596.933 2085.29 599.552C2088.59 602.171 2092.41 604.064 2096.49 605.109C2227.99 638.77 2358.66 675.593 2488.39 715.549C2495.25 717.661 2502.64 717.246 2509.22 714.376C2515.79 711.506 2521.13 706.373 2524.24 699.908V699.908Z" stroke="black" data-isHole stroke-width="2"/>
<path d="M2809.59 789.956C2812.91 791.747 2815.44 794.725 2816.66 798.295C2817.88 801.866 2817.72 805.767 2816.19 809.22C2814.67 812.673 2811.9 815.424 2808.44 816.924C2804.97 818.425 2801.07 818.565 2797.51 817.316C2733.14 794.741 2668.5 772.947 2603.6 751.938C2599.52 750.618 2595.78 748.441 2592.61 745.553C2589.45 742.665 2586.94 739.132 2585.25 735.194C2583.57 731.255 2582.75 727.002 2582.84 722.719C2582.94 718.436 2583.95 714.224 2585.81 710.366L2586.33 709.298C2588.05 705.726 2590.46 702.531 2593.43 699.898C2596.39 697.265 2599.85 695.246 2603.6 693.957C2607.35 692.669 2611.32 692.135 2615.28 692.39C2619.23 692.645 2623.1 693.682 2626.66 695.441C2688.18 725.883 2749.16 757.393 2809.59 789.956V789.956Z" stroke="black" data-isHole stroke-width="2"/>
<path d="M2901.11 797.578C2904.98 797.578 2908.11 794.444 2908.11 790.578C2908.11 786.712 2904.98 783.578 2901.11 783.578C2897.24 783.578 2894.11 786.712 2894.11 790.578C2894.11 794.444 2897.24 797.578 2901.11 797.578Z" stroke="black" data-isHole/>
<path d="M2901.11 947.578C2904.98 947.578 2908.11 944.444 2908.11 940.578C2908.11 936.712 2904.98 933.578 2901.11 933.578C2897.24 933.578 2894.11 936.712 2894.11 940.578C2894.11 944.444 2897.24 947.578 2901.11 947.578Z" stroke="black" data-isHole/>
<path d="M3061.11 889.953C3064.98 889.953 3068.11 886.819 3068.11 882.953C3068.11 879.087 3064.98 875.953 3061.11 875.953C3057.24 875.953 3054.11 879.087 3054.11 882.953C3054.11 886.819 3057.24 889.953 3061.11 889.953Z" stroke="black" data-isHole/>
<path d="M3061.11 1009.95C3064.98 1009.95 3068.11 1006.82 3068.11 1002.95C3068.11 999.087 3064.98 995.953 3061.11 995.953C3057.24 995.953 3054.11 999.087 3054.11 1002.95C3054.11 1006.82 3057.24 1009.95 3061.11 1009.95Z" stroke="black" data-isHole/>
<path d="M21.1094 408.188C24.9754 408.188 28.1094 405.053 28.1094 401.188C28.1094 397.322 24.9754 394.188 21.1094 394.188C17.2434 394.188 14.1094 397.322 14.1094 401.188C14.1094 405.053 17.2434 408.188 21.1094 408.188Z" stroke="black" data-isHole/>
<path d="M81.1094 408.188C84.9754 408.188 88.1094 405.053 88.1094 401.188C88.1094 397.322 84.9754 394.188 81.1094 394.188C77.2434 394.188 74.1094 397.322 74.1094 401.188C74.1094 405.053 77.2434 408.188 81.1094 408.188Z" stroke="black" data-isHole/>
<path d="M21.1094 33.3711C24.9754 33.3711 28.1094 30.2371 28.1094 26.3711C28.1094 22.5051 24.9754 19.3711 21.1094 19.3711C17.2434 19.3711 14.1094 22.5051 14.1094 26.3711C14.1094 30.2371 17.2434 33.3711 21.1094 33.3711Z" stroke="black" data-isHole/>
<path d="M171.109 33.3711C174.975 33.3711 178.109 30.2371 178.109 26.3711C178.109 22.5051 174.975 19.3711 171.109 19.3711C167.243 19.3711 164.109 22.5051 164.109 26.3711C164.109 30.2371 167.243 33.3711 171.109 33.3711Z" stroke="black" data-isHole/>
</svg>
