<svg width="3414" height="1094" viewBox="0 0 3414 1094" fill="none" xmlns="http://www.w3.org/2000/svg">
<path d="M3165.34 1082.09C3167.09 1085.13 3169.62 1087.66 3172.66 1089.41C3175.7 1091.17 3179.15 1092.09 3182.66 1092.09H3320.26C3323.59 1092.09 3326.87 1091.26 3329.8 1089.67C3332.72 1088.09 3335.21 1085.79 3337.03 1083L3411.85 968.01C2386.47 335.958 1205.64 1.25781 1.10938 1.25781V443.977C1060.29 443.977 2111.35 628.873 3106.95 990.338C3111.37 991.944 3115.09 995.06 3117.44 999.137L3165.34 1082.09Z" stroke="#FF0000" data-isMain stroke-width="2"/>
<path d="M137.683 328.787L188.07 108.232C189.622 101.438 193.492 95.3961 199.014 91.1441C204.536 86.8921 211.366 84.6954 218.332 84.9313C322.711 88.465 426.989 94.5463 531.072 103.168C535.022 103.495 538.868 104.601 542.387 106.423C545.907 108.246 549.031 110.747 551.578 113.783C554.126 116.819 556.046 120.33 557.229 124.113C558.411 127.896 558.833 131.875 558.469 135.822L538.634 350.732C537.92 358.464 534.236 365.619 528.357 370.691C522.477 375.763 514.86 378.357 507.107 377.929C393.622 371.665 280.029 367.509 166.389 365.462C161.928 365.382 157.541 364.308 153.548 362.318C149.555 360.328 146.056 357.472 143.305 353.959C140.555 350.445 138.624 346.362 137.651 342.007C136.679 337.653 136.689 333.136 137.683 328.787V328.787Z" stroke="black" data-isHole stroke-width="2"/>
<path d="M1106.62 402.535L1141.72 214.094C1142.45 210.197 1142.4 206.196 1141.57 202.32C1140.74 198.445 1139.15 194.773 1136.89 191.516C1134.63 188.258 1131.75 185.48 1128.41 183.342C1125.08 181.204 1121.35 179.748 1117.45 179.059C962.85 151.761 807.304 130.143 651.123 114.248C647.18 113.847 643.197 114.23 639.403 115.377C635.609 116.524 632.08 118.411 629.02 120.93C625.96 123.448 623.429 126.548 621.574 130.051C619.719 133.553 618.577 137.389 618.212 141.336L598.713 352.617C598.345 356.6 598.778 360.616 599.985 364.43C601.192 368.243 603.15 371.775 605.743 374.82C608.336 377.866 611.512 380.364 615.084 382.164C618.656 383.964 622.551 385.032 626.542 385.305C775.886 395.502 924.957 409.349 1073.62 426.836C1081.18 427.725 1088.79 425.711 1094.92 421.199C1101.04 416.687 1105.23 410.015 1106.62 402.535V402.535Z" stroke="black" data-isHole stroke-width="2"/>
<path d="M1714.41 345.449L1673.46 489.964C1671.43 497.137 1666.8 503.297 1660.47 507.242C1654.15 511.187 1646.58 512.634 1639.24 511.304C1490.94 484.411 1341.99 461.173 1192.54 441.613C1188.5 441.084 1184.61 439.737 1181.1 437.654C1177.6 435.571 1174.56 432.795 1172.16 429.498C1169.77 426.2 1168.07 422.45 1167.17 418.474C1166.27 414.498 1166.19 410.38 1166.94 406.373L1200.71 225.084C1201.44 221.187 1202.93 217.473 1205.1 214.156C1207.27 210.839 1210.07 207.986 1213.35 205.759C1216.63 203.533 1220.32 201.978 1224.2 201.185C1228.08 200.392 1232.08 200.376 1235.97 201.138C1389.73 231.275 1542.32 267.028 1693.46 308.33C1697.28 309.374 1700.86 311.165 1703.99 313.601C1707.11 316.037 1709.73 319.07 1711.68 322.521C1713.62 325.972 1714.87 329.775 1715.34 333.711C1715.81 337.646 1715.5 341.636 1714.41 345.449Z" stroke="black" data-isHole stroke-width="2"/>
<path d="M2240.37 614.146L2273.2 529.07C2274.63 525.373 2275.31 521.429 2275.2 517.467C2275.09 513.505 2274.2 509.604 2272.58 505.988C2270.96 502.372 2268.63 499.113 2265.74 496.4C2262.86 493.688 2259.46 491.574 2255.75 490.182C2108.85 435.084 1959.99 385.39 1809.45 341.199C1805.65 340.083 1801.66 339.731 1797.72 340.164C1793.78 340.597 1789.97 341.807 1786.5 343.723C1783.03 345.639 1779.97 348.224 1777.51 351.328C1775.05 354.432 1773.22 357.993 1772.14 361.807L1734.14 495.879C1733.01 499.873 1732.72 504.056 1733.29 508.168C1733.86 512.28 1735.28 516.229 1737.45 519.766C1739.62 523.302 1742.51 526.35 1745.92 528.715C1749.33 531.079 1753.2 532.71 1757.27 533.504C1907.37 562.757 2056.73 595.757 2205.18 632.471C2212.27 634.224 2219.76 633.331 2226.24 629.957C2232.72 626.583 2237.74 620.961 2240.37 614.146V614.146Z" stroke="black" data-isHole stroke-width="2"/>
<path d="M2812.44 763.157L2805.97 776.206C2802.79 782.62 2797.42 787.685 2790.84 790.487C2784.25 793.289 2776.87 793.642 2770.05 791.483C2621.79 744.587 2472.38 701.464 2321.93 662.157C2317.85 661.089 2314.03 659.17 2310.74 656.526C2307.44 653.882 2304.74 650.571 2302.82 646.811C2300.89 643.052 2299.78 638.928 2299.56 634.71C2299.33 630.491 2300.01 626.274 2301.53 622.333L2329.18 550.669C2330.6 546.971 2332.75 543.593 2335.49 540.729C2338.23 537.865 2341.51 535.572 2345.14 533.983C2348.77 532.394 2352.68 531.542 2356.64 531.473C2360.61 531.404 2364.54 532.119 2368.23 533.581C2513.96 591.387 2657.53 654.512 2798.64 722.829C2802.2 724.556 2805.39 726.973 2808.02 729.94C2810.65 732.907 2812.66 736.364 2813.95 740.114C2815.23 743.864 2815.76 747.831 2815.5 751.786C2815.24 755.741 2814.2 759.606 2812.44 763.157V763.157Z" stroke="black" data-isHole stroke-width="2"/>
<path d="M3048.42 884.458C3051.98 885.711 3055.88 885.576 3059.34 884.081C3062.8 882.586 3065.58 879.841 3067.11 876.392C3068.64 872.943 3068.81 869.045 3067.6 865.474C3066.38 861.903 3063.86 858.92 3060.54 857.122C3009.62 829.516 2958.31 802.6 2906.66 776.382C2903.12 774.588 2899.27 773.512 2895.32 773.216C2891.36 772.921 2887.39 773.413 2883.63 774.661C2879.87 775.91 2876.39 777.89 2873.4 780.49C2870.41 783.089 2867.96 786.257 2866.2 789.808L2867.64 786.904C2865.73 790.752 2864.67 794.964 2864.54 799.257C2864.4 803.55 2865.18 807.825 2866.84 811.788C2868.49 815.752 2870.98 819.314 2874.13 822.234C2877.28 825.153 2881.02 827.361 2885.1 828.71C2939.71 846.781 2994.15 865.364 3048.42 884.458V884.458Z" stroke="black" data-isHole stroke-width="2"/>
<path d="M3151.11 864.449C3154.98 864.449 3158.11 861.315 3158.11 857.449C3158.11 853.583 3154.98 850.449 3151.11 850.449C3147.24 850.449 3144.11 853.583 3144.11 857.449C3144.11 861.315 3147.24 864.449 3151.11 864.449Z" stroke="black" data-isHole/>
<path d="M3151.11 1014.45C3154.98 1014.45 3158.11 1011.32 3158.11 1007.45C3158.11 1003.58 3154.98 1000.45 3151.11 1000.45C3147.24 1000.45 3144.11 1003.58 3144.11 1007.45C3144.11 1011.32 3147.24 1014.45 3151.11 1014.45Z" stroke="black" data-isHole/>
<path d="M3311.11 956.828C3314.98 956.828 3318.11 953.694 3318.11 949.828C3318.11 945.962 3314.98 942.828 3311.11 942.828C3307.24 942.828 3304.11 945.962 3304.11 949.828C3304.11 953.694 3307.24 956.828 3311.11 956.828Z" stroke="black" data-isHole/>
<path d="M3311.11 1076.83C3314.98 1076.83 3318.11 1073.69 3318.11 1069.83C3318.11 1065.96 3314.98 1062.83 3311.11 1062.83C3307.24 1062.83 3304.11 1065.96 3304.11 1069.83C3304.11 1073.69 3307.24 1076.83 3311.11 1076.83Z" stroke="black" data-isHole/>
<path d="M21.1094 430.977C24.9754 430.977 28.1094 427.843 28.1094 423.977C28.1094 420.111 24.9754 416.977 21.1094 416.977C17.2434 416.977 14.1094 420.111 14.1094 423.977C14.1094 427.843 17.2434 430.977 21.1094 430.977Z" stroke="black" data-isHole/>
<path d="M81.1094 430.977C84.9754 430.977 88.1094 427.843 88.1094 423.977C88.1094 420.111 84.9754 416.977 81.1094 416.977C77.2434 416.977 74.1094 420.111 74.1094 423.977C74.1094 427.843 77.2434 430.977 81.1094 430.977Z" stroke="black" data-isHole/>
<path d="M21.1094 33.2578C24.9754 33.2578 28.1094 30.1238 28.1094 26.2578C28.1094 22.3918 24.9754 19.2578 21.1094 19.2578C17.2434 19.2578 14.1094 22.3918 14.1094 26.2578C14.1094 30.1238 17.2434 33.2578 21.1094 33.2578Z" stroke="black" data-isHole/>
<path d="M171.109 33.2578C174.975 33.2578 178.109 30.1238 178.109 26.2578C178.109 22.3918 174.975 19.2578 171.109 19.2578C167.243 19.2578 164.109 22.3918 164.109 26.2578C164.109 30.1238 167.243 33.2578 171.109 33.2578Z" stroke="black" data-isHole/>
</svg>
