<svg width="3664" height="1160" viewBox="0 0 3664 1160" fill="none" xmlns="http://www.w3.org/2000/svg">
<path d="M1.10938 466.625C1145.56 466.625 2281.22 666.441 3356.95 1057.07C3361.37 1058.68 3365.09 1061.79 3367.44 1065.87L3415.34 1148.82C3417.09 1151.86 3419.62 1154.39 3422.66 1156.14C3425.7 1157.9 3429.15 1158.82 3432.66 1158.82H3570.26C3573.59 1158.82 3576.87 1157.99 3579.8 1156.4C3582.72 1154.82 3585.21 1152.52 3587.03 1149.73L3661.96 1034.58C2560.48 358.736 1293.4 1 1.10938 1V466.625V1" stroke="#FF0000" data-isMain stroke-width="2"/>
<path d="M188.336 108.107L136.024 351.685C135.094 356.019 135.135 360.504 136.145 364.82C137.155 369.135 139.109 373.175 141.866 376.646C144.624 380.116 148.116 382.932 152.091 384.892C156.067 386.852 160.428 387.906 164.86 387.98C293.022 390.097 421.13 394.702 549.114 401.788C556.869 402.218 564.489 399.622 570.37 394.548C576.251 389.474 579.934 382.316 580.646 374.581L602.46 137.491C602.823 133.546 602.4 129.567 601.218 125.786C600.035 122.005 598.116 118.497 595.569 115.462C593.023 112.427 589.901 109.927 586.383 108.105C582.866 106.283 579.022 105.175 575.074 104.847C456.448 94.9737 337.588 88.1625 218.61 84.4211C211.59 84.2003 204.714 86.4502 199.181 90.7785C193.649 95.1069 189.811 101.239 188.336 108.107V108.107Z" stroke="black" data-isHole stroke-width="2"/>
<path d="M1228.75 221.454L1190.06 429.944C1188.67 437.427 1184.49 444.102 1178.36 448.618C1172.24 453.134 1164.62 455.152 1157.06 454.264C994.633 435.191 831.756 420.141 668.581 409.128C664.589 408.858 660.692 407.793 657.117 405.995C653.543 404.196 650.365 401.702 647.769 398.657C645.174 395.612 643.214 392.076 642.005 388.262C640.795 384.448 640.361 380.432 640.728 376.448L662.207 142.989C662.57 139.044 663.711 135.211 665.563 131.71C667.416 128.208 669.944 125.106 673.001 122.587C676.058 120.067 679.584 118.18 683.375 117.03C687.167 115.88 691.148 115.492 695.089 115.889C865.698 133.086 1035.61 156.618 1204.47 186.436C1208.37 187.125 1212.1 188.581 1215.43 190.717C1218.77 192.854 1221.65 195.63 1223.91 198.885C1226.16 202.141 1227.75 205.811 1228.59 209.684C1229.42 213.558 1229.47 217.559 1228.75 221.454V221.454Z" stroke="black" data-isHole stroke-width="2"/>
<path d="M1799.24 523.478L1844.71 362.441C1845.79 358.628 1846.1 354.64 1845.63 350.706C1845.16 346.773 1843.91 342.973 1841.96 339.525C1840.01 336.076 1837.4 333.046 1834.27 330.613C1831.14 328.179 1827.57 326.39 1823.74 325.347C1658.33 280.183 1491.29 241.182 1322.97 208.427C1319.08 207.67 1315.08 207.692 1311.2 208.49C1307.32 209.287 1303.64 210.845 1300.36 213.073C1297.09 215.302 1294.28 218.159 1292.12 221.476C1289.95 224.793 1288.47 228.506 1287.74 232.402L1250.38 433.738C1249.63 437.746 1249.72 441.865 1250.62 445.841C1251.52 449.818 1253.22 453.57 1255.62 456.866C1258.02 460.163 1261.06 462.935 1264.57 465.015C1268.08 467.095 1271.97 468.438 1276.02 468.962C1439.63 490.183 1602.68 515.485 1765.03 544.845C1772.36 546.172 1779.93 544.719 1786.26 540.769C1792.58 536.818 1797.21 530.654 1799.24 523.478V523.478Z" stroke="black" data-isHole stroke-width="2"/>
<path d="M2445.17 559.265L2407.92 656.177C2405.3 662.997 2400.28 668.626 2393.8 672.007C2387.32 675.388 2379.83 676.288 2372.74 674.54C2210.46 634.55 2047.2 598.671 1883.1 566.937C1879.03 566.148 1875.16 564.522 1871.74 562.161C1868.33 559.8 1865.44 556.757 1863.26 553.222C1861.08 549.687 1859.66 545.737 1859.09 541.624C1858.51 537.512 1858.8 533.325 1859.93 529.329L1902.46 378.745C1903.53 374.933 1905.35 371.372 1907.81 368.267C1910.28 365.162 1913.33 362.575 1916.79 360.655C1920.26 358.736 1924.07 357.522 1928.01 357.083C1931.94 356.645 1935.93 356.989 1939.73 358.099C2104.34 406.137 2267.1 460.276 2427.69 520.405C2431.4 521.795 2434.8 523.905 2437.69 526.614C2440.58 529.324 2442.9 532.58 2444.53 536.192C2446.15 539.805 2447.05 543.705 2447.16 547.665C2447.27 551.625 2446.59 555.567 2445.17 559.265Z" stroke="black" data-isHole stroke-width="2"/>
<path d="M3015.61 829.429L3025.07 810.277C3026.82 806.725 3027.86 802.861 3028.11 798.908C3028.36 794.954 3027.83 790.99 3026.54 787.244C3025.25 783.497 3023.24 780.043 3020.61 777.08C3017.98 774.117 3014.79 771.703 3011.22 769.98C2856.82 695.391 2699.7 626.567 2540.19 563.65C2536.5 562.196 2532.56 561.488 2528.6 561.564C2524.64 561.64 2520.73 562.5 2517.11 564.093C2513.48 565.687 2510.21 567.983 2507.47 570.849C2504.74 573.716 2502.6 577.097 2501.18 580.795L2469.08 664.279C2467.57 668.223 2466.9 672.444 2467.13 676.664C2467.36 680.883 2468.47 685.006 2470.41 688.763C2472.34 692.521 2475.04 695.829 2478.34 698.468C2481.64 701.108 2485.46 703.021 2489.55 704.082C2654.11 746.763 2817.55 793.672 2979.7 844.759C2986.53 846.912 2993.9 846.549 3000.49 843.738C3007.08 840.927 3012.44 835.85 3015.61 829.429V829.429Z" stroke="black" data-isHole stroke-width="2"/>
<path d="M3311.35 924.104C3314.66 925.908 3317.17 928.894 3318.38 932.466C3319.59 936.038 3319.41 939.935 3317.88 943.38C3316.34 946.825 3313.57 949.565 3310.1 951.056C3306.64 952.546 3302.74 952.676 3299.18 951.421C3231.32 927.476 3163.2 904.271 3094.83 881.81C3090.75 880.468 3087 878.267 3083.85 875.352C3080.69 872.438 3078.19 868.879 3076.53 864.917C3074.87 860.955 3074.08 856.682 3074.21 852.388C3074.34 848.093 3075.39 843.877 3077.3 840.024L3078.87 836.849C3080.62 833.297 3083.06 830.126 3086.05 827.522C3089.03 824.919 3092.5 822.932 3096.26 821.677C3100.02 820.422 3103.99 819.925 3107.94 820.212C3111.89 820.499 3115.75 821.565 3119.28 823.351C3183.83 855.93 3247.86 889.519 3311.35 924.104Z" stroke="black" data-isHole stroke-width="2"/>
<path d="M3401.11 931.184C3404.98 931.184 3408.11 928.05 3408.11 924.184C3408.11 920.318 3404.98 917.184 3401.11 917.184C3397.24 917.184 3394.11 920.318 3394.11 924.184C3394.11 928.05 3397.24 931.184 3401.11 931.184Z" stroke="black" data-isHole/>
<path d="M3401.11 1081.18C3404.98 1081.18 3408.11 1078.05 3408.11 1074.18C3408.11 1070.32 3404.98 1067.18 3401.11 1067.18C3397.24 1067.18 3394.11 1070.32 3394.11 1074.18C3394.11 1078.05 3397.24 1081.18 3401.11 1081.18Z" stroke="black" data-isHole/>
<path d="M3561.11 1023.56C3564.98 1023.56 3568.11 1020.43 3568.11 1016.56C3568.11 1012.7 3564.98 1009.56 3561.11 1009.56C3557.24 1009.56 3554.11 1012.7 3554.11 1016.56C3554.11 1020.43 3557.24 1023.56 3561.11 1023.56Z" stroke="black" data-isHole/>
<path d="M3561.11 1143.56C3564.98 1143.56 3568.11 1140.43 3568.11 1136.56C3568.11 1132.7 3564.98 1129.56 3561.11 1129.56C3557.24 1129.56 3554.11 1132.7 3554.11 1136.56C3554.11 1140.43 3557.24 1143.56 3561.11 1143.56Z" stroke="black" data-isHole/>
<path d="M21.1094 453.625C24.9754 453.625 28.1094 450.491 28.1094 446.625C28.1094 442.759 24.9754 439.625 21.1094 439.625C17.2434 439.625 14.1094 442.759 14.1094 446.625C14.1094 450.491 17.2434 453.625 21.1094 453.625Z" stroke="black" data-isHole/>
<path d="M81.1094 453.625C84.9754 453.625 88.1094 450.491 88.1094 446.625C88.1094 442.759 84.9754 439.625 81.1094 439.625C77.2434 439.625 74.1094 442.759 74.1094 446.625C74.1094 450.491 77.2434 453.625 81.1094 453.625Z" stroke="black" data-isHole/>
<path d="M21.1094 33C24.9754 33 28.1094 29.866 28.1094 26C28.1094 22.134 24.9754 19 21.1094 19C17.2434 19 14.1094 22.134 14.1094 26C14.1094 29.866 17.2434 33 21.1094 33Z" stroke="black" data-isHole/>
<path d="M171.109 33C174.975 33 178.109 29.866 178.109 26C178.109 22.134 174.975 19 171.109 19C167.243 19 164.109 22.134 164.109 26C164.109 29.866 167.243 33 171.109 33Z" stroke="black" data-isHole/>
</svg>
