<svg width="3663" height="1160" viewBox="0 0 3663 1160" fill="none" xmlns="http://www.w3.org/2000/svg">
<path data-isHole d="M602.349 137.489C602.712 133.544 602.29 129.566 601.107 125.785C599.924 122.004 598.005 118.495 595.459 115.46C592.912 112.425 589.79 109.924 586.273 108.102C582.755 106.28 578.911 105.173 574.963 104.844C456.337 94.9709 337.477 88.1603 218.5 84.4189C211.479 84.1981 204.603 86.4479 199.071 90.7763C193.538 95.1046 189.7 101.237 188.225 108.105L135.913 351.683C134.983 356.016 135.024 360.503 136.034 364.819C137.044 369.134 138.998 373.173 141.755 376.644C144.513 380.114 148.005 382.931 151.981 384.89C155.956 386.85 160.317 387.905 164.749 387.978C292.911 390.095 421.019 394.699 549.003 401.786C556.758 402.215 564.378 399.62 570.259 394.546C576.14 389.472 579.824 382.315 580.535 374.58L602.349 137.489Z" stroke="black"/>
<path data-isHole d="M3078.76 836.844L3077.19 840.021C3075.28 843.873 3074.23 848.089 3074.1 852.384C3073.97 856.679 3074.76 860.952 3076.42 864.914C3078.09 868.876 3080.58 872.434 3083.74 875.349C3086.89 878.263 3090.64 880.465 3094.72 881.806C3163.09 904.268 3231.21 927.473 3299.07 951.418C3302.63 952.673 3306.53 952.542 3309.99 951.052C3313.46 949.561 3316.23 946.82 3317.77 943.375C3319.3 939.93 3319.48 936.034 3318.27 932.462C3317.06 928.89 3314.55 925.904 3311.24 924.1C3247.75 889.514 3183.72 855.926 3119.17 823.347C3115.64 821.562 3111.78 820.495 3107.83 820.207C3103.88 819.92 3099.91 820.418 3096.15 821.673C3092.39 822.928 3088.92 824.915 3085.94 827.519C3082.95 830.123 3080.51 833.292 3078.76 836.844Z" stroke="black"/>
<path data-isHole d="M1228.64 221.45C1229.36 217.555 1229.31 213.555 1228.48 209.681C1227.64 205.808 1226.05 202.138 1223.8 198.882C1221.54 195.626 1218.66 192.85 1215.32 190.713C1211.99 188.577 1208.26 187.122 1204.36 186.433C1035.5 156.614 865.588 133.083 694.979 115.886C691.037 115.489 687.056 115.876 683.265 117.026C679.474 118.175 675.948 120.064 672.891 122.584C669.833 125.104 667.306 128.204 665.453 131.706C663.6 135.207 662.46 139.041 662.097 142.986L640.617 376.444C640.251 380.429 640.685 384.446 641.894 388.26C643.104 392.074 645.064 395.608 647.659 398.653C650.254 401.698 653.433 404.193 657.007 405.992C660.581 407.79 664.479 408.855 668.471 409.125C831.646 420.138 994.523 435.188 1156.95 454.261C1164.51 455.149 1172.13 453.131 1178.25 448.615C1184.38 444.099 1188.56 437.423 1189.95 429.94L1228.64 221.45Z" stroke="black"/>
<path data-isHole d="M1844.6 362.437C1845.68 358.624 1845.99 354.636 1845.52 350.703C1845.05 346.769 1843.8 342.969 1841.85 339.52C1839.9 336.071 1837.29 333.043 1834.16 330.609C1831.03 328.176 1827.46 326.386 1823.63 325.342C1658.22 280.179 1491.18 241.179 1322.86 208.424C1318.97 207.667 1314.97 207.688 1311.09 208.486C1307.21 209.283 1303.53 210.841 1300.25 213.07C1296.98 215.299 1294.17 218.155 1292.01 221.472C1289.84 224.789 1288.36 228.502 1287.63 232.398L1250.27 433.734C1249.52 437.743 1249.61 441.862 1250.51 445.838C1251.41 449.815 1253.11 453.566 1255.51 456.862C1257.91 460.159 1260.95 462.932 1264.46 465.012C1267.97 467.092 1271.86 468.435 1275.91 468.959C1439.52 490.18 1602.57 515.482 1764.92 544.842C1772.25 546.169 1779.82 544.715 1786.15 540.765C1792.47 536.814 1797.1 530.65 1799.13 523.474L1844.6 362.437Z" stroke="black"/>
<path data-isHole d="M2445.06 559.264C2446.48 555.566 2447.16 551.623 2447.05 547.663C2446.94 543.703 2446.04 539.804 2444.42 536.191C2442.79 532.578 2440.47 529.323 2437.58 526.613C2434.69 523.904 2431.29 521.794 2427.58 520.404C2266.99 460.275 2104.23 406.136 1939.62 358.098C1935.82 356.988 1931.83 356.642 1927.9 357.081C1923.96 357.519 1920.15 358.733 1916.68 360.653C1913.22 362.572 1910.16 365.159 1907.7 368.264C1905.24 371.369 1903.42 374.931 1902.35 378.743L1859.82 529.328C1858.69 533.324 1858.4 537.511 1858.98 541.623C1859.55 545.736 1860.97 549.684 1863.15 553.219C1865.33 556.754 1868.22 559.799 1871.63 562.16C1875.05 564.521 1878.92 566.147 1882.99 566.935C2047.09 598.669 2210.35 634.549 2372.63 674.539C2379.72 676.287 2387.21 675.386 2393.69 672.005C2400.17 668.624 2405.19 662.995 2407.81 656.174L2445.06 559.264Z" stroke="black"/>
<path data-isHole d="M3024.96 810.276C3026.71 806.723 3027.75 802.859 3028 798.906C3028.25 794.952 3027.72 790.988 3026.43 787.241C3025.14 783.494 3023.13 780.04 3020.5 777.077C3017.87 774.114 3014.68 771.701 3011.11 769.978C2856.71 695.389 2699.59 626.565 2540.08 563.648C2536.39 562.195 2532.45 561.486 2528.49 561.562C2524.53 561.638 2520.62 562.497 2517 564.091C2513.37 565.685 2510.1 567.981 2507.36 570.848C2504.63 573.714 2502.49 577.094 2501.07 580.792L2468.97 664.277C2467.46 668.221 2466.79 672.441 2467.02 676.661C2467.25 680.88 2468.37 685.004 2470.3 688.762C2472.23 692.52 2474.94 695.827 2478.23 698.467C2481.53 701.106 2485.35 703.019 2489.44 704.08C2654 746.761 2817.44 793.669 2979.59 844.757C2986.42 846.909 2993.79 846.547 3000.38 843.735C3006.97 840.924 3012.33 835.849 3015.5 829.428L3024.96 810.276Z" stroke="black"/>
<path data-isMain d="M1 1C1293.29 1 2560.37 358.736 3661.85 1034.58L3586.92 1149.73C3585.1 1152.52 3582.62 1154.82 3579.69 1156.4C3576.76 1157.99 3573.48 1158.82 3570.15 1158.82H3432.55C3429.04 1158.82 3425.59 1157.9 3422.55 1156.14C3419.51 1154.39 3416.98 1151.86 3415.23 1148.82L3367.33 1065.87C3364.98 1061.79 3361.26 1058.67 3356.84 1057.07C2281.12 666.439 1145.45 466.625 1 466.625" stroke="#FF0000"/>
<path data-isHole d="M171 33C174.866 33 178 29.866 178 26C178 22.134 174.866 19 171 19C167.134 19 164 22.134 164 26C164 29.866 167.134 33 171 33Z" stroke="black"/>
<path data-isHole d="M21 33C24.866 33 28 29.866 28 26C28 22.134 24.866 19 21 19C17.134 19 14 22.134 14 26C14 29.866 17.134 33 21 33Z" stroke="black"/>
<path data-isHole d="M81 453.625C84.866 453.625 88 450.491 88 446.625C88 442.759 84.866 439.625 81 439.625C77.134 439.625 74 442.759 74 446.625C74 450.491 77.134 453.625 81 453.625Z" stroke="black"/>
<path data-isHole d="M21 453.625C24.866 453.625 28 450.491 28 446.625C28 442.759 24.866 439.625 21 439.625C17.134 439.625 14 442.759 14 446.625C14 450.491 17.134 453.625 21 453.625Z" stroke="black"/>
<path data-isHole d="M3561 1143.56C3564.87 1143.56 3568 1140.42 3568 1136.56C3568 1132.69 3564.87 1129.56 3561 1129.56C3557.13 1129.56 3554 1132.69 3554 1136.56C3554 1140.42 3557.13 1143.56 3561 1143.56Z" stroke="black"/>
<path data-isHole d="M3561 1023.56C3564.87 1023.56 3568 1020.42 3568 1016.56C3568 1012.69 3564.87 1009.56 3561 1009.56C3557.13 1009.56 3554 1012.69 3554 1016.56C3554 1020.42 3557.13 1023.56 3561 1023.56Z" stroke="black"/>
<path data-isHole d="M3401 1081.18C3404.87 1081.18 3408 1078.05 3408 1074.18C3408 1070.32 3404.87 1067.18 3401 1067.18C3397.13 1067.18 3394 1070.32 3394 1074.18C3394 1078.05 3397.13 1081.18 3401 1081.18Z" stroke="black"/>
<path data-isHole d="M3401 931.181C3404.87 931.181 3408 928.047 3408 924.181C3408 920.315 3404.87 917.181 3401 917.181C3397.13 917.181 3394 920.315 3394 924.181C3394 928.047 3397.13 931.181 3401 931.181Z" stroke="black"/>
</svg>
